<svg xmlns="http://www.w3.org/2000/svg" width="81" height="24" viewBox="0 0 81 24">
  <g id="Group_133891" data-name="Group 133891" transform="translate(-694 -1314)">
    <path id="Polygon_4" data-name="Polygon 4" d="M5.5,0,11,7H0Z" transform="translate(701 1314) rotate(90)" fill="#3cafff"/>
    <path id="Polygon_13" data-name="Polygon 13" d="M5.5,0,11,7H0Z" transform="translate(712 1314) rotate(90)" fill="#3cafff"/>
    <path id="Polygon_18" data-name="Polygon 18" d="M5.5,0,11,8H0Z" transform="translate(726 1314) rotate(90)" fill="#3cafff"/>
    <path id="Polygon_5" data-name="Polygon 5" d="M5.5,0,11,7H0Z" transform="translate(701 1327) rotate(90)" fill="#3cafff"/>
    <path id="Polygon_12" data-name="Polygon 12" d="M5.5,0,11,7H0Z" transform="translate(712 1327) rotate(90)" fill="#3cafff"/>
    <path id="Polygon_17" data-name="Polygon 17" d="M5.5,0,11,8H0Z" transform="translate(726 1327) rotate(90)" fill="#3cafff"/>
    <path id="Polygon_4-2" data-name="Polygon 4" d="M5.5,0,11,7H0Z" transform="translate(737 1314) rotate(90)" fill="#3cafff"/>
    <path id="Polygon_13-2" data-name="Polygon 13" d="M5.5,0,11,7H0Z" transform="translate(750 1314) rotate(90)" fill="#3cafff"/>
    <path id="Polygon_18-2" data-name="Polygon 18" d="M5.5,0,11,8H0Z" transform="translate(762 1314) rotate(90)" fill="#3cafff"/>
    <path id="Polygon_26" data-name="Polygon 26" d="M5.5,0,11,8H0Z" transform="translate(775 1314) rotate(90)" fill="#3cafff"/>
    <path id="Polygon_5-2" data-name="Polygon 5" d="M5.5,0,11,7H0Z" transform="translate(737 1327) rotate(90)" fill="#3cafff"/>
    <path id="Polygon_12-2" data-name="Polygon 12" d="M5.5,0,11,7H0Z" transform="translate(750 1327) rotate(90)" fill="#3cafff"/>
    <path id="Polygon_17-2" data-name="Polygon 17" d="M5.5,0,11,8H0Z" transform="translate(762 1327) rotate(90)" fill="#3cafff"/>
    <path id="Polygon_27" data-name="Polygon 27" d="M5.5,0,11,8H0Z" transform="translate(775 1327) rotate(90)" fill="#3cafff"/>
  </g>
</svg>
