<svg xmlns="http://www.w3.org/2000/svg" xmlns:xlink="http://www.w3.org/1999/xlink" width="1328.001" height="651.531" viewBox="0 0 1328.001 651.531">
  <defs>
    <clipPath id="clip-path">
      <rect id="Rectangle_45387" data-name="Rectangle 45387" width="1328.001" height="651.531" transform="translate(10125.965 -9051.7) rotate(180)" fill="none" stroke="#707070" stroke-width="1"/>
    </clipPath>
    <linearGradient id="linear-gradient" x1="0.493" y1="0.609" x2="0.5" gradientUnits="objectBoundingBox">
      <stop offset="0" stop-color="#aedafc"/>
      <stop offset="1" stop-color="#78bff7" stop-opacity="0"/>
    </linearGradient>
    <linearGradient id="linear-gradient-2" x1="0.519" y1="0.709" x2="0.5" gradientUnits="objectBoundingBox">
      <stop offset="0" stop-color="#bbdffc"/>
      <stop offset="1" stop-color="#bbdffc" stop-opacity="0"/>
    </linearGradient>
    <linearGradient id="linear-gradient-3" x1="0.539" y1="0.487" x2="0.551" y2="0.199" gradientUnits="objectBoundingBox">
      <stop offset="0" stop-color="#c5e5fe"/>
      <stop offset="1" stop-color="#c5e5fe" stop-opacity="0"/>
    </linearGradient>
    <linearGradient id="linear-gradient-4" x1="0.5" y1="1" x2="0.5" gradientUnits="objectBoundingBox">
      <stop offset="0" stop-color="#95c6eb"/>
      <stop offset="1" stop-color="#95c6eb" stop-opacity="0"/>
    </linearGradient>
  </defs>
  <g id="Mask_Group_141256" data-name="Mask Group 141256" transform="translate(-8797.964 9703.231)" opacity="0.404" clip-path="url(#clip-path)">
    <path id="Path_194124" data-name="Path 194124" d="M1686.312,624.764c-110.453,70.677-109.677,138.57-222.186,143.277S1212.993,684.23,778.931,624.934,219.85,635.219,48.718,535.207L.463.748,1675.551,115.956l43.726,484.292A273.778,273.778,0,0,1,1686.312,624.764Z" transform="matrix(-0.966, 0.259, -0.259, -0.966, 10402.806, -8996.464)" opacity="0.307" fill="url(#linear-gradient)"/>
    <path id="Path_194125" data-name="Path 194125" d="M1915.364,477.209c-126.69,45.342-219.067,138.591-690.078,26.752s-717.018,36.272-802.178,30.414C17.584,506.485,242.83,430.6,70.029,350.292l-38.383-2.64-1.624-17.99L16.913,184.48.333.845,1922.975,133.079,1939.582,317l13.056,144.6A348.953,348.953,0,0,1,1915.364,477.209Z" transform="matrix(-0.966, 0.259, -0.259, -0.966, 10580.117, -9224.054)" opacity="0.145" fill="url(#linear-gradient-2)" style="mix-blend-mode: multiply;isolation: isolate"/>
    <path id="Path_194126" data-name="Path 194126" d="M157.3,1728.061s263.3,7.02,866.325-96.766S2141.788,1896.7,2141.788,1896.7L2057.25,142.371,74.172,5.981S158.911,1729.281,157.3,1728.061Z" transform="matrix(-0.966, 0.259, -0.259, -0.966, 10934.262, -8145.523)" opacity="0.47" fill="url(#linear-gradient-3)" style="mix-blend-mode: multiply;isolation: isolate"/>
    <path id="Path_194127" data-name="Path 194127" d="M573.514,1719.5c-587.138,104.878-372,63.6-372,63.6,1.571,1.216-27.866-292.437-27.866-292.437L39.378,3.551,1971.341,136.426l134.268,1487.111,7.822,86.634,21.494,238.06S1979.4,1708.647,1576.141,1709.8,1116.1,1536.7,573.514,1719.5Z" transform="matrix(-0.966, 0.259, -0.259, -0.966, 11143.763, -8083.855)" opacity="0.097" fill="url(#linear-gradient-4)"/>
  </g>
</svg>
