<svg id="Group_152839" data-name="Group 152839" xmlns="http://www.w3.org/2000/svg" width="40.122" height="129.017" viewBox="0 0 40.122 129.017">
  <g id="Group_152551" data-name="Group 152551" transform="translate(0 129.017) rotate(-90)">
    <rect id="Rectangle_45220" data-name="Rectangle 45220" width="93.176" height="27.746" transform="translate(129.017 27.746) rotate(180)" fill="#e8e8e8"/>
    <g id="Group_152556" data-name="Group 152556" transform="translate(0 15.37)">
      <rect id="Rectangle_45221" data-name="Rectangle 45221" width="4.715" height="4.715" transform="translate(100.189 20.038)" fill="#7f4fc7"/>
      <rect id="Rectangle_45222" data-name="Rectangle 45222" width="4.715" height="4.715" transform="translate(90.17 20.038)" fill="#7f4fc7"/>
      <rect id="Rectangle_45223" data-name="Rectangle 45223" width="4.715" height="4.715" transform="translate(80.151 20.038)" fill="#7f4fc7"/>
      <rect id="Rectangle_45224" data-name="Rectangle 45224" width="4.715" height="4.715" transform="translate(70.132 20.038)" fill="#7f4fc7"/>
      <rect id="Rectangle_45225" data-name="Rectangle 45225" width="4.715" height="4.715" transform="translate(60.113 20.038)" fill="#7f4fc7"/>
      <rect id="Rectangle_45226" data-name="Rectangle 45226" width="4.715" height="4.715" transform="translate(50.095 20.038)" fill="#7f4fc7"/>
      <rect id="Rectangle_45227" data-name="Rectangle 45227" width="4.715" height="4.715" transform="translate(40.076 20.038)" fill="#7f4fc7"/>
      <rect id="Rectangle_45228" data-name="Rectangle 45228" width="4.715" height="4.715" transform="translate(30.057 20.038)" fill="#7f4fc7"/>
      <rect id="Rectangle_45229" data-name="Rectangle 45229" width="4.715" height="4.715" transform="translate(20.038 20.038)" fill="#7f4fc7"/>
      <rect id="Rectangle_45230" data-name="Rectangle 45230" width="4.715" height="4.715" transform="translate(10.019 20.038)" fill="#7f4fc7"/>
      <rect id="Rectangle_45231" data-name="Rectangle 45231" width="4.715" height="4.715" transform="translate(0 20.038)" fill="#7f4fc7"/>
      <rect id="Rectangle_45232" data-name="Rectangle 45232" width="4.715" height="4.715" transform="translate(100.189 10.019)" fill="#7f4fc7"/>
      <rect id="Rectangle_45233" data-name="Rectangle 45233" width="4.715" height="4.715" transform="translate(90.17 10.019)" fill="#7f4fc7"/>
      <rect id="Rectangle_45234" data-name="Rectangle 45234" width="4.715" height="4.715" transform="translate(80.151 10.019)" fill="#7f4fc7"/>
      <rect id="Rectangle_45235" data-name="Rectangle 45235" width="4.715" height="4.715" transform="translate(70.132 10.019)" fill="#7f4fc7"/>
      <rect id="Rectangle_45236" data-name="Rectangle 45236" width="4.715" height="4.715" transform="translate(60.113 10.019)" fill="#7f4fc7"/>
      <rect id="Rectangle_45237" data-name="Rectangle 45237" width="4.715" height="4.715" transform="translate(50.095 10.019)" fill="#7f4fc7"/>
      <rect id="Rectangle_45238" data-name="Rectangle 45238" width="4.715" height="4.715" transform="translate(40.076 10.019)" fill="#7f4fc7"/>
      <rect id="Rectangle_45239" data-name="Rectangle 45239" width="4.715" height="4.715" transform="translate(30.057 10.019)" fill="#7f4fc7"/>
      <rect id="Rectangle_45240" data-name="Rectangle 45240" width="4.715" height="4.715" transform="translate(20.038 10.019)" fill="#7f4fc7"/>
      <rect id="Rectangle_45241" data-name="Rectangle 45241" width="4.715" height="4.715" transform="translate(10.019 10.019)" fill="#7f4fc7"/>
      <rect id="Rectangle_45242" data-name="Rectangle 45242" width="4.715" height="4.715" transform="translate(0 10.019)" fill="#7f4fc7"/>
      <rect id="Rectangle_45243" data-name="Rectangle 45243" width="4.715" height="4.715" transform="translate(100.189)" fill="#7f4fc7"/>
      <rect id="Rectangle_45244" data-name="Rectangle 45244" width="4.715" height="4.715" transform="translate(90.17)" fill="#7f4fc7"/>
      <rect id="Rectangle_45245" data-name="Rectangle 45245" width="4.715" height="4.715" transform="translate(80.151)" fill="#7f4fc7"/>
      <rect id="Rectangle_45246" data-name="Rectangle 45246" width="4.715" height="4.715" transform="translate(70.132)" fill="#7f4fc7"/>
      <rect id="Rectangle_45247" data-name="Rectangle 45247" width="4.715" height="4.715" transform="translate(60.113)" fill="#7f4fc7"/>
      <rect id="Rectangle_45248" data-name="Rectangle 45248" width="4.715" height="4.715" transform="translate(50.095)" fill="#7f4fc7"/>
      <rect id="Rectangle_45249" data-name="Rectangle 45249" width="4.715" height="4.715" transform="translate(40.076)" fill="#7f4fc7"/>
      <rect id="Rectangle_45250" data-name="Rectangle 45250" width="4.715" height="4.715" transform="translate(30.057)" fill="#7f4fc7"/>
      <rect id="Rectangle_45251" data-name="Rectangle 45251" width="4.715" height="4.715" transform="translate(20.038)" fill="#7f4fc7"/>
      <rect id="Rectangle_45252" data-name="Rectangle 45252" width="4.715" height="4.715" transform="translate(10.019)" fill="#7f4fc7"/>
      <rect id="Rectangle_45253" data-name="Rectangle 45253" width="4.715" height="4.715" fill="#7f4fc7"/>
    </g>
  </g>
</svg>
