<svg xmlns="http://www.w3.org/2000/svg" width="43.115" height="35.646" viewBox="0 0 43.115 35.646">
  <g id="gaJNnc" transform="translate(-3244.58 449.515)">
    <g id="Group_145952" data-name="Group 145952" transform="translate(3244.58 -449.515)">
      <path id="Path_189502" data-name="Path 189502" d="M3266.146-449.514h19.247a2.3,2.3,0,0,1,2.289,2.3q0,15.463.014,30.927a2.45,2.45,0,0,1-2.417,2.423q-19.19-.031-38.38-.013a2.291,2.291,0,0,1-2.318-2.324q0-15.478,0-30.955a2.291,2.291,0,0,1,2.346-2.354Zm20.2,8.017h-40.434v.339q0,12.269,0,24.538c0,.086,0,.172,0,.258a1.158,1.158,0,0,0,.382.891,1.382,1.382,0,0,0,.944.255q18.859,0,37.717,0c.076,0,.153,0,.229,0a1.185,1.185,0,0,0,.9-.373,1.367,1.367,0,0,0,.264-.94q0-12.326,0-24.653Zm-.033-1.386a.4.4,0,0,0,.029-.095c0-1.355.008-2.711,0-4.066a1.093,1.093,0,0,0-.3-.809,1.283,1.283,0,0,0-.974-.326l-37.865,0a1.119,1.119,0,0,0-1.285,1.277q0,1.861,0,3.723c0,.1.01.2.015.3Z" transform="translate(-3244.58 449.515)" fill="#12263f"/>
      <path id="Path_189503" data-name="Path 189503" d="M3324.8-256.041q4.153,0,8.306,0c.6,0,.845.253.845.859q0,3.737,0,7.474c0,.653-.245.9-.9.9l-8.506,0-8.134,0c-.554,0-.788-.228-.788-.774q0-3.808,0-7.617c0-.629.211-.84.841-.84h8.334Zm7.78,1.386H3317.02v6.462c.1.005.188.013.272.013q7.488,0,14.975.007c.249,0,.323-.06.321-.318-.011-1.947-.006-3.893-.006-5.84Z" transform="translate(-3311.558 267.124)" fill="#12263f"/>
      <path id="Path_189504" data-name="Path 189504" d="M3681.547-256.03h6.358c.63,0,.845.213.845.835q0,3.823,0,7.645a.66.66,0,0,1-.755.752q-6.444,0-12.888,0c-.551,0-.776-.232-.776-.788q0-3.823,0-7.645c0-.566.222-.792.8-.793q3.208-.006,6.415,0Zm5.818,1.393H3675.7v6.448h11.665Z" transform="translate(-3649.717 267.111)" fill="#12263f"/>
      <path id="Path_189505" data-name="Path 189505" d="M3514.328-65.836H3520c.68,0,.889.211.889.883q0,3.766,0,7.532c0,.574-.244.819-.815.819h-11.544a.705.705,0,0,1-.8-.789q-.007-3.838,0-7.675c0-.522.257-.767.783-.768Q3511.421-65.839,3514.328-65.836Zm-5.21,1.371v6.473h10.38c.008-.091.021-.165.021-.239,0-1.995,0-3.989.007-5.984,0-.239-.105-.257-.293-.257q-4.868.007-9.737.007Z" transform="translate(-3492.655 87.81)" fill="#12263f"/>
      <path id="Path_189506" data-name="Path 189506" d="M3781.163-61.2q0,1.932,0,3.864a.653.653,0,0,1-.719.732q-3.679.007-7.357,0a.662.662,0,0,1-.707-.607,1.94,1.94,0,0,1-.022-.313q0-3.692,0-7.384a2.229,2.229,0,0,1,.007-.229.672.672,0,0,1,.767-.7c1.069-.005,2.137,0,3.206,0h4.036c.547,0,.789.236.789.773Q3781.164-63.134,3781.163-61.2Zm-1.392-3.247a1.032,1.032,0,0,0-.113-.015c-1.9,0-3.8,0-5.7-.008-.256,0-.24.142-.24.312,0,1.956.006,3.912,0,5.869,0,.249.061.323.318.322,1.8-.012,3.608-.006,5.412-.007h.325Z" transform="translate(-3742.13 87.813)" fill="#12263f"/>
      <path id="Path_189507" data-name="Path 189507" d="M3315.623-61.243q0-1.932,0-3.864a.649.649,0,0,1,.738-.737q3.65,0,7.3,0a.672.672,0,0,1,.758.676,2.2,2.2,0,0,1,.01.257q0,3.678,0,7.355c0,.718-.225.944-.935.944h-7.071c-.566,0-.8-.233-.8-.8Q3315.623-59.325,3315.623-61.243Zm1.387,3.235h6.038V-64.45h-6.038Z" transform="translate(-3311.554 87.819)" fill="#12263f"/>
      <path id="Path_189508" data-name="Path 189508" d="M3399.975-396.219a.974.974,0,0,1-1.013.974,1.012,1.012,0,0,1-.972-1,1.02,1.02,0,0,1,1.017-.991A.985.985,0,0,1,3399.975-396.219Z" transform="translate(-3389.203 400.233)" fill="#12263f"/>
      <path id="Path_189509" data-name="Path 189509" d="M3332.487-396.218a.958.958,0,0,1-.967.982.988.988,0,0,1-1-.992,1,1,0,0,1,1-1A.969.969,0,0,1,3332.487-396.218Z" transform="translate(-3325.595 400.223)" fill="#12263f"/>
      <path id="Path_189510" data-name="Path 189510" d="M3467.747-396.247a.966.966,0,0,1-.987.993.989.989,0,0,1-.985-1.01,1,1,0,0,1,1.017-.984A.977.977,0,0,1,3467.747-396.247Z" transform="translate(-3453.105 400.242)" fill="#12263f"/>
    </g>
  </g>
</svg>
