<svg xmlns="http://www.w3.org/2000/svg" width="76.831" height="81.431" viewBox="0 0 76.831 81.431">
  <g id="Group_154283" data-name="Group 154283" transform="translate(-604.952 -11721.344)">
    <ellipse id="Ellipse_4691" data-name="Ellipse 4691" cx="38.416" cy="40.715" rx="38.416" ry="40.715" transform="translate(604.952 11721.344)" fill="#fff"/>
    <path id="Path_67883" data-name="Path 67883" d="M228.764,214.078a5.26,5.26,0,1,1,5.26-5.26A5.266,5.266,0,0,1,228.764,214.078Zm0-9.117a3.856,3.856,0,1,0,3.856,3.856A3.86,3.86,0,0,0,228.764,204.961Z" transform="translate(408.204 11537.829)" fill="#00223d"/>
    <path id="Path_67884" data-name="Path 67884" d="M228.764,248.336a5.26,5.26,0,1,1,5.26-5.26A5.266,5.266,0,0,1,228.764,248.336Zm0-9.117a3.856,3.856,0,1,0,3.856,3.856A3.86,3.86,0,0,0,228.764,239.219Z" transform="translate(408.204 11518.2)" fill="#00223d"/>
    <path id="Path_67885" data-name="Path 67885" d="M228.764,282.594a5.26,5.26,0,1,1,5.26-5.26A5.266,5.266,0,0,1,228.764,282.594Zm0-9.116a3.856,3.856,0,1,0,3.856,3.856A3.86,3.86,0,0,0,228.764,273.478Z" transform="translate(408.204 11498.571)" fill="#00223d"/>
    <path id="Path_67886" data-name="Path 67886" d="M206.244,199.59h-4.608a1.916,1.916,0,1,1,0-3.832h4.608a1.916,1.916,0,1,1,0,3.832Zm-4.608-2.427a.511.511,0,1,0,0,1.023h4.608a.511.511,0,1,0,0-1.023Z" transform="translate(421.832 11542.298)" fill="#00223d"/>
    <path id="Path_67887" data-name="Path 67887" d="M206.244,219.545h-4.608a1.916,1.916,0,0,1,0-3.832h4.608a1.916,1.916,0,0,1,0,3.832Zm-4.608-2.428a.512.512,0,1,0,0,1.023h4.608a.512.512,0,0,0,0-1.023Z" transform="translate(421.832 11530.864)" fill="#00223d"/>
    <path id="Path_67888" data-name="Path 67888" d="M206.244,239.5h-4.608a1.916,1.916,0,0,1,0-3.832h4.608a1.916,1.916,0,0,1,0,3.832Zm-4.608-2.428a.512.512,0,0,0,0,1.024h4.608a.512.512,0,0,0,0-1.024Z" transform="translate(421.832 11519.431)" fill="#00223d"/>
    <path id="Path_67889" data-name="Path 67889" d="M206.244,259.456h-4.608a1.916,1.916,0,0,1,0-3.832h4.608a1.916,1.916,0,0,1,0,3.832Zm-4.608-2.428a.512.512,0,0,0,0,1.024h4.608a.512.512,0,0,0,0-1.024Z" transform="translate(421.832 11507.996)" fill="#00223d"/>
    <path id="Path_67890" data-name="Path 67890" d="M206.244,279.412h-4.608a1.916,1.916,0,0,1,0-3.832h4.608a1.916,1.916,0,0,1,0,3.832Zm-4.608-2.428a.512.512,0,1,0,0,1.023h4.608a.512.512,0,1,0,0-1.023Z" transform="translate(421.832 11496.563)" fill="#00223d"/>
    <path id="Path_67891" data-name="Path 67891" d="M206.244,299.368h-4.608a1.916,1.916,0,1,1,0-3.832h4.608a1.916,1.916,0,1,1,0,3.832Zm-4.608-2.428a.512.512,0,1,0,0,1.023h4.608a.512.512,0,0,0,0-1.023Z" transform="translate(421.832 11485.128)" fill="#00223d"/>
    <path id="Path_67892" data-name="Path 67892" d="M246.965,241.19H210.524a1.64,1.64,0,0,1-1.638-1.639V237.54a.7.7,0,0,1,.7-.7H211.5a.511.511,0,0,0,.511-.54.564.564,0,0,0-.579-.483h-1.839a.7.7,0,0,1-.7-.7v-6.094a.7.7,0,0,1,.7-.7H211.5a.511.511,0,0,0,.511-.54.564.564,0,0,0-.579-.483h-1.839a.7.7,0,0,1-.7-.7V220.5a.7.7,0,0,1,.7-.7H211.5a.511.511,0,0,0,.511-.54.564.564,0,0,0-.579-.483h-1.839a.7.7,0,0,1-.7-.7v-6.094a.7.7,0,0,1,.7-.7H211.5a.511.511,0,0,0,.511-.54.564.564,0,0,0-.579-.484h-1.839a.7.7,0,0,1-.7-.7v-6.094a.7.7,0,0,1,.7-.7H211.5a.511.511,0,0,0,.511-.54.564.564,0,0,0-.579-.483h-1.839a.7.7,0,0,1-.7-.7v-6.094a.7.7,0,0,1,.7-.7H211.5a.511.511,0,0,0,.511-.54.564.564,0,0,0-.579-.483h-1.839a.7.7,0,0,1-.7-.7v-2.012a1.64,1.64,0,0,1,1.638-1.638h36.441a1.64,1.64,0,0,1,1.638,1.638v49.059A1.64,1.64,0,0,1,246.965,241.19Zm-36.675-2.948v1.31a.234.234,0,0,0,.234.234h36.441a.234.234,0,0,0,.234-.234V190.493a.234.234,0,0,0-.234-.234H210.524a.234.234,0,0,0-.234.234v1.31h1.137a1.952,1.952,0,0,1,1.982,1.814,1.9,1.9,0,0,1-.524,1.42,1.924,1.924,0,0,1-1.39.6H210.29v4.69h1.137a1.952,1.952,0,0,1,1.982,1.814,1.9,1.9,0,0,1-.524,1.421,1.924,1.924,0,0,1-1.39.6H210.29v4.689h1.137a1.952,1.952,0,0,1,1.982,1.814,1.9,1.9,0,0,1-.524,1.42,1.922,1.922,0,0,1-1.39.6H210.29v4.69h1.137a1.952,1.952,0,0,1,1.982,1.814,1.9,1.9,0,0,1-.524,1.42,1.922,1.922,0,0,1-1.39.6H210.29v4.69h1.137a1.952,1.952,0,0,1,1.982,1.814,1.9,1.9,0,0,1-.524,1.42,1.922,1.922,0,0,1-1.39.6H210.29v4.69h1.137a1.951,1.951,0,0,1,1.982,1.814,1.9,1.9,0,0,1-.524,1.421,1.923,1.923,0,0,1-1.39.6Z" transform="translate(416.58 11546.253)" fill="#00223d"/>
    <path id="Path_67893" data-name="Path 67893" d="M234.88,231.822a.7.7,0,0,1-.7-.7v-5.512a.7.7,0,1,1,1.4,0v5.512A.7.7,0,0,1,234.88,231.822Z" transform="translate(402.088 11525.598)" fill="#00223d"/>
    <path id="Path_67894" data-name="Path 67894" d="M234.88,266.08a.7.7,0,0,1-.7-.7v-5.513a.7.7,0,1,1,1.4,0v5.513A.7.7,0,0,1,234.88,266.08Z" transform="translate(402.088 11505.969)" fill="#00223d"/>
    <path id="Path_67895" data-name="Path 67895" d="M255.319,208.335h-2.107a.7.7,0,0,1,0-1.4h2.107a.7.7,0,0,1,0,1.4Z" transform="translate(391.584 11535.896)" fill="#00223d"/>
    <path id="Path_67896" data-name="Path 67896" d="M271.775,208.335H267.7a.7.7,0,0,1,0-1.4h4.079a.7.7,0,0,1,0,1.4Z" transform="translate(383.285 11535.896)" fill="#00223d"/>
    <path id="Path_67897" data-name="Path 67897" d="M288.9,208.335H286.8a.7.7,0,0,1,0-1.4H288.9a.7.7,0,0,1,0,1.4Z" transform="translate(372.34 11535.896)" fill="#00223d"/>
    <path id="Path_67898" data-name="Path 67898" d="M269.661,222.935H253.212a.7.7,0,1,1,0-1.4h16.449a.7.7,0,0,1,0,1.4Z" transform="translate(391.584 11527.531)" fill="#00223d"/>
    <path id="Path_67899" data-name="Path 67899" d="M269.661,242.593H253.212a.7.7,0,0,1,0-1.4h16.449a.7.7,0,0,1,0,1.4Z" transform="translate(391.584 11516.268)" fill="#00223d"/>
    <path id="Path_67900" data-name="Path 67900" d="M269.661,257.193H253.212a.7.7,0,0,1,0-1.4h16.449a.7.7,0,0,1,0,1.4Z" transform="translate(391.584 11507.901)" fill="#00223d"/>
    <path id="Path_67901" data-name="Path 67901" d="M269.661,276.853H253.212a.7.7,0,0,1,0-1.4h16.449a.7.7,0,0,1,0,1.4Z" transform="translate(391.584 11496.638)" fill="#00223d"/>
    <path id="Path_67902" data-name="Path 67902" d="M269.661,291.451H253.212a.7.7,0,0,1,0-1.4h16.449a.7.7,0,0,1,0,1.4Z" transform="translate(391.584 11488.272)" fill="#00223d"/>
  </g>
</svg>
