<svg xmlns="http://www.w3.org/2000/svg" xmlns:xlink="http://www.w3.org/1999/xlink" width="321" height="88" viewBox="0 0 321 88">
  <defs>
    <filter id="Path_194623" x="0" y="0" width="321" height="88" filterUnits="userSpaceOnUse">
      <feOffset dy="3" input="SourceAlpha"/>
      <feGaussianBlur stdDeviation="3" result="blur"/>
      <feFlood flood-opacity="0.161"/>
      <feComposite operator="in" in2="blur"/>
      <feComposite in="SourceGraphic"/>
    </filter>
    <filter id="Path_194624" x="0" y="0" width="103" height="88" filterUnits="userSpaceOnUse">
      <feOffset dy="3" input="SourceAlpha"/>
      <feGaussianBlur stdDeviation="3" result="blur-2"/>
      <feFlood flood-opacity="0.161"/>
      <feComposite operator="in" in2="blur-2"/>
      <feComposite in="SourceGraphic"/>
    </filter>
  </defs>
  <g id="Group_154283" data-name="Group 154283" transform="translate(-1043 -10668)">
    <g transform="matrix(1, 0, 0, 1, 1043, 10668)" filter="url(#Path_194623)">
      <path id="Path_194623-2" data-name="Path 194623" d="M10,0H293a10,10,0,0,1,10,10V60a10,10,0,0,1-10,10H10A10,10,0,0,1,0,60V10A10,10,0,0,1,10,0Z" transform="translate(9 6)" fill="#ede7f7"/>
    </g>
    <g transform="matrix(1, 0, 0, 1, 1043, 10668)" filter="url(#Path_194624)">
      <path id="Path_194624-2" data-name="Path 194624" d="M10,0H75A10,10,0,0,1,85,10V60A10,10,0,0,1,75,70H10A10,10,0,0,1,0,60V10A10,10,0,0,1,10,0Z" transform="translate(9 6)" fill="#e8e8e8"/>
    </g>
    <path id="Path_194625" data-name="Path 194625" d="M24.7,5.625l2.922,8.25,2.906-8.25H33.6V17H31.25V13.891l.234-5.367L28.414,17H26.8L23.742,8.531l.234,5.359V17H21.633V5.625Zm14.7,11.531a4.15,4.15,0,0,1-3.027-1.141A4.054,4.054,0,0,1,35.2,12.977v-.219a5.106,5.106,0,0,1,.492-2.277,3.612,3.612,0,0,1,1.395-1.547,3.914,3.914,0,0,1,2.059-.543,3.508,3.508,0,0,1,2.73,1.094,4.444,4.444,0,0,1,1,3.1v.922H37.484a2.1,2.1,0,0,0,.66,1.328,2,2,0,0,0,1.395.5,2.437,2.437,0,0,0,2.039-.945l1.109,1.242a3.389,3.389,0,0,1-1.375,1.121A4.511,4.511,0,0,1,39.391,17.156Zm-.258-6.945a1.411,1.411,0,0,0-1.09.455,2.357,2.357,0,0,0-.535,1.3h3.141v-.181a1.681,1.681,0,0,0-.406-1.165A1.456,1.456,0,0,0,39.133,10.211ZM39.336,5H41.8L39.633,7.422H37.8Zm7.516,1.469V8.547H48.3V10.2H46.852v4.219a1.007,1.007,0,0,0,.18.672.9.9,0,0,0,.688.2,3.6,3.6,0,0,0,.664-.055v1.711a4.648,4.648,0,0,1-1.367.2,2.156,2.156,0,0,1-2.422-2.4V10.2H43.359V8.547h1.234V6.469ZM48.969,12.7a5.013,5.013,0,0,1,.484-2.242A3.546,3.546,0,0,1,50.848,8.93a4.069,4.069,0,0,1,2.113-.539,3.849,3.849,0,0,1,2.793,1.047,4.2,4.2,0,0,1,1.207,2.844l.016.578a4.418,4.418,0,0,1-1.086,3.121,4.209,4.209,0,0,1-5.832,0,4.5,4.5,0,0,1-1.09-3.187Zm2.258.16A3.16,3.16,0,0,0,51.68,14.7a1.628,1.628,0,0,0,2.578.008,3.457,3.457,0,0,0,.461-2.015,3.128,3.128,0,0,0-.461-1.831,1.5,1.5,0,0,0-1.3-.649,1.474,1.474,0,0,0-1.281.646A3.516,3.516,0,0,0,51.227,12.856Zm6.789-.145A5.094,5.094,0,0,1,58.9,9.563a2.877,2.877,0,0,1,2.426-1.172,2.589,2.589,0,0,1,2.039.922V5h2.266V17H63.594l-.109-.9a2.657,2.657,0,0,1-2.172,1.055,2.869,2.869,0,0,1-2.395-1.176A5.258,5.258,0,0,1,58.016,12.711Zm2.258.168a3.337,3.337,0,0,0,.414,1.823,1.349,1.349,0,0,0,1.2.634,1.511,1.511,0,0,0,1.477-.884V11.111a1.489,1.489,0,0,0-1.461-.884Q60.273,10.227,60.273,12.879Zm6.758-.184a5.013,5.013,0,0,1,.484-2.242A3.546,3.546,0,0,1,68.91,8.93a4.069,4.069,0,0,1,2.113-.539,3.849,3.849,0,0,1,2.793,1.047,4.2,4.2,0,0,1,1.207,2.844l.016.578a4.418,4.418,0,0,1-1.086,3.121,4.209,4.209,0,0,1-5.832,0,4.5,4.5,0,0,1-1.09-3.187Zm2.258.16a3.16,3.16,0,0,0,.453,1.843,1.628,1.628,0,0,0,2.578.008,3.457,3.457,0,0,0,.461-2.015,3.128,3.128,0,0,0-.461-1.831,1.5,1.5,0,0,0-1.3-.649,1.474,1.474,0,0,0-1.281.646A3.516,3.516,0,0,0,69.289,12.856Zm11.719,1.808a.727.727,0,0,0-.41-.652,4.659,4.659,0,0,0-1.316-.426q-3.016-.633-3.016-2.562A2.323,2.323,0,0,1,77.2,9.145a3.766,3.766,0,0,1,2.441-.754,4.053,4.053,0,0,1,2.574.758,2.388,2.388,0,0,1,.965,1.969H80.922a1.092,1.092,0,0,0-.312-.8A1.322,1.322,0,0,0,79.633,10a1.351,1.351,0,0,0-.883.258.814.814,0,0,0-.312.656.7.7,0,0,0,.355.605,3.657,3.657,0,0,0,1.2.4,9.8,9.8,0,0,1,1.422.379A2.336,2.336,0,0,1,83.2,14.57a2.2,2.2,0,0,1-.992,1.871,4.28,4.28,0,0,1-2.562.715,4.47,4.47,0,0,1-1.887-.379,3.166,3.166,0,0,1-1.293-1.039A2.414,2.414,0,0,1,76,14.313h2.141a1.179,1.179,0,0,0,.445.922,1.766,1.766,0,0,0,1.109.32,1.635,1.635,0,0,0,.98-.246A.766.766,0,0,0,81.008,14.664ZM88.289,12.7a5.013,5.013,0,0,1,.484-2.242A3.546,3.546,0,0,1,90.168,8.93a4.069,4.069,0,0,1,2.113-.539,3.849,3.849,0,0,1,2.793,1.047,4.2,4.2,0,0,1,1.207,2.844l.016.578a4.418,4.418,0,0,1-1.086,3.121,4.209,4.209,0,0,1-5.832,0,4.5,4.5,0,0,1-1.09-3.187Zm2.258.16A3.16,3.16,0,0,0,91,14.7a1.628,1.628,0,0,0,2.578.008,3.457,3.457,0,0,0,.461-2.015,3.128,3.128,0,0,0-.461-1.831,1.5,1.5,0,0,0-1.3-.649A1.474,1.474,0,0,0,91,10.856,3.516,3.516,0,0,0,90.547,12.856ZM102.289,17V10.2h-1.258V8.547h1.258V7.828a2.918,2.918,0,0,1,.816-2.207,3.162,3.162,0,0,1,2.285-.785,5.278,5.278,0,0,1,1.148.156l-.023,1.75a2.878,2.878,0,0,0-.687-.07q-1.273,0-1.273,1.2v.68h1.68V10.2h-1.68V17Zm10.18-.859a2.831,2.831,0,0,1-2.312,1.016,2.67,2.67,0,0,1-2.074-.781,3.335,3.335,0,0,1-.73-2.289V8.547h2.258v5.467q0,1.322,1.2,1.322a1.63,1.63,0,0,0,1.578-.8V8.547h2.266V17h-2.125Zm7.781,1.016a4.15,4.15,0,0,1-3.027-1.141,4.054,4.054,0,0,1-1.168-3.039v-.219a5.106,5.106,0,0,1,.492-2.277,3.612,3.612,0,0,1,1.395-1.547A3.914,3.914,0,0,1,120,8.391a3.508,3.508,0,0,1,2.73,1.094,4.444,4.444,0,0,1,1,3.1v.922h-5.383a2.1,2.1,0,0,0,.66,1.328,2,2,0,0,0,1.395.5,2.437,2.437,0,0,0,2.039-.945l1.109,1.242a3.389,3.389,0,0,1-1.375,1.121A4.511,4.511,0,0,1,120.25,17.156Zm-.258-6.945a1.411,1.411,0,0,0-1.09.455,2.357,2.357,0,0,0-.535,1.3h3.141v-.181a1.681,1.681,0,0,0-.406-1.165A1.456,1.456,0,0,0,119.992,10.211Zm7.094-1.664.07.977a2.951,2.951,0,0,1,2.43-1.133,2.453,2.453,0,0,1,2,.789,3.682,3.682,0,0,1,.672,2.359V17H130V11.594a1.465,1.465,0,0,0-.312-1.043,1.4,1.4,0,0,0-1.039-.324,1.553,1.553,0,0,0-1.43.813V17h-2.258V8.547Zm9.586-2.078V8.547h1.445V10.2h-1.445v4.219a1.007,1.007,0,0,0,.18.672.9.9,0,0,0,.688.2,3.6,3.6,0,0,0,.664-.055v1.711a4.648,4.648,0,0,1-1.367.2,2.156,2.156,0,0,1-2.422-2.4V10.2H133.18V8.547h1.234V6.469Zm6.594,10.688a4.15,4.15,0,0,1-3.027-1.141,4.054,4.054,0,0,1-1.168-3.039v-.219a5.106,5.106,0,0,1,.492-2.277,3.612,3.612,0,0,1,1.395-1.547,3.914,3.914,0,0,1,2.059-.543,3.508,3.508,0,0,1,2.73,1.094,4.444,4.444,0,0,1,1,3.1v.922h-5.383a2.1,2.1,0,0,0,.66,1.328,2,2,0,0,0,1.395.5,2.437,2.437,0,0,0,2.039-.945l1.109,1.242a3.389,3.389,0,0,1-1.375,1.121A4.511,4.511,0,0,1,143.266,17.156Zm-.258-6.945a1.411,1.411,0,0,0-1.09.455,2.357,2.357,0,0,0-.535,1.3h3.141v-.181a1.681,1.681,0,0,0-.406-1.165A1.456,1.456,0,0,0,143.008,10.211Zm9.594,4.453a.727.727,0,0,0-.41-.652,4.659,4.659,0,0,0-1.316-.426q-3.016-.633-3.016-2.562a2.323,2.323,0,0,1,.934-1.879,3.766,3.766,0,0,1,2.441-.754,4.053,4.053,0,0,1,2.574.758,2.388,2.388,0,0,1,.965,1.969h-2.258a1.092,1.092,0,0,0-.312-.8,1.322,1.322,0,0,0-.977-.316,1.351,1.351,0,0,0-.883.258.814.814,0,0,0-.312.656.7.7,0,0,0,.355.605,3.657,3.657,0,0,0,1.2.4,9.8,9.8,0,0,1,1.422.379A2.336,2.336,0,0,1,154.8,14.57a2.205,2.205,0,0,1-.992,1.871,4.28,4.28,0,0,1-2.562.715,4.47,4.47,0,0,1-1.887-.379,3.166,3.166,0,0,1-1.293-1.039,2.414,2.414,0,0,1-.469-1.426h2.141a1.179,1.179,0,0,0,.445.922,1.766,1.766,0,0,0,1.109.32,1.635,1.635,0,0,0,.98-.246A.766.766,0,0,0,152.6,14.664Z" transform="translate(1155 10700)" fill="#12263f"/>
    <g id="UyrgcM.tif" transform="translate(-865.44 10706.014)">
      <g id="Group_151394" data-name="Group 151394" transform="translate(1933.769 -26.659)">
        <path id="Path_193789" data-name="Path 193789" d="M1969.081,16.522c.468.248.928.512,1.406.74a4.448,4.448,0,0,1,2.065,5.524,1.927,1.927,0,0,1-2.021,1.087c-5.471-.015-10.943-.007-16.414-.007-2.189,0-4.377.006-6.566,0-1.561-.006-2.143-.633-2.238-2.152-.143-2.273.607-3.945,2.874-4.737a6.158,6.158,0,0,0,.964-.6c-.453-.041-.694-.082-.934-.082-3.454-.006-6.907,0-10.361-.011a3.758,3.758,0,0,1-4.079-4.09q-.013-15.389,0-30.778a3.752,3.752,0,0,1,3.939-4.032,5.473,5.473,0,0,1,.82,0,3.311,3.311,0,0,0,3.233-1.242,2.1,2.1,0,0,1,2.952-.409c.739.41,1.127.2,1.343-.58a2.167,2.167,0,0,1,2.376-1.806c.718-.011,1.437-.018,2.154,0a2.133,2.133,0,0,1,2.232,1.739c.213.876.628,1.01,1.374.607a2.148,2.148,0,0,1,2.953.483,3.514,3.514,0,0,0,3.037,1.229c6.634-.057,13.268-.029,19.9-.028,2.689,0,4.193,1.494,4.195,4.189q.007,15.286,0,30.573a3.8,3.8,0,0,1-4.147,4.138q-5.487.009-10.973,0Zm13.179-8.6c0-.4,0-.7,0-1.007q0-12.516,0-25.031c0-1.993-.5-2.495-2.48-2.495-6.326,0-12.652.025-18.978-.018-.924-.006-1.482.126-1.836,1.095-.294.8-.258,1.172.615,1.4a2.107,2.107,0,0,1,1.737,2.224c.021.683.011,1.368,0,2.052a2.209,2.209,0,0,1-1.879,2.527c-.664.206-.89.549-.55,1.2.758,1.449.654,2.1-.513,3.272-.482.485-.952.985-1.464,1.436a2.172,2.172,0,0,1-2.574.307c-1.007-.5-1.193-.427-1.535.647a2.128,2.128,0,0,1-2.239,1.6c-1.582-.086-3.466.652-4.42-1.421a.9.9,0,0,1-.03-.1c-.4-1.183-.544-1.249-1.6-.727a2.086,2.086,0,0,1-2.628-.377c-.555-.557-1.129-1.1-1.667-1.669a2.141,2.141,0,0,1-.376-2.722c.473-.942.371-1.178-.649-1.507a2.125,2.125,0,0,1-1.636-2.31c.061-1.555-.611-3.394,1.405-4.328.123-.057.289-.052.384-.134.278-.24.8-.6.745-.751-.212-.6-.494-1.486-.945-1.623-2.183-.663-3.344.3-3.344,2.567q0,12.413,0,24.826V7.922Zm0,2.128H1935.8c0,.663,0,1.27,0,1.877.008,1.791.531,2.324,2.312,2.325q14.207.005,28.414,0,6.822,0,13.643,0c1.459,0,2.063-.607,2.087-2.039C1982.268,11.532,1982.258,10.851,1982.258,10.05ZM1950.736-4.885c.721-2.526,2.341-3.2,4.726-2.034l1.866-1.83c-1.435-2.021-.343-4.135,1.9-4.749v-2.608c-2.316-.463-3.111-2.417-1.925-4.7l-1.82-1.85a2.975,2.975,0,0,1-4.77-1.892h-2.6c-.219,2.168-2.858,3.211-4.935,1.792a8.122,8.122,0,0,1-.966,1.241,1.086,1.086,0,0,0-.269,1.559,2.644,2.644,0,0,1,.076,1.751,2.411,2.411,0,0,1-2.384,2.067V-13.4a2.953,2.953,0,0,1,2.036,4.622l1.746,1.917c.3-.171.554-.341.828-.464,1.153-.521,3.191.108,3.482,1.3.3,1.242,1.021,1.206,1.928,1.141C1949.993-4.905,1950.335-4.885,1950.736-4.885Zm19.842,26.664c.29-1.78.051-2.108-1.376-2.9a10.389,10.389,0,0,1-2.466-1.937,1.783,1.783,0,0,0-1.466-.661c-4.067.022-8.135.033-12.2-.005a2.142,2.142,0,0,0-1.9.841,7.782,7.782,0,0,1-2.242,1.732c-1.526.831-1.768,1.187-1.446,2.932Z" transform="translate(-1933.769 26.659)" fill="#12263f"/>
        <path id="Path_193790" data-name="Path 193790" d="M2074.554,49.03c-1.173-.892-1.881-.266-2.449,1.061-.147.342-.855.56-1.333.618a11.787,11.787,0,0,1-2.554.026,1.841,1.841,0,0,1-1.686-1.437c-.178-.7-.424-.922-1.135-.535a2.034,2.034,0,0,1-2.612-.434c-.359-.366-.731-.719-1.09-1.086-1.035-1.056-1.126-1.459-.52-2.815.257-.574.162-.838-.464-1.042a2.031,2.031,0,0,1-1.615-2.292c-.008-.547-.01-1.094,0-1.641a1.979,1.979,0,0,1,1.589-2.2c.6-.2.752-.422.442-1.029a2.032,2.032,0,0,1,.467-2.765c.429-.441.862-.879,1.314-1.3a1.887,1.887,0,0,1,2.358-.365c.805.477,1.1.228,1.247-.569a1.179,1.179,0,0,1,.27-.544c1.176-1.306,2.73-.815,4.152-.788a1.814,1.814,0,0,1,1.684,1.558c.161.618.415.753,1.018.442a2.037,2.037,0,0,1,2.769.467c.417.4.829.815,1.231,1.235a1.98,1.98,0,0,1,.37,2.53c-.383.674-.249,1.007.514,1.124a1.213,1.213,0,0,1,.559.235c1.345,1.092.921,2.616.907,4.009a1.85,1.85,0,0,1-1.51,1.846c-.814.2-.81.546-.425,1.152a1.851,1.851,0,0,1,.267.867C2078.382,46.661,2076.088,49.006,2074.554,49.03Zm-11.682-3.506,1.364,1.4c2.1-.867,2.985-.529,4.195,1.5a.8.8,0,0,0,.562.3c.53.041,1.066.014,1.562.014.669-2.118,2.206-2.752,4.243-1.8l1.39-1.408c-.984-1.525-.467-3.489,1.738-4.308V39.335c-1.881-.479-2.758-2.311-1.787-4.329l-1.334-1.363a2.829,2.829,0,0,1-4.335-1.758,10.494,10.494,0,0,0-1.3.015,1.08,1.08,0,0,0-.735.332c-1.145,1.97-1.949,2.273-4.2,1.472l-1.341,1.334c.911,1.929.443,3.283-1.349,4.137a.851.851,0,0,0-.391.585,13.142,13.142,0,0,0-.018,1.494C2063.26,42.121,2063.924,43.738,2062.872,45.524Z" transform="translate(-2033.264 -18.158)" fill="#12263f"/>
        <path id="Path_193791" data-name="Path 193791" d="M2052.37,156.2a1.389,1.389,0,1,1-1.394-1.354A1.423,1.423,0,0,1,2052.37,156.2Z" transform="translate(-2025.725 -117.442)" fill="#12263f"/>
        <path id="Path_193792" data-name="Path 193792" d="M1991.406,17.521a4.764,4.764,0,1,1,4.784-4.735A4.766,4.766,0,0,1,1991.406,17.521Zm.054-7.515a2.743,2.743,0,1,0,2.708,2.771A2.775,2.775,0,0,0,1991.46,10.005Z" transform="translate(-1975.741 -0.853)" fill="#12263f"/>
        <path id="Path_193793" data-name="Path 193793" d="M2089.1,64.346a4.277,4.277,0,0,1,8.554-.063,4.278,4.278,0,1,1-8.554.063Zm2.033-.04a2.237,2.237,0,0,0,2.229,2.292,2.292,2.292,0,0,0,2.274-2.273,2.25,2.25,0,0,0-2.2-2.223A2.2,2.2,0,0,0,2091.138,64.306Z" transform="translate(-2057.096 -42.194)" fill="#12263f"/>
      </g>
    </g>
  </g>
</svg>
