<svg xmlns="http://www.w3.org/2000/svg" xmlns:xlink="http://www.w3.org/1999/xlink" width="496.981" height="394.237" viewBox="0 0 496.981 394.237">
  <defs>
    <linearGradient id="linear-gradient" x1="0.5" x2="0.5" y2="1" gradientUnits="objectBoundingBox">
      <stop offset="0" stop-color="#116eb9"/>
      <stop offset="1" stop-color="#1894f6"/>
    </linearGradient>
    <filter id="Rectangle_45214" x="357.566" y="0" width="128.955" height="394.237" filterUnits="userSpaceOnUse">
      <feOffset dy="3" input="SourceAlpha"/>
      <feGaussianBlur stdDeviation="3" result="blur"/>
      <feFlood flood-opacity="0.161"/>
      <feComposite operator="in" in2="blur"/>
      <feComposite in="SourceGraphic"/>
    </filter>
    <linearGradient id="linear-gradient-2" x1="0.5" x2="0.5" y2="1" gradientUnits="objectBoundingBox">
      <stop offset="0" stop-color="#fff"/>
      <stop offset="1" stop-color="#d2e6ee"/>
    </linearGradient>
    <linearGradient id="linear-gradient-3" x1="0.167" y1="-0.077" x2="0.833" y2="1.077" gradientUnits="objectBoundingBox">
      <stop offset="0" stop-color="#b1b2f3"/>
      <stop offset="1" stop-color="#9d9ef0"/>
    </linearGradient>
    <linearGradient id="linear-gradient-6" x1="0.314" y1="-0.604" x2="0.686" y2="1.604" xlink:href="#linear-gradient-3"/>
    <linearGradient id="linear-gradient-8" x1="0.5" x2="0.5" y2="1" gradientUnits="objectBoundingBox">
      <stop offset="0" stop-color="#7e53c5"/>
      <stop offset="1" stop-color="#5b14d9"/>
    </linearGradient>
  </defs>
  <g id="Group_154296" data-name="Group 154296" transform="translate(-158.039 -2829.343)">
    <g id="Group_154295" data-name="Group 154295">
      <g transform="matrix(1, 0, 0, 1, 158.04, 2829.34)" filter="url(#Rectangle_45214)">
        <rect id="Rectangle_45214-2" data-name="Rectangle 45214" width="110.955" height="376.237" rx="18" transform="translate(366.57 6)" fill="url(#linear-gradient)"/>
      </g>
      <g id="Group_152124" data-name="Group 152124" transform="translate(158.039 2833.101)">
        <ellipse id="Ellipse_5419" data-name="Ellipse 5419" cx="162.989" cy="166.163" rx="162.989" ry="166.163" transform="translate(147.58 15.878)" fill="#f8fbfd"/>
        <ellipse id="Ellipse_5420" data-name="Ellipse 5420" cx="148.383" cy="148.383" rx="148.383" ry="148.383" transform="translate(0 58.899)" fill="#f8fbfd"/>
        <g id="Group_145936" data-name="Group 145936" transform="translate(43.148 0)">
          <g id="Group_29020" data-name="Group 29020" transform="translate(185.868 13.74)">
            <path id="Path_68871" data-name="Path 68871" d="M543.705,126.019Z" transform="translate(-507.541 -116.071)" fill="#cbd9e4"/>
            <path id="Path_68872" data-name="Path 68872" d="M548.244,132.359,546,132.8a17.013,17.013,0,0,0-1.817-4.991l2-1.106a19.27,19.27,0,0,0-6.064-6.637l-1.277,1.888a17,17,0,0,0-4.811-2.253l.631-2.186-.1-.029a19.221,19.221,0,0,0-8.883-.386l.431,2.242a17.041,17.041,0,0,0-5,1.8l-1.1-2a19.277,19.277,0,0,0-6.653,6.047l1.884,1.281a17.028,17.028,0,0,0-2.265,4.806l-2.185-.637-.043.15a19.229,19.229,0,0,0-.4,8.831l2.243-.425a17.036,17.036,0,0,0,1.791,5l-2,1.094h0a19.291,19.291,0,0,0,6.028,6.67l1.286-1.88a17.022,17.022,0,0,0,4.8,2.275l-.643,2.185h0l.2.059a19.237,19.237,0,0,0,8.987.367l-.445-2.24a17.039,17.039,0,0,0,4.987-1.831l1.111,1.994a19.278,19.278,0,0,0,6.619-6.082l-1.892-1.273a17.035,17.035,0,0,0,2.244-4.816l2.186.625.014-.051a19.194,19.194,0,0,0,.377-8.935Zm-18.927,15.166a11.5,11.5,0,1,1,11.037-8.356A11.462,11.462,0,0,1,529.317,147.525Z" transform="translate(-510.018 -116.752)" fill="#cbd9e4"/>
          </g>
          <g id="Group_29021" data-name="Group 29021" transform="translate(42.011 74.513)">
            <path id="Path_68873" data-name="Path 68873" d="M659.924,461.741a67.195,67.195,0,1,0-118.083,0Z" transform="translate(-364.42 -159.458)" fill="#fff"/>
            <ellipse id="Ellipse_3363" data-name="Ellipse 3363" cx="89.472" cy="89.472" rx="89.472" ry="89.472" transform="translate(0 57.133)" fill="#fff"/>
            <ellipse id="Ellipse_3364" data-name="Ellipse 3364" cx="67.194" cy="67.194" rx="67.194" ry="67.194" transform="translate(41.143)" fill="#fff"/>
            <circle id="Ellipse_3365" data-name="Ellipse 3365" cx="67.194" cy="67.194" r="67.194" transform="translate(112.186 133.501) rotate(-79.905)" fill="#fff"/>
            <circle id="Ellipse_3366" data-name="Ellipse 3366" cx="52.774" cy="52.774" r="52.774" transform="translate(162.935 118.999)" fill="#fff"/>
            <path id="Path_68874" data-name="Path 68874" d="M402.431,388.6A67.192,67.192,0,0,0,421.6,463.163H568.822a67.183,67.183,0,0,0-74.259-111.5,67.215,67.215,0,0,0-79.443,15.924A12.278,12.278,0,1,0,402.431,388.6Z" transform="translate(-374.523 -160.881)" fill="#fff"/>
          </g>
          <g id="Group_29048" data-name="Group 29048" transform="translate(113.57 59.071)">
            <g id="Group_29044" data-name="Group 29044">
              <g id="Group_29043" data-name="Group 29043">
                <g id="Group_29042" data-name="Group 29042">
                  <path id="Rectangle_26499" data-name="Rectangle 26499" d="M8.851,0H157.539a8.85,8.85,0,0,1,8.85,8.85V306.988a8.851,8.851,0,0,1-8.851,8.851H8.85A8.85,8.85,0,0,1,0,306.989V8.851A8.851,8.851,0,0,1,8.851,0Z" transform="translate(1.073 1.073)" fill="#afafaf"/>
                  <path id="Path_68906" data-name="Path 68906" d="M600.633,161.125a8.426,8.426,0,0,1,8.427,8.427V466.389a8.427,8.427,0,0,1-8.427,8.427H453.246a8.428,8.428,0,0,1-8.427-8.427V169.552a8.427,8.427,0,0,1,8.427-8.427H600.633m0-2.147H453.246a10.586,10.586,0,0,0-10.574,10.574V466.389a10.587,10.587,0,0,0,10.574,10.574H600.633a10.586,10.586,0,0,0,10.574-10.574V169.552a10.585,10.585,0,0,0-10.574-10.574Z" transform="translate(-442.672 -158.978)" fill="#b4b7c6"/>
                </g>
              </g>
            </g>
            <g id="Group_29045" data-name="Group 29045" transform="translate(2.147 18.331)">
              <path id="Path_68907" data-name="Path 68907" d="M608.915,185.791V447.638a9.738,9.738,0,0,1-9.738,9.739H454.41a9.738,9.738,0,0,1-9.738-9.739V185.791a9.738,9.738,0,0,1,9.738-9.738H599.177A9.738,9.738,0,0,1,608.915,185.791Z" transform="translate(-444.672 -176.053)" fill="url(#linear-gradient-2)"/>
            </g>
            <g id="Group_29046" data-name="Group 29046" transform="translate(72.349 8.599)">
              <path id="Path_68908" data-name="Path 68908" d="M532.023,170.748H511.945a1.879,1.879,0,0,1-1.88-1.88h0a1.88,1.88,0,0,1,1.88-1.88h20.079a1.88,1.88,0,0,1,1.88,1.88h0A1.879,1.879,0,0,1,532.023,170.748Z" transform="translate(-510.065 -166.988)" fill="#161c59"/>
            </g>
            <g id="Group_29047" data-name="Group 29047" transform="translate(64.596 8.599)">
              <path id="Path_68909" data-name="Path 68909" d="M506.6,168.868a1.88,1.88,0,1,1-1.88-1.88A1.879,1.879,0,0,1,506.6,168.868Z" transform="translate(-502.843 -166.988)" fill="#161c59"/>
            </g>
          </g>
          <path id="Rectangle_26500" data-name="Rectangle 26500" d="M2.949,0h125.5a2.949,2.949,0,0,1,2.949,2.949V12.5a2.948,2.948,0,0,1-2.948,2.948H2.948A2.948,2.948,0,0,1,0,12.5V2.949A2.949,2.949,0,0,1,2.949,0Z" transform="translate(132.141 184.185)" fill="#e6e7e8" style="mix-blend-mode: multiply;isolation: isolate"/>
          <rect id="Rectangle_26501" data-name="Rectangle 26501" width="38.713" height="18.24" rx="2.106" transform="translate(131.467 92.023)" fill="#e6e7e8" style="mix-blend-mode: multiply;isolation: isolate"/>
          <rect id="Rectangle_26502" data-name="Rectangle 26502" width="38.713" height="18.24" rx="2.106" transform="translate(178.483 92.023)" fill="#e6e7e8" style="mix-blend-mode: multiply;isolation: isolate"/>
          <rect id="Rectangle_26503" data-name="Rectangle 26503" width="38.713" height="18.24" rx="2.106" transform="translate(225.497 92.023)" fill="#e6e7e8" style="mix-blend-mode: multiply;isolation: isolate"/>
          <rect id="Rectangle_26504" data-name="Rectangle 26504" width="57.897" height="57.897" rx="2.455" transform="translate(136.977 246.068)" stroke="#707070" stroke-miterlimit="10" stroke-width="8" opacity="0.4" fill="url(#linear-gradient-3)" style="mix-blend-mode: multiply;isolation: isolate"/>
          <rect id="Rectangle_26505" data-name="Rectangle 26505" width="57.897" height="57.897" rx="2.455" transform="translate(212.091 246.068)" stroke="#707070" stroke-miterlimit="10" stroke-width="8" opacity="0.4" fill="url(#linear-gradient-3)" style="mix-blend-mode: multiply;isolation: isolate"/>
          <rect id="Rectangle_26506" data-name="Rectangle 26506" width="57.897" height="57.897" rx="2.455" transform="translate(287.205 246.068)" stroke="#707070" stroke-miterlimit="10" stroke-width="8" opacity="0.4" fill="url(#linear-gradient-3)" style="mix-blend-mode: multiply;isolation: isolate"/>
          <rect id="Rectangle_26507" data-name="Rectangle 26507" width="57.897" height="57.897" rx="2.455" transform="translate(132.844 241.936)" fill="#fff"/>
          <rect id="Rectangle_26508" data-name="Rectangle 26508" width="57.897" height="57.897" rx="2.455" transform="translate(207.959 241.936)" fill="#fff"/>
          <rect id="Rectangle_26509" data-name="Rectangle 26509" width="57.897" height="27.82" rx="1.702" transform="translate(207.959 311.065)" fill="#e6e7e8" style="mix-blend-mode: multiply;isolation: isolate"/>
          <rect id="Rectangle_26510" data-name="Rectangle 26510" width="57.897" height="27.82" rx="1.702" transform="translate(132.259 311.065)" fill="#e6e7e8" style="mix-blend-mode: multiply;isolation: isolate"/>
          <rect id="Rectangle_26511" data-name="Rectangle 26511" width="57.897" height="57.897" rx="2.455" transform="translate(283.073 241.936)" fill="#fff"/>
          <g id="Group_29049" data-name="Group 29049" transform="translate(131.467 115.117)">
            <rect id="Rectangle_26512" data-name="Rectangle 26512" width="38.713" height="4.312" rx="1.646" fill="#707070"/>
            <rect id="Rectangle_26513" data-name="Rectangle 26513" width="38.713" height="4.312" rx="1.646" transform="translate(47.015)" fill="#707070"/>
            <rect id="Rectangle_26514" data-name="Rectangle 26514" width="38.713" height="4.312" rx="1.646" transform="translate(94.03)" fill="#707070"/>
          </g>
          <g id="Group_29050" data-name="Group 29050" transform="translate(131.467 124.237)" style="mix-blend-mode: multiply;isolation: isolate">
            <rect id="Rectangle_26515" data-name="Rectangle 26515" width="38.713" height="4.312" rx="1.646" fill="#e6e7e8"/>
            <rect id="Rectangle_26516" data-name="Rectangle 26516" width="38.713" height="4.312" rx="1.646" transform="translate(47.015)" fill="#e6e7e8"/>
            <rect id="Rectangle_26517" data-name="Rectangle 26517" width="38.713" height="4.312" rx="1.646" transform="translate(94.03)" fill="#e6e7e8"/>
          </g>
          <g id="Group_29053" data-name="Group 29053" transform="translate(319.412 250.028)">
            <path id="Path_68910" data-name="Path 68910" d="M670.188,423.465c-2.9-.244-3.11-16.492-2.662-23.389s2.089-12.247,5.633-11.949,4.27,5.846,3.56,12.722S673.092,423.71,670.188,423.465Z" transform="translate(-631.993 -333.085)" fill="#ffc8af"/>
            <path id="Path_68911" data-name="Path 68911" d="M683.953,451.453c-2.4.967-11.2-20.066-13.12-24.822s-3.581-9.926-.9-11.01,5.081,3.787,7,8.543S686.348,450.486,683.953,451.453Z" transform="translate(-631.906 -331.073)" fill="#ffc8af"/>
            <path id="Path_68912" data-name="Path 68912" d="M684.854,453c-1.569,1.079-4.819,1.775-5.114,1.227s.211-2.091.659-3.2l.006-.011c.135-.33.262-.622.36-.837.116-.272.193-.431.193-.431s-5.2-20.56-4.241-20.821c1.045-.282,8.007,20.121,8.007,20.121s.034.129.092.311l.079.263.53,1.77C685.494,451.6,686.006,452.222,684.854,453Z" transform="translate(-631.312 -330.084)" fill="#ffc8af"/>
            <path id="Path_68913" data-name="Path 68913" d="M684.645,451.582c-1.569,1.079-4.819,1.776-5.114,1.227s.21-2.091.659-3.2l.007-.011c.135-.33.262-.621.359-.838.1.205.249.51.365.78.205.47.474.475,1.432-.154a18.6,18.6,0,0,1,2.335-1.183s.62,1.3.79,1.75C685.559,450.159,685.8,450.8,684.645,451.582Z" transform="translate(-631.103 -328.667)" fill="#262b7f"/>
            <g id="Group_29052" data-name="Group 29052" transform="translate(37.232 21.138)">
              <path id="Path_68914" data-name="Path 68914" d="M683.769,381.4c-1.939.806-7.664-10.018-9.753-14.793s-2.881-8.909-.515-9.894,4.74,2.494,6.653,7.341S685.706,380.592,683.769,381.4Z" transform="translate(-668.879 -356.544)" fill="#ffc8af"/>
              <g id="Group_29051" data-name="Group 29051" transform="translate(0 21.517)">
                <path id="Path_68915" data-name="Path 68915" d="M672.8,399.915c-1.692-.776,3.549-13.441,5.161-16.957s3.571-7.109,5.468-6.239.456,4.7-1.155,8.216S674.488,400.69,672.8,399.915Z" transform="translate(-668.848 -376.587)" fill="#ffc8af"/>
                <path id="Path_68916" data-name="Path 68916" d="M674.438,395.294c2.061.765.3,4.248-.347,5.414-1.05,1.9-3.984,2.838-4.727,2.441s1.958-4.516,1.866-4.752-1.324,2.113-1.983,1.667.978-3.228,2.049-4.081A2.808,2.808,0,0,1,674.438,395.294Z" transform="translate(-669.096 -375.228)" fill="#ffc8af"/>
              </g>
            </g>
            <path id="Path_68917" data-name="Path 68917" d="M669.593,451.116c.175.7.531,1.479.15,2.17a1.913,1.913,0,0,1-1.356.8,15.378,15.378,0,0,1-2.257.322,8.279,8.279,0,0,1-.92.074c-.255,0-.507-.047-.76-.062-.5-.03-1-.01-1.5-.053-.049,0-.384.007-.431-.059s.041-.158.082-.194c.214-.188.5-.273.718-.451.248-.2.476-.426.728-.624a6.949,6.949,0,0,1,1.628-.987c.113-.047-3.33-21.622-2.3-21.845C664.308,430,669.591,451.107,669.593,451.116Z" transform="translate(-632.349 -329.99)" fill="#ffc8af"/>
            <path id="Path_68918" data-name="Path 68918" d="M657.192,424.228c-2.847-.622-.931-16.757.413-23.537s3.671-11.869,7.146-11.111,3.47,6.354,1.868,13.078S660.038,424.848,657.192,424.228Z" transform="translate(-632.848 -332.983)" fill="#ffc8af"/>
            <path id="Path_68919" data-name="Path 68919" d="M668.874,453.016c-2.465.773-9.97-20.789-11.5-25.683s-2.777-10.18-.014-11.047,4.762,4.182,6.3,9.076S671.339,452.243,668.874,453.016Z" transform="translate(-632.848 -331.021)" fill="#ffc8af"/>
            <path id="Path_68920" data-name="Path 68920" d="M670.1,450.974l0,2.425a.442.442,0,0,1-.441.442l-7.8,0a.707.707,0,0,1-.427-1.274,29.556,29.556,0,0,1,4.3-2.337c.319.281.8,1.151,1.361,1.255A15.669,15.669,0,0,0,670.1,450.974Z" transform="translate(-632.449 -328.518)" fill="#262b7f"/>
            <path id="Path_68921" data-name="Path 68921" d="M638.077,365.253c1.216-1.387,11.762,7.188,14.645,9.717s5.74,5.411,4.375,6.966-4.594-.9-7.477-3.429S636.859,366.641,638.077,365.253Z" transform="translate(-634.153 -334.777)" fill="#ffc8af"/>
            <path id="Path_68922" data-name="Path 68922" d="M677.435,397.066l-18.074-.751-.792-30.921,1.249-7.766,8.348-3.069,5.378,1.026A6.307,6.307,0,0,1,678.663,362L676.7,383.886Z" transform="translate(-632.638 -335.552)" fill="#ffc8af"/>
            <path id="Path_68923" data-name="Path 68923" d="M669.824,351.011v6.214a9.226,9.226,0,0,1-4.386.785c-1.656,0-2.028-.785-2.028-.785v-2.3Z" transform="translate(-632.282 -335.813)" fill="#ffc8af"/>
            <path id="Path_68924" data-name="Path 68924" d="M670.934,347.316c-.014.225-.021.436-.036.639,0,.073.007.145.007.225.153,3.689-2.215,7.638-5.779,8.175,0,0-.029.008-.081.015-.029,0-.072.007-.123.007-.762.094-3.521.32-4.53-.791a9.39,9.39,0,0,1-2.236-5.339,20.92,20.92,0,0,1,.3-2.685c0-.515-.277-2.129-.283-2.829-.024-3.291,2.191-6.558,6.127-6.558C670.2,338.175,671.1,343.352,670.934,347.316Z" transform="translate(-632.669 -336.757)" fill="#ffc8af"/>
            <path id="Path_68925" data-name="Path 68925" d="M663.414,356.6" transform="translate(-632.282 -335.402)" fill="#6ebaad"/>
            <path id="Path_68926" data-name="Path 68926" d="M659.4,357.379c-1.256,1.165-2.233,3.2-2.469,7.374a15.388,15.388,0,0,0,.633,8.264c2.756,6.872,1.067,15.4,1.067,15.4l18.726.69s.4-12.555,1.035-16.559c1.931-12.085-.015-15.974-3.382-16.919C669.961,354.212,660.651,356.213,659.4,357.379Z" transform="translate(-632.781 -335.509)" fill="#4dd0e1"/>
            <path id="Path_68927" data-name="Path 68927" d="M654.951,382.969c-2.016-.521-.081-12.508,1.117-17.535s3.042-8.773,5.5-8.138,2.262,4.805.88,9.785S656.966,383.489,654.951,382.969Z" transform="translate(-632.968 -335.356)" fill="#ffc8af"/>
            <path id="Path_68928" data-name="Path 68928" d="M634.592,361.342c.484-.54,3.118,2.048,3.965,2.716.128.1.218.161.25.157s.031-.049.01-.116c-.137-.413-1.176-1.862-.672-2.319.555-.5,2.627,1.465,3.329,2.723.04.069.091.145.121.209a2.787,2.787,0,0,1-.075,3.189c-1.223,1.806-4.163-.712-5.135-1.606a6.822,6.822,0,0,1-1.725-2.889A2.611,2.611,0,0,1,634.592,361.342Z" transform="translate(-634.414 -335.059)" fill="#ffc8af"/>
            <path id="Path_68929" data-name="Path 68929" d="M657.139,342.792a5.519,5.519,0,0,0,.114.6c.406,1.649,1.7,2.609,1.567,4.408a7.523,7.523,0,0,0,1.015,4.66c1.99,3.373-.76,2.625-.207,7.8.272,2.543,2.686,3.59,7.453,3.521s10.015-.138,9.878-3.729a6.6,6.6,0,0,0-1.313-3.567c-.916-1.387-1.7-2.55-1.2-4.259a9.919,9.919,0,0,0,.546-2.144c.109-1.8-1.184-2.384-2.188-3.553-1.078-1.256-.447-3.378-.807-4.891-1.174-4.918-6.272-5.5-10.412-4.163C659.051,338.288,656.748,339.887,657.139,342.792Z" transform="translate(-632.747 -336.854)" fill="#00223d"/>
            <path id="Path_68930" data-name="Path 68930" d="M676.783,382.215c-.157,3.929,2.807,9.082,3.265,13,.919,7.841-4.505,22.527-4.505,23.476s5.075,13.688,7.043,21.456c0,0-1.1,1.588-6.422,2.555,0,0-8.155-17.746-8.91-21.75s.172-38,.172-38Z" transform="translate(-632.021 -333.519)" fill="#00223d"/>
            <path id="Path_68931" data-name="Path 68931" d="M669.479,382.816H659.225a192.253,192.253,0,0,0-3.879,21.86c-1.519,12.567-1.035,16.3-.759,18.3s7.2,20.92,7.2,20.92a12.077,12.077,0,0,0,7.142-1.657S666.6,431.466,664.6,426.5a49.5,49.5,0,0,1-2.221-6.076s5.765-12.291,7.2-21.06A51.87,51.87,0,0,0,669.479,382.816Z" transform="translate(-632.953 -333.475)" fill="#00223d"/>
          </g>
          <rect id="Rectangle_26518" data-name="Rectangle 26518" width="187.389" height="54.768" rx="1.881" transform="translate(62.373 140.731)" stroke="#707070" stroke-miterlimit="10" stroke-width="8" opacity="0.3" fill="url(#linear-gradient-6)" style="mix-blend-mode: multiply;isolation: isolate"/>
          <g id="Group_29065" data-name="Group 29065" transform="translate(53.666 133.844)">
            <g id="Group_29054" data-name="Group 29054" transform="translate(0 168.445)">
              <path id="Path_68932" data-name="Path 68932" d="M411.095,385.535v14.621h-5.166V411.72h5.166v.045H400.6v11.564h10.5v.045H396.382v11.564h14.713v.045H391.049v11.564h20.046v.045H386.871v11.564h60.312V385.535Z" transform="translate(-386.871 -385.535)" fill="#00223d"/>
            </g>
            <path id="Path_68933" data-name="Path 68933" d="M431.966,385.535v14.621H426.8V411.72h5.166v.045h-10.5v11.564h10.5v.045H417.254v11.564h14.712v.045H411.92v11.564h20.046v.045H407.742v11.564h37.906V385.535Z" transform="translate(-385.336 -217.091)" fill="#8998a5"/>
            <g id="Group_29064" data-name="Group 29064" transform="translate(10.084)">
              <path id="Path_68934" data-name="Path 68934" d="M430.317,353.695c3.068-.258,3.287-17.429,2.815-24.718s-2.208-12.942-5.954-12.628-4.512,6.178-3.762,13.445S427.249,353.953,430.317,353.695Z" transform="translate(-394.287 -222.179)" fill="#ffc8af"/>
              <path id="Path_68935" data-name="Path 68935" d="M416.225,383.272c2.531,1.022,11.835-21.206,13.865-26.233s3.785-10.489.947-11.636-5.37,4-7.4,9.03S413.694,382.249,416.225,383.272Z" transform="translate(-394.833 -220.054)" fill="#ffc8af"/>
              <path id="Path_68936" data-name="Path 68936" d="M414.773,384.905c1.66,1.141,5.094,1.878,5.405,1.3s-.222-2.209-.7-3.385l-.006-.011c-.143-.348-.277-.658-.38-.886-.122-.289-.2-.456-.2-.456s5.5-21.728,4.481-22c-1.1-.3-8.462,21.265-8.462,21.265s-.036.135-.1.328l-.085.278-.559,1.87C414.1,383.429,413.556,384.085,414.773,384.905Z" transform="translate(-394.961 -219.008)" fill="#ffc8af"/>
              <path id="Path_68937" data-name="Path 68937" d="M414.785,383.407c1.66,1.141,5.094,1.878,5.405,1.3s-.222-2.209-.7-3.385l-.006-.011c-.143-.348-.277-.658-.38-.886-.1.218-.263.539-.387.824-.216.5-.5.5-1.512-.163a19.6,19.6,0,0,0-2.468-1.249s-.655,1.374-.835,1.848C413.821,381.9,413.568,382.586,414.785,383.407Z" transform="translate(-394.973 -217.51)" fill="#00223d"/>
              <path id="Path_68938" data-name="Path 68938" d="M434.544,330.278s.127,15.688-.574,18.972S419.6,383.938,419.6,383.938a19.423,19.423,0,0,1-5.232-1.488s5.108-17.95,7.224-24.371,4.013-9.413,3.867-11.748-2.481-21.818-2.481-21.818l11.574-.488Z" transform="translate(-394.933 -221.614)" fill="#00223d"/>
              <g id="Group_29057" data-name="Group 29057" transform="translate(29.002 34.162)">
                <g id="Group_29055" data-name="Group 29055" transform="translate(21.945)">
                  <path id="Path_68939" data-name="Path 68939" d="M465.237,265.118c-1.216-1.546-12.928,6.979-16.14,9.506s-6.416,5.432-5.053,7.166,4.941-.7,8.153-3.225S466.453,266.664,465.237,265.118Z" transform="translate(-443.722 -260.121)" fill="#ffc8af"/>
                  <path id="Path_68940" data-name="Path 68940" d="M461,267.689c1.3,1.928,4.438-.747,5.475-1.7,1.691-1.55,1.928-4.8,1.337-5.462s-4.154,3.133-4.42,3.1,1.842-1.884,1.22-2.451-3.074,1.8-3.684,3.116A2.968,2.968,0,0,0,461,267.689Z" transform="translate(-442.493 -260.45)" fill="#ffc8af"/>
                </g>
                <g id="Group_29056" data-name="Group 29056" transform="translate(0 18.426)">
                  <path id="Path_68941" data-name="Path 68941" d="M450.849,278.4c-.655-2.119-13.319.54-18.611,2.068s-9.187,3.677-8.388,6.264,5.228,2.168,10.461.449S451.5,280.522,450.849,278.4Z" transform="translate(-423.245 -277.614)" fill="#ffc8af"/>
                  <path id="Path_68942" data-name="Path 68942" d="M423.776,287.539c-1.274-2.3-.087-4.794,3.463-6.2A103.8,103.8,0,0,1,439.85,278c.093.2.178.4.258.595,2.1,4.915,1.155,6.473,1.155,6.473-6.077,2.442-13.2,4.37-15.589,3.556A6.962,6.962,0,0,1,423.776,287.539Z" transform="translate(-423.279 -277.585)" fill="#ffe3a1"/>
                </g>
              </g>
              <g id="Group_29060" data-name="Group 29060">
                <rect id="Rectangle_26519" data-name="Rectangle 26519" width="187.389" height="54.768" rx="1.47" fill="#727997"/>
                <g id="Group_29058" data-name="Group 29058" transform="translate(8.487 7.978)">
                  <rect id="Rectangle_26520" data-name="Rectangle 26520" width="38.813" height="38.813" rx="0.634" fill="#eef0f2"/>
                </g>
                <g id="Group_29059" data-name="Group 29059" transform="translate(59.7 10.193)">
                  <rect id="Rectangle_26521" data-name="Rectangle 26521" width="109.178" height="4.866" rx="1.857" fill="#eef0f2"/>
                  <rect id="Rectangle_26522" data-name="Rectangle 26522" width="109.178" height="4.867" rx="1.857" transform="translate(0 14.758)" fill="#eef0f2"/>
                  <rect id="Rectangle_26523" data-name="Rectangle 26523" width="84.529" height="4.866" rx="1.857" transform="translate(0 29.516)" fill="#eef0f2"/>
                </g>
              </g>
              <path id="Path_68944" data-name="Path 68944" d="M430.79,382.916c-.149.595-.675,1.833-.192,2.378.3.336,1.021.36,1.426.377a4.481,4.481,0,0,0,1.506-.128c.643-.183,1.022-.325,1.19-1,.381-1.545.537-3.144.762-4.721.34-2.38.677-4.761.994-7.144.322-2.419.631-4.84.866-7.269.088-.9.167-1.813.206-2.721a5.131,5.131,0,0,0-.043-1.6c-.024-.079-.04-.241-.143-.263C436.375,360.605,430.792,382.907,430.79,382.916Z" transform="translate(-393.754 -218.908)" fill="#ffc8af"/>
              <path id="Path_68945" data-name="Path 68945" d="M444.22,354.5c3.008-.657.982-17.709-.438-24.874s-3.88-12.544-7.551-11.742-3.667,6.715-1.974,13.821S441.212,355.155,444.22,354.5Z" transform="translate(-393.551 -222.071)" fill="#ffc8af"/>
              <path id="Path_68946" data-name="Path 68946" d="M432,384.923c2.6.817,10.536-21.969,12.158-27.142s2.935-10.758.015-11.673-5.033,4.419-6.655,9.591S429.4,384.106,432,384.923Z" transform="translate(-393.681 -219.998)" fill="#ffc8af"/>
              <path id="Path_68947" data-name="Path 68947" d="M430.245,382.767l0,2.564a.467.467,0,0,0,.468.466l8.247-.006a.748.748,0,0,0,.451-1.347,31.313,31.313,0,0,0-4.543-2.468c-.337.3-.845,1.216-1.438,1.327A16.545,16.545,0,0,1,430.245,382.767Z" transform="translate(-393.766 -217.352)" fill="#00223d"/>
              <path id="Path_68948" data-name="Path 68948" d="M423.418,325.8h20.318l.836-32.677L443.06,283.9l-9.845-3.025-5.682,1.084a6.666,6.666,0,0,0-5.413,6.781l2.071,23.127Z" transform="translate(-394.363 -224.787)" fill="#ffc8af"/>
              <path id="Path_68949" data-name="Path 68949" d="M430.47,276.8v6.566a9.754,9.754,0,0,0,4.634.829c1.751,0,2.144-.829,2.144-.829v-2.427Z" transform="translate(-393.749 -225.086)" fill="#ffc8af"/>
              <path id="Path_68950" data-name="Path 68950" d="M429.759,272.9c.015.238.022.46.038.675,0,.077-.007.154-.007.238-.161,3.9,2.34,8.072,6.107,8.64,0,0,.031.008.085.015.031,0,.076.008.13.008.806.1,3.722.337,4.788-.836A9.925,9.925,0,0,0,443.263,276a22.157,22.157,0,0,0-.315-2.837c0-.544.292-2.25.3-2.99.026-3.478-2.316-6.93-6.475-6.93C430.534,263.239,429.582,268.71,429.759,272.9Z" transform="translate(-393.803 -226.084)" fill="#ffc8af"/>
              <path id="Path_68951" data-name="Path 68951" d="M436.781,283.034" transform="translate(-393.285 -224.628)" fill="#6ebaad"/>
              <g id="Group_29062" data-name="Group 29062" transform="translate(65.676 52.302)">
                <path id="Path_68952" data-name="Path 68952" d="M478.929,281.133c-1.19-1.545-12.887,6.794-16.1,9.269s-6.416,5.323-5.08,7.055,4.906-.643,8.116-3.117S480.119,282.678,478.929,281.133Z" transform="translate(-457.441 -277.084)" fill="#ffc8af"/>
                <g id="Group_29061" data-name="Group 29061" transform="translate(17.503)">
                  <path id="Path_68953" data-name="Path 68953" d="M477.6,279.825a.711.711,0,0,1-.275.148c-.035-.008-.029-.055,0-.123.173-.426,1.365-1.885.863-2.4-.551-.566-2.869,1.371-3.693,2.649-.046.071-.106.148-.142.214a2.944,2.944,0,0,0-.134,3.369c1.168,1.986,4.438-.472,5.522-1.352a5.825,5.825,0,0,0,1.865-2.593C480.284,279.825,479.092,279.749,477.6,279.825Z" transform="translate(-473.746 -277.348)" fill="#ffc8af"/>
                </g>
              </g>
              <path id="Path_68954" data-name="Path 68954" d="M443.631,326.412c2.969,8.68,3.48,20.865,3.152,26.229s-11.008,33.27-11.008,33.27a8.018,8.018,0,0,1-5.362-1.215s7.833-32.931,7.4-35.558-6.34-23.873-6.34-23.873Z" transform="translate(-393.753 -221.523)" fill="#00223d"/>
              <path id="Path_68955" data-name="Path 68955" d="M437.987,281.909a20.72,20.72,0,0,1,5.377,1.821,23.786,23.786,0,0,1,1.917,7.936c.071,1.231.064,4.767.02,9.206-.122,11.392-.495,28.777-.495,28.777H421.57s1.708-25.516,1.032-29.748c-2.04-12.771.016-16.881,3.575-17.88C431.507,280.525,434.513,281.62,437.987,281.909Z" transform="translate(-394.403 -224.759)" fill="#2194e5"/>
              <path id="Path_68956" data-name="Path 68956" d="M441.716,272.579s-.073,2.554-.438,2.737-.439-.7-.511-1.369c-.082-.761-.146-2.061-1.313-1.915s-.788,2.728-.534,3.6-1.311,4.388-2.322,4.5-5.062.438-5.609-.4a17.218,17.218,0,0,1-1.9-7.151c-.11-3.174-.73-7.516,2.225-8.464,0,0,.431-2.283,4.71-1.736s4.554,1.115,6.272,1.152a6.006,6.006,0,0,0,2.023-.438s.788,3.639-1.547,4.3c0,0,.546,2.453-.294,2.855S441.76,271.732,441.716,272.579Z" transform="translate(-393.86 -226.153)" fill="#00223d"/>
              <g id="Group_29063" data-name="Group 29063" transform="translate(43.43 58.395)">
                <path id="Path_68957" data-name="Path 68957" d="M462.032,297.384c.992-1.964-9.88-8.782-14.709-11.332s-9.09-3.7-10.3-1.3,2.242,5.147,7.159,7.519S461.04,299.348,462.032,297.384Z" transform="translate(-436.716 -282.993)" fill="#ffc8af"/>
                <path id="Path_68958" data-name="Path 68958" d="M437.823,283.583c-2.044,1.657-1.167,4.652,1.975,6.818a103.828,103.828,0,0,0,11.532,6.1c.135-.175.263-.35.384-.522,3.157-4.313,2.586-6.045,2.586-6.045C448.932,286.186,440.554,281.37,437.823,283.583Z" transform="translate(-436.72 -283.024)" fill="#2194e5"/>
              </g>
              <path id="Path_68959" data-name="Path 68959" d="M469.17,288.043c-.511-.571-3.294,2.163-4.189,2.87,1.513-.237,2.921-.471,4.117-.689C469.406,289.235,469.454,288.36,469.17,288.043Z" transform="translate(-391.211 -224.265)" fill="#ffc8af"/>
            </g>
          </g>
          <path id="Path_68960" data-name="Path 68960" d="M388.245,229.934a25.689,25.689,0,1,0-13.9,22.819c4.192,1.36,11.926,3.837,11.926,3.837l-3.254-11.126A25.568,25.568,0,0,0,388.245,229.934Z" transform="translate(-336.881 -96.578)" fill="#cbd9e4"/>
          <g id="Group_29066" data-name="Group 29066" transform="translate(58.173 73.976)">
            <path id="Path_68961" data-name="Path 68961" d="M405.49,173.022a8.411,8.411,0,1,0,6.591,6.589A8.415,8.415,0,0,0,405.49,173.022Zm2.994,16.65a9.559,9.559,0,0,1-9.313,0,12.761,12.761,0,0,0-8.1,11.885v.278a19.6,19.6,0,0,0,25.526,0v-.278A12.77,12.77,0,0,0,408.484,189.671Z" transform="translate(-391.069 -172.862)" fill="#cbd9e4"/>
          </g>
          <g id="Group_29067" data-name="Group 29067" transform="translate(225.969 263.706)">
            <path id="Path_68962" data-name="Path 68962" d="M547.372,358.363v-2.218l6.16-2.878v1.784l-4.811,2.2,4.811,2.2v1.783Z" transform="translate(-547.372 -349.326)" fill="#00223d"/>
            <path id="Path_68963" data-name="Path 68963" d="M559.756,349.6h2.068l-5.77,14.356H554Z" transform="translate(-546.885 -349.596)" fill="#00223d"/>
            <path id="Path_68964" data-name="Path 68964" d="M562.012,361.24v-1.783l4.8-2.2-4.8-2.2v-1.784l6.16,2.878v2.218Z" transform="translate(-546.296 -349.326)" fill="#00223d"/>
          </g>
          <path id="Rectangle_26524" data-name="Rectangle 26524" d="M2.949,0h125.5a2.949,2.949,0,0,1,2.949,2.949V12.5a2.949,2.949,0,0,1-2.949,2.949H2.948A2.948,2.948,0,0,1,0,12.5V2.949A2.949,2.949,0,0,1,2.949,0Z" transform="translate(132.141 207.104)" fill="#12263f"/>
          <path id="Path_68965" data-name="Path 68965" d="M493.588,357.107a6.083,6.083,0,0,0-.759-2.595l.751-.419a6.946,6.946,0,0,0-1.453-1.812l-.573.645a6.062,6.062,0,0,0-2.368-1.3l.235-.824-.011,0a6.946,6.946,0,0,0-1.893-.263c-.135,0-.272,0-.407.012l.052.86a6.074,6.074,0,0,0-2.595.757l-.419-.753a6.97,6.97,0,0,0-1.813,1.452l.644.574a6.059,6.059,0,0,0-1.3,2.367l-.825-.236,0,.017a6.944,6.944,0,0,0-.264,1.892c0,.134,0,.267.012.4l.86-.049a6.061,6.061,0,0,0,.756,2.595l-.754.419a6.967,6.967,0,0,0,1.45,1.813l.574-.643a6.043,6.043,0,0,0,2.366,1.305l-.236.826.021.005a6.956,6.956,0,0,0,1.893.264c.139,0,.279,0,.418-.013l-.053-.86a6.07,6.07,0,0,0,2.594-.761l.42.751a6.923,6.923,0,0,0,1.81-1.455l-.644-.572a6.048,6.048,0,0,0,1.3-2.369l.825.234v-.005a6.955,6.955,0,0,0,.264-1.892q0-.208-.013-.412Zm-7.573,5.689h0l.043-.15Zm5.044-4.324a3.669,3.669,0,1,1,.141-1A3.677,3.677,0,0,1,491.059,358.472Z" transform="translate(-326.314 -85.821)" fill="#00223d"/>
          <path id="Path_68966" data-name="Path 68966" d="M628.8,355.621v-3.48h-1.932v3.48h-3.481v1.932h3.481v3.481H628.8v-3.481h3.48v-1.932Z" transform="translate(-315.813 -85.703)" fill="#00223d"/>
          <g id="Group_29070" data-name="Group 29070" transform="translate(237.333 14.045)">
            <g id="Group_29069" data-name="Group 29069" transform="translate(0)">
              <rect id="Rectangle_26525" data-name="Rectangle 26525" width="136.12" height="86.481" rx="2.658" fill="url(#linear-gradient-2)"/>
              <g id="Group_29068" data-name="Group 29068" transform="translate(12.289 9.989)">
                <rect id="Rectangle_26526" data-name="Rectangle 26526" width="22.891" height="1.386" rx="0.443" transform="translate(69.052)" fill="#00223d"/>
                <rect id="Rectangle_26527" data-name="Rectangle 26527" width="65.413" height="1.386" rx="0.443" fill="#00223d"/>
                <rect id="Rectangle_26528" data-name="Rectangle 26528" width="22.813" height="1.386" rx="0.443" transform="translate(88.73 7.235)" fill="#00223d"/>
                <rect id="Rectangle_26529" data-name="Rectangle 26529" width="20.134" height="1.386" rx="0.443" transform="translate(0 7.235)" fill="#00223d"/>
                <rect id="Rectangle_26530" data-name="Rectangle 26530" width="61.506" height="1.386" rx="0.443" transform="translate(23.947 7.235)" fill="#00223d"/>
                <rect id="Rectangle_26531" data-name="Rectangle 26531" width="38.693" height="1.386" rx="0.443" transform="translate(64.657 14.47)" fill="#00223d"/>
                <rect id="Rectangle_26532" data-name="Rectangle 26532" width="60.813" height="1.386" rx="0.443" transform="translate(0 14.47)" fill="#00223d"/>
                <rect id="Rectangle_26533" data-name="Rectangle 26533" width="28.852" height="1.386" rx="0.443" transform="translate(0 21.705)" fill="#00223d"/>
                <rect id="Rectangle_26534" data-name="Rectangle 26534" width="79.24" height="1.386" rx="0.443" transform="translate(32.302 21.705)" fill="#00223d"/>
                <rect id="Rectangle_26535" data-name="Rectangle 26535" width="94.149" height="1.386" rx="0.443" transform="translate(0 28.94)" fill="#00223d"/>
                <rect id="Rectangle_26536" data-name="Rectangle 26536" width="16.196" height="1.386" rx="0.443" transform="translate(0 36.175)" fill="#00223d"/>
                <rect id="Rectangle_26537" data-name="Rectangle 26537" width="61.884" height="1.386" rx="0.443" transform="translate(20.481 36.175)" fill="#00223d"/>
                <rect id="Rectangle_26538" data-name="Rectangle 26538" width="18.653" height="1.386" rx="0.443" transform="translate(86.902 36.175)" fill="#00223d"/>
                <rect id="Rectangle_26539" data-name="Rectangle 26539" width="63.775" height="1.386" rx="0.443" transform="translate(0 43.41)" fill="#00223d"/>
                <rect id="Rectangle_26540" data-name="Rectangle 26540" width="43.546" height="1.386" rx="0.443" transform="translate(67.997 43.41)" fill="#00223d"/>
                <rect id="Rectangle_26541" data-name="Rectangle 26541" width="10.241" height="1.386" rx="0.443" transform="translate(96.67 50.645)" fill="#00223d"/>
                <rect id="Rectangle_26542" data-name="Rectangle 26542" width="27.46" height="1.386" rx="0.443" transform="translate(0 50.645)" fill="#00223d"/>
                <rect id="Rectangle_26543" data-name="Rectangle 26543" width="61.017" height="1.386" rx="0.443" transform="translate(31.43 50.645)" fill="#00223d"/>
                <rect id="Rectangle_26544" data-name="Rectangle 26544" width="50.415" height="1.386" rx="0.443" transform="translate(61.128 57.88)" fill="#00223d"/>
                <rect id="Rectangle_26545" data-name="Rectangle 26545" width="57.347" height="1.386" rx="0.443" transform="translate(0 57.88)" fill="#00223d"/>
                <rect id="Rectangle_26546" data-name="Rectangle 26546" width="67.304" height="1.386" rx="0.443" transform="translate(12.289 65.115)" fill="#00223d"/>
                <rect id="Rectangle_26547" data-name="Rectangle 26547" width="7.877" height="1.386" rx="0.443" transform="translate(0 65.115)" fill="#00223d"/>
              </g>
            </g>
          </g>
          <rect id="Rectangle_26548" data-name="Rectangle 26548" width="445.987" height="5.984" rx="2.787" transform="translate(7.845 374.909)" fill="#12263f"/>
          <rect id="Rectangle_26549" data-name="Rectangle 26549" width="143.521" height="30.744" rx="3.608" transform="translate(25.943 21.019)" fill="url(#linear-gradient-8)"/>
          <g id="Group_29071" data-name="Group 29071" transform="translate(60.767 29.039)">
            <rect id="Rectangle_26550" data-name="Rectangle 26550" width="96.537" height="2.081" rx="0.794" fill="#e6eef3"/>
            <rect id="Rectangle_26551" data-name="Rectangle 26551" width="96.537" height="2.081" rx="0.794" transform="translate(0 6.311)" fill="#e6eef3"/>
            <rect id="Rectangle_26552" data-name="Rectangle 26552" width="74.741" height="2.081" rx="0.794" transform="translate(0 12.622)" fill="#e6eef3"/>
          </g>
          <circle id="Ellipse_3367" data-name="Ellipse 3367" cx="11.065" cy="11.065" r="11.065" transform="translate(27.524 36.391) rotate(-45)" fill="#e6eef3"/>
          <g id="Group_29072" data-name="Group 29072" transform="translate(38.093 29.687)">
            <path id="Path_68967" data-name="Path 68967" d="M378.1,131.67a3.346,3.346,0,1,0,2.623,2.622A3.348,3.348,0,0,0,378.1,131.67Zm1.192,6.625a3.808,3.808,0,0,1-3.7,0,5.076,5.076,0,0,0-3.224,4.728v.111a7.8,7.8,0,0,0,10.157,0v-.111A5.08,5.08,0,0,0,379.294,138.3Z" transform="translate(-372.365 -131.607)" fill="#cbd9e4"/>
          </g>
          <g id="Group_29077" data-name="Group 29077" transform="translate(2.023 217.756)">
            <rect id="Rectangle_26553" data-name="Rectangle 26553" width="72.372" height="45.132" rx="2.294" fill="#cbd9e4"/>
            <g id="Group_29075" data-name="Group 29075" transform="translate(6.287 9.784)">
              <g id="Group_29073" data-name="Group 29073">
                <rect id="Rectangle_26554" data-name="Rectangle 26554" width="4.385" height="25.564" fill="#f6c343"/>
                <rect id="Rectangle_26555" data-name="Rectangle 26555" width="4.385" height="25.564" transform="translate(9.394)" fill="#f6c343"/>
                <rect id="Rectangle_26556" data-name="Rectangle 26556" width="4.385" height="25.564" transform="translate(18.788)" fill="#f6c343"/>
                <rect id="Rectangle_26557" data-name="Rectangle 26557" width="4.385" height="25.564" transform="translate(28.183)" fill="#f6c343"/>
                <rect id="Rectangle_26558" data-name="Rectangle 26558" width="4.385" height="25.564" transform="translate(37.577)" fill="#f6c343"/>
              </g>
              <g id="Group_29074" data-name="Group 29074">
                <rect id="Rectangle_26559" data-name="Rectangle 26559" width="4.385" height="6.384" fill="#f1f1f1"/>
                <rect id="Rectangle_26560" data-name="Rectangle 26560" width="4.385" height="14.899" transform="translate(9.394)" fill="#f1f1f1"/>
                <rect id="Rectangle_26561" data-name="Rectangle 26561" width="4.385" height="10.871" transform="translate(18.788)" fill="#f1f1f1"/>
                <rect id="Rectangle_26562" data-name="Rectangle 26562" width="4.385" height="18.443" transform="translate(28.183)" fill="#f1f1f1"/>
                <rect id="Rectangle_26563" data-name="Rectangle 26563" width="4.385" height="21.741" transform="translate(37.577)" fill="#f1f1f1"/>
              </g>
            </g>
            <g id="Group_29076" data-name="Group 29076" transform="translate(52.979 9.784)" style="mix-blend-mode: multiply;isolation: isolate">
              <rect id="Rectangle_26564" data-name="Rectangle 26564" width="13.292" height="2.132" fill="#dce8ef"/>
              <rect id="Rectangle_26565" data-name="Rectangle 26565" width="13.292" height="2.132" transform="translate(0 4.686)" fill="#dce8ef"/>
              <rect id="Rectangle_26566" data-name="Rectangle 26566" width="13.292" height="2.132" transform="translate(0 9.373)" fill="#dce8ef"/>
              <rect id="Rectangle_26567" data-name="Rectangle 26567" width="13.292" height="2.132" transform="translate(0 14.059)" fill="#dce8ef"/>
              <rect id="Rectangle_26568" data-name="Rectangle 26568" width="13.292" height="2.132" transform="translate(0 18.746)" fill="#dce8ef"/>
              <rect id="Rectangle_26569" data-name="Rectangle 26569" width="13.292" height="2.132" transform="translate(0 23.432)" fill="#dce8ef"/>
            </g>
          </g>
          <g id="Group_29082" data-name="Group 29082" transform="translate(290.87 112.799)">
            <rect id="Rectangle_26570" data-name="Rectangle 26570" width="72.373" height="45.132" rx="2.294" transform="translate(0)" fill="url(#linear-gradient-2)"/>
            <g id="Group_29078" data-name="Group 29078" transform="translate(8.19 4.293)" style="mix-blend-mode: multiply;isolation: isolate">
              <line id="Line_260" data-name="Line 260" y2="36.545" transform="translate(55.993)" fill="none" stroke="#dce8ef" stroke-miterlimit="10" stroke-width="0.5"/>
              <line id="Line_261" data-name="Line 261" y2="36.545" transform="translate(46.66)" fill="none" stroke="#dce8ef" stroke-miterlimit="10" stroke-width="0.5"/>
              <line id="Line_262" data-name="Line 262" y2="36.545" transform="translate(37.328)" fill="none" stroke="#dce8ef" stroke-miterlimit="10" stroke-width="0.5"/>
              <line id="Line_263" data-name="Line 263" y2="36.545" transform="translate(27.996)" fill="none" stroke="#dce8ef" stroke-miterlimit="10" stroke-width="0.5"/>
              <line id="Line_264" data-name="Line 264" y2="36.545" transform="translate(18.664)" fill="none" stroke="#dce8ef" stroke-miterlimit="10" stroke-width="0.5"/>
              <line id="Line_265" data-name="Line 265" y2="36.545" fill="none" stroke="#dce8ef" stroke-miterlimit="10" stroke-width="0.5"/>
              <line id="Line_266" data-name="Line 266" y2="36.545" transform="translate(9.332)" fill="none" stroke="#dce8ef" stroke-miterlimit="10" stroke-width="0.5"/>
            </g>
            <g id="Group_29081" data-name="Group 29081" transform="translate(6.33 4.878)">
              <g id="Group_29080" data-name="Group 29080">
                <path id="Path_68968" data-name="Path 68968" d="M615.456,242.028l9.332-9.038,9.332-2.345,9.332-9.239,9.332,3.72,9.332-4.711,9.333-5.112" transform="translate(-613.596 -213.443)" fill="none" stroke="#f6c343" stroke-linecap="round" stroke-miterlimit="10" stroke-width="1"/>
                <g id="Group_29079" data-name="Group 29079">
                  <rect id="Rectangle_26571" data-name="Rectangle 26571" width="3.72" height="3.72" transform="translate(0 26.725)" fill="#002b45"/>
                  <rect id="Rectangle_26572" data-name="Rectangle 26572" width="3.72" height="3.72" transform="translate(9.332 17.688)" fill="#00223d"/>
                  <rect id="Rectangle_26573" data-name="Rectangle 26573" width="3.72" height="3.72" transform="translate(18.664 15.342)" fill="#00223d"/>
                  <rect id="Rectangle_26574" data-name="Rectangle 26574" width="3.72" height="3.72" transform="translate(27.996 6.104)" fill="#00223d"/>
                  <rect id="Rectangle_26575" data-name="Rectangle 26575" width="3.72" height="3.72" transform="translate(37.328 9.823)" fill="#00223d"/>
                  <rect id="Rectangle_26576" data-name="Rectangle 26576" width="3.72" height="3.72" transform="translate(46.661 5.112)" fill="#00223d"/>
                  <rect id="Rectangle_26577" data-name="Rectangle 26577" width="3.72" height="3.72" transform="translate(55.993)" fill="#00223d"/>
                </g>
              </g>
            </g>
          </g>
          <path id="Path_68969" data-name="Path 68969" d="M378.508,230.2h.4a1.093,1.093,0,0,0,0-2.186h-.4l1.648-3.167h-4.248a14.752,14.752,0,1,0,0,8.522h4.249Zm-16.721,11.473a12.566,12.566,0,1,1,11.822-16.825h-.057l-1.648,3.167h-.468a9.712,9.712,0,1,0,0,2.186h.466l1.65,3.169h.056A12.587,12.587,0,0,1,361.786,241.674Zm3.755-13.658a3.913,3.913,0,1,0,0,2.186h3.691a7.527,7.527,0,1,1,0-2.186Z" transform="translate(-336.134 -95.835)" fill="#12263f"/>
          <path id="Path_68970" data-name="Path 68970" d="M640.67,316.979h10.224v-3.813H640.67Zm13.435-14.506c.076-.909.124-1.827.124-2.756a32.622,32.622,0,0,0-7.107-20.375,1.717,1.717,0,0,0-2.68,0,32.622,32.622,0,0,0-7.105,20.375c0,.929.047,1.847.124,2.756-5.1,3.431-8.456,11.924-4.729,18.479a.681.681,0,0,0,1.261-.163c.573-2.467,2.119-7.008,5.872-8.769H651.7c3.755,1.761,5.3,6.3,5.873,8.769a.681.681,0,0,0,1.261.163C662.562,314.4,659.2,305.9,654.106,302.473Zm-8.323-8.28a3.013,3.013,0,1,1,3.014-3.012A3.012,3.012,0,0,1,645.783,294.193Z" transform="translate(-315.243 -91.103)" fill="#c5e5fe"/>
          <g id="Group_29083" data-name="Group 29083" transform="translate(29.196 60.219)">
            <path id="Path_68971" data-name="Path 68971" d="M366.335,164.562a2.258,2.258,0,1,0-1.6-.661,2.277,2.277,0,0,0,1.6.661" transform="translate(-364.077 -160.047)" fill="#cbd9e4"/>
            <path id="Path_68972" data-name="Path 68972" d="M396.647,164.562h.011a2.258,2.258,0,1,0,0-4.515h-.011a2.258,2.258,0,0,0,0,4.515Zm-15.7,0h.011a2.258,2.258,0,1,0,0-4.515h-.011a2.258,2.258,0,0,0,0,4.515Z" transform="translate(-363.002 -160.047)" fill="#cbd9e4"/>
            <path id="Path_68973" data-name="Path 68973" d="M410.205,164.562a2.256,2.256,0,1,0-1.6-.661,2.273,2.273,0,0,0,1.6.661" transform="translate(-360.851 -160.047)" fill="#cbd9e4"/>
          </g>
          <g id="Group_29084" data-name="Group 29084" transform="translate(304.927 0)">
            <path id="Path_68974" data-name="Path 68974" d="M623.178,108.467a2.258,2.258,0,1,0-1.6-.661,2.269,2.269,0,0,0,1.6.661" transform="translate(-620.921 -103.953)" fill="#cbd9e4"/>
            <path id="Path_68975" data-name="Path 68975" d="M653.491,108.467h.012a2.257,2.257,0,1,0,0-4.514h-.012a2.257,2.257,0,1,0,0,4.514Zm-15.7,0h.012a2.257,2.257,0,1,0,0-4.514h-.012a2.257,2.257,0,0,0,0,4.514Z" transform="translate(-619.846 -103.953)" fill="#cbd9e4"/>
            <path id="Path_68976" data-name="Path 68976" d="M667.051,108.467a2.257,2.257,0,1,0-1.6-.661,2.273,2.273,0,0,0,1.6.661" transform="translate(-617.695 -103.953)" fill="#cbd9e4"/>
          </g>
          <g id="Group_29085" data-name="Group 29085" transform="translate(30.303 340.5)">
            <path id="Path_68977" data-name="Path 68977" d="M375.047,431.069h-9.939V421.13h9.939Zm-8.246-1.693h6.553v-6.553H366.8Z" transform="translate(-365.108 -421.13)" fill="#dfe1f7"/>
          </g>
          <g id="Group_29086" data-name="Group 29086" transform="translate(359.731 207.171)">
            <path id="Path_68978" data-name="Path 68978" d="M681.91,306.872h-9.939v-9.939h9.939Zm-8.246-1.694h6.552v-6.552h-6.552Z" transform="translate(-671.971 -296.933)" fill="#cbd9e4"/>
          </g>
          <g id="Group_29087" data-name="Group 29087" transform="translate(359.731 223.532)">
            <path id="Path_68979" data-name="Path 68979" d="M681.91,322.113h-9.939v-9.939h9.939Zm-8.246-1.693h6.552v-6.552h-6.552Z" transform="translate(-671.971 -312.174)" fill="#cbd9e4"/>
          </g>
          <path id="Path_68980" data-name="Path 68980" d="M385.871,375.462v-5.919h-3.285v5.919h-5.92v3.285h5.92v5.92h3.285v-5.92h5.919v-3.285Z" transform="translate(-333.955 -84.423)" fill="#002b45"/>
          <path id="Path_68981" data-name="Path 68981" d="M639.2,438.6a1.946,1.946,0,1,0,1.375.57A1.959,1.959,0,0,0,639.2,438.6Zm10.037,0h-.01a1.946,1.946,0,0,0,0,3.891h.01a1.946,1.946,0,0,0,0-3.891ZM639.2,428.661a1.946,1.946,0,1,0,1.375.57A1.964,1.964,0,0,0,639.2,428.661Zm10.027,3.892h.01a1.946,1.946,0,0,0,0-3.892h-.01a1.946,1.946,0,0,0,0,3.892Z" transform="translate(-314.793 -80.076)" fill="#f9fbfc"/>
          <path id="Path_68982" data-name="Path 68982" d="M350.146,295.656a2.258,2.258,0,1,0,1.6.661A2.276,2.276,0,0,0,350.146,295.656Zm11.646,0h-.011a2.258,2.258,0,1,0,0,4.515h.011a2.258,2.258,0,1,0,0-4.515Zm-11.646-11.53a2.256,2.256,0,1,0,1.6.66A2.275,2.275,0,0,0,350.146,284.126Zm11.635,4.514h.011a2.257,2.257,0,1,0,0-4.514h-.011a2.257,2.257,0,1,0,0,4.514Z" transform="translate(-336.072 -90.704)" fill="#cbd9e4"/>
          <path id="Path_68983" data-name="Path 68983" d="M660.638,269.593H651.31V271.1h9.328ZM654.584,279l1.065,1.065,6.595-6.6-1.065-1.065Zm13.385-9.408V271.1H677.3v-1.506Zm-13.385-7.9,6.595,6.595,1.065-1.065-6.595-6.595Zm19.438,0-1.065-1.065-6.595,6.595,1.065,1.065Zm-7.66,11.779,6.595,6.6L674.023,279l-6.595-6.6Zm-2.812-6.791h1.506v-9.326h-1.506Zm0,16.659h1.506v-9.326h-1.506Z" transform="translate(-313.759 -92.673)" fill="#cbd9e4"/>
          <path id="Path_68984" data-name="Path 68984" d="M388.43,179.931H355.264a5,5,0,0,0-5,5v18.545" transform="translate(-335.897 -98.366)" fill="none" stroke="#cbd9e4" stroke-miterlimit="10" stroke-width="2"/>
          <path id="Path_68985" data-name="Path 68985" d="M660,290.711h26.682a3.546,3.546,0,0,1,3.547,3.546V341.1a3.546,3.546,0,0,1-3.547,3.546h-9.932" transform="translate(-313.121 -90.22)" fill="none" stroke="#cbd9e4" stroke-miterlimit="10" stroke-width="2"/>
          <path id="Path_68986" data-name="Path 68986" d="M372.477,378.282h-18.6a4.8,4.8,0,0,1-4.8-4.8V353.538" transform="translate(-335.985 -85.6)" fill="none" stroke="#cbd9e4" stroke-miterlimit="10" stroke-width="2"/>
          <path id="Path_68987" data-name="Path 68987" d="M413.173,120.233v-9.494a4.683,4.683,0,0,1,4.684-4.683h206.72" transform="translate(-331.271 -103.798)" fill="none" stroke="#cbd9e4" stroke-miterlimit="10" stroke-width="2"/>
          <line id="Line_267" data-name="Line 267" y2="45.572" transform="translate(50.272 304.867)" fill="none" stroke="#dfe1f7" stroke-miterlimit="10" stroke-width="2"/>
        </g>
      </g>
    </g>
  </g>
</svg>
