<svg xmlns="http://www.w3.org/2000/svg" width="83" height="112.155" viewBox="0 0 83 112.155">
  <g id="Group_154297" data-name="Group 154297" transform="translate(-922 -3130.001)">
    <path id="Path_194622" data-name="Path 194622" d="M18.434,17H16.09V12.125H11.52V17H9.176V5.625H11.52v4.609h4.57V5.625h2.344Zm1.547-4.3a5.013,5.013,0,0,1,.484-2.242A3.546,3.546,0,0,1,21.859,8.93a4.069,4.069,0,0,1,2.113-.539,3.849,3.849,0,0,1,2.793,1.047,4.2,4.2,0,0,1,1.207,2.844l.016.578A4.418,4.418,0,0,1,26.9,15.98a3.775,3.775,0,0,1-2.914,1.176,3.793,3.793,0,0,1-2.918-1.172A4.5,4.5,0,0,1,19.98,12.8Zm2.258.16a3.16,3.16,0,0,0,.453,1.843,1.628,1.628,0,0,0,2.578.008,3.457,3.457,0,0,0,.461-2.015,3.128,3.128,0,0,0-.461-1.831,1.5,1.5,0,0,0-1.3-.649,1.474,1.474,0,0,0-1.281.646A3.516,3.516,0,0,0,22.238,12.856Zm11.891-2.192a6.134,6.134,0,0,0-.812-.062,1.654,1.654,0,0,0-1.68.867V17H29.379V8.547h2.133l.063,1.008a2.092,2.092,0,0,1,1.883-1.164,2.366,2.366,0,0,1,.7.1ZM37.6,17H35.332V8.547H37.6ZM35.2,6.359a1.112,1.112,0,0,1,.34-.836,1.465,1.465,0,0,1,1.848,0,1.105,1.105,0,0,1,.344.836,1.108,1.108,0,0,1-.348.844,1.448,1.448,0,0,1-1.836,0A1.108,1.108,0,0,1,35.2,6.359Zm6.852,8.82h4.133V17H39.168V15.625l3.977-5.258H39.285V8.547h6.773v1.33Zm5.07-2.484a5.013,5.013,0,0,1,.484-2.242A3.546,3.546,0,0,1,49,8.93a4.069,4.069,0,0,1,2.113-.539,3.849,3.849,0,0,1,2.793,1.047,4.2,4.2,0,0,1,1.207,2.844l.016.578a4.418,4.418,0,0,1-1.086,3.121,4.209,4.209,0,0,1-5.832,0,4.5,4.5,0,0,1-1.09-3.187Zm2.258.16a3.16,3.16,0,0,0,.453,1.843,1.628,1.628,0,0,0,2.578.008,3.457,3.457,0,0,0,.461-2.015,3.128,3.128,0,0,0-.461-1.831,1.5,1.5,0,0,0-1.3-.649,1.474,1.474,0,0,0-1.281.646A3.516,3.516,0,0,0,49.379,12.856ZM58.6,8.547l.07.977A2.951,2.951,0,0,1,61.1,8.391a2.453,2.453,0,0,1,2,.789,3.682,3.682,0,0,1,.672,2.359V17H61.512V11.594a1.465,1.465,0,0,0-.312-1.043,1.4,1.4,0,0,0-1.039-.324,1.553,1.553,0,0,0-1.43.813V17H56.473V8.547Zm9.586-2.078V8.547h1.445V10.2H68.184v4.219a1.007,1.007,0,0,0,.18.672.9.9,0,0,0,.688.2,3.6,3.6,0,0,0,.664-.055v1.711a4.648,4.648,0,0,1-1.367.2,2.156,2.156,0,0,1-2.422-2.4V10.2H64.691V8.547h1.234V6.469ZM75.785,17a2.507,2.507,0,0,1-.227-.758,2.732,2.732,0,0,1-2.133.914,3,3,0,0,1-2.059-.719,2.312,2.312,0,0,1-.816-1.812,2.389,2.389,0,0,1,1-2.062,4.915,4.915,0,0,1,2.879-.727h1.039v-.484a1.393,1.393,0,0,0-.3-.937,1.183,1.183,0,0,0-.949-.352,1.345,1.345,0,0,0-.895.273.929.929,0,0,0-.324.75H70.738a2.268,2.268,0,0,1,.453-1.359,3,3,0,0,1,1.281-.98,4.669,4.669,0,0,1,1.859-.355,3.689,3.689,0,0,1,2.48.785,2.747,2.747,0,0,1,.918,2.207v3.664a4.041,4.041,0,0,0,.336,1.82V17Zm-1.867-1.57a1.945,1.945,0,0,0,.922-.223,1.462,1.462,0,0,0,.625-.6V13.156h-.844q-1.7,0-1.8,1.172l-.008.133a.9.9,0,0,0,.3.7A1.153,1.153,0,0,0,73.918,15.43ZM81.848,17H79.582V5h2.266Z" transform="translate(920 3225)" fill="#12263f"/>
    <g id="Group_152127" data-name="Group 152127" transform="translate(921.933 3130.367)">
      <circle id="Ellipse_4775" data-name="Ellipse 4775" cx="41.5" cy="41.5" r="41.5" transform="translate(0.067 -0.366)" fill="#baa1e1"/>
    </g>
    <g id="Group_152132" data-name="Group 152132" transform="translate(681.618 3429.621) rotate(-90)">
      <path id="Path_193805" data-name="Path 193805" d="M249.035,255.918a13.4,13.4,0,0,0,.811,1.586q6.369,9.277,12.778,18.527c.786,1.133,1.336,2.259.446,3.537a3.205,3.205,0,0,1-3.757,1.109c-1.347-.338-2.676-.751-4.168-1.175v22.4H242.4v-22.4c-1.24.349-2.282.651-3.328.934a11.219,11.219,0,0,1-1.627.376,2.992,2.992,0,0,1-3.157-1.445c-.682-1.14-.25-2.132.426-3.108q6.542-9.463,13.066-18.94c.316-.458.612-.929.918-1.394Z" fill="#fff"/>
      <path id="Path_193806" data-name="Path 193806" d="M318.143,323.633c-2.465-3.582-5.01-6.88-7.063-10.46-.816-1.424-.539-3.475-.76-5.241l.541-.148,7.321,10.541,11.341-16.439-7.952,2.158v-22.8h-6.664v7.638c-2.917-2.543-3.7-5.516-2.891-10.682h12.519v21.875c1.553-.421,2.895-.765,4.225-1.148a3.144,3.144,0,0,1,3.747,1.1c.916,1.269.33,2.395-.456,3.528q-6.563,9.455-13.071,18.948C318.762,322.822,318.523,323.123,318.143,323.633Z" transform="translate(-50.679 -14.787)" fill="#fff"/>
    </g>
  </g>
</svg>
