<svg xmlns="http://www.w3.org/2000/svg" width="83" height="112.155" viewBox="0 0 83 112.155">
  <g id="Group_154299" data-name="Group 154299" transform="translate(-1297 -3130.001)">
    <path id="Path_194624" data-name="Path 194624" d="M13.836,5.625l2.922,8.25,2.906-8.25h3.078V17H20.391V13.891l.234-5.367L17.555,17H15.945L12.883,8.531l.234,5.359V17H10.773V5.625ZM29.539,17a2.507,2.507,0,0,1-.227-.758,2.732,2.732,0,0,1-2.133.914,3,3,0,0,1-2.059-.719,2.312,2.312,0,0,1-.816-1.812,2.389,2.389,0,0,1,1-2.062,4.915,4.915,0,0,1,2.879-.727h1.039v-.484a1.393,1.393,0,0,0-.3-.937,1.183,1.183,0,0,0-.949-.352,1.345,1.345,0,0,0-.895.273.929.929,0,0,0-.324.75H24.492a2.268,2.268,0,0,1,.453-1.359,3,3,0,0,1,1.281-.98,4.669,4.669,0,0,1,1.859-.355,3.689,3.689,0,0,1,2.48.785,2.747,2.747,0,0,1,.918,2.207v3.664a4.041,4.041,0,0,0,.336,1.82V17Zm-1.867-1.57a1.945,1.945,0,0,0,.922-.223,1.462,1.462,0,0,0,.625-.6V13.156h-.844q-1.7,0-1.8,1.172l-.008.133a.9.9,0,0,0,.3.7A1.153,1.153,0,0,0,27.672,15.43Zm8.25-8.961V8.547h1.445V10.2H35.922v4.219a1.007,1.007,0,0,0,.18.672.9.9,0,0,0,.688.2,3.6,3.6,0,0,0,.664-.055v1.711a4.648,4.648,0,0,1-1.367.2,2.156,2.156,0,0,1-2.422-2.4V10.2H32.43V8.547h1.234V6.469Zm7.453,4.2a6.134,6.134,0,0,0-.812-.062,1.654,1.654,0,0,0-1.68.867V17H38.625V8.547h2.133l.063,1.008A2.092,2.092,0,0,1,42.7,8.391a2.366,2.366,0,0,1,.7.1ZM46.844,17H44.578V8.547h2.266Zm-2.4-10.641a1.112,1.112,0,0,1,.34-.836,1.465,1.465,0,0,1,1.848,0,1.105,1.105,0,0,1,.344.836,1.108,1.108,0,0,1-.348.844,1.448,1.448,0,0,1-1.836,0A1.108,1.108,0,0,1,44.445,6.359Zm7.773,8.977a1.481,1.481,0,0,0,1.016-.344,1.2,1.2,0,0,0,.406-.914h2.117a2.9,2.9,0,0,1-.469,1.574,3.093,3.093,0,0,1-1.262,1.109,3.949,3.949,0,0,1-1.77.395A3.67,3.67,0,0,1,49.4,16a4.56,4.56,0,0,1-1.047-3.184v-.148a4.508,4.508,0,0,1,1.039-3.117,3.627,3.627,0,0,1,2.852-1.164,3.555,3.555,0,0,1,2.543.9,3.2,3.2,0,0,1,.973,2.4H53.641a1.551,1.551,0,0,0-.406-1.072,1.51,1.51,0,0,0-2.223.163,3.333,3.333,0,0,0-.4,1.866v.235a3.375,3.375,0,0,0,.4,1.878A1.377,1.377,0,0,0,52.219,15.336ZM59.43,17H57.164V8.547H59.43Zm-2.4-10.641a1.112,1.112,0,0,1,.34-.836,1.465,1.465,0,0,1,1.848,0,1.105,1.105,0,0,1,.344.836,1.108,1.108,0,0,1-.348.844,1.448,1.448,0,0,1-1.836,0A1.108,1.108,0,0,1,57.031,6.359ZM66.188,17a2.507,2.507,0,0,1-.227-.758,2.732,2.732,0,0,1-2.133.914,3,3,0,0,1-2.059-.719,2.312,2.312,0,0,1-.816-1.812,2.389,2.389,0,0,1,1-2.062,4.915,4.915,0,0,1,2.879-.727h1.039v-.484a1.393,1.393,0,0,0-.3-.937,1.183,1.183,0,0,0-.949-.352,1.345,1.345,0,0,0-.895.273.929.929,0,0,0-.324.75H61.141a2.268,2.268,0,0,1,.453-1.359,3,3,0,0,1,1.281-.98,4.669,4.669,0,0,1,1.859-.355,3.689,3.689,0,0,1,2.48.785,2.747,2.747,0,0,1,.918,2.207v3.664a4.041,4.041,0,0,0,.336,1.82V17ZM64.32,15.43a1.945,1.945,0,0,0,.922-.223,1.462,1.462,0,0,0,.625-.6V13.156h-.844q-1.7,0-1.8,1.172l-.008.133a.9.9,0,0,0,.3.7A1.153,1.153,0,0,0,64.32,15.43ZM72.25,17H69.984V5H72.25Z" transform="translate(1297 3225)" fill="#12263f"/>
    <g id="Group_152129" data-name="Group 152129" transform="translate(1297 3130.367)">
      <circle id="Ellipse_4775" data-name="Ellipse 4775" cx="41.5" cy="41.5" r="41.5" transform="translate(0 -0.366)" fill="#baa1e1"/>
      <g id="ZODITg.tif" transform="translate(-41.333 1657.668)">
        <g id="Group_152134" data-name="Group 152134" transform="translate(50.838 -1649.543)">
          <path id="Path_193810" data-name="Path 193810" d="M247.268-1584.583a4.781,4.781,0,0,1-.694-.864q-3.7-7.737-7.365-15.49c-.528-1.114-.194-1.648,1.026-1.652,1.136,0,2.272,0,3.441,0v-28.956c-1.167,0-2.3,0-3.439,0-1.223,0-1.558-.535-1.03-1.649q3.675-7.749,7.355-15.5c.191-.4.366-.84.911-.852.561-.012.789.389,1,.829q3.687,7.778,7.384,15.551c.5,1.063.152,1.607-1.033,1.611-1.1,0-2.195,0-3.344,0v28.958h2.932c1.788,0,2.022.365,1.259,1.973q-3.552,7.492-7.111,14.98a10.706,10.706,0,0,1-.657,1.056Z" transform="translate(-215.053 1649.543)" fill="#fff"/>
          <path id="Path_193811" data-name="Path 193811" d="M388.807-1452.644a4.372,4.372,0,0,1-.81.66q-7.787,3.727-15.59,7.421c-1.062.5-1.6.149-1.6-1.044,0-1.1,0-2.193,0-3.377h-7.188v-7.719H370.8c0-1.149,0-2.239,0-3.329a3.506,3.506,0,0,1,.045-.755.812.812,0,0,1,1.1-.634,3.427,3.427,0,0,1,.527.209q7.714,3.66,15.421,7.334a5.152,5.152,0,0,1,.913.727Z" transform="translate(-323.859 1485.373)" fill="#fff"/>
          <path id="Path_193812" data-name="Path 193812" d="M68.831-1456.687h7.227V-1449H68.831c0,1.113,0,2.162,0,3.212a3.781,3.781,0,0,1-.039.756.8.8,0,0,1-1.083.659,2.921,2.921,0,0,1-.527-.207q-7.747-3.675-15.492-7.354c-.4-.192-.841-.361-.85-.909s.392-.79.832-1q7.778-3.683,15.552-7.374c1.074-.509,1.6-.166,1.608,1.027C68.833-1459.05,68.831-1457.912,68.831-1456.687Z" transform="translate(-50.838 1485.352)" fill="#fff"/>
        </g>
      </g>
    </g>
  </g>
</svg>
