<svg xmlns="http://www.w3.org/2000/svg" width="84" height="112.155" viewBox="0 0 84 112.155">
  <g id="Group_154296" data-name="Group 154296" transform="translate(-734 -3130.001)">
    <path id="Path_194621" data-name="Path 194621" d="M65.145,14.18l2.578-8.555h2.609L66.371,17H63.926L59.98,5.625h2.6Zm10,2.977a4.15,4.15,0,0,1-3.027-1.141,4.054,4.054,0,0,1-1.168-3.039v-.219a5.106,5.106,0,0,1,.492-2.277,3.612,3.612,0,0,1,1.395-1.547,3.914,3.914,0,0,1,2.059-.543,3.508,3.508,0,0,1,2.73,1.094,4.444,4.444,0,0,1,1,3.1v.922H73.238a2.1,2.1,0,0,0,.66,1.328,2,2,0,0,0,1.395.5,2.437,2.437,0,0,0,2.039-.945l1.109,1.242a3.389,3.389,0,0,1-1.375,1.121A4.511,4.511,0,0,1,75.145,17.156Zm-.258-6.945a1.411,1.411,0,0,0-1.09.455,2.357,2.357,0,0,0-.535,1.3H76.4v-.181A1.681,1.681,0,0,0,76,10.623,1.456,1.456,0,0,0,74.887,10.211Zm9.766.453a6.134,6.134,0,0,0-.812-.062,1.654,1.654,0,0,0-1.68.867V17H79.9V8.547h2.133L82.1,9.555A2.092,2.092,0,0,1,83.98,8.391a2.366,2.366,0,0,1,.7.1Zm4.18-4.2V8.547h1.445V10.2H88.832v4.219a1.007,1.007,0,0,0,.18.672.9.9,0,0,0,.688.2,3.6,3.6,0,0,0,.664-.055v1.711a4.648,4.648,0,0,1-1.367.2,2.156,2.156,0,0,1-2.422-2.4V10.2H85.34V8.547h1.234V6.469ZM93.918,17H91.652V8.547h2.266ZM91.52,6.359a1.112,1.112,0,0,1,.34-.836,1.465,1.465,0,0,1,1.848,0,1.105,1.105,0,0,1,.344.836A1.108,1.108,0,0,1,93.7,7.2a1.448,1.448,0,0,1-1.836,0A1.108,1.108,0,0,1,91.52,6.359Zm7.773,8.977a1.481,1.481,0,0,0,1.016-.344,1.2,1.2,0,0,0,.406-.914h2.117a2.9,2.9,0,0,1-.469,1.574,3.093,3.093,0,0,1-1.262,1.109,3.949,3.949,0,0,1-1.77.395A3.67,3.67,0,0,1,96.473,16a4.56,4.56,0,0,1-1.047-3.184v-.148a4.508,4.508,0,0,1,1.039-3.117,3.627,3.627,0,0,1,2.852-1.164,3.555,3.555,0,0,1,2.543.9,3.2,3.2,0,0,1,.973,2.4h-2.117a1.551,1.551,0,0,0-.406-1.072,1.51,1.51,0,0,0-2.223.163,3.333,3.333,0,0,0-.4,1.866v.235a3.375,3.375,0,0,0,.4,1.878A1.377,1.377,0,0,0,99.293,15.336ZM109.02,17a2.507,2.507,0,0,1-.227-.758,2.732,2.732,0,0,1-2.133.914,3,3,0,0,1-2.059-.719,2.312,2.312,0,0,1-.816-1.812,2.389,2.389,0,0,1,1-2.062,4.915,4.915,0,0,1,2.879-.727H108.7v-.484a1.393,1.393,0,0,0-.3-.937,1.183,1.183,0,0,0-.949-.352,1.345,1.345,0,0,0-.895.273.929.929,0,0,0-.324.75h-2.258a2.268,2.268,0,0,1,.453-1.359,3,3,0,0,1,1.281-.98,4.669,4.669,0,0,1,1.859-.355,3.689,3.689,0,0,1,2.48.785,2.747,2.747,0,0,1,.918,2.207v3.664a4.041,4.041,0,0,0,.336,1.82V17Zm-1.867-1.57a1.945,1.945,0,0,0,.922-.223,1.462,1.462,0,0,0,.625-.6V13.156h-.844q-1.7,0-1.8,1.172l-.008.133a.9.9,0,0,0,.3.7A1.153,1.153,0,0,0,107.152,15.43Zm7.93,1.57h-2.266V5h2.266Z" transform="translate(688 3225)" fill="#12263f"/>
    <path id="Path_194620" data-name="Path 194620" d="M42,0C65.2,0,84,18.58,84,41.5S65.2,83,42,83,0,64.42,0,41.5,18.8,0,42,0Z" transform="translate(734 3130.001)" fill="#baa1e1"/>
    <path id="Path_193805" data-name="Path 193805" d="M249.035,255.918a13.4,13.4,0,0,0,.811,1.586q6.369,9.277,12.778,18.527c.786,1.133,1.336,2.259.446,3.537a3.205,3.205,0,0,1-3.757,1.109c-1.347-.338-2.676-.751-4.168-1.175v22.4H242.4v-22.4c-1.24.349-2.282.651-3.328.934a11.219,11.219,0,0,1-1.627.376,2.992,2.992,0,0,1-3.157-1.445c-.682-1.14-.25-2.132.426-3.108q6.542-9.463,13.066-18.94c.316-.458.612-.929.918-1.394Z" transform="translate(517.88 2889.119)" fill="#fff"/>
    <path id="Path_193806" data-name="Path 193806" d="M318.143,323.633c-2.465-3.582-5.01-6.88-7.063-10.46-.816-1.424-.539-3.475-.76-5.241l.541-.148,7.321,10.541,11.341-16.439-7.952,2.158v-22.8h-6.664v7.638c-2.917-2.543-3.7-5.516-2.891-10.682h12.519v21.875c1.553-.421,2.895-.765,4.225-1.148a3.144,3.144,0,0,1,3.747,1.1c.916,1.269.33,2.395-.456,3.528q-6.563,9.455-13.071,18.948C318.762,322.822,318.523,323.123,318.143,323.633Z" transform="translate(467.201 2874.332)" fill="#fff"/>
  </g>
</svg>
