<svg id="Group_152749" data-name="Group 152749" xmlns="http://www.w3.org/2000/svg" xmlns:xlink="http://www.w3.org/1999/xlink" width="87.339" height="87.338" viewBox="0 0 87.339 87.338">
  <defs>
    <radialGradient id="radial-gradient" cx="0.076" cy="0.019" r="1.465" gradientTransform="translate(0.001)" gradientUnits="objectBoundingBox">
      <stop offset="0" stop-color="#f6f6f7"/>
      <stop offset="0.477" stop-color="#f9f9fa"/>
      <stop offset="0.715" stop-color="#fff"/>
    </radialGradient>
  </defs>
  <g id="Group_18423" data-name="Group 18423" transform="translate(0 0)">
    <g id="Group_18421" data-name="Group 18421">
      <g id="Group_18420" data-name="Group 18420">
        <g id="Group_18419" data-name="Group 18419">
          <path id="Path_40936" data-name="Path 40936" d="M281.962,2189.389a43.669,43.669,0,1,1-43.669-43.668A43.669,43.669,0,0,1,281.962,2189.389Z" transform="translate(-194.623 -2145.721)" fill="#fff"/>
        </g>
      </g>
    </g>
    <path id="Path_40937" data-name="Path 40937" d="M281.7,2189.1a43.669,43.669,0,1,0-43.669,43.67A43.5,43.5,0,0,0,281.7,2189.1Z" transform="translate(-194.361 -2145.436)" fill="url(#radial-gradient)"/>
    <path id="Path_40938" data-name="Path 40938" d="M269.1,2186.859a33.332,33.332,0,1,0-33.333,33.333A33.209,33.209,0,0,0,269.1,2186.859Z" transform="translate(-191.968 -2143.046)" fill="none" stroke="#2194e5" stroke-miterlimit="10" stroke-width="4"/>
    <g id="Group_18422" data-name="Group 18422" transform="translate(7.736 24.517)">
      <path id="Path_40939" data-name="Path 40939" d="M275.732,2164.488a43.675,43.675,0,0,1-75.187,43.488,43.536,43.536,0,0,0,75.187-43.488Z" transform="translate(-200.545 -2164.488)" fill="#eceef0"/>
    </g>
  </g>
  <g id="Group_143661" data-name="Group 143661" transform="translate(-270.54 491.548)">
    <path id="Path_185250" data-name="Path 185250" d="M307.1-441.262l1.268-2.2a14.29,14.29,0,0,1-2.336-19.451,14.232,14.232,0,0,1,18.019-4.091,14.278,14.278,0,0,1,6.861,17.123c-2.183,6.7-10.282,11.917-18.441,8.8l-1.251,2.178c.142.09.248.162.357.227.793.468.873.781.4,1.6q-1.97,3.416-3.943,6.832-1.022,1.772-2.044,3.545c-.406.7-.748.793-1.451.387q-2.477-1.429-4.951-2.861c-.767-.444-.853-.751-.415-1.511q2.991-5.19,5.984-10.378c.458-.794.752-.871,1.549-.414C306.819-441.413,306.934-441.352,307.1-441.262Zm22.971-13.177a12.624,12.624,0,0,0-12.614-12.614,12.6,12.6,0,0,0-12.637,12.58,12.626,12.626,0,0,0,12.7,12.678A12.65,12.65,0,0,0,330.067-454.439Zm-23.76,14.553-5.527,9.571,4.1,2.372,5.521-9.574Zm3.523.211,1.194-2.071-1.378-.773-1.183,2.052Z" transform="translate(0 0)" fill="#12263f"/>
    <path id="Path_185251" data-name="Path 185251" d="M374.556-425.708a11.025,11.025,0,0,1,11.085-11.044,11.046,11.046,0,0,1,11.026,11.019,11.084,11.084,0,0,1-11.073,11.086A11.063,11.063,0,0,1,374.556-425.708Zm1.579-.043a9.475,9.475,0,0,0,9.475,9.521,9.493,9.493,0,0,0,9.473-9.434,9.477,9.477,0,0,0-9.438-9.508A9.444,9.444,0,0,0,376.135-425.751Z" transform="translate(-68.168 -28.727)" fill="#12263f"/>
    <path id="Path_185252" data-name="Path 185252" d="M444.883-400.539a3.141,3.141,0,0,1,.434-4.332,3.139,3.139,0,0,1,4.114,0,3.184,3.184,0,0,1,.435,4.341c.137.085.278.167.412.257a3.85,3.85,0,0,1,1.827,3.259c.03,1.545.013,3.092.008,4.638,0,.668-.294.954-.97.955q-3.774,0-7.548,0c-.675,0-.957-.286-.959-.962,0-1.316,0-2.632,0-3.947A4.118,4.118,0,0,1,444.883-400.539Zm-.662,7.5h6.306c0-1.383.033-2.731-.01-4.078a2.332,2.332,0,0,0-2.255-2.2c-.591-.022-1.185-.021-1.776,0a2.327,2.327,0,0,0-2.256,2.195C444.189-395.771,444.221-394.423,444.221-393.036ZM447.4-400.9a1.591,1.591,0,0,0,1.556-1.587,1.59,1.59,0,0,0-1.575-1.568,1.587,1.587,0,0,0-1.58,1.611A1.593,1.593,0,0,0,447.4-400.9Z" transform="translate(-129.514 -56.764)" fill="#12263f"/>
  </g>
</svg>
