<svg xmlns="http://www.w3.org/2000/svg" xmlns:xlink="http://www.w3.org/1999/xlink" width="1010" height="326.084" viewBox="0 0 1010 326.084">
  <defs>
    <linearGradient id="linear-gradient" x1="0.5" x2="0.5" y2="1" gradientUnits="objectBoundingBox">
      <stop offset="0" stop-color="#f5f5f5"/>
      <stop offset="0.25" stop-color="#f5f5f5"/>
      <stop offset="1" stop-color="#afafaf"/>
    </linearGradient>
    <filter id="Path_194627" x="89.797" y="126.553" width="182.645" height="70.363" filterUnits="userSpaceOnUse">
      <feOffset dy="3" input="SourceAlpha"/>
      <feGaussianBlur stdDeviation="3" result="blur"/>
      <feFlood flood-opacity="0.161"/>
      <feComposite operator="in" in2="blur"/>
      <feComposite in="SourceGraphic"/>
    </filter>
    <filter id="Path_194628" x="0" y="255.722" width="182.645" height="70.363" filterUnits="userSpaceOnUse">
      <feOffset dy="3" input="SourceAlpha"/>
      <feGaussianBlur stdDeviation="3" result="blur-2"/>
      <feFlood flood-opacity="0.161"/>
      <feComposite operator="in" in2="blur-2"/>
      <feComposite in="SourceGraphic"/>
    </filter>
    <filter id="Path_194629" x="646.619" y="255.722" width="182.645" height="70.363" filterUnits="userSpaceOnUse">
      <feOffset dy="3" input="SourceAlpha"/>
      <feGaussianBlur stdDeviation="3" result="blur-3"/>
      <feFlood flood-opacity="0.161"/>
      <feComposite operator="in" in2="blur-3"/>
      <feComposite in="SourceGraphic"/>
    </filter>
    <filter id="Path_194630" x="180.466" y="255.722" width="182.645" height="70.363" filterUnits="userSpaceOnUse">
      <feOffset dy="3" input="SourceAlpha"/>
      <feGaussianBlur stdDeviation="3" result="blur-4"/>
      <feFlood flood-opacity="0.161"/>
      <feComposite operator="in" in2="blur-4"/>
      <feComposite in="SourceGraphic"/>
    </filter>
    <filter id="Path_194631" x="827.354" y="255.722" width="182.645" height="70.363" filterUnits="userSpaceOnUse">
      <feOffset dy="3" input="SourceAlpha"/>
      <feGaussianBlur stdDeviation="3" result="blur-5"/>
      <feFlood flood-opacity="0.161"/>
      <feComposite operator="in" in2="blur-5"/>
      <feComposite in="SourceGraphic"/>
    </filter>
    <filter id="Path_194632" x="416.729" y="206.9" width="182.645" height="70.363" filterUnits="userSpaceOnUse">
      <feOffset dy="3" input="SourceAlpha"/>
      <feGaussianBlur stdDeviation="3" result="blur-6"/>
      <feFlood flood-opacity="0.161"/>
      <feComposite operator="in" in2="blur-6"/>
      <feComposite in="SourceGraphic"/>
    </filter>
    <filter id="Path_194633" x="414.113" y="126.553" width="182.645" height="70.363" filterUnits="userSpaceOnUse">
      <feOffset dy="3" input="SourceAlpha"/>
      <feGaussianBlur stdDeviation="3" result="blur-7"/>
      <feFlood flood-opacity="0.161"/>
      <feComposite operator="in" in2="blur-7"/>
      <feComposite in="SourceGraphic"/>
    </filter>
    <filter id="Path_194634" x="738.429" y="126.553" width="182.645" height="70.363" filterUnits="userSpaceOnUse">
      <feOffset dy="3" input="SourceAlpha"/>
      <feGaussianBlur stdDeviation="3" result="blur-8"/>
      <feFlood flood-opacity="0.161"/>
      <feComposite operator="in" in2="blur-8"/>
      <feComposite in="SourceGraphic"/>
    </filter>
    <filter id="Path_194635" x="416.729" y="0" width="182.645" height="70.363" filterUnits="userSpaceOnUse">
      <feOffset dy="3" input="SourceAlpha"/>
      <feGaussianBlur stdDeviation="3" result="blur-9"/>
      <feFlood flood-opacity="0.161"/>
      <feComposite operator="in" in2="blur-9"/>
      <feComposite in="SourceGraphic"/>
    </filter>
  </defs>
  <g id="Group_154282" data-name="Group 154282" transform="translate(-303 -3682.818)">
    <path id="Path_194620" data-name="Path 194620" d="M0,0H649.4V9.779H0Z" transform="translate(1133.134 3775.69) rotate(180)" fill="#bec1c7"/>
    <path id="Path_194621" data-name="Path 194621" d="M0,0H175.364V9.779H0Z" transform="translate(571.801 3904.859) rotate(180)" fill="#bec1c7"/>
    <path id="Path_194622" data-name="Path 194622" d="M0,0H175.364V9.779H0Z" transform="translate(1218.42 3904.859) rotate(180)" fill="#bec1c7"/>
    <path id="Path_194623" data-name="Path 194623" d="M0,0H19.007V9.779H0Z" transform="translate(812.574 3743.607) rotate(90)" fill="#bec1c7"/>
    <path id="Path_194624" data-name="Path 194624" d="M0,0H19.007V9.779H0Z" transform="translate(488.257 3872.775) rotate(90)" fill="#bec1c7"/>
    <path id="Path_194625" data-name="Path 194625" d="M0,0H19.007V9.779H0Z" transform="translate(1134.876 3872.775) rotate(90)" fill="#bec1c7"/>
    <path id="Path_194626" data-name="Path 194626" d="M0,0H19.007V9.779H0Z" transform="translate(817.343 3872.775) rotate(90)" fill="#bec1c7"/>
    <g transform="matrix(1, 0, 0, 1, 303, 3682.82)" filter="url(#Path_194627)">
      <path id="Path_194627-2" data-name="Path 194627" d="M10,0H154.645a10,10,0,0,1,10,10V42.362a10,10,0,0,1-10,10H10a10,10,0,0,1-10-10V10A10,10,0,0,1,10,0Z" transform="translate(98.8 132.55)" fill="url(#linear-gradient)"/>
    </g>
    <g transform="matrix(1, 0, 0, 1, 303, 3682.82)" filter="url(#Path_194628)">
      <path id="Path_194628-2" data-name="Path 194628" d="M10,0H154.645a10,10,0,0,1,10,10V42.362a10,10,0,0,1-10,10H10a10,10,0,0,1-10-10V10A10,10,0,0,1,10,0Z" transform="translate(9 261.72)" fill="url(#linear-gradient)"/>
    </g>
    <g transform="matrix(1, 0, 0, 1, 303, 3682.82)" filter="url(#Path_194629)">
      <path id="Path_194629-2" data-name="Path 194629" d="M10,0H154.645a10,10,0,0,1,10,10V42.362a10,10,0,0,1-10,10H10a10,10,0,0,1-10-10V10A10,10,0,0,1,10,0Z" transform="translate(655.62 261.72)" fill="url(#linear-gradient)"/>
    </g>
    <g transform="matrix(1, 0, 0, 1, 303, 3682.82)" filter="url(#Path_194630)">
      <path id="Path_194630-2" data-name="Path 194630" d="M10,0H154.645a10,10,0,0,1,10,10V42.362a10,10,0,0,1-10,10H10a10,10,0,0,1-10-10V10A10,10,0,0,1,10,0Z" transform="translate(189.47 261.72)" fill="url(#linear-gradient)"/>
    </g>
    <g transform="matrix(1, 0, 0, 1, 303, 3682.82)" filter="url(#Path_194631)">
      <path id="Path_194631-2" data-name="Path 194631" d="M10,0H154.645a10,10,0,0,1,10,10V42.362a10,10,0,0,1-10,10H10a10,10,0,0,1-10-10V10A10,10,0,0,1,10,0Z" transform="translate(836.35 261.72)" fill="url(#linear-gradient)"/>
    </g>
    <g transform="matrix(1, 0, 0, 1, 303, 3682.82)" filter="url(#Path_194632)">
      <path id="Path_194632-2" data-name="Path 194632" d="M10,0H154.645a10,10,0,0,1,10,10V42.362a10,10,0,0,1-10,10H10a10,10,0,0,1-10-10V10A10,10,0,0,1,10,0Z" transform="translate(425.73 212.9)" fill="url(#linear-gradient)"/>
    </g>
    <g transform="matrix(1, 0, 0, 1, 303, 3682.82)" filter="url(#Path_194633)">
      <path id="Path_194633-2" data-name="Path 194633" d="M10,0H154.645a10,10,0,0,1,10,10V42.362a10,10,0,0,1-10,10H10a10,10,0,0,1-10-10V10A10,10,0,0,1,10,0Z" transform="translate(423.11 132.55)" fill="url(#linear-gradient)"/>
    </g>
    <g transform="matrix(1, 0, 0, 1, 303, 3682.82)" filter="url(#Path_194634)">
      <path id="Path_194634-2" data-name="Path 194634" d="M10,0H154.645a10,10,0,0,1,10,10V42.362a10,10,0,0,1-10,10H10a10,10,0,0,1-10-10V10A10,10,0,0,1,10,0Z" transform="translate(747.43 132.55)" fill="url(#linear-gradient)"/>
    </g>
    <g transform="matrix(1, 0, 0, 1, 303, 3682.82)" filter="url(#Path_194635)">
      <path id="Path_194635-2" data-name="Path 194635" d="M10,0H154.645a10,10,0,0,1,10,10V42.362a10,10,0,0,1-10,10H10a10,10,0,0,1-10-10V10A10,10,0,0,1,10,0Z" transform="translate(425.73 6)" fill="url(#linear-gradient)"/>
    </g>
    <path id="Path_194636" data-name="Path 194636" d="M7.126-2.791H2.659L1.655,0H.205L4.277-10.664h1.23L9.587,0H8.145ZM3.083-3.94H6.709L4.893-8.928Zm7.4-.088a4.642,4.642,0,0,1,.864-2.933,2.733,2.733,0,0,1,2.263-1.11,2.748,2.748,0,0,1,2.2.952V-11.25h1.355V0H15.923l-.066-.85a2.759,2.759,0,0,1-2.263,1A2.707,2.707,0,0,1,11.349-.981a4.7,4.7,0,0,1-.868-2.944Zm1.355.154a3.515,3.515,0,0,0,.557,2.109A1.8,1.8,0,0,0,13.931-1a1.977,1.977,0,0,0,1.882-1.157V-5.8a1.992,1.992,0,0,0-1.868-1.121,1.808,1.808,0,0,0-1.553.769A3.87,3.87,0,0,0,11.836-3.875Zm8.708-4.05.037.879a2.927,2.927,0,0,1,2.351-1.025A2.266,2.266,0,0,1,25.2-6.8a3,3,0,0,1,1.029-.923,3.039,3.039,0,0,1,1.5-.352q2.607,0,2.651,2.761V0H29.019V-5.229A1.82,1.82,0,0,0,28.63-6.5a1.71,1.71,0,0,0-1.3-.421,1.8,1.8,0,0,0-1.252.45A1.827,1.827,0,0,0,25.5-5.259V0H24.133V-5.193a1.512,1.512,0,0,0-1.692-1.729,1.813,1.813,0,0,0-1.824,1.135V0H19.263V-7.925ZM33.889,0H32.534V-7.925h1.355ZM32.424-10.027a.809.809,0,0,1,.2-.557.756.756,0,0,1,.6-.227.768.768,0,0,1,.6.227.8.8,0,0,1,.205.557.774.774,0,0,1-.205.549.782.782,0,0,1-.6.22.77.77,0,0,1-.6-.22A.782.782,0,0,1,32.424-10.027Zm4.915,2.1.044,1a2.888,2.888,0,0,1,2.373-1.143q2.512,0,2.534,2.834V0H40.935V-5.244a1.824,1.824,0,0,0-.392-1.267,1.57,1.57,0,0,0-1.2-.41,1.956,1.956,0,0,0-1.157.352,2.387,2.387,0,0,0-.776.923V0H36.057V-7.925ZM45.806,0H44.451V-7.925h1.355ZM44.341-10.027a.809.809,0,0,1,.2-.557.756.756,0,0,1,.6-.227.768.768,0,0,1,.6.227.8.8,0,0,1,.205.557.774.774,0,0,1-.205.549.782.782,0,0,1-.6.22.77.77,0,0,1-.6-.22A.782.782,0,0,1,44.341-10.027ZM52.588-2.1a1,1,0,0,0-.414-.853,3.983,3.983,0,0,0-1.443-.524A6.822,6.822,0,0,1,49.1-4.006a2.324,2.324,0,0,1-.894-.732,1.752,1.752,0,0,1-.289-1.011A2.056,2.056,0,0,1,48.739-7.4a3.218,3.218,0,0,1,2.106-.674,3.311,3.311,0,0,1,2.186.7A2.21,2.21,0,0,1,53.87-5.6H52.507a1.223,1.223,0,0,0-.472-.959,1.77,1.77,0,0,0-1.19-.4,1.852,1.852,0,0,0-1.157.322,1.014,1.014,0,0,0-.417.842.822.822,0,0,0,.388.74,4.776,4.776,0,0,0,1.4.476,7.308,7.308,0,0,1,1.644.542,2.4,2.4,0,0,1,.934.758,1.864,1.864,0,0,1,.3,1.08,2.028,2.028,0,0,1-.85,1.7,3.564,3.564,0,0,1-2.2.641A3.991,3.991,0,0,1,49.2-.19a2.74,2.74,0,0,1-1.146-.941,2.268,2.268,0,0,1-.414-1.307H49a1.4,1.4,0,0,0,.546,1.08,2.117,2.117,0,0,0,1.344.4,2.185,2.185,0,0,0,1.234-.311A.956.956,0,0,0,52.588-2.1Zm4.958-7.742v1.919h1.479v1.047H57.546v4.921a1.1,1.1,0,0,0,.2.715A.832.832,0,0,0,58.418-1a3.281,3.281,0,0,0,.645-.088V0a3.951,3.951,0,0,1-1.04.146A1.687,1.687,0,0,1,56.653-.4a2.36,2.36,0,0,1-.461-1.56V-6.877H54.749V-7.925h1.443V-9.844Zm6.892,3.135a4.061,4.061,0,0,0-.667-.051,1.786,1.786,0,0,0-1.809,1.135V0H60.608V-7.925h1.318l.022.916a2.11,2.11,0,0,1,1.89-1.062,1.384,1.384,0,0,1,.6.1ZM70.283,0a2.846,2.846,0,0,1-.19-.835,3.023,3.023,0,0,1-2.256.981,2.8,2.8,0,0,1-1.923-.663A2.145,2.145,0,0,1,65.164-2.2,2.24,2.24,0,0,1,66.1-4.12,4.437,4.437,0,0,1,68.752-4.8h1.318v-.623a1.522,1.522,0,0,0-.425-1.132,1.707,1.707,0,0,0-1.252-.421,1.976,1.976,0,0,0-1.216.366,1.079,1.079,0,0,0-.491.886H65.325a1.87,1.87,0,0,1,.421-1.146,2.874,2.874,0,0,1,1.143-.875,3.844,3.844,0,0,1,1.586-.322,3.133,3.133,0,0,1,2.146.685A2.47,2.47,0,0,1,71.426-5.5v3.647A4.459,4.459,0,0,0,71.7-.117V0ZM68.035-1.033a2.381,2.381,0,0,0,1.208-.33,1.994,1.994,0,0,0,.828-.857V-3.845H69.009q-2.49,0-2.49,1.458a1.234,1.234,0,0,0,.425,1A1.633,1.633,0,0,0,68.035-1.033Zm8.694.073A1.952,1.952,0,0,0,78-1.4a1.546,1.546,0,0,0,.6-1.1h1.282a2.457,2.457,0,0,1-.469,1.3,3.087,3.087,0,0,1-1.154.981,3.329,3.329,0,0,1-1.527.366,3.265,3.265,0,0,1-2.574-1.08A4.3,4.3,0,0,1,73.2-3.889v-.227a4.771,4.771,0,0,1,.425-2.058,3.236,3.236,0,0,1,1.219-1.4,3.464,3.464,0,0,1,1.879-.5,3.178,3.178,0,0,1,2.216.8A2.853,2.853,0,0,1,79.878-5.2H78.6a1.867,1.867,0,0,0-.582-1.263,1.811,1.811,0,0,0-1.293-.494,1.9,1.9,0,0,0-1.6.743,3.491,3.491,0,0,0-.568,2.15v.256A3.422,3.422,0,0,0,75.117-1.7,1.906,1.906,0,0,0,76.729-.959ZM82.874,0H81.519V-7.925h1.355ZM81.409-10.027a.809.809,0,0,1,.2-.557.756.756,0,0,1,.6-.227.768.768,0,0,1,.6.227.8.8,0,0,1,.205.557.774.774,0,0,1-.205.549.782.782,0,0,1-.6.22.77.77,0,0,1-.6-.22A.782.782,0,0,1,81.409-10.027Zm3.274,5.991A4.681,4.681,0,0,1,85.14-6.13a3.415,3.415,0,0,1,1.274-1.436,3.469,3.469,0,0,1,1.864-.505A3.342,3.342,0,0,1,90.9-6.951a4.311,4.311,0,0,1,1,2.981v.1A4.722,4.722,0,0,1,91.454-1.8,3.365,3.365,0,0,1,90.187-.366a3.509,3.509,0,0,1-1.893.513A3.334,3.334,0,0,1,85.682-.974a4.29,4.29,0,0,1-1-2.966Zm1.362.161a3.39,3.39,0,0,0,.612,2.117,1.957,1.957,0,0,0,1.637.8,1.945,1.945,0,0,0,1.641-.809,3.707,3.707,0,0,0,.608-2.267,3.384,3.384,0,0,0-.619-2.113,1.968,1.968,0,0,0-1.644-.809,1.946,1.946,0,0,0-1.619.8A3.68,3.68,0,0,0,86.045-3.875Zm2.849-7.375h1.641L88.572-9.1l-1.091,0Zm5.984,3.325.044,1a2.888,2.888,0,0,1,2.373-1.143q2.512,0,2.534,2.834V0H98.474V-5.244a1.824,1.824,0,0,0-.392-1.267,1.57,1.57,0,0,0-1.2-.41,1.956,1.956,0,0,0-1.157.352,2.387,2.387,0,0,0-.776.923V0H93.6V-7.925Z" transform="translate(429.695 3845.103)" fill="#12263f"/>
    <path id="Path_194637" data-name="Path 194637" d="M9.082-3.384A3.923,3.923,0,0,1,7.833-.773,4.093,4.093,0,0,1,5.039.146,3.758,3.758,0,0,1,2.01-1.208,5.451,5.451,0,0,1,.872-4.834V-5.859A6.076,6.076,0,0,1,1.4-8.474a3.966,3.966,0,0,1,1.505-1.732,4.191,4.191,0,0,1,2.256-.6,3.853,3.853,0,0,1,2.725.948A3.971,3.971,0,0,1,9.082-7.236H7.668a3.064,3.064,0,0,0-.795-1.851,2.4,2.4,0,0,0-1.71-.573,2.516,2.516,0,0,0-2.113,1,4.577,4.577,0,0,0-.765,2.837v1.034A4.7,4.7,0,0,0,3.01-2.03,2.343,2.343,0,0,0,5.039-1a2.706,2.706,0,0,0,1.8-.531,2.947,2.947,0,0,0,.831-1.849Zm1.348-.652a4.681,4.681,0,0,1,.458-2.095,3.415,3.415,0,0,1,1.274-1.436,3.469,3.469,0,0,1,1.864-.505,3.342,3.342,0,0,1,2.618,1.121,4.311,4.311,0,0,1,1,2.981v.1A4.722,4.722,0,0,1,17.2-1.8,3.365,3.365,0,0,1,15.934-.366a3.509,3.509,0,0,1-1.893.513A3.334,3.334,0,0,1,11.429-.974a4.29,4.29,0,0,1-1-2.966Zm1.362.161A3.39,3.39,0,0,0,12.4-1.758a1.957,1.957,0,0,0,1.637.8,1.945,1.945,0,0,0,1.641-.809,3.707,3.707,0,0,0,.608-2.267,3.384,3.384,0,0,0-.619-2.113,1.968,1.968,0,0,0-1.644-.809,1.946,1.946,0,0,0-1.619.8A3.68,3.68,0,0,0,11.792-3.875Zm8.833-4.05.044,1a2.888,2.888,0,0,1,2.373-1.143q2.512,0,2.534,2.834V0H24.221V-5.244a1.824,1.824,0,0,0-.392-1.267,1.57,1.57,0,0,0-1.2-.41,1.956,1.956,0,0,0-1.157.352,2.387,2.387,0,0,0-.776.923V0H19.343V-7.925Zm8.833-1.919v1.919h1.479v1.047H29.458v4.921a1.1,1.1,0,0,0,.2.715A.832.832,0,0,0,30.33-1a3.281,3.281,0,0,0,.645-.088V0a3.951,3.951,0,0,1-1.04.146A1.687,1.687,0,0,1,28.564-.4a2.36,2.36,0,0,1-.461-1.56V-6.877H26.66V-7.925H28.1V-9.844ZM37.412,0a2.846,2.846,0,0,1-.19-.835,3.023,3.023,0,0,1-2.256.981,2.8,2.8,0,0,1-1.923-.663A2.145,2.145,0,0,1,32.292-2.2a2.24,2.24,0,0,1,.941-1.923A4.437,4.437,0,0,1,35.881-4.8H37.2v-.623a1.522,1.522,0,0,0-.425-1.132,1.707,1.707,0,0,0-1.252-.421,1.976,1.976,0,0,0-1.216.366,1.079,1.079,0,0,0-.491.886H32.454a1.87,1.87,0,0,1,.421-1.146,2.874,2.874,0,0,1,1.143-.875A3.844,3.844,0,0,1,35.6-8.071a3.133,3.133,0,0,1,2.146.685A2.47,2.47,0,0,1,38.555-5.5v3.647a4.459,4.459,0,0,0,.278,1.736V0ZM35.164-1.033a2.381,2.381,0,0,0,1.208-.33,1.994,1.994,0,0,0,.828-.857V-3.845H36.138q-2.49,0-2.49,1.458a1.234,1.234,0,0,0,.425,1A1.633,1.633,0,0,0,35.164-1.033ZM47.388-3.875a4.712,4.712,0,0,1-.835,2.919,2.668,2.668,0,0,1-2.241,1.1A2.763,2.763,0,0,1,41.99-.916L41.924,0H40.679V-11.25h1.355v4.2A2.747,2.747,0,0,1,44.3-8.071,2.684,2.684,0,0,1,46.564-6.98a4.853,4.853,0,0,1,.824,2.988Zm-1.355-.154A3.662,3.662,0,0,0,45.5-6.167a1.77,1.77,0,0,0-1.538-.754,1.989,1.989,0,0,0-1.926,1.245v3.428A2.045,2.045,0,0,0,43.975-1a1.76,1.76,0,0,0,1.516-.754A3.894,3.894,0,0,0,46.033-4.028ZM50.566,0H49.211V-7.925h1.355ZM49.1-10.027a.809.809,0,0,1,.2-.557.756.756,0,0,1,.6-.227.768.768,0,0,1,.6.227.8.8,0,0,1,.205.557.774.774,0,0,1-.205.549.782.782,0,0,1-.6.22.77.77,0,0,1-.6-.22A.782.782,0,0,1,49.1-10.027ZM54.207,0H52.852V-11.25h1.355Zm3.64,0H56.492V-7.925h1.355ZM56.382-10.027a.809.809,0,0,1,.2-.557.756.756,0,0,1,.6-.227.768.768,0,0,1,.6.227.8.8,0,0,1,.205.557.774.774,0,0,1-.205.549.782.782,0,0,1-.6.22.77.77,0,0,1-.6-.22A.782.782,0,0,1,56.382-10.027Zm3.3,6a4.642,4.642,0,0,1,.864-2.933,2.733,2.733,0,0,1,2.263-1.11,2.748,2.748,0,0,1,2.2.952V-11.25h1.355V0H65.127l-.066-.85a2.759,2.759,0,0,1-2.263,1A2.707,2.707,0,0,1,60.553-.981a4.7,4.7,0,0,1-.868-2.944Zm1.355.154A3.515,3.515,0,0,0,61.6-1.765,1.8,1.8,0,0,0,63.135-1a1.977,1.977,0,0,0,1.882-1.157V-5.8a1.992,1.992,0,0,0-1.868-1.121,1.808,1.808,0,0,0-1.553.769A3.87,3.87,0,0,0,61.04-3.875ZM73.367,0a2.846,2.846,0,0,1-.19-.835A3.023,3.023,0,0,1,70.92.146,2.8,2.8,0,0,1,69-.516,2.145,2.145,0,0,1,68.247-2.2a2.24,2.24,0,0,1,.941-1.923A4.437,4.437,0,0,1,71.836-4.8h1.318v-.623a1.522,1.522,0,0,0-.425-1.132,1.707,1.707,0,0,0-1.252-.421,1.976,1.976,0,0,0-1.216.366,1.079,1.079,0,0,0-.491.886H68.408a1.87,1.87,0,0,1,.421-1.146,2.874,2.874,0,0,1,1.143-.875,3.844,3.844,0,0,1,1.586-.322,3.133,3.133,0,0,1,2.146.685A2.47,2.47,0,0,1,74.509-5.5v3.647a4.459,4.459,0,0,0,.278,1.736V0ZM71.118-1.033a2.381,2.381,0,0,0,1.208-.33,1.994,1.994,0,0,0,.828-.857V-3.845H72.092q-2.49,0-2.49,1.458a1.234,1.234,0,0,0,.425,1A1.633,1.633,0,0,0,71.118-1.033Zm5.186-3a4.642,4.642,0,0,1,.864-2.933,2.733,2.733,0,0,1,2.263-1.11,2.748,2.748,0,0,1,2.2.952V-11.25h1.355V0H81.746L81.68-.85a2.759,2.759,0,0,1-2.263,1A2.707,2.707,0,0,1,77.172-.981,4.7,4.7,0,0,1,76.3-3.926Zm1.355.154a3.515,3.515,0,0,0,.557,2.109A1.8,1.8,0,0,0,79.753-1a1.977,1.977,0,0,0,1.882-1.157V-5.8a1.992,1.992,0,0,0-1.868-1.121,1.808,1.808,0,0,0-1.553.769A3.87,3.87,0,0,0,77.659-3.875Z" transform="translate(349.488 3974.271)" fill="#12263f"/>
    <path id="Path_194638" data-name="Path 194638" d="M7.119-4.709H2.644V0H1.238V-10.664H7.844v1.15h-5.2v3.655H7.119ZM13.96,0a2.846,2.846,0,0,1-.19-.835,3.023,3.023,0,0,1-2.256.981A2.8,2.8,0,0,1,9.591-.516,2.145,2.145,0,0,1,8.84-2.2,2.24,2.24,0,0,1,9.781-4.12,4.437,4.437,0,0,1,12.429-4.8h1.318v-.623a1.522,1.522,0,0,0-.425-1.132A1.707,1.707,0,0,0,12.07-6.98a1.976,1.976,0,0,0-1.216.366,1.079,1.079,0,0,0-.491.886H9a1.87,1.87,0,0,1,.421-1.146,2.874,2.874,0,0,1,1.143-.875,3.844,3.844,0,0,1,1.586-.322,3.133,3.133,0,0,1,2.146.685A2.47,2.47,0,0,1,15.1-5.5v3.647a4.459,4.459,0,0,0,.278,1.736V0ZM11.711-1.033a2.381,2.381,0,0,0,1.208-.33,1.994,1.994,0,0,0,.828-.857V-3.845H12.686q-2.49,0-2.49,1.458a1.234,1.234,0,0,0,.425,1A1.633,1.633,0,0,0,11.711-1.033ZM23.936-3.875A4.712,4.712,0,0,1,23.1-.956a2.668,2.668,0,0,1-2.241,1.1A2.763,2.763,0,0,1,18.538-.916L18.472,0H17.227V-11.25h1.355v4.2a2.747,2.747,0,0,1,2.263-1.018A2.684,2.684,0,0,1,23.112-6.98a4.853,4.853,0,0,1,.824,2.988Zm-1.355-.154a3.662,3.662,0,0,0-.535-2.139,1.77,1.77,0,0,0-1.538-.754,1.989,1.989,0,0,0-1.926,1.245v3.428A2.045,2.045,0,0,0,20.522-1a1.76,1.76,0,0,0,1.516-.754A3.894,3.894,0,0,0,22.581-4.028Zm6.892-2.681a4.061,4.061,0,0,0-.667-.051A1.786,1.786,0,0,0,27-5.625V0H25.642V-7.925H26.96l.022.916a2.11,2.11,0,0,1,1.89-1.062,1.384,1.384,0,0,1,.6.1ZM32.19,0H30.835V-7.925H32.19ZM30.725-10.027a.809.809,0,0,1,.2-.557.756.756,0,0,1,.6-.227.768.768,0,0,1,.6.227.8.8,0,0,1,.205.557.774.774,0,0,1-.205.549.782.782,0,0,1-.6.22.77.77,0,0,1-.6-.22A.782.782,0,0,1,30.725-10.027ZM37.537-.959A1.952,1.952,0,0,0,38.8-1.4a1.546,1.546,0,0,0,.6-1.1h1.282a2.457,2.457,0,0,1-.469,1.3,3.087,3.087,0,0,1-1.154.981,3.329,3.329,0,0,1-1.527.366,3.265,3.265,0,0,1-2.574-1.08,4.3,4.3,0,0,1-.956-2.955v-.227a4.771,4.771,0,0,1,.425-2.058,3.236,3.236,0,0,1,1.219-1.4,3.464,3.464,0,0,1,1.879-.5,3.178,3.178,0,0,1,2.216.8A2.853,2.853,0,0,1,40.686-5.2H39.4a1.867,1.867,0,0,0-.582-1.263,1.811,1.811,0,0,0-1.293-.494,1.9,1.9,0,0,0-1.6.743,3.491,3.491,0,0,0-.568,2.15v.256A3.422,3.422,0,0,0,35.925-1.7,1.906,1.906,0,0,0,37.537-.959ZM47.1,0a2.846,2.846,0,0,1-.19-.835,3.023,3.023,0,0,1-2.256.981,2.8,2.8,0,0,1-1.923-.663A2.145,2.145,0,0,1,41.982-2.2a2.24,2.24,0,0,1,.941-1.923A4.437,4.437,0,0,1,45.571-4.8H46.89v-.623a1.522,1.522,0,0,0-.425-1.132,1.707,1.707,0,0,0-1.252-.421A1.976,1.976,0,0,0,44-6.614a1.079,1.079,0,0,0-.491.886H42.144a1.87,1.87,0,0,1,.421-1.146,2.874,2.874,0,0,1,1.143-.875,3.844,3.844,0,0,1,1.586-.322,3.133,3.133,0,0,1,2.146.685A2.47,2.47,0,0,1,48.245-5.5v3.647a4.459,4.459,0,0,0,.278,1.736V0ZM44.854-1.033a2.381,2.381,0,0,0,1.208-.33,1.994,1.994,0,0,0,.828-.857V-3.845H45.828q-2.49,0-2.49,1.458a1.234,1.234,0,0,0,.425,1A1.633,1.633,0,0,0,44.854-1.033Zm8.694.073A1.952,1.952,0,0,0,54.814-1.4a1.546,1.546,0,0,0,.6-1.1H56.7a2.457,2.457,0,0,1-.469,1.3,3.087,3.087,0,0,1-1.154.981,3.329,3.329,0,0,1-1.527.366,3.265,3.265,0,0,1-2.574-1.08,4.3,4.3,0,0,1-.956-2.955v-.227a4.771,4.771,0,0,1,.425-2.058,3.236,3.236,0,0,1,1.219-1.4,3.464,3.464,0,0,1,1.879-.5,3.178,3.178,0,0,1,2.216.8A2.853,2.853,0,0,1,56.7-5.2H55.415a1.867,1.867,0,0,0-.582-1.263,1.811,1.811,0,0,0-1.293-.494,1.9,1.9,0,0,0-1.6.743,3.491,3.491,0,0,0-.568,2.15v.256A3.422,3.422,0,0,0,51.936-1.7,1.906,1.906,0,0,0,53.547-.959ZM59.692,0H58.337V-7.925h1.355ZM58.228-10.027a.809.809,0,0,1,.2-.557.756.756,0,0,1,.6-.227.768.768,0,0,1,.6.227.8.8,0,0,1,.205.557.774.774,0,0,1-.205.549.782.782,0,0,1-.6.22.77.77,0,0,1-.6-.22A.782.782,0,0,1,58.228-10.027ZM61.5-4.036a4.681,4.681,0,0,1,.458-2.095,3.415,3.415,0,0,1,1.274-1.436A3.469,3.469,0,0,1,65.1-8.071a3.342,3.342,0,0,1,2.618,1.121,4.311,4.311,0,0,1,1,2.981v.1A4.722,4.722,0,0,1,68.273-1.8,3.365,3.365,0,0,1,67.006-.366a3.509,3.509,0,0,1-1.893.513A3.334,3.334,0,0,1,62.5-.974a4.29,4.29,0,0,1-1-2.966Zm1.362.161a3.39,3.39,0,0,0,.612,2.117,1.957,1.957,0,0,0,1.637.8,1.945,1.945,0,0,0,1.641-.809,3.707,3.707,0,0,0,.608-2.267,3.384,3.384,0,0,0-.619-2.113A1.968,1.968,0,0,0,65.1-6.958a1.946,1.946,0,0,0-1.619.8A3.68,3.68,0,0,0,62.864-3.875Zm2.849-7.375h1.641L65.391-9.1,64.3-9.1ZM71.7-7.925l.044,1a2.888,2.888,0,0,1,2.373-1.143q2.512,0,2.534,2.834V0H75.293V-5.244A1.824,1.824,0,0,0,74.9-6.511a1.57,1.57,0,0,0-1.2-.41,1.956,1.956,0,0,0-1.157.352,2.387,2.387,0,0,0-.776.923V0H70.415V-7.925Z" transform="translate(996.107 3974.271)" fill="#12263f"/>
    <path id="Path_194639" data-name="Path 194639" d="M4.806-4.026H2.468V0H1.148V-9.953H4.443a3.9,3.9,0,0,1,2.587.766,2.755,2.755,0,0,1,.906,2.229,2.68,2.68,0,0,1-.5,1.62,3,3,0,0,1-1.4,1.032L8.374-.082V0H6.966ZM2.468-5.1H4.484A2.275,2.275,0,0,0,6.04-5.606a1.714,1.714,0,0,0,.578-1.356,1.8,1.8,0,0,0-.55-1.418,2.33,2.33,0,0,0-1.589-.5H2.468ZM13.426-4.026H11.088V0H9.769V-9.953h3.295a3.9,3.9,0,0,1,2.587.766,2.755,2.755,0,0,1,.906,2.229,2.68,2.68,0,0,1-.5,1.62,3,3,0,0,1-1.4,1.032L16.994-.082V0H15.586ZM11.088-5.1H13.1a2.275,2.275,0,0,0,1.555-.507,1.714,1.714,0,0,0,.578-1.356,1.8,1.8,0,0,0-.55-1.418,2.33,2.33,0,0,0-1.589-.5h-2.01ZM26.045,0H24.726V-4.6H19.708V0H18.4V-9.953h1.313v4.279h5.018V-9.953h1.319Zm9.98,0H34.706V-4.6H29.688V0H28.376V-9.953h1.313v4.279h5.018V-9.953h1.319Z" transform="translate(554.365 3973.271)" fill="#12263f"/>
    <path id="Path_194640" data-name="Path 194640" d="M7.266-4.929H2.644V-1.15H8.013V0H1.238V-10.664h6.7v1.15h-5.3v3.435H7.266Zm3.567-3,.044,1A2.888,2.888,0,0,1,13.25-8.071q2.512,0,2.534,2.834V0H14.429V-5.244a1.824,1.824,0,0,0-.392-1.267,1.57,1.57,0,0,0-1.2-.41,1.956,1.956,0,0,0-1.157.352,2.387,2.387,0,0,0-.776.923V0H9.551V-7.925ZM22.441-2.1a1,1,0,0,0-.414-.853,3.983,3.983,0,0,0-1.443-.524,6.822,6.822,0,0,1-1.633-.527,2.324,2.324,0,0,1-.894-.732,1.752,1.752,0,0,1-.289-1.011A2.056,2.056,0,0,1,18.593-7.4,3.218,3.218,0,0,1,20.7-8.071a3.311,3.311,0,0,1,2.186.7,2.21,2.21,0,0,1,.839,1.78H22.361a1.223,1.223,0,0,0-.472-.959,1.77,1.77,0,0,0-1.19-.4,1.852,1.852,0,0,0-1.157.322,1.014,1.014,0,0,0-.417.842.822.822,0,0,0,.388.74,4.776,4.776,0,0,0,1.4.476,7.308,7.308,0,0,1,1.644.542,2.4,2.4,0,0,1,.934.758,1.864,1.864,0,0,1,.3,1.08,2.028,2.028,0,0,1-.85,1.7,3.564,3.564,0,0,1-2.2.641A3.991,3.991,0,0,1,19.058-.19a2.74,2.74,0,0,1-1.146-.941A2.268,2.268,0,0,1,17.5-2.439h1.355a1.4,1.4,0,0,0,.546,1.08,2.117,2.117,0,0,0,1.344.4,2.185,2.185,0,0,0,1.234-.311A.956.956,0,0,0,22.441-2.1ZM30.454,0a2.846,2.846,0,0,1-.19-.835,3.023,3.023,0,0,1-2.256.981,2.8,2.8,0,0,1-1.923-.663A2.145,2.145,0,0,1,25.334-2.2a2.24,2.24,0,0,1,.941-1.923A4.437,4.437,0,0,1,28.923-4.8h1.318v-.623a1.522,1.522,0,0,0-.425-1.132,1.707,1.707,0,0,0-1.252-.421,1.976,1.976,0,0,0-1.216.366,1.079,1.079,0,0,0-.491.886H25.5a1.87,1.87,0,0,1,.421-1.146,2.874,2.874,0,0,1,1.143-.875,3.844,3.844,0,0,1,1.586-.322,3.133,3.133,0,0,1,2.146.685A2.47,2.47,0,0,1,31.6-5.5v3.647a4.459,4.459,0,0,0,.278,1.736V0ZM28.206-1.033a2.381,2.381,0,0,0,1.208-.33,1.994,1.994,0,0,0,.828-.857V-3.845H29.18q-2.49,0-2.49,1.458a1.234,1.234,0,0,0,.425,1A1.633,1.633,0,0,0,28.206-1.033ZM35-7.925l.037.879a2.927,2.927,0,0,1,2.351-1.025A2.266,2.266,0,0,1,39.646-6.8a3,3,0,0,1,1.029-.923,3.039,3.039,0,0,1,1.5-.352q2.607,0,2.651,2.761V0H43.469V-5.229A1.82,1.82,0,0,0,43.081-6.5a1.71,1.71,0,0,0-1.3-.421,1.8,1.8,0,0,0-1.252.45,1.827,1.827,0,0,0-.579,1.212V0H38.584V-5.193a1.512,1.512,0,0,0-1.692-1.729,1.813,1.813,0,0,0-1.824,1.135V0H33.713V-7.925Zm18.582,4.05a4.712,4.712,0,0,1-.835,2.919A2.668,2.668,0,0,1,50.5.146,2.763,2.763,0,0,1,48.179-.916L48.113,0H46.868V-11.25h1.355v4.2a2.747,2.747,0,0,1,2.263-1.018A2.684,2.684,0,0,1,52.753-6.98a4.853,4.853,0,0,1,.824,2.988Zm-1.355-.154a3.662,3.662,0,0,0-.535-2.139,1.77,1.77,0,0,0-1.538-.754,1.989,1.989,0,0,0-1.926,1.245v3.428A2.045,2.045,0,0,0,50.164-1a1.76,1.76,0,0,0,1.516-.754A3.894,3.894,0,0,0,52.222-4.028ZM56.755,0H55.4V-11.25h1.355Zm5.457.146A3.463,3.463,0,0,1,59.59-.912a3.928,3.928,0,0,1-1.011-2.831v-.249A4.756,4.756,0,0,1,59.03-6.1a3.514,3.514,0,0,1,1.26-1.45,3.167,3.167,0,0,1,1.754-.524,2.968,2.968,0,0,1,2.4,1.018A4.408,4.408,0,0,1,65.3-4.138v.564H59.934a2.817,2.817,0,0,0,.685,1.893,2.153,2.153,0,0,0,1.666.721A2.36,2.36,0,0,0,63.5-1.252a3.055,3.055,0,0,0,.872-.776l.828.645A3.328,3.328,0,0,1,62.212.146Zm-.168-7.1a1.807,1.807,0,0,0-1.377.6,2.9,2.9,0,0,0-.688,1.674h3.97v-.1a2.581,2.581,0,0,0-.557-1.6A1.7,1.7,0,0,0,62.043-6.958Z" transform="translate(1187.304 3974.271)" fill="#12263f"/>
    <path id="Path_194641" data-name="Path 194641" d="M3.054-10.664l3.486,8.7,3.486-8.7h1.824V0H10.444V-4.153l.132-4.482L7.075,0H6L2.5-8.613l.139,4.46V0H1.238V-10.664ZM17.41.146A3.463,3.463,0,0,1,14.788-.912a3.928,3.928,0,0,1-1.011-2.831v-.249a4.756,4.756,0,0,1,.45-2.106,3.514,3.514,0,0,1,1.26-1.45,3.167,3.167,0,0,1,1.754-.524,2.968,2.968,0,0,1,2.4,1.018A4.408,4.408,0,0,1,20.5-4.138v.564H15.132a2.817,2.817,0,0,0,.685,1.893,2.153,2.153,0,0,0,1.666.721A2.36,2.36,0,0,0,18.7-1.252a3.055,3.055,0,0,0,.872-.776l.828.645A3.328,3.328,0,0,1,17.41.146Zm-.168-7.1a1.807,1.807,0,0,0-1.377.6,2.9,2.9,0,0,0-.688,1.674h3.97v-.1a2.581,2.581,0,0,0-.557-1.6A1.7,1.7,0,0,0,17.241-6.958Zm8.657.249a4.061,4.061,0,0,0-.667-.051,1.786,1.786,0,0,0-1.809,1.135V0H22.068V-7.925h1.318l.022.916A2.11,2.11,0,0,1,25.3-8.071a1.384,1.384,0,0,1,.6.1Zm4.285,5.75A1.952,1.952,0,0,0,31.45-1.4a1.546,1.546,0,0,0,.6-1.1h1.282a2.457,2.457,0,0,1-.469,1.3A3.087,3.087,0,0,1,31.71-.22a3.329,3.329,0,0,1-1.527.366,3.265,3.265,0,0,1-2.574-1.08,4.3,4.3,0,0,1-.956-2.955v-.227a4.771,4.771,0,0,1,.425-2.058,3.236,3.236,0,0,1,1.219-1.4,3.464,3.464,0,0,1,1.879-.5,3.178,3.178,0,0,1,2.216.8A2.853,2.853,0,0,1,33.333-5.2H32.051a1.867,1.867,0,0,0-.582-1.263,1.811,1.811,0,0,0-1.293-.494,1.9,1.9,0,0,0-1.6.743,3.491,3.491,0,0,0-.568,2.15v.256A3.422,3.422,0,0,0,28.572-1.7,1.906,1.906,0,0,0,30.183-.959ZM39.749,0a2.846,2.846,0,0,1-.19-.835A3.023,3.023,0,0,1,37.3.146,2.8,2.8,0,0,1,35.38-.516,2.145,2.145,0,0,1,34.629-2.2,2.24,2.24,0,0,1,35.57-4.12,4.437,4.437,0,0,1,38.218-4.8h1.318v-.623a1.522,1.522,0,0,0-.425-1.132,1.707,1.707,0,0,0-1.252-.421,1.976,1.976,0,0,0-1.216.366,1.079,1.079,0,0,0-.491.886H34.79a1.87,1.87,0,0,1,.421-1.146,2.874,2.874,0,0,1,1.143-.875,3.844,3.844,0,0,1,1.586-.322,3.133,3.133,0,0,1,2.146.685A2.47,2.47,0,0,1,40.891-5.5v3.647a4.459,4.459,0,0,0,.278,1.736V0ZM37.5-1.033a2.381,2.381,0,0,0,1.208-.33,1.994,1.994,0,0,0,.828-.857V-3.845H38.474q-2.49,0-2.49,1.458a1.234,1.234,0,0,0,.425,1A1.633,1.633,0,0,0,37.5-1.033Zm5.186-3a4.642,4.642,0,0,1,.864-2.933,2.733,2.733,0,0,1,2.263-1.11,2.748,2.748,0,0,1,2.2.952V-11.25h1.355V0H48.127l-.066-.85a2.759,2.759,0,0,1-2.263,1A2.707,2.707,0,0,1,43.553-.981a4.7,4.7,0,0,1-.868-2.944Zm1.355.154A3.515,3.515,0,0,0,44.6-1.765,1.8,1.8,0,0,0,46.135-1a1.977,1.977,0,0,0,1.882-1.157V-5.8A1.992,1.992,0,0,0,46.15-6.921a1.808,1.808,0,0,0-1.553.769A3.87,3.87,0,0,0,44.041-3.875ZM54.763.146A3.463,3.463,0,0,1,52.141-.912,3.928,3.928,0,0,1,51.13-3.743v-.249a4.756,4.756,0,0,1,.45-2.106,3.514,3.514,0,0,1,1.26-1.45,3.167,3.167,0,0,1,1.754-.524A2.968,2.968,0,0,1,57-7.053a4.408,4.408,0,0,1,.857,2.915v.564H52.485a2.817,2.817,0,0,0,.685,1.893,2.153,2.153,0,0,0,1.666.721,2.36,2.36,0,0,0,1.216-.293,3.055,3.055,0,0,0,.872-.776l.828.645A3.328,3.328,0,0,1,54.763.146Zm-.168-7.1a1.807,1.807,0,0,0-1.377.6,2.9,2.9,0,0,0-.688,1.674H56.5v-.1a2.581,2.581,0,0,0-.557-1.6A1.7,1.7,0,0,0,54.595-6.958Zm4.468,2.922A4.681,4.681,0,0,1,59.52-6.13a3.415,3.415,0,0,1,1.274-1.436,3.469,3.469,0,0,1,1.864-.505,3.342,3.342,0,0,1,2.618,1.121,4.311,4.311,0,0,1,1,2.981v.1A4.722,4.722,0,0,1,65.834-1.8,3.365,3.365,0,0,1,64.567-.366a3.509,3.509,0,0,1-1.893.513A3.334,3.334,0,0,1,60.062-.974a4.29,4.29,0,0,1-1-2.966Zm1.362.161a3.39,3.39,0,0,0,.612,2.117,1.957,1.957,0,0,0,1.637.8,1.945,1.945,0,0,0,1.641-.809,3.707,3.707,0,0,0,.608-2.267A3.384,3.384,0,0,0,64.3-6.149a1.968,1.968,0,0,0-1.644-.809,1.946,1.946,0,0,0-1.619.8A3.68,3.68,0,0,0,60.425-3.875Z" transform="translate(775.807 3925.45)" fill="#12263f"/>
    <path id="Path_194642" data-name="Path 194642" d="M9.082-3.384A3.923,3.923,0,0,1,7.833-.773,4.093,4.093,0,0,1,5.039.146,3.758,3.758,0,0,1,2.01-1.208,5.451,5.451,0,0,1,.872-4.834V-5.859A6.076,6.076,0,0,1,1.4-8.474a3.966,3.966,0,0,1,1.505-1.732,4.191,4.191,0,0,1,2.256-.6,3.853,3.853,0,0,1,2.725.948A3.971,3.971,0,0,1,9.082-7.236H7.668a3.064,3.064,0,0,0-.795-1.851,2.4,2.4,0,0,0-1.71-.573,2.516,2.516,0,0,0-2.113,1,4.577,4.577,0,0,0-.765,2.837v1.034A4.7,4.7,0,0,0,3.01-2.03,2.343,2.343,0,0,0,5.039-1a2.706,2.706,0,0,0,1.8-.531,2.947,2.947,0,0,0,.831-1.849Zm1.348-.652a4.681,4.681,0,0,1,.458-2.095,3.415,3.415,0,0,1,1.274-1.436,3.469,3.469,0,0,1,1.864-.505,3.342,3.342,0,0,1,2.618,1.121,4.311,4.311,0,0,1,1,2.981v.1A4.722,4.722,0,0,1,17.2-1.8,3.365,3.365,0,0,1,15.934-.366a3.509,3.509,0,0,1-1.893.513A3.334,3.334,0,0,1,11.429-.974a4.29,4.29,0,0,1-1-2.966Zm1.362.161A3.39,3.39,0,0,0,12.4-1.758a1.957,1.957,0,0,0,1.637.8,1.945,1.945,0,0,0,1.641-.809,3.707,3.707,0,0,0,.608-2.267,3.384,3.384,0,0,0-.619-2.113,1.968,1.968,0,0,0-1.644-.809,1.946,1.946,0,0,0-1.619.8A3.68,3.68,0,0,0,11.792-3.875Zm8.826-4.05.037.879a2.927,2.927,0,0,1,2.351-1.025A2.266,2.266,0,0,1,25.269-6.8,3,3,0,0,1,26.3-7.72a3.039,3.039,0,0,1,1.5-.352q2.607,0,2.651,2.761V0H29.092V-5.229A1.82,1.82,0,0,0,28.7-6.5a1.71,1.71,0,0,0-1.3-.421,1.8,1.8,0,0,0-1.252.45,1.827,1.827,0,0,0-.579,1.212V0H24.207V-5.193a1.512,1.512,0,0,0-1.692-1.729,1.813,1.813,0,0,0-1.824,1.135V0H19.336V-7.925ZM35.779.146A3.463,3.463,0,0,1,33.157-.912a3.928,3.928,0,0,1-1.011-2.831v-.249A4.756,4.756,0,0,1,32.6-6.1a3.514,3.514,0,0,1,1.26-1.45,3.167,3.167,0,0,1,1.754-.524,2.968,2.968,0,0,1,2.4,1.018,4.408,4.408,0,0,1,.857,2.915v.564H33.5a2.817,2.817,0,0,0,.685,1.893,2.153,2.153,0,0,0,1.666.721,2.36,2.36,0,0,0,1.216-.293,3.055,3.055,0,0,0,.872-.776l.828.645A3.328,3.328,0,0,1,35.779.146Zm-.168-7.1a1.807,1.807,0,0,0-1.377.6,2.9,2.9,0,0,0-.688,1.674h3.97v-.1a2.581,2.581,0,0,0-.557-1.6A1.7,1.7,0,0,0,35.61-6.958Zm8.657.249A4.061,4.061,0,0,0,43.6-6.76a1.786,1.786,0,0,0-1.809,1.135V0H40.437V-7.925h1.318l.022.916a2.11,2.11,0,0,1,1.89-1.062,1.384,1.384,0,0,1,.6.1Zm4.285,5.75A1.952,1.952,0,0,0,49.819-1.4a1.546,1.546,0,0,0,.6-1.1H51.7a2.457,2.457,0,0,1-.469,1.3,3.087,3.087,0,0,1-1.154.981,3.329,3.329,0,0,1-1.527.366,3.265,3.265,0,0,1-2.574-1.08,4.3,4.3,0,0,1-.956-2.955v-.227a4.771,4.771,0,0,1,.425-2.058,3.236,3.236,0,0,1,1.219-1.4,3.464,3.464,0,0,1,1.879-.5,3.178,3.178,0,0,1,2.216.8A2.853,2.853,0,0,1,51.7-5.2H50.42a1.867,1.867,0,0,0-.582-1.263,1.811,1.811,0,0,0-1.293-.494,1.9,1.9,0,0,0-1.6.743,3.491,3.491,0,0,0-.568,2.15v.256A3.422,3.422,0,0,0,46.941-1.7,1.906,1.906,0,0,0,48.552-.959ZM54.7,0H53.342V-7.925H54.7ZM53.232-10.027a.809.809,0,0,1,.2-.557.756.756,0,0,1,.6-.227.768.768,0,0,1,.6.227.8.8,0,0,1,.205.557.774.774,0,0,1-.205.549.782.782,0,0,1-.6.22.77.77,0,0,1-.6-.22A.782.782,0,0,1,53.232-10.027ZM61.758,0a2.846,2.846,0,0,1-.19-.835,3.023,3.023,0,0,1-2.256.981,2.8,2.8,0,0,1-1.923-.663A2.145,2.145,0,0,1,56.638-2.2a2.24,2.24,0,0,1,.941-1.923A4.437,4.437,0,0,1,60.227-4.8h1.318v-.623a1.522,1.522,0,0,0-.425-1.132,1.707,1.707,0,0,0-1.252-.421,1.976,1.976,0,0,0-1.216.366,1.079,1.079,0,0,0-.491.886H56.8a1.87,1.87,0,0,1,.421-1.146,2.874,2.874,0,0,1,1.143-.875,3.844,3.844,0,0,1,1.586-.322,3.133,3.133,0,0,1,2.146.685A2.47,2.47,0,0,1,62.9-5.5v3.647a4.459,4.459,0,0,0,.278,1.736V0ZM59.509-1.033a2.381,2.381,0,0,0,1.208-.33,1.994,1.994,0,0,0,.828-.857V-3.845H60.483q-2.49,0-2.49,1.458a1.234,1.234,0,0,0,.425,1A1.633,1.633,0,0,0,59.509-1.033ZM66.5,0H65.142V-11.25H66.5Z" transform="translate(773.191 3845.103)" fill="#12263f"/>
    <path id="Path_194643" data-name="Path 194643" d="M2.644-4.175V0H1.238V-10.664H5.171a3.952,3.952,0,0,1,2.743.894A3.029,3.029,0,0,1,8.906-7.4a2.989,2.989,0,0,1-.97,2.391,4.128,4.128,0,0,1-2.78.839Zm0-1.15H5.171A2.526,2.526,0,0,0,6.9-5.857a1.945,1.945,0,0,0,.6-1.537A2.009,2.009,0,0,0,6.9-8.92a2.367,2.367,0,0,0-1.648-.594H2.644ZM14.319-6.709a4.061,4.061,0,0,0-.667-.051,1.786,1.786,0,0,0-1.809,1.135V0H10.488V-7.925h1.318l.022.916a2.11,2.11,0,0,1,1.89-1.062,1.384,1.384,0,0,1,.6.1Zm.74,2.673a4.681,4.681,0,0,1,.458-2.095,3.415,3.415,0,0,1,1.274-1.436,3.469,3.469,0,0,1,1.864-.505,3.342,3.342,0,0,1,2.618,1.121,4.311,4.311,0,0,1,1,2.981v.1A4.722,4.722,0,0,1,21.83-1.8,3.365,3.365,0,0,1,20.563-.366a3.509,3.509,0,0,1-1.893.513A3.334,3.334,0,0,1,16.058-.974a4.29,4.29,0,0,1-1-2.966Zm1.362.161a3.39,3.39,0,0,0,.612,2.117,1.957,1.957,0,0,0,1.637.8,1.945,1.945,0,0,0,1.641-.809,3.707,3.707,0,0,0,.608-2.267A3.384,3.384,0,0,0,20.3-6.149a1.968,1.968,0,0,0-1.644-.809,1.946,1.946,0,0,0-1.619.8A3.68,3.68,0,0,0,16.421-3.875Zm7.222-.154a4.642,4.642,0,0,1,.864-2.933,2.733,2.733,0,0,1,2.263-1.11,2.748,2.748,0,0,1,2.2.952V-11.25H30.33V0H29.084l-.066-.85a2.759,2.759,0,0,1-2.263,1A2.707,2.707,0,0,1,24.51-.981a4.7,4.7,0,0,1-.868-2.944ZM25-3.875a3.515,3.515,0,0,0,.557,2.109A1.8,1.8,0,0,0,27.092-1a1.977,1.977,0,0,0,1.882-1.157V-5.8a1.992,1.992,0,0,0-1.868-1.121,1.808,1.808,0,0,0-1.553.769A3.87,3.87,0,0,0,25-3.875ZM37.324-.784A2.878,2.878,0,0,1,35,.146a2.464,2.464,0,0,1-1.93-.736,3.186,3.186,0,0,1-.67-2.179V-7.925h1.355v5.12q0,1.8,1.465,1.8a2.028,2.028,0,0,0,2.065-1.157V-7.925h1.355V0H37.354Zm6.555-.176A1.952,1.952,0,0,0,45.146-1.4a1.546,1.546,0,0,0,.6-1.1h1.282a2.457,2.457,0,0,1-.469,1.3,3.087,3.087,0,0,1-1.154.981,3.329,3.329,0,0,1-1.527.366A3.265,3.265,0,0,1,41.3-.934a4.3,4.3,0,0,1-.956-2.955v-.227a4.771,4.771,0,0,1,.425-2.058,3.236,3.236,0,0,1,1.219-1.4,3.464,3.464,0,0,1,1.879-.5,3.178,3.178,0,0,1,2.216.8A2.853,2.853,0,0,1,47.029-5.2H45.747a1.867,1.867,0,0,0-.582-1.263,1.811,1.811,0,0,0-1.293-.494,1.9,1.9,0,0,0-1.6.743,3.491,3.491,0,0,0-.568,2.15v.256A3.422,3.422,0,0,0,42.268-1.7,1.906,1.906,0,0,0,43.879-.959Zm7.852,0A1.952,1.952,0,0,0,53-1.4a1.546,1.546,0,0,0,.6-1.1H54.88a2.457,2.457,0,0,1-.469,1.3,3.087,3.087,0,0,1-1.154.981,3.329,3.329,0,0,1-1.527.366,3.265,3.265,0,0,1-2.574-1.08A4.3,4.3,0,0,1,48.2-3.889v-.227a4.771,4.771,0,0,1,.425-2.058,3.236,3.236,0,0,1,1.219-1.4,3.464,3.464,0,0,1,1.879-.5,3.178,3.178,0,0,1,2.216.8A2.853,2.853,0,0,1,54.88-5.2H53.6a1.867,1.867,0,0,0-.582-1.263,1.811,1.811,0,0,0-1.293-.494,1.9,1.9,0,0,0-1.6.743,3.491,3.491,0,0,0-.568,2.15v.256A3.422,3.422,0,0,0,50.12-1.7,1.906,1.906,0,0,0,51.731-.959ZM57.876,0H56.521V-7.925h1.355ZM56.411-10.027a.809.809,0,0,1,.2-.557.756.756,0,0,1,.6-.227.768.768,0,0,1,.6.227.8.8,0,0,1,.205.557.774.774,0,0,1-.205.549.782.782,0,0,1-.6.22.77.77,0,0,1-.6-.22A.782.782,0,0,1,56.411-10.027Zm3.274,5.991a4.681,4.681,0,0,1,.458-2.095,3.415,3.415,0,0,1,1.274-1.436,3.469,3.469,0,0,1,1.864-.505A3.342,3.342,0,0,1,65.9-6.951a4.311,4.311,0,0,1,1,2.981v.1A4.722,4.722,0,0,1,66.456-1.8,3.365,3.365,0,0,1,65.189-.366,3.509,3.509,0,0,1,63.3.146,3.334,3.334,0,0,1,60.685-.974a4.29,4.29,0,0,1-1-2.966Zm1.362.161a3.39,3.39,0,0,0,.612,2.117,1.957,1.957,0,0,0,1.637.8,1.945,1.945,0,0,0,1.641-.809,3.707,3.707,0,0,0,.608-2.267,3.384,3.384,0,0,0-.619-2.113,1.968,1.968,0,0,0-1.644-.809,1.946,1.946,0,0,0-1.619.8A3.68,3.68,0,0,0,61.047-3.875ZM63.9-11.25h1.641L63.574-9.1l-1.091,0ZM69.88-7.925l.044,1A2.888,2.888,0,0,1,72.3-8.071q2.512,0,2.534,2.834V0H73.477V-5.244a1.824,1.824,0,0,0-.392-1.267,1.57,1.57,0,0,0-1.2-.41,1.956,1.956,0,0,0-1.157.352,2.387,2.387,0,0,0-.776.923V0H68.6V-7.925Z" transform="translate(1093.148 3845.103)" fill="#12263f"/>
    <path id="Path_194644" data-name="Path 194644" d="M9.111-1.4A3.248,3.248,0,0,1,7.6-.238a6.109,6.109,0,0,1-2.26.385A4.382,4.382,0,0,1,3.025-.465,4.074,4.074,0,0,1,1.461-2.2,6.008,6.008,0,0,1,.894-4.819v-.93A5.608,5.608,0,0,1,2.018-9.485a3.917,3.917,0,0,1,3.16-1.326,4.046,4.046,0,0,1,2.688.853A3.717,3.717,0,0,1,9.111-7.537H7.705a2.325,2.325,0,0,0-2.52-2.124,2.489,2.489,0,0,0-2.142.993A4.85,4.85,0,0,0,2.307-5.79v.872a4.545,4.545,0,0,0,.82,2.855A2.659,2.659,0,0,0,5.347-1a4.9,4.9,0,0,0,1.384-.175,2.141,2.141,0,0,0,.981-.592V-4.16H5.244V-5.31H9.111ZM14.531.146A3.463,3.463,0,0,1,11.909-.912,3.928,3.928,0,0,1,10.9-3.743v-.249a4.756,4.756,0,0,1,.45-2.106,3.514,3.514,0,0,1,1.26-1.45,3.167,3.167,0,0,1,1.754-.524,2.968,2.968,0,0,1,2.4,1.018,4.408,4.408,0,0,1,.857,2.915v.564H12.253a2.817,2.817,0,0,0,.685,1.893A2.153,2.153,0,0,0,14.6-.959a2.36,2.36,0,0,0,1.216-.293,3.055,3.055,0,0,0,.872-.776l.828.645A3.328,3.328,0,0,1,14.531.146Zm-.168-7.1a1.807,1.807,0,0,0-1.377.6A2.9,2.9,0,0,0,12.3-4.687h3.97v-.1a2.581,2.581,0,0,0-.557-1.6A1.7,1.7,0,0,0,14.363-6.958Zm8.657.249a4.061,4.061,0,0,0-.667-.051,1.786,1.786,0,0,0-1.809,1.135V0H19.189V-7.925h1.318l.022.916a2.11,2.11,0,0,1,1.89-1.062,1.384,1.384,0,0,1,.6.1ZM27.554.146A3.463,3.463,0,0,1,24.932-.912a3.928,3.928,0,0,1-1.011-2.831v-.249a4.756,4.756,0,0,1,.45-2.106,3.514,3.514,0,0,1,1.26-1.45,3.167,3.167,0,0,1,1.754-.524,2.968,2.968,0,0,1,2.4,1.018,4.408,4.408,0,0,1,.857,2.915v.564H25.276a2.817,2.817,0,0,0,.685,1.893,2.153,2.153,0,0,0,1.666.721,2.36,2.36,0,0,0,1.216-.293,3.055,3.055,0,0,0,.872-.776l.828.645A3.328,3.328,0,0,1,27.554.146Zm-.168-7.1a1.807,1.807,0,0,0-1.377.6,2.9,2.9,0,0,0-.688,1.674h3.97v-.1a2.581,2.581,0,0,0-.557-1.6A1.7,1.7,0,0,0,27.385-6.958Zm6.108-.967.044,1a2.888,2.888,0,0,1,2.373-1.143q2.512,0,2.534,2.834V0H37.09V-5.244A1.824,1.824,0,0,0,36.7-6.511a1.57,1.57,0,0,0-1.2-.41,1.956,1.956,0,0,0-1.157.352,2.387,2.387,0,0,0-.776.923V0H32.212V-7.925ZM43.667-.959A1.952,1.952,0,0,0,44.934-1.4a1.546,1.546,0,0,0,.6-1.1h1.282a2.457,2.457,0,0,1-.469,1.3,3.087,3.087,0,0,1-1.154.981,3.329,3.329,0,0,1-1.527.366,3.265,3.265,0,0,1-2.574-1.08,4.3,4.3,0,0,1-.956-2.955v-.227a4.771,4.771,0,0,1,.425-2.058,3.236,3.236,0,0,1,1.219-1.4,3.464,3.464,0,0,1,1.879-.5,3.178,3.178,0,0,1,2.216.8A2.853,2.853,0,0,1,46.816-5.2H45.535a1.867,1.867,0,0,0-.582-1.263,1.811,1.811,0,0,0-1.293-.494,1.9,1.9,0,0,0-1.6.743,3.491,3.491,0,0,0-.568,2.15v.256A3.422,3.422,0,0,0,42.056-1.7,1.906,1.906,0,0,0,43.667-.959ZM49.812,0H48.457V-7.925h1.355ZM48.347-10.027a.809.809,0,0,1,.2-.557.756.756,0,0,1,.6-.227.768.768,0,0,1,.6.227.8.8,0,0,1,.205.557.774.774,0,0,1-.205.549.782.782,0,0,1-.6.22.77.77,0,0,1-.6-.22A.782.782,0,0,1,48.347-10.027ZM56.873,0a2.846,2.846,0,0,1-.19-.835,3.023,3.023,0,0,1-2.256.981A2.8,2.8,0,0,1,52.5-.516,2.145,2.145,0,0,1,51.753-2.2a2.24,2.24,0,0,1,.941-1.923A4.437,4.437,0,0,1,55.342-4.8H56.66v-.623a1.522,1.522,0,0,0-.425-1.132,1.707,1.707,0,0,0-1.252-.421,1.976,1.976,0,0,0-1.216.366,1.079,1.079,0,0,0-.491.886H51.914a1.87,1.87,0,0,1,.421-1.146,2.874,2.874,0,0,1,1.143-.875,3.844,3.844,0,0,1,1.586-.322,3.133,3.133,0,0,1,2.146.685A2.47,2.47,0,0,1,58.015-5.5v3.647a4.459,4.459,0,0,0,.278,1.736V0ZM54.624-1.033a2.381,2.381,0,0,0,1.208-.33,1.994,1.994,0,0,0,.828-.857V-3.845H55.6q-2.49,0-2.49,1.458a1.234,1.234,0,0,0,.425,1A1.633,1.633,0,0,0,54.624-1.033Z" transform="translate(780.166 3718.55)" fill="#12263f"/>
    <path id="Path_194645" data-name="Path 194645" d="M0,0H32.609V10.813H0Z" transform="translate(1128.246 3798.521) rotate(-90)" fill="#bec1c7"/>
    <path id="Path_194646" data-name="Path 194646" d="M17.559,12.538,0,25.078V0Z" transform="translate(1145.673 3794.325) rotate(90)" fill="#bec1c7"/>
    <path id="Path_194647" data-name="Path 194647" d="M0,0H32.609V10.813H0Z" transform="translate(478.85 3798.521) rotate(-90)" fill="#bec1c7"/>
    <path id="Path_194648" data-name="Path 194648" d="M17.559,12.538,0,25.078V0Z" transform="translate(496.277 3794.325) rotate(90)" fill="#bec1c7"/>
    <path id="Path_194649" data-name="Path 194649" d="M0,0H32.609V10.813H0Z" transform="translate(389.31 3927.689) rotate(-90)" fill="#bec1c7"/>
    <path id="Path_194650" data-name="Path 194650" d="M17.559,12.538,0,25.078V0Z" transform="translate(406.737 3923.493) rotate(90)" fill="#bec1c7"/>
    <path id="Path_194651" data-name="Path 194651" d="M0,0H32.609V10.813H0Z" transform="translate(1035.929 3927.689) rotate(-90)" fill="#bec1c7"/>
    <path id="Path_194652" data-name="Path 194652" d="M17.559,12.538,0,25.078V0Z" transform="translate(1053.356 3923.493) rotate(90)" fill="#bec1c7"/>
    <path id="Path_194653" data-name="Path 194653" d="M0,0H32.609V10.813H0Z" transform="translate(570.025 3927.689) rotate(-90)" fill="#bec1c7"/>
    <path id="Path_194654" data-name="Path 194654" d="M17.559,12.538,0,25.078V0Z" transform="translate(587.453 3923.493) rotate(90)" fill="#bec1c7"/>
    <path id="Path_194655" data-name="Path 194655" d="M0,0H32.609V10.813H0Z" transform="translate(1216.645 3927.689) rotate(-90)" fill="#bec1c7"/>
    <path id="Path_194656" data-name="Path 194656" d="M17.559,12.538,0,25.078V0Z" transform="translate(1234.072 3923.493) rotate(90)" fill="#bec1c7"/>
    <path id="Path_194657" data-name="Path 194657" d="M0,0H32.609V10.813H0Z" transform="translate(802.676 3798.521) rotate(-90)" fill="#bec1c7"/>
    <path id="Path_194658" data-name="Path 194658" d="M17.559,12.538,0,25.078V0Z" transform="translate(820.103 3794.325) rotate(90)" fill="#bec1c7"/>
  </g>
</svg>
