<svg xmlns="http://www.w3.org/2000/svg" width="112" height="112" viewBox="0 0 112 112">
  <g id="Group_154293" data-name="Group 154293" transform="translate(8459.658 9552.205)">
    <circle id="Ellipse_5473" data-name="Ellipse 5473" cx="56" cy="56" r="56" transform="translate(-8459.658 -9552.205)" fill="#baa1e1"/>
    <g id="Group_152119" data-name="Group 152119" transform="translate(-8437.978 -9533.108)">
      <g id="Group_50690" data-name="Group 50690" transform="translate(38.497)">
        <g id="Group_50689" data-name="Group 50689">
          <g id="Group_50688" data-name="Group 50688">
            <path id="Path_112694" data-name="Path 112694" d="M332.695,2252.1a5.464,5.464,0,0,1-4.179-1.951,5.62,5.62,0,0,1-1.319-4.063H318.52a1.363,1.363,0,0,1-1.363-1.362v-9.189a1.363,1.363,0,0,1,1.609-1.341l.081.015a2.8,2.8,0,1,0,0-5.51l-.082.015a1.363,1.363,0,0,1-1.608-1.34v-10.067a1.362,1.362,0,0,1,1.362-1.363h22.6a6.181,6.181,0,0,1,6.174,6.174v22.6a1.362,1.362,0,0,1-1.362,1.362H338.2a5.526,5.526,0,0,1-5.421,6.013Zm-12.812-8.739H328.8a1.363,1.363,0,0,1,1.34,1.607l-.185,1.016a2.9,2.9,0,0,0,.642,2.4,2.717,2.717,0,0,0,2.139.985,2.8,2.8,0,0,0,2.712-3.3l-.2-1.1a1.363,1.363,0,0,1,1.34-1.607h7.987v-21.241a3.453,3.453,0,0,0-3.449-3.449H319.883v7.283a5.527,5.527,0,0,1,0,11Z" transform="translate(-317.157 -2215.948)" fill="#fff"/>
          </g>
        </g>
      </g>
      <g id="Group_50704" data-name="Group 50704">
        <g id="Group_50698" data-name="Group 50698" transform="translate(1.124 12.206)">
          <path id="Path_112698" data-name="Path 112698" d="M308.822,2272.1a1.362,1.362,0,0,0,1.363-1.362V2265.8a1.362,1.362,0,0,0-1.363-1.362h-9.349a1.362,1.362,0,0,0-1.34,1.608l.2,1.1a2.8,2.8,0,0,1-2.712,3.3,2.719,2.719,0,0,1-2.139-.985,2.9,2.9,0,0,1-.642-2.405l.185-1.015a1.362,1.362,0,0,0-1.34-1.608H282.77v-6.405a5.527,5.527,0,0,0,0-11v-8.646a1.363,1.363,0,0,0-1.363-1.363H258.8a6.181,6.181,0,0,0-6.174,6.174V2288.4a6.181,6.181,0,0,0,6.174,6.174h45.207a6.181,6.181,0,0,0,6.174-6.174v-3.954a1.363,1.363,0,1,0-2.725,0v3.954a3.453,3.453,0,0,1-3.449,3.449H282.77v-8.789a1.363,1.363,0,0,0-1.607-1.341l-.083.015a2.8,2.8,0,1,1,0-5.509l.082.015a1.363,1.363,0,0,0,1.607-1.34v-7.741h7.313a5.616,5.616,0,0,0,1.319,4.062,5.508,5.508,0,0,0,9.681-4.062h6.376v3.571a1.362,1.362,0,0,0,1.362,1.362Zm-53.467-28.9a3.453,3.453,0,0,1,3.449-3.449h21.241v8.7a1.362,1.362,0,0,0,1.607,1.341l.082-.015h0a2.8,2.8,0,1,1,0,5.509l-.082-.015a1.363,1.363,0,0,0-1.607,1.341v7.826H274.2a5.532,5.532,0,0,0-10.617,0h-8.227Zm21.684,31.543a5.527,5.527,0,0,0,3.007,9.746v7.368H258.8a3.453,3.453,0,0,1-3.449-3.449v-21.241h9.375a1.363,1.363,0,0,0,1.362-1.3,2.8,2.8,0,0,1,5.6,0,1.362,1.362,0,0,0,1.361,1.3h6.995v6.321a5.516,5.516,0,0,0-3.007,1.256Z" transform="translate(-252.63 -2237.023)" fill="#fff"/>
        </g>
        <g id="Group_50703" data-name="Group 50703">
          <g id="Group_50700" data-name="Group 50700">
            <g id="Group_50699" data-name="Group 50699">
              <path id="Path_112699" data-name="Path 112699" d="M250.689,2215.948" transform="translate(-250.689 -2215.948)" fill="#fff"/>
            </g>
          </g>
          <g id="Group_50702" data-name="Group 50702" transform="translate(55.956 51.346)">
            <g id="Group_50701" data-name="Group 50701">
              <path id="Path_112700" data-name="Path 112700" d="M348.661,2307.32a1.362,1.362,0,1,1,1.337-1.1,1.372,1.372,0,0,1-1.337,1.1Z" transform="translate(-347.301 -2304.6)" fill="#fff"/>
            </g>
          </g>
        </g>
      </g>
    </g>
  </g>
</svg>
