<svg xmlns="http://www.w3.org/2000/svg" width="45.924" height="46.023" viewBox="0 0 45.924 46.023">
  <g id="Group_77444" data-name="Group 77444" transform="translate(-241.076 -2286)">
    <g id="Group_77441" data-name="Group 77441" transform="translate(-1.039 1)">
      <rect id="Rectangle_32442" data-name="Rectangle 32442" width="31" height="31" transform="translate(256 2286)" fill="#ae8fdb" opacity="0.63"/>
      <g id="Group_152590" data-name="Group 152590" transform="translate(8.17 2030.987)">
        <path id="Path_193805" data-name="Path 193805" d="M246.523,255.918a11.169,11.169,0,0,0,.676,1.322q5.309,7.733,10.651,15.443c.655.944,1.114,1.883.372,2.948a2.672,2.672,0,0,1-3.132.925c-1.123-.282-2.23-.626-3.475-.979v18.669H240.994V275.571c-1.033.291-1.9.542-2.774.778a9.355,9.355,0,0,1-1.357.314,2.494,2.494,0,0,1-2.632-1.2,2.215,2.215,0,0,1,.355-2.591q5.453-7.888,10.891-15.787c.263-.382.51-.774.765-1.162Z" transform="translate(0 0)" fill="#12263f"/>
        <path id="Path_193806" data-name="Path 193806" d="M316.841,316.071c-2.054-2.986-4.177-5.735-5.887-8.719-.68-1.187-.449-2.9-.633-4.369l.451-.124,6.1,8.787,9.453-13.7-6.629,1.8v-19h-5.554v6.366c-2.432-2.12-3.082-4.6-2.41-8.9H322.17v18.234c1.295-.351,2.413-.638,3.522-.957a2.621,2.621,0,0,1,3.123.916c.764,1.058.275,2-.38,2.941q-5.471,7.881-10.9,15.794C317.357,315.395,317.157,315.647,316.841,316.071Z" transform="translate(-54.956 -16.035)" fill="#12263f"/>
      </g>
    </g>
    <path id="Path_194050" data-name="Path 194050" d="M0,0H43V46H0Z" transform="translate(244 2286)" fill="none"/>
  </g>
</svg>
