<svg xmlns="http://www.w3.org/2000/svg" width="56.269" height="46.586" viewBox="0 0 56.269 46.586">
  <g id="Group_152594" data-name="Group 152594" transform="translate(-230.731 -2286)">
    <g id="Group_77441" data-name="Group 77441" transform="translate(-1.039 1)">
      <rect id="Rectangle_32442" data-name="Rectangle 32442" width="31" height="31" transform="translate(256 2286)" fill="#a78cdb" opacity="0.63"/>
      <g id="Group_152595" data-name="Group 152595" transform="translate(330.011 2335.586)">
        <path id="Path_193807" data-name="Path 193807" d="M-65.742,364.567l-14.194,6.33,1.392-5.231a20.073,20.073,0,0,1-12.618-8.7,19.615,19.615,0,0,1-3-7.738l7.117-1.429a13.029,13.029,0,0,0,5.1,8.468,12.816,12.816,0,0,0,5.284,2.342l1.6-5.968Z" transform="translate(-3.847 -374.897)" fill="#12263f"/>
        <path id="Path_193808" data-name="Path 193808" d="M-87.677-37.832l4.393,4.38-14.957,2.119,1.615-15.447,3.808,3.831a20.082,20.082,0,0,1,12.983-6.53,20.142,20.142,0,0,1,9.088,1.17l-2.327,6.87C-78.695-43.276-83.528-42.084-87.677-37.832Z" transform="translate(0 0)" fill="#12263f"/>
        <path id="Path_193809" data-name="Path 193809" d="M384.985,23.08l12.576,9.133-5.221,1.413a20.216,20.216,0,0,1-6.417,21.751l-4.794-5.46a12.971,12.971,0,0,0,4.716-8.173,12.651,12.651,0,0,0-.566-6.234l-5.955,1.6Z" transform="translate(-450.536 -68.553)" fill="#12263f"/>
      </g>
    </g>
    <path id="Path_194050" data-name="Path 194050" d="M0,0H43V46H0Z" transform="translate(244 2286)" fill="none"/>
  </g>
</svg>
