<svg xmlns="http://www.w3.org/2000/svg" width="56.995" height="50.157" viewBox="0 0 56.995 50.157">
  <g id="Group_152596" data-name="Group 152596" transform="translate(-230.005 -2285)">
    <g id="Group_77441" data-name="Group 77441" transform="translate(-1.039 1)">
      <rect id="Rectangle_32442" data-name="Rectangle 32442" width="31" height="31" transform="translate(256 2286)" fill="#a78cdb" opacity="0.63"/>
      <g id="ZODITg.tif" transform="translate(180.206 3933.543)">
        <g id="Group_152134" data-name="Group 152134" transform="translate(50.838 -1649.543)">
          <path id="Path_193810" data-name="Path 193810" d="M245.376-1599.387a3.7,3.7,0,0,1-.536-.667q-2.857-5.974-5.687-11.96c-.408-.86-.15-1.273.792-1.275.877,0,1.754,0,2.657,0v-22.357c-.9,0-1.778,0-2.655,0-.944,0-1.2-.413-.8-1.273q2.837-5.983,5.679-11.964c.148-.311.282-.649.7-.658s.609.3.771.64q2.847,6.005,5.7,12.007c.389.821.117,1.24-.8,1.244-.847,0-1.695,0-2.582,0v22.359h2.264c1.381,0,1.561.282.972,1.523q-2.742,5.785-5.491,11.566a8.277,8.277,0,0,1-.507.815Z" transform="translate(-220.502 1649.543)" fill="#12263f"/>
          <path id="Path_193811" data-name="Path 193811" d="M383.067-1454.654a3.372,3.372,0,0,1-.625.51q-6.012,2.878-12.037,5.73c-.82.389-1.234.115-1.237-.806,0-.846,0-1.693,0-2.608h-5.55v-5.96h5.547c0-.887,0-1.729,0-2.57a2.708,2.708,0,0,1,.035-.583.627.627,0,0,1,.847-.489,2.645,2.645,0,0,1,.407.161q5.956,2.826,11.907,5.663a3.978,3.978,0,0,1,.705.561Z" transform="translate(-332.92 1479.925)" fill="#12263f"/>
          <path id="Path_193812" data-name="Path 193812" d="M64.73-1457.771h5.58v5.935H64.73c0,.859,0,1.67,0,2.48a2.92,2.92,0,0,1-.03.584.62.62,0,0,1-.836.509,2.254,2.254,0,0,1-.407-.159q-5.982-2.838-11.962-5.678c-.312-.148-.649-.278-.656-.7s.3-.61.642-.77q6.006-2.844,12.008-5.694c.829-.393,1.239-.128,1.242.793C64.732-1459.6,64.73-1458.717,64.73-1457.771Z" transform="translate(-50.838 1479.904)" fill="#12263f"/>
        </g>
      </g>
    </g>
    <path id="Path_194050" data-name="Path 194050" d="M0,0H43V46H0Z" transform="translate(244 2286)" fill="none"/>
  </g>
</svg>
