<svg xmlns="http://www.w3.org/2000/svg" width="97.508" height="91.901" viewBox="0 0 97.508 91.901">
  <g id="Group_154285" data-name="Group 154285" transform="translate(-244 -869.732)">
    <g id="Group_154283" data-name="Group 154283">
      <path id="Polygon_49" data-name="Polygon 49" d="M12.5,0,25,19H0Z" transform="translate(263 895.995) rotate(90)" fill="#2194e5"/>
      <g id="DrhVCJ" transform="translate(-476.244 1938.193)">
        <g id="Group_154274" data-name="Group 154274" transform="translate(725.851 -1068.461)">
          <path id="Path_194615" data-name="Path 194615" d="M768.33-1068.461a40.669,40.669,0,0,1,6.009,1.76c8.151,3.774,12.417,10.256,12.722,19.232a2.977,2.977,0,0,0,1.818,3.1,7.42,7.42,0,0,1,3.859,7.3,7.555,7.555,0,0,1-6.012,6.64c-.461.1-.918.224-1.51.368a18.7,18.7,0,0,1-4.16,11.613,21.732,21.732,0,0,1-4.308,3.993,2.655,2.655,0,0,0-.942,3.549c.406.839,1.938,1.219,3.046,1.572.272.087.89-.677,1.249-1.129,4.82-6.064,11.127-8.943,18.786-8,8.222,1.009,14.251,5.353,17.435,13.184a46.018,46.018,0,0,1,1.431,5.026v4.9a5.139,5.139,0,0,0-.35.917c-1.535,8.562-6.532,14.116-14.72,16.825a43.894,43.894,0,0,1-4.944,1.047H795.7a7.419,7.419,0,0,0-1.158-.321,20.823,20.823,0,0,1-18.293-15.893c-.2-.767-.328-1.55-.527-2.5-4.759,3.391-9.748,4.258-15.033,2.324-5.311-1.944-8.342-6.016-9.754-11.522-3.353,1.238-6.58,2.277-9.679,3.614a14.119,14.119,0,0,0-7.7,7.267c-1.288,3.013-1.9,6.319-2.786,9.5-.7,2.507-1.373,5.022-2.057,7.533h-2.859v-2.859c.546-2.648,1.188-5.28,1.62-7.947,1.472-9.081,6.464-15.151,15.2-18.134,4.038-1.379,8.061-2.8,12.053-4.308a2.89,2.89,0,0,0,1.689-1.567,2.543,2.543,0,0,0-1.142-3.1,17.257,17.257,0,0,1-7.372-9.918c-.531-1.8-.77-3.693-1.173-5.707-4.121-.569-6.991-2.861-7.315-7.26-.288-3.9,1.906-6.5,5.63-7.942,0-.743-.024-1.482,0-2.219.329-8.824,4.466-15.219,12.423-19a43.174,43.174,0,0,1,6.368-1.936Zm-17.571,27.209c0,3.716,0,7.379,0,11.042.008,7.715,5.842,14.5,13.107,15.245,8.356.858,15.789-3.994,17.021-11.945.746-4.818.137-9.846.137-14.427l-9.543-4.542c-2.52,2.32-5.993,3.333-9.558,3.823C758.319-1041.559,754.652-1041.512,750.759-1041.252ZM814-997.685a17.477,17.477,0,0,0-17.531-17.232,17.464,17.464,0,0,0-17.081,17.463,17.5,17.5,0,0,0,17.416,17.145A17.513,17.513,0,0,0,814-997.685Zm-30.8-47.843a17.142,17.142,0,0,0-8.729-16.909c-6.463-3.489-12.866-3.077-18.745,1.26-5.165,3.81-7.316,9.156-6.9,15.666,5.519.419,10.824.4,15.956-1.1a11.977,11.977,0,0,0,4.9-3.026c1.869-1.883,2.372-2.095,4.126-.16A12.028,12.028,0,0,0,783.206-1045.528Zm-28.384,39.73a11.181,11.181,0,0,0,9.832,10.029c6.54.609,10.865-2.853,12.474-10.071l-1.848-.648c-1.8,4.2-4.666,6.655-9.225,6.67-4.652.015-7.484-2.619-9.281-6.676Zm5.5-5.854c-.388,3.173.106,5.852,2.929,7.578a5.885,5.885,0,0,0,6.323-.487,6.4,6.4,0,0,0,1.992-7.08c-1.812.178-3.624.5-5.436.495C764.248-1011.147,762.367-1011.459,760.321-1011.651Zm-13.4-29.832c-2.519.208-4.08,1.9-3.885,3.962a3.494,3.494,0,0,0,3.885,3.242Zm38.308.058v7.184a3.612,3.612,0,0,0,3.885-3.456A3.66,3.66,0,0,0,785.227-1041.425Z" transform="translate(-725.851 1068.461)" fill="#fff"/>
          <path id="Path_194616" data-name="Path 194616" d="M821.407-961.565c.033,1.878-1.4,2.8-2.752,2.06a9.228,9.228,0,0,0-9.5-.07,1.582,1.582,0,0,1-2.491-.833,2.7,2.7,0,0,1,.7-2.36c2.938-2.351,9.438-2.478,12.564-.344A8.721,8.721,0,0,1,821.407-961.565Z" transform="translate(-773.619 1007.038)" fill="#fff"/>
          <path id="Path_194617" data-name="Path 194617" d="M798.106-990.2c-.3-.307-1.385-.937-1.367-1.533a2.828,2.828,0,0,1,1.54-2.074,3.3,3.3,0,0,0,2.239-2.316,2.511,2.511,0,0,1,1.923-1.453,2.593,2.593,0,0,1,1.618,1.854C804.364-993.038,801.4-990.111,798.106-990.2Z" transform="translate(-767.784 1026.532)" fill="#fff"/>
          <path id="Path_194618" data-name="Path 194618" d="M839.788-990.355c-3.255-.1-5.959-2.683-5.8-5.276.047-.779.958-1.507,1.473-2.258.719.551,1.839.972,2.07,1.682a2.687,2.687,0,0,0,2.332,2.157,1.586,1.586,0,0,1,1.408,2.221C841-991.116,840.1-990.642,839.788-990.355Z" transform="translate(-789.814 1026.714)" fill="#fff"/>
          <path id="Path_194619" data-name="Path 194619" d="M876.891-905.934c-.707-.047-1.039-.082-1.371-.09-4.4-.112-4.4-.111-4.4-4.635,0-1.292-.022-2.586.006-3.877.051-2.344.548-2.827,2.925-2.881.867-.019,1.735,0,2.854,0,0-1.292,0-2.358,0-3.425a2.057,2.057,0,0,1,2.23-2.327c2.312-.036,4.626-.046,6.938,0a2,2,0,0,1,2.215,2.31c-.033,1.071-.006,2.144-.006,3.448,1.258,0,2.264.009,3.269,0,1.653-.018,2.539.7,2.51,2.445-.036,2.176-.026,4.354,0,6.53.019,1.715-.792,2.508-2.5,2.418-.61-.032-1.227.035-1.836-.01-1.041-.077-1.4.341-1.456,1.406-.24,4.374-.276,4.372-4.6,4.372-1.292,0-2.585.016-3.877,0-2.4-.039-2.825-.466-2.883-2.879C876.874-904.013,876.891-904.885,876.891-905.934Zm7.2,1.786c.418-1.866.286-3.981,1.274-4.931s3.1-.742,4.753-1.048v-3.161c-1.759-.341-3.933-.136-4.844-1.111-.984-1.053-.788-3.21-1.094-4.821h-3.123c-.371,1.83-.19,3.977-1.169,4.92s-3.12.692-4.845.98v3.18c1.761.33,3.931.111,4.857,1.08.99,1.037.8,3.195,1.142,4.912Z" transform="translate(-811.778 982.534)" fill="#fff"/>
        </g>
      </g>
    </g>
  </g>
</svg>
