<svg xmlns="http://www.w3.org/2000/svg" width="35.404" height="88.324" viewBox="0 0 35.404 88.324">
  <g id="Group_152758" data-name="Group 152758" transform="translate(0 0)">
    <g id="Group_152551" data-name="Group 152551" transform="translate(0 113.847) rotate(-90)">
      <rect id="Rectangle_45220" data-name="Rectangle 45220" width="82.22" height="24.483" transform="translate(113.847 24.483) rotate(180)" fill="#fff"/>
      <g id="Group_152556" data-name="Group 152556" transform="translate(-1 13.562)">
        <rect id="Rectangle_45221" data-name="Rectangle 45221" width="4.16" height="4.16" transform="translate(88.408 17.682)" fill="#1894f6"/>
        <rect id="Rectangle_45222" data-name="Rectangle 45222" width="4.16" height="4.16" transform="translate(79.568 17.682)" fill="#1894f6"/>
        <rect id="Rectangle_45223" data-name="Rectangle 45223" width="4.16" height="4.16" transform="translate(70.727 17.682)" fill="#1894f6"/>
        <rect id="Rectangle_45224" data-name="Rectangle 45224" width="4.16" height="4.16" transform="translate(61.886 17.682)" fill="#1894f6"/>
        <rect id="Rectangle_45225" data-name="Rectangle 45225" width="4.16" height="4.16" transform="translate(53.045 17.682)" fill="#1894f6"/>
        <rect id="Rectangle_45226" data-name="Rectangle 45226" width="4.16" height="4.16" transform="translate(44.204 17.682)" fill="#1894f6"/>
        <rect id="Rectangle_45227" data-name="Rectangle 45227" width="4.16" height="4.16" transform="translate(35.363 17.682)" fill="#1894f6"/>
        <rect id="Rectangle_45228" data-name="Rectangle 45228" width="4.16" height="4.16" transform="translate(26.523 17.682)" fill="#1894f6"/>
        <rect id="Rectangle_45232" data-name="Rectangle 45232" width="4.16" height="4.16" transform="translate(88.408 8.841)" fill="#1894f6"/>
        <rect id="Rectangle_45233" data-name="Rectangle 45233" width="4.16" height="4.16" transform="translate(79.568 8.841)" fill="#1894f6"/>
        <rect id="Rectangle_45234" data-name="Rectangle 45234" width="4.16" height="4.16" transform="translate(70.727 8.841)" fill="#1894f6"/>
        <rect id="Rectangle_45235" data-name="Rectangle 45235" width="4.16" height="4.16" transform="translate(61.886 8.841)" fill="#1894f6"/>
        <rect id="Rectangle_45236" data-name="Rectangle 45236" width="4.16" height="4.16" transform="translate(53.045 8.841)" fill="#1894f6"/>
        <rect id="Rectangle_45237" data-name="Rectangle 45237" width="4.16" height="4.16" transform="translate(44.204 8.841)" fill="#1894f6"/>
        <rect id="Rectangle_45238" data-name="Rectangle 45238" width="4.16" height="4.16" transform="translate(35.363 8.841)" fill="#1894f6"/>
        <rect id="Rectangle_45239" data-name="Rectangle 45239" width="4.16" height="4.16" transform="translate(26.523 8.841)" fill="#1894f6"/>
        <rect id="Rectangle_45243" data-name="Rectangle 45243" width="4.16" height="4.16" transform="translate(88.408)" fill="#1894f6"/>
        <rect id="Rectangle_45244" data-name="Rectangle 45244" width="4.16" height="4.16" transform="translate(79.568)" fill="#1894f6"/>
        <rect id="Rectangle_45245" data-name="Rectangle 45245" width="4.16" height="4.16" transform="translate(70.727)" fill="#1894f6"/>
        <rect id="Rectangle_45246" data-name="Rectangle 45246" width="4.16" height="4.16" transform="translate(61.886)" fill="#1894f6"/>
        <rect id="Rectangle_45247" data-name="Rectangle 45247" width="4.16" height="4.16" transform="translate(53.045)" fill="#1894f6"/>
        <rect id="Rectangle_45248" data-name="Rectangle 45248" width="4.16" height="4.16" transform="translate(44.204)" fill="#1894f6"/>
        <rect id="Rectangle_45249" data-name="Rectangle 45249" width="4.16" height="4.16" transform="translate(35.363)" fill="#1894f6"/>
        <rect id="Rectangle_45250" data-name="Rectangle 45250" width="4.16" height="4.16" transform="translate(26.523)" fill="#1894f6"/>
      </g>
    </g>
  </g>
</svg>
