<svg xmlns="http://www.w3.org/2000/svg" width="79" height="79" viewBox="0 0 79 79">
  <g id="Icon" transform="translate(0.308 -0.238)">
    <circle id="Base" cx="39.5" cy="39.5" r="39.5" transform="translate(-0.308 0.238)" fill="#fff"/>
    <g id="RiqaPN" transform="translate(-2552.834 385.393)">
      <g id="Group_145951" data-name="Group 145951" transform="translate(2577.845 -367.973)">
        <path id="Path_189496" data-name="Path 189496" d="M2594-366.173a2.961,2.961,0,0,1,1.945,1.233,14.654,14.654,0,0,1,.745,1.71c.364,0,.863-.008,1.36,0,.6.012,1.207,0,1.8.068a2.63,2.63,0,0,1,1.969,1.306.556.556,0,0,0,.543.285,12.38,12.38,0,0,1,2.21.118,4.014,4.014,0,0,1,3.2,3.837c.049,2.889.015,5.779.022,8.669,0,.286-.133.37-.394.364-.515-.01-1.031-.021-1.545,0-.326.013-.445-.1-.438-.43.016-.879,0-1.759,0-2.638,0-1.859.01-3.719,0-5.578a1.812,1.812,0,0,0-2.014-2c-.038,0-.075,0-.113,0-.687-.038-1.264-.049-1.685.749a2.392,2.392,0,0,1-2.225,1.116q-5.8.02-11.61,0a2.8,2.8,0,0,1-2.577-1.607.408.408,0,0,0-.433-.259c-.338.014-.678,0-1.017,0a1.848,1.848,0,0,0-2.018,2.011q0,4.843,0,9.687,0,7.745.008,15.491a2.772,2.772,0,0,0,.18,1.062,1.792,1.792,0,0,0,1.834,1.057q4.712,0,9.423,0,5.127,0,10.252,0a1.828,1.828,0,0,0,2-1.983c0-.276.016-.554,0-.829-.022-.328.1-.444.436-.43.527.023,1.056-.01,1.582.015.119.006.326.151.33.238a5.43,5.43,0,0,1-.635,3.413,3.948,3.948,0,0,1-3.392,1.916q-10.158.034-20.317.007a4.133,4.133,0,0,1-4.053-4.192c-.009-3.166,0-6.332,0-9.5q0-8.009,0-16.019a4.133,4.133,0,0,1,4.3-4.287c.415,0,.83.016,1.243-.007a.5.5,0,0,0,.345-.2,2.98,2.98,0,0,1,2.647-1.45c.891-.007,1.782,0,2.649,0a9.37,9.37,0,0,1,.384-1.273,2.8,2.8,0,0,1,2.093-1.609.609.609,0,0,0,.131-.062Zm-.421,4.075a1.135,1.135,0,0,0,1.141-1.146,1.149,1.149,0,0,0-1.135-1.121,1.166,1.166,0,0,0-1.145,1.156A1.134,1.134,0,0,0,2593.582-362.1Z" transform="translate(-2579.375 366.173)" fill="#12263f"/>
        <path id="Path_189497" data-name="Path 189497" d="M2853.705-101.808v6.461h1.886c1.4,0,2.79-.006,4.184.007.29,0,.431-.071.381-.378a3.191,3.191,0,0,1,1.04-2.967c.314-.3.55-.684.835-1.018a1.252,1.252,0,0,1,.3-.193c.048.108.138.215.138.323,0,1.607.021,3.216-.029,4.822a1.792,1.792,0,0,1-1.716,1.692c-.8.042-1.606.029-2.41.03-1.583,0-3.167-.034-4.749,0a2.047,2.047,0,0,1-2.215-2.22c.034-2.261.006-4.523.01-6.784a1.975,1.975,0,0,1,2.125-2.112c1.771,0,3.543,0,5.315.005a1.663,1.663,0,0,1,.438.127,1.9,1.9,0,0,1-.179.386c-.406.527-.811,1.056-1.249,1.557a.81.81,0,0,1-.532.249C2856.1-101.8,2854.916-101.808,2853.705-101.808Z" transform="translate(-2830.847 123.896)" fill="#12263f"/>
        <path id="Path_189498" data-name="Path 189498" d="M2659.612-204.134q-3.9,0-7.8,0c-.593,0-.878-.2-1-.656a.822.822,0,0,1,.593-1.013,2.1,2.1,0,0,1,.484-.056q7.686,0,15.371,0a2.167,2.167,0,0,1,.666.089.838.838,0,0,1,.509.875.805.805,0,0,1-.8.748c-1.155.02-2.31.014-3.466.015q-2.279,0-4.558,0Z" transform="translate(-2645.406 217.946)" fill="#12263f"/>
        <path id="Path_189499" data-name="Path 189499" d="M2659.435-161.378q-3.918,0-7.835,0c-.751,0-1.205-.58-.936-1.2a.957.957,0,0,1,.994-.534h4.822l10.66,0a1.924,1.924,0,0,1,.337.018.881.881,0,0,1,.787.9.872.872,0,0,1-.918.81c-1.13.009-2.26,0-3.39,0h-4.52Z" transform="translate(-2645.218 178.417)" fill="#12263f"/>
        <path id="Path_189500" data-name="Path 189500" d="M2893.1-113.9l1.765-2.208c1.042-1.3,2.088-2.6,3.123-3.913a1.038,1.038,0,0,1,1.122-.427.782.782,0,0,1,.653.734,1.418,1.418,0,0,1-.25.859c-1.671,2.134-3.37,4.246-5.062,6.365-.2.245-.382.5-.587.736a.96.96,0,0,1-1.6-.041q-.835-1.091-1.649-2.2a.977.977,0,0,1,.139-1.405,1.009,1.009,0,0,1,1.423.267C2892.479-114.737,2892.774-114.337,2893.1-113.9Z" transform="translate(-2866.941 139.001)" fill="#12263f"/>
        <path id="Path_189501" data-name="Path 189501" d="M2655.082,20.672c1.154,0,2.309-.008,3.463,0a.841.841,0,0,1,.4,1.59,1.286,1.286,0,0,1-.541.124c-2.221.009-4.441.016-6.662,0-.735,0-1.143-.52-.95-1.138a.835.835,0,0,1,.9-.584c1.129-.008,2.258,0,3.387,0Z" transform="translate(-2645.365 8.49)" fill="#12263f"/>
      </g>
    </g>
  </g>
</svg>
