<svg xmlns="http://www.w3.org/2000/svg" width="79" height="79" viewBox="0 0 79 79">
  <g id="Icon" transform="translate(0.308 -0.238)">
    <circle id="Base" cx="39.5" cy="39.5" r="39.5" transform="translate(-0.308 0.238)" fill="#fff"/>
    <g id="Group_152768" data-name="Group 152768" transform="translate(-779.195 -87.945)">
      <path id="Path_194104" data-name="Path 194104" d="M860.737,180.926q-2.863,0-5.726,0c-.806,0-1.094-.291-1.1-1.094,0-.5-.009-1,0-1.5a2.806,2.806,0,0,0-1.326-2.522,14.279,14.279,0,0,1-6.2-9.73,14.546,14.546,0,1,1,28.778-4.251,13.938,13.938,0,0,1-5.94,13.754,3.321,3.321,0,0,0-1.616,3.179,10.772,10.772,0,0,1,0,1.123c-.01.732-.311,1.037-1.047,1.039C864.625,180.929,862.681,180.926,860.737,180.926Zm5.207-1.736a14.147,14.147,0,0,1,.011-1.7,4.547,4.547,0,0,1,2.167-3.21,12.344,12.344,0,0,0,5.463-9.78,12.84,12.84,0,1,0-19.9,9.993,4.25,4.25,0,0,1,1.937,3.723c0,.316,0,.632,0,.969Z" transform="translate(-42.386 -42.409)" fill="#12263f"/>
      <path id="Path_194105" data-name="Path 194105" d="M939.261,492.588c1.338,0,2.675,0,4.013,0,.791,0,1.1.333,1.072,1.116a5.135,5.135,0,0,1-10.175.7c-.27-1.535-.039-1.814,1.5-1.814h3.585Zm-3.31,1.74a3.339,3.339,0,0,0,3.352,2.544,3.3,3.3,0,0,0,3.165-2.544Z" transform="translate(-120.834 -348.933)" fill="#12263f"/>
      <path id="Path_194106" data-name="Path 194106" d="M938.385,462.653H926.461V461h11.924Z" transform="translate(-114.038 -320.733)" fill="#12263f"/>
      <path id="Path_194107" data-name="Path 194107" d="M850.511,153.32l-1.052,1.04L847.082,152l1.1-1.012Z" transform="translate(-43.176 -43.984)" fill="#12263f"/>
      <path id="Path_194108" data-name="Path 194108" d="M1087.6,150.513l.978,1.052-2.33,2.34-.979-1.07Z" transform="translate(-255.807 -43.564)" fill="#12263f"/>
      <path id="Path_194109" data-name="Path 194109" d="M975.994,105.079h-1.645v-3.366h1.645Z" transform="translate(-156.788)" fill="#12263f"/>
      <path id="Path_194110" data-name="Path 194110" d="M802.076,277.38v1.651h-3.36V277.38Z" transform="translate(0 -156.818)" fill="#12263f"/>
      <path id="Path_194111" data-name="Path 194111" d="M1137.414,277.366v1.651h-3.362v-1.651Z" transform="translate(-299.355 -156.806)" fill="#12263f"/>
      <path id="Path_194112" data-name="Path 194112" d="M893.862,207.645c-.084-.04-.135-.058-.18-.086a1.358,1.358,0,0,0-2.072.321c-.349.465-.872.4-1.3-.026q-1.147-1.123-2.271-2.269a.872.872,0,0,1-.007-1.359.235.235,0,0,1,.038-.038,1.128,1.128,0,0,0,.36-1.766c-.159-.251-.258-.393-.578-.4-1.66-.022-1.693-.065-1.693-1.732,0-.749,0-1.5,0-2.247,0-.888.265-1.157,1.136-1.16.32,0,.64,0,.968,0,.1-.255.179-.488.273-.718.087-.212.185-.42.286-.649-.286-.3-.577-.59-.846-.9a.836.836,0,0,1,.012-1.241q1.175-1.209,2.384-2.383a.764.764,0,0,1,1.222.013c.683,1.038,1.456.766,2.249.193.165-.119.016-.688.026-1.061a.858.858,0,0,1,.953-.965c1.088-.01,2.176-.012,3.264,0,.574.007.983.344.9.889a1.283,1.283,0,0,0,1.157,1.669,1.532,1.532,0,0,1,.232.093c.287-.27.577-.557.883-.827a.848.848,0,0,1,1.281.021q1.168,1.14,2.308,2.308c.42.43.478.963.008,1.3a1.287,1.287,0,0,0-.328,2c.038.06.063.128.117.241.353,0,.725-.009,1.1,0a.868.868,0,0,1,.974.949q.018,1.632,0,3.264a.858.858,0,0,1-.941.927c-.2.007-.392,0-.589,0h-.558l-.565,1.369c.262.279.549.569.818.874a.856.856,0,0,1-.009,1.283q-1.157,1.188-2.347,2.345a.853.853,0,0,1-1.282-.01.445.445,0,0,1-.076-.075,1.107,1.107,0,0,0-1.72-.364c-.3.181-.439.3-.44.657,0,1.553-.1,1.632-1.632,1.632-.838,0-1.677.007-2.515,0a.88.88,0,0,1-.993-.986C893.856,208.375,893.862,208,893.862,207.645ZM889.88,204.8l1.156,1.264a1.768,1.768,0,0,1,2.108-.59c.464.181.924.376,1.38.576a1.662,1.662,0,0,1,1.053,1.542c.007.135.026.269.039.4h1.674a1.783,1.783,0,0,1,1.041-1.937c.471-.212.947-.413,1.43-.6a1.66,1.66,0,0,1,1.793.329c.115.1.232.2.3.256l1.194-1.192a1.908,1.908,0,0,1-.323-2.7.843.843,0,0,0,.079-.2,1.924,1.924,0,0,1,2.167-1.647v-1.668c-1.365-.158-1.691-.392-2.1-1.488a2.649,2.649,0,0,0-.151-.4,1.915,1.915,0,0,1,.341-2.715l-1.221-1.2a1.877,1.877,0,0,1-2.578.4,1.445,1.445,0,0,0-.294-.126,1.964,1.964,0,0,1-1.687-2.186h-1.635a6.133,6.133,0,0,1-.239,1.068,3.753,3.753,0,0,1-3.524,1.464,5.332,5.332,0,0,1-.881-.565l-1.184,1.1a5.829,5.829,0,0,1,.573.812,3.6,3.6,0,0,1-1.517,3.672,5.96,5.96,0,0,1-.972.182v1.657a1.877,1.877,0,0,1,2.117,1.525,1.965,1.965,0,0,0,.165.394A1.868,1.868,0,0,1,889.88,204.8Z" transform="translate(-78.056 -78.072)" fill="#12263f"/>
      <path id="Path_194113" data-name="Path 194113" d="M934.08,242.268a5.14,5.14,0,1,1,5.132,5.149A5.154,5.154,0,0,1,934.08,242.268ZM939.2,245.7a3.424,3.424,0,1,0-3.4-3.459A3.436,3.436,0,0,0,939.2,245.7Z" transform="translate(-120.84 -120.893)" fill="#12263f"/>
    </g>
  </g>
</svg>
