<svg xmlns="http://www.w3.org/2000/svg" width="79" height="79" viewBox="0 0 79 79">
  <g id="Icon" transform="translate(0.308 -0.238)">
    <circle id="Base" cx="39.5" cy="39.5" r="39.5" transform="translate(-0.308 0.238)" fill="#fff"/>
    <g id="FAEfwS.tif" transform="translate(-3024.477 966.631)">
      <g id="Group_145953" data-name="Group 145953" transform="translate(3044.142 -945.498)">
        <path id="Path_189511" data-name="Path 189511" d="M3238.236-945.493v2.6h3.91v-2.591c.738,0,1.43-.034,2.117.014.372.026.528.332.525.711-.008.914,0,1.828,0,2.742q0,2.435,0,4.87c0,.618-.212.826-.839.826q-3.765,0-7.53,0c-.577,0-.8-.219-.8-.778q0-3.765,0-7.53c0-.657.2-.857.847-.862C3237.034-945.5,3237.605-945.493,3238.236-945.493Z" transform="translate(-3219.904 945.498)" fill="#12263f"/>
        <path id="Path_189512" data-name="Path 189512" d="M3245.006-584.607h-9.125v-9.122h9.125Zm-6.533-1.133,5.607-5.607-.836-.909-4.8,4.815-.706-.852-.949.888Z" transform="translate(-3220.15 622.591)" fill="#12263f"/>
        <path id="Path_189513" data-name="Path 189513" d="M3372.774-706.526l4.762-3.18.734,1.1-2.083,1.4h8.9v-13.074h-2.566v-1.294h3.868v15.682h-10.092l-.033.082,2.006,1.352-.721,1.1Z" transform="translate(-3345.811 739.943)" fill="#12263f"/>
        <path id="Path_189514" data-name="Path 189514" d="M3054.491-925.809l-2.006-1.351.732-1.1,4.769,3.176-4.756,3.176-.745-1.1,2.07-1.389h-8.9v9.115h-1.284v-10.442h10.094Z" transform="translate(-3044.35 929.671)" fill="#12263f"/>
        <path id="Path_189515" data-name="Path 189515" d="M3202.409-750.823h-14.352V-753.4h14.352Z" transform="translate(-3176.249 769.157)" fill="#12263f"/>
        <path id="Path_189516" data-name="Path 189516" d="M3187.958-703.1v-2.574h14.361v2.574Z" transform="translate(-3176.158 725.348)" fill="#12263f"/>
        <path id="Path_189517" data-name="Path 189517" d="M3044.142-647.169V-657.59h1.288v9.136h11.785v1.285Z" transform="translate(-3044.142 681.212)" fill="#12263f"/>
        <path id="Path_189518" data-name="Path 189518" d="M3411.632-753.867a3.3,3.3,0,0,1,3.4,1.522,3.082,3.082,0,0,1,.021,3.439,3.29,3.29,0,0,1-3.421,1.547Z" transform="translate(-3381.48 769.615)" fill="#12263f"/>
        <path id="Path_189519" data-name="Path 189519" d="M3113.455-748.751v5.726c-.161-.076-.292-.135-.421-.2-1.461-.729-2.925-1.452-4.376-2.2a.775.775,0,0,1-.4-.478c-.015-.136.21-.359.379-.445,1.5-.767,3.016-1.513,4.527-2.265C3113.243-748.652,3113.326-748.689,3113.455-748.751Z" transform="translate(-3102.994 764.894)" fill="#12263f"/>
        <path id="Path_189520" data-name="Path 189520" d="M3379.637-753.668h1.258v6.51h-1.258Z" transform="translate(-3352.111 769.407)" fill="#12263f"/>
        <path id="Path_189521" data-name="Path 189521" d="M3283.78-943.886v-1.255h1.256v1.255Z" transform="translate(-3264.118 945.17)" fill="#12263f"/>
        <path id="Path_189522" data-name="Path 189522" d="M3044.3-753.568h1.258v1.264H3044.3Z" transform="translate(-3044.286 769.315)" fill="#12263f"/>
        <path id="Path_189523" data-name="Path 189523" d="M3045.6-721.585v1.257h-1.264v-1.257Z" transform="translate(-3044.324 739.957)" fill="#12263f"/>
        <path id="Path_189524" data-name="Path 189524" d="M3045.666-688.315h-1.252v-1.259h1.252Z" transform="translate(-3044.392 710.572)" fill="#12263f"/>
      </g>
    </g>
  </g>
</svg>
