<svg xmlns="http://www.w3.org/2000/svg" width="79" height="79" viewBox="0 0 79 79">
  <g id="Icon" transform="translate(0.308 -0.238)">
    <circle id="Base" cx="39.5" cy="39.5" r="39.5" transform="translate(-0.308 0.238)" fill="#fff"/>
    <g id="_8tYMsr" data-name="8tYMsr" transform="translate(-382.147 -337.391)">
      <g id="Group_152767" data-name="Group 152767" transform="translate(402.867 358.657)">
        <path id="Path_194095" data-name="Path 194095" d="M422.571,358.657v2.176c-9.294.344-15.464,4.626-17.184,14.009-1.3,7.073,2.784,13.683,8.526,16.657a16.389,16.389,0,0,0,19.713-3.753l1.719,1.472c-.764.731-1.461,1.487-2.249,2.135a17.994,17.994,0,0,1-9.822,4.124,1.773,1.773,0,0,0-.375.125h-3.12a2.638,2.638,0,0,0-.456-.132,18.359,18.359,0,0,1-15.612-12.882c-.384-1.268-.568-2.6-.844-3.9v-3.12a3.148,3.148,0,0,0,.132-.458c.971-7.214,4.818-12.283,11.505-15.087a35.973,35.973,0,0,1,5.439-1.368Z" transform="translate(-402.867 -358.657)" fill="#12263f"/>
        <path id="Path_194096" data-name="Path 194096" d="M615.136,454.845h-2.254l-.247-2.34,2.185-.373.316,1.728Z" transform="translate(-578.192 -436.784)" fill="#12263f"/>
        <path id="Path_194097" data-name="Path 194097" d="M501.474,408.352c0-2.023,0-4.046,0-6.069,0-.888.438-1.409,1.134-1.4s1.1.535,1.1,1.432c0,3.609.023,7.218-.016,10.826a1.364,1.364,0,0,0,.833,1.391c2.176,1.2,4.316,2.46,6.478,3.682a1.2,1.2,0,0,1,.687,1.556,1.1,1.1,0,0,1-1.645.523c-2.666-1.5-5.328-3-7.95-4.569a1.669,1.669,0,0,1-.594-1.222C501.441,412.454,501.474,410.4,501.474,408.352Z" transform="translate(-485.276 -393.95)" fill="#12263f"/>
        <path id="Path_194098" data-name="Path 194098" d="M588.517,393.6l1.712,2.067-1.862,1.324-1.508-1.825Z" transform="translate(-556.648 -387.86)" fill="#12263f"/>
        <path id="Path_194099" data-name="Path 194099" d="M537.624,361.3l2.55.774-.8,2.133-2.252-.678Z" transform="translate(-515.077 -360.867)" fill="#12263f"/>
        <path id="Path_194100" data-name="Path 194100" d="M566.078,376.532l-1.962-1.311,1.117-1.985,2.242,1.489Z" transform="translate(-537.639 -370.842)" fill="#12263f"/>
        <path id="Path_194101" data-name="Path 194101" d="M601.973,512.177l-1.255,2.373-1.942-1.208,1.107-2.08Z" transform="translate(-566.608 -486.205)" fill="#12263f"/>
        <path id="Path_194102" data-name="Path 194102" d="M604.5,423.761l-.9-2.149,2.017-1.062,1.056,2.493Z" transform="translate(-570.64 -410.387)" fill="#12263f"/>
        <path id="Path_194103" data-name="Path 194103" d="M610.586,485.7l.442-2.288,2.264.255-.512,2.646Z" transform="translate(-576.479 -462.931)" fill="#12263f"/>
      </g>
    </g>
  </g>
</svg>
