<svg xmlns="http://www.w3.org/2000/svg" xmlns:xlink="http://www.w3.org/1999/xlink" width="416.05" height="325.273" viewBox="0 0 416.05 325.273">
  <defs>
    <linearGradient id="linear-gradient" x1="0.5" x2="0.5" y2="1" gradientUnits="objectBoundingBox">
      <stop offset="0" stop-color="#116eb9"/>
      <stop offset="1" stop-color="#1894f6"/>
    </linearGradient>
    <filter id="Rectangle_45219" x="307.434" y="0" width="108.617" height="325.273" filterUnits="userSpaceOnUse">
      <feOffset dy="3" input="SourceAlpha"/>
      <feGaussianBlur stdDeviation="3" result="blur"/>
      <feFlood flood-opacity="0.161"/>
      <feComposite operator="in" in2="blur"/>
      <feComposite in="SourceGraphic"/>
    </filter>
    <linearGradient id="linear-gradient-2" x1="0.5" x2="0.5" y2="1" gradientUnits="objectBoundingBox">
      <stop offset="0" stop-color="#fff"/>
      <stop offset="1" stop-color="#d2e6ee"/>
    </linearGradient>
    <linearGradient id="linear-gradient-3" x1="0.5" x2="0.5" y2="1" gradientUnits="objectBoundingBox">
      <stop offset="0" stop-color="#039be5"/>
      <stop offset="1" stop-color="#027fbc"/>
    </linearGradient>
    <clipPath id="clip-path">
      <rect id="Rectangle_28054" data-name="Rectangle 28054" width="164.368" height="110.598" fill="none"/>
    </clipPath>
  </defs>
  <g id="Group_154285" data-name="Group 154285" transform="translate(-934 -1046.41)">
    <g transform="matrix(1, 0, 0, 1, 934, 1046.41)" filter="url(#Rectangle_45219)">
      <rect id="Rectangle_45219-2" data-name="Rectangle 45219" width="90.617" height="307.273" rx="18" transform="translate(316.43 6)" fill="url(#linear-gradient)"/>
    </g>
    <g id="Group_152137" data-name="Group 152137" transform="translate(640.385 -6190.893)">
      <ellipse id="Ellipse_5564" data-name="Ellipse 5564" cx="133.113" cy="135.705" rx="133.113" ry="135.705" transform="translate(433.145 7258.451)" fill="#f8fbfd"/>
      <circle id="Ellipse_5565" data-name="Ellipse 5565" cx="121.185" cy="121.185" r="121.185" transform="translate(312.615 7293.587)" fill="#f8fbfd"/>
      <g id="Group_152549" data-name="Group 152549" transform="translate(290.668 7184.624)">
        <g id="Group_39717" data-name="Group 39717" transform="translate(30.285 64.115)">
          <g id="Computer" transform="translate(51.863 91.065)">
            <g id="Group_39638" data-name="Group 39638">
              <g id="Group_39637" data-name="Group 39637" transform="translate(78.862 134.24)">
                <path id="Path_92884" data-name="Path 92884" d="M246.93,325.746v26.333H211.071V325.746h12.685V338.4a5.249,5.249,0,1,0,10.5,0V325.746Z" transform="translate(-186.11 -325.746)" fill="#afafaf"/>
                <path id="Path_92885" data-name="Path 92885" d="M211.071,325.746h12.685v5.338l-12.685-1.458Z" transform="translate(-186.11 -325.746)" fill="#2c2c30"/>
                <path id="Path_92886" data-name="Path 92886" d="M250.668,325.746v7.993l-12.676-1.458v-6.534Z" transform="translate(-189.848 -325.746)" fill="#2c2c30"/>
                <rect id="Rectangle_27975" data-name="Rectangle 27975" width="85.786" height="3.574" transform="translate(0 26.042)" fill="#afafaf"/>
              </g>
              <path id="Path_92887" data-name="Path 92887" d="M334.016,179.573V297.327a9.723,9.723,0,0,1-9.72,9.72H100.233a9.723,9.723,0,0,1-9.72-9.72V179.573a9.715,9.715,0,0,1,9.72-9.711H324.3A9.715,9.715,0,0,1,334.016,179.573Z" transform="translate(-90.51 -169.862)" fill="#afafaf"/>
              <rect id="Rectangle_27976" data-name="Rectangle 27976" width="243.51" height="110.598" transform="translate(0 12.219)" fill="url(#linear-gradient-2)"/>
              <path id="Path_92888" data-name="Path 92888" d="M234.773,320.179a3.432,3.432,0,1,1-3.432-3.432A3.432,3.432,0,0,1,234.773,320.179Z" transform="translate(-109.587 -190.256)" fill="#42444f"/>
            </g>
          </g>
          <path id="Path_92889" data-name="Path 92889" d="M139.2,169.862v35.325a8.27,8.27,0,0,1-4.115,7.139L98.6,233.391a8.222,8.222,0,0,1-8.086.081v-53.9a9.715,9.715,0,0,1,9.72-9.711Z" transform="translate(-38.647 -78.797)" fill="#35363b" opacity="0.55" style="mix-blend-mode: multiply;isolation: isolate"/>
          <path id="Path_92890" data-name="Path 92890" d="M455.393,374.758H385.427a2.307,2.307,0,0,1-2.3-2.3h0a2.307,2.307,0,0,1,2.3-2.3h69.966a2.307,2.307,0,0,1,2.3,2.3h0A2.307,2.307,0,0,1,455.393,374.758Z" transform="translate(-79.274 -106.607)" fill="#e6eaf0"/>
          <g id="Group_39649" data-name="Group 39649" transform="translate(307.998 168.25)">
            <g id="Group_39647" data-name="Group 39647" transform="translate(0 0)">
              <g id="Group_39640" data-name="Group 39640" transform="translate(34.741 14.372)">
                <rect id="Rectangle_27977" data-name="Rectangle 27977" width="11.339" height="82.237" transform="matrix(0.992, -0.13, 0.13, 0.992, 0, 1.475)" fill="#42444f"/>
                <path id="Path_92891" data-name="Path 92891" d="M437.2,282.647a1.9,1.9,0,1,1-2.136-1.64A1.9,1.9,0,0,1,437.2,282.647Z" transform="translate(-428.995 -276.849)" fill="#e6eaf0"/>
                <circle id="Ellipse_3770" data-name="Ellipse 3770" cx="1.904" cy="1.904" r="1.904" transform="translate(4.697 10.919) rotate(-18.79)" fill="#e6eaf0"/>
                <g id="Group_39639" data-name="Group 39639" transform="translate(9.981 63.481)">
                  <rect id="Rectangle_27978" data-name="Rectangle 27978" width="7.948" height="1.364" transform="matrix(0.992, -0.13, 0.13, 0.992, 0, 1.034)" fill="#e6eaf0"/>
                  <rect id="Rectangle_27979" data-name="Rectangle 27979" width="7.947" height="1.364" transform="translate(0.343 3.645) rotate(-7.476)" fill="#e6eaf0"/>
                  <rect id="Rectangle_27980" data-name="Rectangle 27980" width="7.947" height="1.364" transform="translate(0.685 6.256) rotate(-7.475)" fill="#e6eaf0"/>
                  <rect id="Rectangle_27981" data-name="Rectangle 27981" width="7.947" height="1.364" transform="translate(1.028 8.867) rotate(-7.475)" fill="#e6eaf0"/>
                </g>
              </g>
              <g id="Group_39643" data-name="Group 39643" transform="translate(18.029)">
                <rect id="Rectangle_27982" data-name="Rectangle 27982" width="15.923" height="96.724" transform="translate(0 0.798) rotate(-2.871)" fill="url(#linear-gradient-3)"/>
                <circle id="Ellipse_3771" data-name="Ellipse 3771" cx="3.962" cy="3.962" r="3.962" transform="translate(6.229 41.084)" fill="#e6eaf0"/>
                <g id="Group_39641" data-name="Group 39641" transform="translate(4.189 28.173)">
                  <rect id="Rectangle_27983" data-name="Rectangle 27983" width="10.351" height="1.351" transform="translate(0 0.518) rotate(-2.871)" fill="#e6eaf0"/>
                  <rect id="Rectangle_27984" data-name="Rectangle 27984" width="10.351" height="1.351" transform="translate(0.132 3.156) rotate(-2.871)" fill="#e6eaf0"/>
                </g>
                <g id="Group_39642" data-name="Group 39642" transform="translate(5.985 63.993)">
                  <rect id="Rectangle_27985" data-name="Rectangle 27985" width="10.351" height="1.351" transform="translate(0 0.518) rotate(-2.871)" fill="#e6eaf0"/>
                  <rect id="Rectangle_27986" data-name="Rectangle 27986" width="10.351" height="1.351" transform="translate(0.132 3.156) rotate(-2.871)" fill="#e6eaf0"/>
                </g>
              </g>
              <g id="Group_39646" data-name="Group 39646" transform="translate(0 7.699)">
                <rect id="Rectangle_27987" data-name="Rectangle 27987" width="18.277" height="89.7" fill="#afafaf"/>
                <circle id="Ellipse_3772" data-name="Ellipse 3772" cx="5.561" cy="5.561" r="5.561" transform="translate(3.578 7.054)" fill="#e6eaf0"/>
                <g id="Group_39644" data-name="Group 39644" transform="translate(3.335 58.97)">
                  <rect id="Rectangle_27988" data-name="Rectangle 27988" width="11.607" height="1.351" fill="#e6eaf0"/>
                  <rect id="Rectangle_27989" data-name="Rectangle 27989" width="11.607" height="1.351" transform="translate(0 2.641)" fill="#e6eaf0"/>
                </g>
                <g id="Group_39645" data-name="Group 39645" transform="translate(3.335 79.174)">
                  <rect id="Rectangle_27990" data-name="Rectangle 27990" width="11.607" height="1.351" fill="#e6eaf0"/>
                  <rect id="Rectangle_27991" data-name="Rectangle 27991" width="11.607" height="1.351" transform="translate(0 2.641)" fill="#e6eaf0"/>
                </g>
              </g>
            </g>
            <g id="Group_39648" data-name="Group 39648" transform="translate(48.709 32.549)">
              <rect id="Rectangle_27992" data-name="Rectangle 27992" width="7.592" height="64.659" transform="translate(0 1.387) rotate(-10.53)" fill="#e6eaf0"/>
              <rect id="Rectangle_27993" data-name="Rectangle 27993" width="2.352" height="37.188" transform="translate(5.364 17.075) rotate(-10.53)" fill="#6f7082"/>
            </g>
          </g>
          <g id="Document" transform="translate(312.805 59.776)">
            <g id="Artwork_6" data-name="Artwork 6">
              <g id="Group_39656" data-name="Group 39656">
                <g id="Group_39652" data-name="Group 39652" transform="translate(12.776)">
                  <path id="Path_92892" data-name="Path 92892" d="M448.027,201.028H408.359v-67.5h29.492L448.027,143.7Z" transform="translate(-408.359 -133.529)" fill="#35363b"/>
                  <g id="Group_39650" data-name="Group 39650" transform="translate(5.67 8.745)">
                    <rect id="Rectangle_27994" data-name="Rectangle 27994" width="28.372" height="1.942" fill="#555866"/>
                    <rect id="Rectangle_27995" data-name="Rectangle 27995" width="28.372" height="1.942" transform="translate(0 4.825)" fill="#555866"/>
                    <rect id="Rectangle_27996" data-name="Rectangle 27996" width="28.372" height="1.942" transform="translate(0 9.651)" fill="#555866"/>
                    <rect id="Rectangle_27997" data-name="Rectangle 27997" width="28.372" height="1.942" transform="translate(0 14.476)" fill="#555866"/>
                    <rect id="Rectangle_27998" data-name="Rectangle 27998" width="28.372" height="1.942" transform="translate(0 19.302)" fill="#555866"/>
                    <rect id="Rectangle_27999" data-name="Rectangle 27999" width="16.7" height="1.942" transform="translate(0 24.127)" fill="#42444f"/>
                  </g>
                  <g id="Group_39651" data-name="Group 39651" transform="translate(5.67 42.581)">
                    <rect id="Rectangle_28000" data-name="Rectangle 28000" width="28.372" height="1.942" fill="#555866"/>
                    <rect id="Rectangle_28001" data-name="Rectangle 28001" width="28.372" height="1.942" transform="translate(0 4.825)" fill="#555866"/>
                    <rect id="Rectangle_28002" data-name="Rectangle 28002" width="28.372" height="1.942" transform="translate(0 9.651)" fill="#555866"/>
                    <rect id="Rectangle_28003" data-name="Rectangle 28003" width="16.7" height="1.942" transform="translate(0 14.476)" fill="#42444f"/>
                  </g>
                  <path id="Path_92893" data-name="Path 92893" d="M452.782,143.7H442.606V133.529h0L452.782,143.7Z" transform="translate(-413.114 -133.529)" fill="#27282b"/>
                </g>
                <g id="Group_39655" data-name="Group 39655" transform="translate(0 11.683)">
                  <path id="Path_92894" data-name="Path 92894" d="M433.191,214.6H393.523V147.1h29.492l10.176,10.176Z" transform="translate(-393.523 -147.096)" fill="#e6eaf0"/>
                  <g id="Group_39653" data-name="Group 39653" transform="translate(5.67 8.746)">
                    <rect id="Rectangle_28004" data-name="Rectangle 28004" width="28.372" height="1.942" fill="#42444f"/>
                    <rect id="Rectangle_28005" data-name="Rectangle 28005" width="28.372" height="1.942" transform="translate(0 4.825)" fill="#42444f"/>
                    <rect id="Rectangle_28006" data-name="Rectangle 28006" width="28.372" height="1.942" transform="translate(0 9.651)" fill="#42444f"/>
                    <rect id="Rectangle_28007" data-name="Rectangle 28007" width="28.372" height="1.942" transform="translate(0 14.476)" fill="#42444f"/>
                    <rect id="Rectangle_28008" data-name="Rectangle 28008" width="28.372" height="1.942" transform="translate(0 19.302)" fill="#42444f"/>
                    <rect id="Rectangle_28009" data-name="Rectangle 28009" width="16.7" height="1.942" transform="translate(0 24.127)" fill="#42444f"/>
                  </g>
                  <g id="Group_39654" data-name="Group 39654" transform="translate(5.67 42.582)">
                    <rect id="Rectangle_28010" data-name="Rectangle 28010" width="28.372" height="1.942" fill="#42444f"/>
                    <rect id="Rectangle_28011" data-name="Rectangle 28011" width="28.372" height="1.942" transform="translate(0 4.825)" fill="#42444f"/>
                    <rect id="Rectangle_28012" data-name="Rectangle 28012" width="28.372" height="1.942" transform="translate(0 9.651)" fill="#42444f"/>
                    <rect id="Rectangle_28013" data-name="Rectangle 28013" width="16.7" height="1.942" transform="translate(0 14.476)" fill="#42444f"/>
                  </g>
                  <path id="Path_92895" data-name="Path 92895" d="M437.946,157.272H427.77V147.1h0l10.176,10.176Z" transform="translate(-398.278 -147.096)" fill="#c5cbd6"/>
                </g>
              </g>
            </g>
          </g>
          <g id="cloud" transform="translate(105.611)">
            <g id="Group_39657" data-name="Group 39657">
              <path id="Path_92896" data-name="Path 92896" d="M288.937,122.643a10.2,10.2,0,0,1-10.2,10.2H170.54a17.615,17.615,0,1,1,6.449-34.013c0-.115-.007-.234-.007-.351a34.365,34.365,0,0,1,68.124-6.418,21.825,21.825,0,0,1,32.642,18.956c0,.5-.016.993-.051,1.483a9.489,9.489,0,0,1,1.04-.054A10.2,10.2,0,0,1,288.937,122.643Z" transform="translate(-152.923 -64.115)" fill="#ced0d6"/>
              <path id="Path_92897" data-name="Path 92897" d="M236.308,133.586H170.54a17.615,17.615,0,1,1,6.449-34.013c0-.115-.007-.234-.007-.35a34.339,34.339,0,0,1,17.032-29.675,40.121,40.121,0,0,1,16.212,2.182c6.677,2.52,12.589,7.7,14.741,14.5s-.15,15.112-6.2,18.889a15.524,15.524,0,0,1,10.443,2.013c3.182,1.938,5.327,5.864,4.365,9.461a9.507,9.507,0,0,1-4.219,5.3,27.5,27.5,0,0,1-6.146,2.671,7.768,7.768,0,0,1,2.559-.363,4.2,4.2,0,0,1,3.26,1.152,2.577,2.577,0,0,1,.286,3.257c1.318-1.3,3.322-.231,4.736.969A6.973,6.973,0,0,1,236.308,133.586Z" transform="translate(-152.923 -64.86)" fill="#e6eaf0"/>
            </g>
          </g>
          <g id="Group_39675" data-name="Group 39675" transform="translate(84.343 103.284)">
            <g id="Group_39674" data-name="Group 39674" transform="translate(0)" clip-path="url(#clip-path)">
              <g id="Website" transform="translate(28.049 8.243)">
                <g id="Group_39673" data-name="Group 39673">
                  <rect id="Rectangle_28014" data-name="Rectangle 28014" width="119.186" height="173.159" rx="5.44" transform="translate(5.018 3.86)" fill="#35363b"/>
                  <rect id="Rectangle_28015" data-name="Rectangle 28015" width="119.186" height="173.159" rx="5.44" transform="translate(0 0)" fill="#e6eaf0"/>
                  <path id="Path_92898" data-name="Path 92898" d="M279.984,198.309v3.824H160.8v-3.824a4.685,4.685,0,0,1,4.685-4.686H275.3A4.685,4.685,0,0,1,279.984,198.309Z" transform="translate(-160.798 -193.623)" fill="#dbdfe6"/>
                  <path id="Path_92899" data-name="Path 92899" d="M279.984,385.721v3.048a4.685,4.685,0,0,1-4.686,4.685H165.483a4.685,4.685,0,0,1-4.685-4.685v-3.048Z" transform="translate(-160.798 -220.294)" fill="#dbdfe6"/>
                  <g id="Group_39658" data-name="Group 39658" transform="translate(101.817 3.182)">
                    <circle id="Ellipse_3773" data-name="Ellipse 3773" cx="1.415" cy="1.415" r="1.415" transform="translate(9.894)" fill="#34909d"/>
                    <circle id="Ellipse_3774" data-name="Ellipse 3774" cx="1.415" cy="1.415" r="1.415" transform="translate(4.947)" fill="#e76700"/>
                    <circle id="Ellipse_3775" data-name="Ellipse 3775" cx="1.415" cy="1.415" r="1.415" fill="#ba0034"/>
                  </g>
                  <rect id="Rectangle_28016" data-name="Rectangle 28016" width="115.552" height="46.261" transform="translate(1.817 10.26)" fill="#6f7082"/>
                  <rect id="Rectangle_28017" data-name="Rectangle 28017" width="31.826" height="27.631" transform="translate(5.14 61.3)" fill="#fff"/>
                  <rect id="Rectangle_28018" data-name="Rectangle 28018" width="74.514" height="2.1" transform="translate(40.027 61.3)" fill="#fff"/>
                  <rect id="Rectangle_28019" data-name="Rectangle 28019" width="74.514" height="2.1" transform="translate(40.027 66.43)" fill="#fff"/>
                  <rect id="Rectangle_28020" data-name="Rectangle 28020" width="74.514" height="2.1" transform="translate(40.027 71.559)" fill="#fff"/>
                  <rect id="Rectangle_28021" data-name="Rectangle 28021" width="74.514" height="2.1" transform="translate(40.027 76.688)" fill="#fff"/>
                  <g id="Group_39659" data-name="Group 39659" transform="translate(92.803 84.276)">
                    <path id="Path_92900" data-name="Path 92900" d="M287.973,296.142H270.891a2.334,2.334,0,0,1-2.328-2.328h0a2.335,2.335,0,0,1,2.328-2.328h17.083a2.335,2.335,0,0,1,2.328,2.328h0A2.334,2.334,0,0,1,287.973,296.142Z" transform="translate(-268.563 -291.487)" fill="#12263f"/>
                    <path id="Path_92901" data-name="Path 92901" d="M284.237,295.07h-7.682a1.05,1.05,0,0,1-1.05-1.05h0a1.05,1.05,0,0,1,1.05-1.05h7.682a1.05,1.05,0,0,1,1.05,1.05h0A1.05,1.05,0,0,1,284.237,295.07Z" transform="translate(-269.527 -291.693)" fill="#fff"/>
                  </g>
                  <g id="Group_39667" data-name="Group 39667" transform="translate(5.14 98.374)">
                    <g id="Group_39660" data-name="Group 39660">
                      <rect id="Rectangle_28022" data-name="Rectangle 28022" width="11.729" height="11.729" fill="#fff"/>
                      <rect id="Rectangle_28023" data-name="Rectangle 28023" width="11.729" height="1.204" transform="translate(0 12.917)" fill="#fff"/>
                      <rect id="Rectangle_28024" data-name="Rectangle 28024" width="11.729" height="1.204" transform="translate(0 15.309)" fill="#fff"/>
                      <rect id="Rectangle_28025" data-name="Rectangle 28025" width="7.783" height="1.204" transform="translate(0 17.701)" fill="#fff"/>
                    </g>
                    <g id="Group_39661" data-name="Group 39661" transform="translate(16.279)">
                      <rect id="Rectangle_28026" data-name="Rectangle 28026" width="11.729" height="11.729" fill="#fff"/>
                      <rect id="Rectangle_28027" data-name="Rectangle 28027" width="11.729" height="1.204" transform="translate(0 12.917)" fill="#fff"/>
                      <rect id="Rectangle_28028" data-name="Rectangle 28028" width="11.729" height="1.204" transform="translate(0 15.309)" fill="#fff"/>
                      <rect id="Rectangle_28029" data-name="Rectangle 28029" width="7.783" height="1.204" transform="translate(0 17.701)" fill="#fff"/>
                    </g>
                    <g id="Group_39662" data-name="Group 39662" transform="translate(32.557)">
                      <rect id="Rectangle_28030" data-name="Rectangle 28030" width="11.729" height="11.729" fill="#fff"/>
                      <rect id="Rectangle_28031" data-name="Rectangle 28031" width="11.729" height="1.204" transform="translate(0 12.917)" fill="#fff"/>
                      <rect id="Rectangle_28032" data-name="Rectangle 28032" width="11.729" height="1.204" transform="translate(0 15.309)" fill="#fff"/>
                      <rect id="Rectangle_28033" data-name="Rectangle 28033" width="7.783" height="1.204" transform="translate(0 17.701)" fill="#fff"/>
                    </g>
                    <g id="Group_39663" data-name="Group 39663" transform="translate(48.836)">
                      <rect id="Rectangle_28034" data-name="Rectangle 28034" width="11.729" height="11.729" fill="#fff"/>
                      <rect id="Rectangle_28035" data-name="Rectangle 28035" width="11.729" height="1.204" transform="translate(0 12.917)" fill="#fff"/>
                      <rect id="Rectangle_28036" data-name="Rectangle 28036" width="11.729" height="1.204" transform="translate(0 15.309)" fill="#fff"/>
                      <rect id="Rectangle_28037" data-name="Rectangle 28037" width="7.783" height="1.204" transform="translate(0 17.701)" fill="#fff"/>
                    </g>
                    <g id="Group_39664" data-name="Group 39664" transform="translate(65.115)">
                      <rect id="Rectangle_28038" data-name="Rectangle 28038" width="11.729" height="11.729" fill="#fff"/>
                      <rect id="Rectangle_28039" data-name="Rectangle 28039" width="11.729" height="1.204" transform="translate(0 12.917)" fill="#fff"/>
                      <rect id="Rectangle_28040" data-name="Rectangle 28040" width="11.729" height="1.204" transform="translate(0 15.309)" fill="#fff"/>
                      <rect id="Rectangle_28041" data-name="Rectangle 28041" width="7.783" height="1.204" transform="translate(0 17.701)" fill="#fff"/>
                    </g>
                    <g id="Group_39665" data-name="Group 39665" transform="translate(81.393)">
                      <rect id="Rectangle_28042" data-name="Rectangle 28042" width="11.729" height="11.729" fill="#fff"/>
                      <rect id="Rectangle_28043" data-name="Rectangle 28043" width="11.729" height="1.204" transform="translate(0 12.917)" fill="#fff"/>
                      <rect id="Rectangle_28044" data-name="Rectangle 28044" width="11.729" height="1.204" transform="translate(0 15.309)" fill="#fff"/>
                      <rect id="Rectangle_28045" data-name="Rectangle 28045" width="7.783" height="1.204" transform="translate(0 17.701)" fill="#fff"/>
                    </g>
                    <g id="Group_39666" data-name="Group 39666" transform="translate(97.672)">
                      <rect id="Rectangle_28046" data-name="Rectangle 28046" width="11.729" height="11.729" fill="#fff"/>
                      <rect id="Rectangle_28047" data-name="Rectangle 28047" width="11.729" height="1.204" transform="translate(0 12.917)" fill="#fff"/>
                      <rect id="Rectangle_28048" data-name="Rectangle 28048" width="11.729" height="1.204" transform="translate(0 15.309)" fill="#fff"/>
                      <rect id="Rectangle_28049" data-name="Rectangle 28049" width="7.783" height="1.204" transform="translate(0 17.701)" fill="#fff"/>
                    </g>
                  </g>
                  <g id="Group_39669" data-name="Group 39669" transform="translate(5.14 29.551)">
                    <g id="Group_39668" data-name="Group 39668">
                      <path id="Path_92902" data-name="Path 92902" d="M166.766,232.425l4.486,4.486v-8.973Z" transform="translate(-166.766 -227.939)" fill="#fff"/>
                    </g>
                    <path id="Path_92903" data-name="Path 92903" d="M288.6,227.939v8.973l4.487-4.486Z" transform="translate(-183.681 -227.939)" fill="#fff"/>
                  </g>
                  <g id="Group_39670" data-name="Group 39670" transform="translate(51.714 53.958)">
                    <path id="Path_92904" data-name="Path 92904" d="M222.48,257.1a.816.816,0,1,1-.816-.816A.815.815,0,0,1,222.48,257.1Z" transform="translate(-220.849 -256.28)" fill="#fff"/>
                    <circle id="Ellipse_3776" data-name="Ellipse 3776" cx="0.815" cy="0.815" r="0.815" transform="translate(3.532)" fill="#42444f"/>
                    <path id="Path_92905" data-name="Path 92905" d="M230.683,257.1a.815.815,0,1,1-.816-.816A.815.815,0,0,1,230.683,257.1Z" transform="translate(-221.988 -256.28)" fill="#fff"/>
                    <circle id="Ellipse_3777" data-name="Ellipse 3777" cx="0.815" cy="0.815" r="0.815" transform="translate(10.597)" fill="#fff"/>
                    <path id="Path_92906" data-name="Path 92906" d="M238.887,257.1a.816.816,0,1,1-.816-.816A.815.815,0,0,1,238.887,257.1Z" transform="translate(-223.127 -256.28)" fill="#fff"/>
                  </g>
                  <line id="Line_308" data-name="Line 308" x2="109.401" transform="translate(5.14 122.916)" fill="none" stroke="#fff" stroke-miterlimit="10" stroke-width="1.843"/>
                  <line id="Line_309" data-name="Line 309" x2="109.401" transform="translate(5.14 93.653)" fill="none" stroke="#fff" stroke-miterlimit="10" stroke-width="1.843"/>
                  <g id="Group_39671" data-name="Group 39671" transform="translate(5.14 129.016)">
                    <rect id="Rectangle_28050" data-name="Rectangle 28050" width="50.107" height="11.795" fill="#fff"/>
                    <rect id="Rectangle_28051" data-name="Rectangle 28051" width="51.415" height="11.795" transform="translate(57.986)" fill="#fff"/>
                  </g>
                  <g id="Group_39672" data-name="Group 39672" transform="translate(5.14 143.844)">
                    <rect id="Rectangle_28052" data-name="Rectangle 28052" width="50.107" height="11.795" fill="#fff"/>
                    <rect id="Rectangle_28053" data-name="Rectangle 28053" width="51.415" height="11.795" transform="translate(57.986)" fill="#fff"/>
                  </g>
                </g>
              </g>
            </g>
          </g>
          <g id="Group_39679" data-name="Group 39679" transform="translate(0 48.805)">
            <g id="Group_39676" data-name="Group 39676">
              <path id="Path_92907" data-name="Path 92907" d="M124.636,150.1v42.13a8.27,8.27,0,0,1-4.115,7.139L84.032,220.432a8.246,8.246,0,0,1-8.24,0l-36.48-21.066a8.253,8.253,0,0,1-4.125-7.139V150.1a8.241,8.241,0,0,1,4.125-7.139l36.48-21.065a8.242,8.242,0,0,1,8.24,0l36.489,21.065A8.25,8.25,0,0,1,124.636,150.1Z" transform="translate(-30.965 -120.789)" fill="#00223d"/>
              <g id="Ribbon" transform="translate(4.221 53.017)">
                <path id="Path_92908" data-name="Path 92908" d="M124.636,182.354v18.421a8.119,8.119,0,0,1-.993,3.917H36.179a8.226,8.226,0,0,1-.993-3.917V182.354Z" transform="translate(-35.186 -182.354)" fill="#202124"/>
              </g>
              <g id="Ribbon-2" data-name="Ribbon" transform="translate(0 51.002)">
                <path id="Path_92909" data-name="Path 92909" d="M127.977,180.014H30.285l3,11.169-3,11.169h97.693l-2.847-11.169Z" transform="translate(-30.285 -180.014)" fill="url(#linear-gradient)"/>
              </g>
              <text id="DATA" transform="translate(50.418 68.411)" fill="#e6eaf0" font-size="17" font-family="Montserrat-Black, Montserrat" font-weight="800" letter-spacing="0.05em"><tspan x="-26.877" y="0">DATA</tspan></text>
            </g>
            <g id="gear" transform="translate(31.604 16.798)">
              <g id="Group_39677" data-name="Group 39677">
                <g id="gear-2" data-name="gear">
                  <path id="Path_92910" data-name="Path 92910" d="M90.468,154.35a11.9,11.9,0,0,0,0-4.416H86.631a8.111,8.111,0,0,0-.723-1.748l2.711-2.711a11.863,11.863,0,0,0-3.122-3.124l-2.713,2.714a8.024,8.024,0,0,0-1.748-.723V140.5a11.9,11.9,0,0,0-4.416,0v3.838a8.053,8.053,0,0,0-1.747.723l-2.714-2.714a11.831,11.831,0,0,0-3.12,3.124l2.711,2.711a7.98,7.98,0,0,0-.723,1.748H67.191a11.9,11.9,0,0,0,0,4.416h3.837a7.973,7.973,0,0,0,.723,1.747l-2.711,2.711a11.818,11.818,0,0,0,3.12,3.124l2.714-2.713a8.144,8.144,0,0,0,1.747.725v3.836a11.9,11.9,0,0,0,4.416,0v-3.836a8.115,8.115,0,0,0,1.748-.725l2.713,2.713a11.8,11.8,0,0,0,3.122-3.122L85.908,156.1a8.1,8.1,0,0,0,.723-1.747Zm-11.639.182a2.39,2.39,0,1,1,2.391-2.39A2.39,2.39,0,0,1,78.829,154.532Z" transform="translate(-66.984 -140.296)" fill="#202124"/>
                </g>
                <g id="gear-3" data-name="gear" transform="translate(20.329 14.132)">
                  <path id="Path_92911" data-name="Path 92911" d="M104.86,165.246a7.222,7.222,0,0,0,0-2.683h-2.331a4.987,4.987,0,0,0-.439-1.062l1.647-1.647a7.2,7.2,0,0,0-1.9-1.9l-1.649,1.648a4.857,4.857,0,0,0-1.062-.439v-2.333a7.271,7.271,0,0,0-2.683,0v2.333a4.892,4.892,0,0,0-1.062.439l-1.648-1.648a7.176,7.176,0,0,0-1.9,1.9l1.647,1.647a4.9,4.9,0,0,0-.439,1.062H90.717a7.221,7.221,0,0,0,0,2.683h2.331a4.9,4.9,0,0,0,.439,1.062l-1.647,1.647a7.175,7.175,0,0,0,1.9,1.9l1.648-1.648a4.985,4.985,0,0,0,1.062.441v2.331a7.223,7.223,0,0,0,2.683,0v-2.331a4.949,4.949,0,0,0,1.062-.441l1.649,1.648a7.185,7.185,0,0,0,1.9-1.9l-1.647-1.648a4.987,4.987,0,0,0,.439-1.062Zm-7.072.11A1.452,1.452,0,1,1,99.24,163.9,1.452,1.452,0,0,1,97.789,165.356Z" transform="translate(-90.591 -156.707)" fill="#202124"/>
                </g>
              </g>
            </g>
            <g id="gear-4" data-name="gear" transform="translate(31.604 15.896)">
              <g id="Group_39678" data-name="Group 39678">
                <g id="gear-5" data-name="gear">
                  <path id="Path_92912" data-name="Path 92912" d="M90.468,153.3a11.9,11.9,0,0,0,0-4.416H86.631a8.111,8.111,0,0,0-.723-1.748l2.711-2.711A11.852,11.852,0,0,0,85.5,141.3l-2.713,2.714a8.022,8.022,0,0,0-1.748-.723v-3.838a11.9,11.9,0,0,0-4.416,0v3.838a8.051,8.051,0,0,0-1.747.723L72.16,141.3a11.819,11.819,0,0,0-3.12,3.124l2.711,2.711a7.98,7.98,0,0,0-.723,1.748H67.191a11.9,11.9,0,0,0,0,4.416h3.837a7.972,7.972,0,0,0,.723,1.747L69.04,157.76a11.818,11.818,0,0,0,3.12,3.124l2.714-2.713a8.146,8.146,0,0,0,1.747.725v3.836a11.9,11.9,0,0,0,4.416,0V158.9a8.116,8.116,0,0,0,1.748-.725l2.713,2.713a11.8,11.8,0,0,0,3.122-3.122l-2.711-2.713a8.1,8.1,0,0,0,.723-1.747Zm-11.639.182a2.39,2.39,0,1,1,2.391-2.39A2.39,2.39,0,0,1,78.829,153.484Z" transform="translate(-66.984 -139.248)" fill="#fff"/>
                </g>
                <g id="gear-6" data-name="gear" transform="translate(20.329 14.132)">
                  <path id="Path_92913" data-name="Path 92913" d="M104.86,164.2a7.222,7.222,0,0,0,0-2.683h-2.331a4.987,4.987,0,0,0-.439-1.062l1.647-1.647a7.2,7.2,0,0,0-1.9-1.9l-1.649,1.648a4.859,4.859,0,0,0-1.062-.439v-2.333a7.221,7.221,0,0,0-2.683,0v2.333a4.894,4.894,0,0,0-1.062.439l-1.648-1.648a7.175,7.175,0,0,0-1.9,1.9l1.647,1.647a4.9,4.9,0,0,0-.439,1.062H90.717a7.221,7.221,0,0,0,0,2.683h2.331a4.9,4.9,0,0,0,.439,1.062l-1.647,1.647a7.176,7.176,0,0,0,1.9,1.9l1.648-1.648a4.984,4.984,0,0,0,1.062.441v2.331a7.269,7.269,0,0,0,2.683,0V167.6a4.947,4.947,0,0,0,1.062-.441l1.649,1.648a7.185,7.185,0,0,0,1.9-1.9l-1.647-1.648a4.987,4.987,0,0,0,.439-1.062Zm-7.072.11a1.452,1.452,0,1,1,1.452-1.452A1.452,1.452,0,0,1,97.789,164.308Z" transform="translate(-90.591 -155.658)" fill="#fff"/>
                </g>
              </g>
            </g>
          </g>
          <g id="chat" transform="translate(269.348 36.419)">
            <g id="Group_39680" data-name="Group 39680">
              <path id="Path_92914" data-name="Path 92914" d="M366.741,106.406H351.277a8.218,8.218,0,0,0-.47,16.422l-5.081,6.042,9.578-6.027h11.437a8.218,8.218,0,1,0,0-16.437Z" transform="translate(-343.059 -106.406)" fill="url(#linear-gradient-3)"/>
              <path id="Path_92915" data-name="Path 92915" d="M352.728,112.867a2.672,2.672,0,1,0,2.672,2.672A2.672,2.672,0,0,0,352.728,112.867Zm7.253,0a2.672,2.672,0,1,0,2.672,2.672A2.672,2.672,0,0,0,359.981,112.867Zm7.252,0a2.672,2.672,0,1,0,2.672,2.672A2.672,2.672,0,0,0,367.233,112.867Z" transform="translate(-344.03 -107.303)" fill="#fff"/>
            </g>
          </g>
          <line id="Line_310" data-name="Line 310" y2="35.492" transform="translate(176.618 72.899)" fill="none" stroke="#6f7082" stroke-linecap="round" stroke-miterlimit="10" stroke-width="3.144" stroke-dasharray="0 5.24"/>
          <line id="Line_311" data-name="Line 311" y1="29.927" transform="translate(335.384 138.788)" fill="none" stroke="#6f7082" stroke-miterlimit="10" stroke-width="1.153" stroke-dasharray="2.096 1.048"/>
          <line id="Line_312" data-name="Line 312" x1="86.148" transform="translate(239.306 64.923)" fill="none" stroke="#6f7082" stroke-miterlimit="10" stroke-width="1.153" stroke-dasharray="2.096 1.048"/>
          <line id="Line_313" data-name="Line 313" y1="43.779" transform="translate(38.665 144.63)" fill="none" stroke="#6f7082" stroke-miterlimit="10" stroke-width="1.153" stroke-dasharray="2.096 1.048"/>
          <path id="Path_92916" data-name="Path 92916" d="M89.547,219.25l20.379,20.379a10.757,10.757,0,0,0,7.607,3.151h33.3" transform="translate(-38.513 -85.654)" fill="none" stroke="#6f7082" stroke-miterlimit="10" stroke-width="1.153" stroke-dasharray="2.096 1.048"/>
          <g id="Artwork_4" data-name="Artwork 4" transform="translate(251.552 126.379)">
            <g id="Group_39691" data-name="Group 39691">
              <rect id="Rectangle_28101" data-name="Rectangle 28101" width="54.071" height="70.44" rx="4.306" fill="#e6eaf0"/>
              <g id="Group_39690" data-name="Group 39690" transform="translate(35.198 2.817)">
                <path id="Path_92919" data-name="Path 92919" d="M379.975,216.022a1.881,1.881,0,1,1-1.882-1.881A1.881,1.881,0,0,1,379.975,216.022Z" transform="translate(-365.065 -214.141)" fill="#37a3a5"/>
                <path id="Path_92920" data-name="Path 92920" d="M373.5,216.022a1.881,1.881,0,1,1-1.881-1.881A1.88,1.88,0,0,1,373.5,216.022Z" transform="translate(-364.166 -214.141)" fill="#f8b85e"/>
                <path id="Path_92921" data-name="Path 92921" d="M367.029,216.022a1.881,1.881,0,1,1-1.881-1.881A1.881,1.881,0,0,1,367.029,216.022Z" transform="translate(-363.267 -214.141)" fill="#ba0034"/>
              </g>
            </g>
          </g>
          <path id="Path_92922" data-name="Path 92922" d="M344.75,285.859v36.778H290.68V285.859a3.709,3.709,0,0,1,3.709-3.709h46.652A3.709,3.709,0,0,1,344.75,285.859Z" transform="translate(-66.439 -94.388)" fill="#35363b" opacity="0.25" style="mix-blend-mode: multiply;isolation: isolate"/>
          <g id="Artwork_4-2" data-name="Artwork 4" transform="translate(239.365 72.47)">
            <g id="Group_39693" data-name="Group 39693">
              <rect id="Rectangle_28102" data-name="Rectangle 28102" width="39.388" height="48.927" rx="4.306" fill="#6f7082"/>
              <g id="Group_39692" data-name="Group 39692" transform="translate(20.515 2.817)">
                <path id="Path_92923" data-name="Path 92923" d="M348.773,153.421a1.881,1.881,0,1,1-1.882-1.881A1.881,1.881,0,0,1,348.773,153.421Z" transform="translate(-333.862 -151.54)" fill="#37a3a5"/>
                <path id="Path_92924" data-name="Path 92924" d="M342.3,153.421a1.881,1.881,0,1,1-1.881-1.881A1.881,1.881,0,0,1,342.3,153.421Z" transform="translate(-332.964 -151.54)" fill="#f8b85e"/>
                <path id="Path_92925" data-name="Path 92925" d="M335.827,153.421a1.881,1.881,0,1,1-1.881-1.881A1.881,1.881,0,0,1,335.827,153.421Z" transform="translate(-332.065 -151.54)" fill="#ba0034"/>
              </g>
            </g>
          </g>
          <g id="Artwork_4-3" data-name="Artwork 4" transform="translate(221.7 189.405)">
            <g id="Group_39695" data-name="Group 39695">
              <rect id="Rectangle_28103" data-name="Rectangle 28103" width="54.072" height="48.927" rx="4.306" fill="#d9dde3"/>
              <g id="Group_39694" data-name="Group 39694" transform="translate(35.198 2.817)">
                <path id="Path_92926" data-name="Path 92926" d="M345.31,289.209a1.881,1.881,0,1,1-1.881-1.881A1.88,1.88,0,0,1,345.31,289.209Z" transform="translate(-330.399 -287.328)" fill="#37a3a5"/>
                <path id="Path_92927" data-name="Path 92927" d="M338.836,289.209a1.881,1.881,0,1,1-1.881-1.881A1.88,1.88,0,0,1,338.836,289.209Z" transform="translate(-329.501 -287.328)" fill="#f8b85e"/>
                <path id="Path_92928" data-name="Path 92928" d="M332.364,289.209a1.881,1.881,0,1,1-1.881-1.881A1.88,1.88,0,0,1,332.364,289.209Z" transform="translate(-328.602 -287.328)" fill="#ba0034"/>
              </g>
            </g>
          </g>
          <g id="Group_39696" data-name="Group 39696" transform="translate(242.565 81.901)">
            <g id="text" transform="translate(0 19.194)">
              <path id="Path_92929" data-name="Path 92929" d="M315.589,188.1h-3.631v1.57h3.631Zm13.107,4.867h9.922V191.4H328.7Zm9.919-11.462h-23.2v1.57h23.2Zm-26.657,14.759h9.006V194.7h-9.006Zm6.926-11.461h-6.926v1.57h6.926Zm-2.18,4.867h14.045V188.1H316.7ZM326.82,191.4H311.958v1.572H326.82Zm5.044-1.725h12.4V188.1h-12.4Zm-11.1-3.3h23.506v-1.57H320.761Zm18.8-4.867v1.57h4.7v-1.57Zm.932,11.462h3.772V191.4H340.5Zm-17.655,3.3h9.277V194.7H322.84Zm10.394,0H340.3V194.7h-7.066Z" transform="translate(-311.958 -181.51)" fill="#e6eaf0"/>
            </g>
            <rect id="Rectangle_28104" data-name="Rectangle 28104" width="31.996" height="16.284" transform="translate(0.463)" fill="#e6eaf0"/>
          </g>
          <g id="Group_39697" data-name="Group 39697" transform="translate(257.974 140.963)">
            <g id="text-2" data-name="text" transform="translate(0 24.53)">
              <path id="Path_92930" data-name="Path 92930" d="M334.492,264.719h-4.641v2.007h4.641Zm16.75,6.22h12.681v-2.008H351.242Zm12.677-14.648H334.268V258.3h29.651Zm-34.068,18.862H341.36v-2.008H329.851Zm8.852-14.647h-8.852v2.007H338.7Zm-2.787,6.22h17.95v-2.007h-17.95Zm12.929,2.205H329.851v2.008h18.994Zm6.446-2.205h15.851v-2.007H355.29ZM341.1,262.512h30.041v-2.007H341.1Zm24.03-6.221V258.3h6.011v-2.007Zm1.19,14.648h4.821v-2.008h-4.821Zm-22.563,4.214h11.857v-2.008H343.758Zm13.284,0h9.03v-2.008h-9.03Z" transform="translate(-329.851 -256.291)" fill="#42444f"/>
            </g>
            <rect id="Rectangle_28105" data-name="Rectangle 28105" width="40.892" height="20.811" transform="translate(0.591)" fill="#42444f"/>
          </g>
          <g id="Group_39703" data-name="Group 39703" transform="translate(227.719 204.317)">
            <g id="gear-7" data-name="gear" transform="translate(0 0.81)">
              <g id="Group_39698" data-name="Group 39698">
                <g id="gear-8" data-name="gear">
                  <path id="Path_92931" data-name="Path 92931" d="M314.292,314.029a9.916,9.916,0,0,0,0-3.681h-3.2a6.735,6.735,0,0,0-.6-1.457l2.26-2.26a9.887,9.887,0,0,0-2.6-2.6l-2.261,2.261a6.707,6.707,0,0,0-1.457-.6v-3.2a9.922,9.922,0,0,0-3.681,0v3.2a6.739,6.739,0,0,0-1.456.6l-2.261-2.261a9.843,9.843,0,0,0-2.6,2.6l2.26,2.26a6.7,6.7,0,0,0-.6,1.457h-3.2a9.919,9.919,0,0,0,0,3.681h3.2a6.716,6.716,0,0,0,.6,1.457l-2.26,2.26a9.856,9.856,0,0,0,2.6,2.6l2.261-2.261a6.828,6.828,0,0,0,1.456.6v3.2a9.922,9.922,0,0,0,3.681,0v-3.2a6.8,6.8,0,0,0,1.457-.6l2.261,2.261a9.868,9.868,0,0,0,2.6-2.6l-2.26-2.261a6.751,6.751,0,0,0,.6-1.457Zm-9.7.152a1.992,1.992,0,1,1,1.992-1.992A1.992,1.992,0,0,1,304.591,314.181Z" transform="translate(-294.718 -302.315)" fill="#6f7082"/>
                </g>
              </g>
            </g>
            <g id="Data_server" data-name="Data server" transform="translate(23.197)">
              <g id="Group_39702" data-name="Group 39702">
                <g id="Group_39699" data-name="Group 39699" transform="translate(0 13.637)">
                  <path id="Path_92932" data-name="Path 92932" d="M321.655,319.251v4.832c0,.971,4.329,1.758,9.669,1.758s9.67-.788,9.67-1.758v-4.832Z" transform="translate(-321.655 -317.493)" fill="#fff"/>
                  <ellipse id="Ellipse_3779" data-name="Ellipse 3779" cx="9.669" cy="1.758" rx="9.669" ry="1.758" fill="#6f7082"/>
                </g>
                <g id="Group_39700" data-name="Group 39700" transform="translate(0 6.818)">
                  <path id="Path_92933" data-name="Path 92933" d="M321.655,311.334v4.831c0,.971,4.329,1.758,9.669,1.758s9.67-.787,9.67-1.758v-4.831Z" transform="translate(-321.655 -309.575)" fill="#fff"/>
                  <ellipse id="Ellipse_3780" data-name="Ellipse 3780" cx="9.669" cy="1.758" rx="9.669" ry="1.758" fill="#6f7082"/>
                </g>
                <g id="Group_39701" data-name="Group 39701">
                  <path id="Path_92934" data-name="Path 92934" d="M321.655,303.416v4.831c0,.971,4.329,1.758,9.669,1.758s9.67-.787,9.67-1.758v-4.831Z" transform="translate(-321.655 -301.658)" fill="#fff"/>
                  <ellipse id="Ellipse_3781" data-name="Ellipse 3781" cx="9.669" cy="1.758" rx="9.669" ry="1.758" fill="#6f7082"/>
                </g>
              </g>
            </g>
          </g>
          <g id="Group_39711" data-name="Group 39711" transform="translate(25.845 188.656)">
            <g id="Group_39704" data-name="Group 39704">
              <rect id="Rectangle_28106" data-name="Rectangle 28106" width="53.08" height="95.934" rx="9.598" fill="url(#linear-gradient-2)"/>
              <path id="Path_92935" data-name="Path 92935" d="M95.92,288.965h-11.9a1.158,1.158,0,0,1-1.155-1.154h0a1.158,1.158,0,0,1,1.155-1.155h11.9a1.158,1.158,0,0,1,1.154,1.155h0A1.157,1.157,0,0,1,95.92,288.965Z" transform="translate(-63.431 -283.669)" fill="#42444f"/>
              <path id="Path_92936" data-name="Path 92936" d="M93.227,388.167a2.518,2.518,0,1,1-2.517-2.517A2.518,2.518,0,0,1,93.227,388.167Z" transform="translate(-64.17 -297.414)" fill="#42444f"/>
            </g>
            <rect id="Rectangle_28107" data-name="Rectangle 28107" width="45.582" height="70.33" transform="translate(3.749 11.928)" fill="#00223d"/>
            <g id="login" transform="translate(9.052 51.322)">
              <g id="Group_39707" data-name="Group 39707">
                <g id="Group_39705" data-name="Group 39705">
                  <path id="Path_92937" data-name="Path 92937" d="M105.784,344.144v3.205a1.356,1.356,0,0,1-1.353,1.359H72.167a1.228,1.228,0,0,1-.194-.016,1.351,1.351,0,0,1-1.165-1.343v-3.205a1.357,1.357,0,0,1,1.359-1.359h32.264a1.357,1.357,0,0,1,1.337,1.16A1.15,1.15,0,0,1,105.784,344.144Z" transform="translate(-70.808 -342.785)" fill="#d7dbe0"/>
                  <path id="Path_92938" data-name="Path 92938" d="M105.969,344.328v3.205a1.356,1.356,0,0,1-1.353,1.359H72.352a1.232,1.232,0,0,1-.194-.016,1.224,1.224,0,0,1-.016-.194v-3.21a1.359,1.359,0,0,1,1.354-1.359H105.76a1.217,1.217,0,0,1,.193.016A1.149,1.149,0,0,1,105.969,344.328Z" transform="translate(-70.993 -342.969)" fill="#fff"/>
                </g>
                <g id="Group_39706" data-name="Group 39706" transform="translate(0 8.288)">
                  <path id="Path_92939" data-name="Path 92939" d="M105.784,353.768v3.205a1.356,1.356,0,0,1-1.353,1.359H72.167a1.228,1.228,0,0,1-.194-.016,1.351,1.351,0,0,1-1.165-1.343v-3.205a1.357,1.357,0,0,1,1.359-1.359h32.264a1.357,1.357,0,0,1,1.337,1.16A1.151,1.151,0,0,1,105.784,353.768Z" transform="translate(-70.808 -352.409)" fill="#d7dbe0"/>
                  <path id="Path_92940" data-name="Path 92940" d="M105.969,353.952v3.205a1.356,1.356,0,0,1-1.353,1.359H72.352a1.228,1.228,0,0,1-.194-.016,1.224,1.224,0,0,1-.016-.194V355.1a1.36,1.36,0,0,1,1.354-1.359H105.76a1.217,1.217,0,0,1,.193.016A1.149,1.149,0,0,1,105.969,353.952Z" transform="translate(-70.993 -352.593)" fill="#fff"/>
                </g>
              </g>
              <g id="Group_39708" data-name="Group 39708" transform="translate(10.144 2.942)">
                <circle id="Ellipse_3782" data-name="Ellipse 3782" cx="0.679" cy="0.679" r="0.679" transform="translate(0 0)" fill="#6f7082"/>
                <path id="Path_92941" data-name="Path 92941" d="M88.2,346.88a.679.679,0,1,1-.679-.679A.679.679,0,0,1,88.2,346.88Z" transform="translate(-83.179 -346.201)" fill="#6f7082"/>
                <path id="Path_92942" data-name="Path 92942" d="M92.463,346.88a.679.679,0,1,1-.679-.679A.679.679,0,0,1,92.463,346.88Z" transform="translate(-83.77 -346.201)" fill="#6f7082"/>
                <circle id="Ellipse_3783" data-name="Ellipse 3783" cx="0.679" cy="0.679" r="0.679" transform="translate(11.004 0)" fill="#6f7082"/>
                <path id="Path_92943" data-name="Path 92943" d="M100.981,346.88a.678.678,0,1,1-.678-.679A.678.678,0,0,1,100.981,346.88Z" transform="translate(-84.953 -346.201)" fill="#6f7082"/>
              </g>
              <g id="Group_39709" data-name="Group 39709" transform="translate(10.144 10.864)">
                <path id="Path_92944" data-name="Path 92944" d="M83.945,356.08a.679.679,0,1,1-.679-.679A.679.679,0,0,1,83.945,356.08Z" transform="translate(-82.588 -355.401)" fill="#6f7082"/>
                <path id="Path_92945" data-name="Path 92945" d="M88.2,356.08a.679.679,0,1,1-.679-.679A.679.679,0,0,1,88.2,356.08Z" transform="translate(-83.179 -355.401)" fill="#6f7082"/>
                <path id="Path_92946" data-name="Path 92946" d="M92.463,356.08a.679.679,0,1,1-.679-.679A.679.679,0,0,1,92.463,356.08Z" transform="translate(-83.771 -355.401)" fill="#6f7082"/>
                <path id="Path_92947" data-name="Path 92947" d="M96.722,356.08a.679.679,0,1,1-.679-.679A.679.679,0,0,1,96.722,356.08Z" transform="translate(-84.362 -355.401)" fill="#6f7082"/>
                <path id="Path_92948" data-name="Path 92948" d="M100.981,356.08a.678.678,0,1,1-.678-.679A.678.678,0,0,1,100.981,356.08Z" transform="translate(-84.953 -355.401)" fill="#6f7082"/>
              </g>
            </g>
            <g id="user_man_account" data-name="user man account" transform="translate(14.86 21.145)">
              <g id="Group_39710" data-name="Group 39710">
                <path id="Path_92949" data-name="Path 92949" d="M100.912,319.423a11.68,11.68,0,0,1-20.829,7.26c-.062-.078-.124-.158-.183-.239a11.68,11.68,0,1,1,21.011-7.021Z" transform="translate(-77.553 -307.742)" fill="#42444f"/>
                <path id="Path_92950" data-name="Path 92950" d="M98.791,327.356a11.683,11.683,0,0,1-18.3,0,9.407,9.407,0,0,1,7.654-7.126,3.967,3.967,0,1,1,2.991,0A9.407,9.407,0,0,1,98.791,327.356Z" transform="translate(-77.961 -308.415)" fill="#e6eaf0"/>
              </g>
            </g>
          </g>
          <g id="transform" transform="translate(113.197 166.272)">
            <g id="Group_39716" data-name="Group 39716">
              <rect id="Rectangle_28108" data-name="Rectangle 28108" width="39.293" height="39.293" transform="translate(1.114 1.114)" fill="none" stroke="#42444f" stroke-linecap="round" stroke-miterlimit="10" stroke-width="1.663" stroke-dasharray="0 3.327"/>
              <g id="Group_39715" data-name="Group 39715">
                <g id="Group_39712" data-name="Group 39712">
                  <rect id="Rectangle_28109" data-name="Rectangle 28109" width="2.229" height="2.229" fill="#42444f"/>
                  <rect id="Rectangle_28110" data-name="Rectangle 28110" width="2.229" height="2.229" transform="translate(19.646)" fill="#42444f"/>
                  <rect id="Rectangle_28111" data-name="Rectangle 28111" width="2.229" height="2.229" transform="translate(39.293)" fill="#42444f"/>
                </g>
                <g id="Group_39713" data-name="Group 39713" transform="translate(0 19.646)">
                  <rect id="Rectangle_28112" data-name="Rectangle 28112" width="2.229" height="2.229" fill="#42444f"/>
                  <rect id="Rectangle_28113" data-name="Rectangle 28113" width="2.229" height="2.229" transform="translate(39.293)" fill="#42444f"/>
                </g>
                <g id="Group_39714" data-name="Group 39714" transform="translate(0 39.293)">
                  <rect id="Rectangle_28114" data-name="Rectangle 28114" width="2.229" height="2.229" fill="#42444f"/>
                  <rect id="Rectangle_28115" data-name="Rectangle 28115" width="2.229" height="2.229" transform="translate(19.646)" fill="#42444f"/>
                  <rect id="Rectangle_28116" data-name="Rectangle 28116" width="2.229" height="2.229" transform="translate(39.293)" fill="#42444f"/>
                </g>
              </g>
            </g>
          </g>
        </g>
        <circle id="Ellipse_3784" data-name="Ellipse 3784" cx="3.426" cy="3.426" r="3.426" transform="translate(227.139 329.826)" fill="#6f7082"/>
        <circle id="Ellipse_3785" data-name="Ellipse 3785" cx="3.076" cy="3.076" r="3.076" transform="translate(300.338 315.943)" fill="#e6eaf0"/>
        <path id="Path_92951" data-name="Path 92951" d="M150.65,357.751a3.588,3.588,0,1,1-3.588-3.589A3.588,3.588,0,0,1,150.65,357.751Z" transform="translate(-15.715 -40.271)" fill="#e6eaf0"/>
        <circle id="Ellipse_3786" data-name="Ellipse 3786" cx="1.538" cy="1.538" r="1.538" transform="translate(148.308 335.14)" fill="#6f7082"/>
        <path id="Path_92952" data-name="Path 92952" d="M54.888,264.036a2.734,2.734,0,1,1-2.733-2.734A2.734,2.734,0,0,1,54.888,264.036Z" transform="translate(-2.657 -27.378)" fill="#e6eaf0"/>
        <path id="Path_92953" data-name="Path 92953" d="M324.522,98.442a3.417,3.417,0,1,1-3.417-3.417A3.418,3.418,0,0,1,324.522,98.442Z" transform="translate(-39.904 -4.292)" fill="#e6eaf0"/>
        <circle id="Ellipse_3787" data-name="Ellipse 3787" cx="2.221" cy="2.221" r="2.221" transform="translate(154.072 140.286)" fill="#e6eaf0"/>
        <path id="Path_92954" data-name="Path 92954" d="M127.511,111.648a2.734,2.734,0,1,1-2.734-2.734A2.735,2.735,0,0,1,127.511,111.648Z" transform="translate(-12.74 -6.22)" fill="#6f7082"/>
        <circle id="Ellipse_3788" data-name="Ellipse 3788" cx="2.763" cy="2.763" r="2.763" transform="translate(348.667 103.119)" fill="#6f7082"/>
      </g>
    </g>
    <g id="Group_152136" data-name="Group 152136" transform="translate(1319 1476.576)">
      <path id="Path_84118" data-name="Path 84118" d="M1124.263,1977.878H735.611a4.315,4.315,0,0,0-4.3,4.3h0a4.315,4.315,0,0,0,4.3,4.3h388.651a4.315,4.315,0,0,0,4.3-4.3h0A4.315,4.315,0,0,0,1124.263,1977.878Z" transform="translate(-1116.309 -2111.878)" fill="#12263f"/>
    </g>
  </g>
</svg>
