<svg xmlns="http://www.w3.org/2000/svg" width="104.805" height="87.508" viewBox="0 0 104.805 87.508">
  <g id="Group_154284" data-name="Group 154284" transform="translate(-866 -892.231)">
    <path id="Polygon_50" data-name="Polygon 50" d="M12.5,0,25,19H0Z" transform="translate(885 920.995) rotate(90)" fill="#3cafff"/>
    <g id="_6fZTIx.tif" data-name="6fZTIx.tif" transform="translate(738.01 1803.877)">
      <g id="Group_154273" data-name="Group 154273" transform="translate(145.299 -911.646)">
        <path id="Path_194611" data-name="Path 194611" d="M185.721-911.646c2.5.595,3.97,2.294,5.208,4.45Q202.6-886.878,214.4-866.635a3.782,3.782,0,0,0,1.231,1.264,17.415,17.415,0,0,1,6.911,21.657,1.012,1.012,0,0,0,.247,1.34q4.172,4.108,8.285,8.275a5.571,5.571,0,0,1,1.486,5.665,5.477,5.477,0,0,1-4.26,4.118,5.592,5.592,0,0,1-5.492-1.562c-2.745-2.734-5.494-5.465-8.209-8.228a1.072,1.072,0,0,0-1.408-.273,17.311,17.311,0,0,1-21.426-6.677,1.333,1.333,0,0,0-1.318-.687q-19.082.028-38.163.014c-3.612,0-5.809-1.663-6.839-5.166a.772.772,0,0,0-.147-.2v-2.429c.481-1.038.883-2.122,1.453-3.108q15.72-27.194,31.45-54.384c1.265-2.2,2.719-3.98,5.263-4.626Zm17.816,43.833c-.2-.359-.356-.665-.526-.966q-4.874-8.635-9.749-17.269-3.659-6.487-7.312-12.976c-.729-1.288-1.926-1.278-2.672-.007-.058.1-.112.2-.169.3L165.2-866.968c-2.6,4.6-5.2,9.2-7.774,13.812a2.7,2.7,0,0,0-.393,1.446c.076.846.669,1.185,1.807,1.185q14.7.006,29.4,0a5.6,5.6,0,0,0,.621-.063C189.669-859.835,194.527-865.547,203.537-867.813Zm-13.6,23.149a11.124,11.124,0,0,1-.5-1.928c-.065-.87-.5-.971-1.25-.969q-14.44.033-28.88.012c-.462,0-.925-.014-1.385-.056a4,4,0,0,1-3.189-1.973,4.556,4.556,0,0,1,.075-4.987q8.576-15.147,17.111-30.316c2.921-5.179,5.856-10.35,8.759-15.539a4.341,4.341,0,0,1,3.96-2.5,4.252,4.252,0,0,1,3.889,2.466c.367.687.774,1.354,1.157,2.032q8.4,14.9,16.814,29.794c.146.259.365.627.6.663,1.064.17,2.143.241,3.3.356-.142-.27-.241-.474-.353-.669Q198.907-887.5,187.77-906.718c-1.566-2.7-4.738-2.675-6.321.035q-2.97,5.086-5.915,10.188-13.24,22.861-26.487,45.718a4.036,4.036,0,0,0-.3,4.326c.857,1.509,2.245,1.8,3.847,1.793q18.126-.032,36.252-.005Zm31.03-5.8A14.437,14.437,0,0,0,206.45-865a14.46,14.46,0,0,0-14.514,14.552,14.458,14.458,0,0,0,14.576,14.486A14.424,14.424,0,0,0,220.967-850.466Zm4.647,15.123-4.02,4.031c1.088,1.1,2.18,2.3,3.367,3.39a2.927,2.927,0,0,0,3.939-.149,2.829,2.829,0,0,0,.155-3.854C227.946-833.134,226.728-834.244,225.614-835.343Zm-6.317,1.709,3.978-3.963-2.3-2.3-3.949,3.941Z" transform="translate(-145.299 911.646)" fill="#fff"/>
        <path id="Path_194612" data-name="Path 194612" d="M354.855-774.952c0,2.111.008,4.222,0,6.333a4.419,4.419,0,0,1-4.328,4.583,4.437,4.437,0,0,1-4.467-4.547q-.038-6.419.012-12.839a4.333,4.333,0,0,1,4.506-4.466,4.347,4.347,0,0,1,4.277,4.517C354.865-779.231,354.855-777.092,354.855-774.952Zm-2.934.055c0-2.14.011-4.28,0-6.419a1.449,1.449,0,0,0-1.413-1.633,1.411,1.411,0,0,0-1.481,1.561c-.022,4.279-.03,8.559.02,12.838a1.843,1.843,0,0,0,.683,1.292,1.421,1.421,0,0,0,1.333.069,2.251,2.251,0,0,0,.824-1.464C351.975-770.731,351.922-772.815,351.922-774.9Z" transform="translate(-311.15 807.746)" fill="#fff"/>
        <path id="Path_194613" data-name="Path 194613" d="M350.595-634.857a4.4,4.4,0,0,1-4.408-4.4,4.436,4.436,0,0,1,4.389-4.355,4.4,4.4,0,0,1,4.4,4.419A4.388,4.388,0,0,1,350.595-634.857Zm-.018-2.936a1.489,1.489,0,0,0,1.456-1.412,1.426,1.426,0,0,0-1.426-1.421,1.387,1.387,0,0,0-1.443,1.388A1.454,1.454,0,0,0,350.577-637.794Z" transform="translate(-311.271 690.201)" fill="#fff"/>
        <path id="Path_194614" data-name="Path 194614" d="M453.7-614.819A11.612,11.612,0,0,1,442.163-603.2a11.422,11.422,0,0,1-11.625-11.466,11.583,11.583,0,0,1,11.536-11.7A11.421,11.421,0,0,1,453.7-614.819Zm-6.528-6.984a8.63,8.63,0,0,0-11.3.924c-2.94,3.022-3.328,7.986-.805,11.071q1.714-1.724,3.418-3.438c.857-.859,1.7-1.735,2.584-2.563a1.38,1.38,0,0,1,2.02-.027,1.43,1.43,0,0,1,.053,2.091c-.2.242-.441.457-.666.682l-5.33,5.325c2.91,2.55,8.069,2.136,11.1-.845a8.593,8.593,0,0,0,.825-11.305c-.279.358-.529.714-.815,1.037a12.144,12.144,0,0,1-.918.92,1.486,1.486,0,0,1-2.164.054,1.461,1.461,0,0,1,.109-2.156C445.871-620.63,446.5-621.178,447.174-621.8Z" transform="translate(-380.961 675.953)" fill="#fff"/>
      </g>
    </g>
  </g>
</svg>
