<svg xmlns="http://www.w3.org/2000/svg" xmlns:xlink="http://www.w3.org/1999/xlink" width="1328" height="705" viewBox="0 0 1328 705">
  <defs>
    <linearGradient id="linear-gradient" x1="0.5" x2="0.5" y2="1" gradientUnits="objectBoundingBox">
      <stop offset="0" stop-color="#7e7e7e"/>
      <stop offset="1" stop-color="#fff"/>
    </linearGradient>
    <radialGradient id="radial-gradient" cx="0.076" cy="0.019" r="1.465" gradientTransform="translate(0.001)" gradientUnits="objectBoundingBox">
      <stop offset="0" stop-color="#f6f6f7"/>
      <stop offset="0.477" stop-color="#f9f9fa"/>
      <stop offset="0.715" stop-color="#fff"/>
    </radialGradient>
  </defs>
  <g id="Group_154289" data-name="Group 154289" transform="translate(-137 -7749)">
    <path id="Path_194620" data-name="Path 194620" d="M0,0H1328V344H0Z" transform="translate(1465 8093) rotate(180)" opacity="0.11" fill="url(#linear-gradient)"/>
    <path id="Path_194622" data-name="Path 194622" d="M0,0H1328V344H0Z" transform="translate(137 8093)" opacity="0.11" fill="url(#linear-gradient)"/>
    <g id="Group_154233" data-name="Group 154233" transform="translate(498.128 7823.778)">
      <path id="Path_194576" data-name="Path 194576" d="M1245.057,208.753a182.786,182.786,0,0,1,193.474-28.567q.206-4.35.213-8.749a182.635,182.635,0,0,0-365.271,0c0,.215.008.429.008.644a182.866,182.866,0,0,1,171.576,36.671Z" transform="translate(-943.185 11.198)" fill="#eae5f5"/>
      <path id="Path_194577" data-name="Path 194577" d="M1199.946,321.367c0-2.934.077-5.85.213-8.75a182.664,182.664,0,0,1-108.39-166.261,182.652,182.652,0,1,0,171.576,313.351A182.215,182.215,0,0,1,1199.946,321.367Z" transform="translate(-961.473 36.924)" fill="#cde3fc" opacity="0.914" style="isolation: isolate"/>
      <path id="Path_194578" data-name="Path 194578" d="M1181.87,313.687a182.219,182.219,0,0,1,63.186-129.59,182.866,182.866,0,0,0-171.576-36.671A182.664,182.664,0,0,0,1181.87,313.687Z" transform="translate(-943.184 35.854)" fill="#eae5f5"/>
      <path id="Path_194579" data-name="Path 194579" d="M1181.87,313.687a182.219,182.219,0,0,1,63.186-129.59,182.866,182.866,0,0,0-171.576-36.671A182.664,182.664,0,0,0,1181.87,313.687Z" transform="translate(-943.184 35.854)" fill="#e5f0fd" opacity="0.914" style="isolation: isolate"/>
      <path id="Path_194580" data-name="Path 194580" d="M1414.447,153.323a182.728,182.728,0,0,1-130.083,166.261c0,.216.008.429.008.646a182.213,182.213,0,0,1-63.4,138.34,182.649,182.649,0,1,0,193.474-305.247Z" transform="translate(-919.101 38.062)" fill="#e6e6e6" opacity="0.914" style="isolation: isolate"/>
      <path id="Path_194581" data-name="Path 194581" d="M1220.973,184.1a182.21,182.21,0,0,1,63.391,137.694,182.728,182.728,0,0,0,130.083-166.261A182.786,182.786,0,0,0,1220.973,184.1Z" transform="translate(-919.101 35.854)" fill="#eae5f5"/>
      <path id="Path_194582" data-name="Path 194582" d="M1220.973,184.1a182.21,182.21,0,0,1,63.391,137.694,182.728,182.728,0,0,0,130.083-166.261A182.786,182.786,0,0,0,1220.973,184.1Z" transform="translate(-919.101 35.854)" fill="#e6e2e2" opacity="0.914" style="isolation: isolate"/>
      <path id="Path_194583" data-name="Path 194583" d="M1293.271,298.03c0-.216-.007-.429-.008-.646a183.207,183.207,0,0,1-126.577-8.1c-.136,2.9-.213,5.816-.213,8.75a182.217,182.217,0,0,0,63.4,138.34A182.213,182.213,0,0,0,1293.271,298.03Z" transform="translate(-928 60.261)" fill="#cde3fc" opacity="0.914" style="isolation: isolate"/>
      <path id="Path_194584" data-name="Path 194584" d="M1293.271,298.03c0-.216-.007-.429-.008-.646a183.207,183.207,0,0,1-126.577-8.1c-.136,2.9-.213,5.816-.213,8.75a182.217,182.217,0,0,0,63.4,138.34A182.213,182.213,0,0,0,1293.271,298.03Z" transform="translate(-928 60.261)" fill="#dbdbdb" opacity="0.914" style="isolation: isolate"/>
      <path id="Path_194585" data-name="Path 194585" d="M1229.842,177.88a182.219,182.219,0,0,0-63.186,129.59,183.207,183.207,0,0,0,126.577,8.1A182.21,182.21,0,0,0,1229.842,177.88Z" transform="translate(-927.97 42.071)" fill="#eae5f5"/>
      <path id="Path_194586" data-name="Path 194586" d="M1229.842,177.88a182.219,182.219,0,0,0-63.186,129.59,183.207,183.207,0,0,0,126.577,8.1A182.21,182.21,0,0,0,1229.842,177.88Z" transform="translate(-927.97 42.071)" fill="#cde3fc" opacity="0.914" style="isolation: isolate"/>
      <path id="Path_194587" data-name="Path 194587" d="M1229.842,177.88a182.219,182.219,0,0,0-63.186,129.59,183.207,183.207,0,0,0,126.577,8.1A182.21,182.21,0,0,0,1229.842,177.88Z" transform="translate(-927.97 42.071)" fill="#fff" opacity="0.914" style="isolation: isolate"/>
    </g>
    <path id="Path_194623" data-name="Path 194623" d="M-8.525-4.85a1.954,1.954,0,0,0-.762-1.657,9.991,9.991,0,0,0-2.742-1.219,19.439,19.439,0,0,1-3.136-1.263q-3.148-1.7-3.148-4.583a4.464,4.464,0,0,1,.844-2.672,5.507,5.507,0,0,1,2.425-1.834,9.127,9.127,0,0,1,3.548-.66,8.307,8.307,0,0,1,3.529.717A5.62,5.62,0,0,1-5.561-16,5.3,5.3,0,0,1-4.7-13.025H-8.512A2.493,2.493,0,0,0-9.312-15a3.288,3.288,0,0,0-2.247-.7,3.513,3.513,0,0,0-2.171.59,1.862,1.862,0,0,0-.774,1.555,1.783,1.783,0,0,0,.908,1.511,10.255,10.255,0,0,0,2.672,1.143A11.547,11.547,0,0,1-6.189-8.48,4.829,4.829,0,0,1-4.7-4.875,4.448,4.448,0,0,1-6.519-1.111,7.948,7.948,0,0,1-11.407.254a9.438,9.438,0,0,1-3.885-.781,6.147,6.147,0,0,1-2.672-2.139,5.478,5.478,0,0,1-.92-3.148h3.821q0,3.06,3.656,3.06a3.557,3.557,0,0,0,2.12-.552A1.8,1.8,0,0,0-8.525-4.85ZM3.955.254A6.743,6.743,0,0,1-.965-1.6a6.588,6.588,0,0,1-1.9-4.938v-.355a8.3,8.3,0,0,1,.8-3.7A5.87,5.87,0,0,1,.2-13.108a6.36,6.36,0,0,1,3.345-.882,5.7,5.7,0,0,1,4.437,1.777A7.222,7.222,0,0,1,9.6-7.173v1.5H.857A3.408,3.408,0,0,0,1.93-3.517,3.243,3.243,0,0,0,4.2-2.7,3.96,3.96,0,0,0,7.509-4.24l1.8,2.019A5.508,5.508,0,0,1,7.078-.4,7.331,7.331,0,0,1,3.955.254ZM3.536-11.032a2.293,2.293,0,0,0-1.771.74A3.83,3.83,0,0,0,.9-8.176H6v-.293a2.731,2.731,0,0,0-.66-1.894A2.365,2.365,0,0,0,3.536-11.032ZM19.4-10.3a9.968,9.968,0,0,0-1.32-.1,2.687,2.687,0,0,0-2.729,1.409V0H11.686V-13.736h3.466l.1,1.638a3.4,3.4,0,0,1,3.06-1.892,3.844,3.844,0,0,1,1.143.165Z" transform="translate(806 7944)" fill="#12263f"/>
    <path id="Path_194625" data-name="Path 194625" d="M-22.813-4.85a1.954,1.954,0,0,0-.762-1.657,9.991,9.991,0,0,0-2.742-1.219,19.439,19.439,0,0,1-3.136-1.263q-3.148-1.7-3.148-4.583a4.464,4.464,0,0,1,.844-2.672,5.507,5.507,0,0,1,2.425-1.834,9.127,9.127,0,0,1,3.548-.66,8.307,8.307,0,0,1,3.529.717A5.62,5.62,0,0,1-19.849-16a5.3,5.3,0,0,1,.857,2.971H-22.8A2.493,2.493,0,0,0-23.6-15a3.288,3.288,0,0,0-2.247-.7,3.513,3.513,0,0,0-2.171.59,1.862,1.862,0,0,0-.774,1.555,1.783,1.783,0,0,0,.908,1.511,10.255,10.255,0,0,0,2.672,1.143A11.547,11.547,0,0,1-20.478-8.48a4.829,4.829,0,0,1,1.485,3.605,4.448,4.448,0,0,1-1.815,3.764A7.948,7.948,0,0,1-25.7.254,9.438,9.438,0,0,1-29.58-.527a6.147,6.147,0,0,1-2.672-2.139,5.478,5.478,0,0,1-.92-3.148h3.821q0,3.06,3.656,3.06a3.557,3.557,0,0,0,2.12-.552A1.8,1.8,0,0,0-22.813-4.85ZM-8.7,0a4.074,4.074,0,0,1-.368-1.231A4.439,4.439,0,0,1-12.53.254,4.877,4.877,0,0,1-15.875-.914,3.756,3.756,0,0,1-17.2-3.859a3.882,3.882,0,0,1,1.619-3.352,7.987,7.987,0,0,1,4.678-1.181h1.688v-.787A2.264,2.264,0,0,0-9.706-10.7a1.923,1.923,0,0,0-1.542-.571,2.186,2.186,0,0,0-1.454.444,1.509,1.509,0,0,0-.527,1.219H-16.9a3.685,3.685,0,0,1,.736-2.209,4.867,4.867,0,0,1,2.082-1.593,7.588,7.588,0,0,1,3.021-.578,6,6,0,0,1,4.031,1.276A4.463,4.463,0,0,1-5.535-9.128v5.954A6.567,6.567,0,0,0-4.989-.216V0ZM-11.73-2.552a3.16,3.16,0,0,0,1.5-.362,2.376,2.376,0,0,0,1.016-.971V-6.246h-1.371q-2.755,0-2.933,1.9l-.013.216A1.469,1.469,0,0,0-13.051-3,1.874,1.874,0,0,0-11.73-2.552ZM9.661-6.741A8.318,8.318,0,0,1,8.252-1.593,4.668,4.668,0,0,1,4.316.254,4.289,4.289,0,0,1,.749-1.46L.584,0h-3.3V-19.5H.952v7A4.178,4.178,0,0,1,4.291-13.99a4.706,4.706,0,0,1,3.942,1.847,8.33,8.33,0,0,1,1.428,5.2ZM5.992-7.008a5.464,5.464,0,0,0-.66-3.041,2.232,2.232,0,0,0-1.968-.958A2.42,2.42,0,0,0,.952-9.572v5.421A2.453,2.453,0,0,0,3.39-2.7,2.265,2.265,0,0,0,5.726-4.456,9.038,9.038,0,0,0,5.992-7.008ZM18.243.254A6.743,6.743,0,0,1,13.324-1.6a6.588,6.588,0,0,1-1.9-4.938v-.355a8.3,8.3,0,0,1,.8-3.7,5.87,5.87,0,0,1,2.266-2.514,6.36,6.36,0,0,1,3.345-.882,5.7,5.7,0,0,1,4.437,1.777,7.222,7.222,0,0,1,1.619,5.04v1.5H15.146a3.408,3.408,0,0,0,1.073,2.158,3.243,3.243,0,0,0,2.266.813A3.96,3.96,0,0,0,21.8-4.24l1.8,2.019A5.508,5.508,0,0,1,21.366-.4,7.331,7.331,0,0,1,18.243.254Zm-.419-11.286a2.293,2.293,0,0,0-1.771.74,3.83,3.83,0,0,0-.87,2.117h5.1v-.293a2.731,2.731,0,0,0-.66-1.894A2.365,2.365,0,0,0,17.824-11.032Zm15.869.736a9.968,9.968,0,0,0-1.32-.1,2.687,2.687,0,0,0-2.729,1.409V0H25.975V-13.736H29.44l.1,1.638A3.4,3.4,0,0,1,32.6-13.99a3.844,3.844,0,0,1,1.143.165Z" transform="translate(637 8222)" fill="#12263f"/>
    <path id="Path_194624" data-name="Path 194624" d="M-58.843-4.85A1.954,1.954,0,0,0-59.6-6.506a9.991,9.991,0,0,0-2.742-1.219,19.439,19.439,0,0,1-3.136-1.263q-3.148-1.7-3.148-4.583a4.464,4.464,0,0,1,.844-2.672,5.507,5.507,0,0,1,2.425-1.834,9.127,9.127,0,0,1,3.548-.66,8.307,8.307,0,0,1,3.529.717A5.62,5.62,0,0,1-55.878-16a5.3,5.3,0,0,1,.857,2.971H-58.83A2.493,2.493,0,0,0-59.63-15a3.288,3.288,0,0,0-2.247-.7,3.513,3.513,0,0,0-2.171.59,1.862,1.862,0,0,0-.774,1.555,1.783,1.783,0,0,0,.908,1.511,10.255,10.255,0,0,0,2.672,1.143A11.547,11.547,0,0,1-56.507-8.48a4.829,4.829,0,0,1,1.485,3.605,4.448,4.448,0,0,1-1.815,3.764A7.948,7.948,0,0,1-61.725.254a9.438,9.438,0,0,1-3.885-.781,6.147,6.147,0,0,1-2.672-2.139,5.478,5.478,0,0,1-.92-3.148h3.821q0,3.06,3.656,3.06a3.557,3.557,0,0,0,2.12-.552A1.8,1.8,0,0,0-58.843-4.85ZM-44.726,0a4.074,4.074,0,0,1-.368-1.231A4.439,4.439,0,0,1-48.56.254,4.877,4.877,0,0,1-51.9-.914a3.756,3.756,0,0,1-1.327-2.945,3.882,3.882,0,0,1,1.619-3.352,7.987,7.987,0,0,1,4.678-1.181h1.688v-.787a2.264,2.264,0,0,0-.489-1.523,1.923,1.923,0,0,0-1.542-.571,2.186,2.186,0,0,0-1.454.444,1.509,1.509,0,0,0-.527,1.219h-3.669a3.685,3.685,0,0,1,.736-2.209,4.867,4.867,0,0,1,2.082-1.593,7.588,7.588,0,0,1,3.021-.578,6,6,0,0,1,4.031,1.276,4.463,4.463,0,0,1,1.492,3.586v5.954a6.567,6.567,0,0,0,.546,2.958V0ZM-47.76-2.552a3.16,3.16,0,0,0,1.5-.362,2.376,2.376,0,0,0,1.016-.971V-6.246h-1.371q-2.755,0-2.933,1.9l-.013.216A1.469,1.469,0,0,0-49.08-3,1.874,1.874,0,0,0-47.76-2.552Zm21.392-4.189a8.318,8.318,0,0,1-1.409,5.148A4.668,4.668,0,0,1-31.713.254,4.289,4.289,0,0,1-35.28-1.46L-35.445,0h-3.3V-19.5h3.669v7a4.178,4.178,0,0,1,3.339-1.485A4.706,4.706,0,0,1-27.8-12.143a8.33,8.33,0,0,1,1.428,5.2Zm-3.669-.267a5.464,5.464,0,0,0-.66-3.041,2.232,2.232,0,0,0-1.968-.958,2.42,2.42,0,0,0-2.412,1.435v5.421A2.453,2.453,0,0,0-32.64-2.7,2.265,2.265,0,0,0-30.3-4.456,9.038,9.038,0,0,0-30.037-7.008ZM-17.786.254A6.743,6.743,0,0,1-22.706-1.6a6.588,6.588,0,0,1-1.9-4.938v-.355a8.3,8.3,0,0,1,.8-3.7,5.87,5.87,0,0,1,2.266-2.514,6.36,6.36,0,0,1,3.345-.882,5.7,5.7,0,0,1,4.437,1.777,7.222,7.222,0,0,1,1.619,5.04v1.5h-8.747a3.408,3.408,0,0,0,1.073,2.158,3.243,3.243,0,0,0,2.266.813A3.96,3.96,0,0,0-14.231-4.24l1.8,2.019A5.508,5.508,0,0,1-14.663-.4,7.331,7.331,0,0,1-17.786.254Zm-.419-11.286a2.293,2.293,0,0,0-1.771.74,3.83,3.83,0,0,0-.87,2.117h5.1v-.293a2.731,2.731,0,0,0-.66-1.894A2.365,2.365,0,0,0-18.205-11.032Zm15.869.736a9.968,9.968,0,0,0-1.32-.1A2.687,2.687,0,0,0-6.386-8.988V0h-3.669V-13.736h3.466l.1,1.638a3.4,3.4,0,0,1,3.06-1.892,3.844,3.844,0,0,1,1.143.165ZM9.483-12.238a4.579,4.579,0,0,1,3.669-1.752q4.469,0,4.532,5.192V0H14.016V-8.7a2.552,2.552,0,0,0-.508-1.746,2.177,2.177,0,0,0-1.688-.565A2.5,2.5,0,0,0,9.483-9.763V0H5.814V-19.5H9.483ZM28.412,0a4.074,4.074,0,0,1-.368-1.231A4.439,4.439,0,0,1,24.578.254,4.877,4.877,0,0,1,21.233-.914a3.756,3.756,0,0,1-1.327-2.945,3.882,3.882,0,0,1,1.619-3.352A7.987,7.987,0,0,1,26.2-8.392h1.688v-.787A2.264,2.264,0,0,0,27.4-10.7a1.923,1.923,0,0,0-1.542-.571,2.186,2.186,0,0,0-1.454.444A1.509,1.509,0,0,0,23.88-9.61H20.211a3.685,3.685,0,0,1,.736-2.209,4.867,4.867,0,0,1,2.082-1.593,7.588,7.588,0,0,1,3.021-.578,6,6,0,0,1,4.031,1.276,4.463,4.463,0,0,1,1.492,3.586v5.954a6.567,6.567,0,0,0,.546,2.958V0ZM25.378-2.552a3.16,3.16,0,0,0,1.5-.362,2.376,2.376,0,0,0,1.016-.971V-6.246H26.521q-2.755,0-2.933,1.9l-.013.216A1.469,1.469,0,0,0,24.058-3,1.874,1.874,0,0,0,25.378-2.552ZM40.1-2.7a2.406,2.406,0,0,0,1.65-.559,1.957,1.957,0,0,0,.66-1.485h3.44a4.706,4.706,0,0,1-.762,2.558,5.026,5.026,0,0,1-2.05,1.8,6.417,6.417,0,0,1-2.875.641,5.963,5.963,0,0,1-4.646-1.873,7.41,7.41,0,0,1-1.7-5.173v-.241A7.325,7.325,0,0,1,35.509-12.1a5.894,5.894,0,0,1,4.634-1.892,5.778,5.778,0,0,1,4.132,1.466,5.192,5.192,0,0,1,1.581,3.9h-3.44a2.521,2.521,0,0,0-.66-1.742,2.2,2.2,0,0,0-1.676-.67,2.21,2.21,0,0,0-1.936.934,5.416,5.416,0,0,0-.654,3.032v.381a5.485,5.485,0,0,0,.647,3.052A2.237,2.237,0,0,0,40.1-2.7ZM54.272.254A6.743,6.743,0,0,1,49.353-1.6a6.588,6.588,0,0,1-1.9-4.938v-.355a8.3,8.3,0,0,1,.8-3.7,5.87,5.87,0,0,1,2.266-2.514,6.36,6.36,0,0,1,3.345-.882A5.7,5.7,0,0,1,58.3-12.213a7.222,7.222,0,0,1,1.619,5.04v1.5H51.175a3.408,3.408,0,0,0,1.073,2.158,3.243,3.243,0,0,0,2.266.813A3.96,3.96,0,0,0,57.827-4.24l1.8,2.019A5.508,5.508,0,0,1,57.4-.4,7.331,7.331,0,0,1,54.272.254Zm-.419-11.286a2.293,2.293,0,0,0-1.771.74,3.83,3.83,0,0,0-.87,2.117h5.1v-.293a2.731,2.731,0,0,0-.66-1.894A2.365,2.365,0,0,0,53.854-11.032Zm15.869.736a9.968,9.968,0,0,0-1.32-.1,2.687,2.687,0,0,0-2.729,1.409V0H62V-13.736H65.47l.1,1.638a3.4,3.4,0,0,1,3.06-1.892,3.844,3.844,0,0,1,1.143.165Z" transform="translate(974 8219)" fill="#12263f"/>
    <g id="Group_154237" data-name="Group 154237" transform="translate(781.337 7793.15)">
      <g id="Group_154235" data-name="Group 154235" transform="translate(0)">
        <g id="Group_18423" data-name="Group 18423" transform="translate(0 0)">
          <g id="Group_18421" data-name="Group 18421">
            <g id="Group_18420" data-name="Group 18420">
              <g id="Group_18419" data-name="Group 18419">
                <path id="Path_40936" data-name="Path 40936" d="M255.879,2176.348a30.628,30.628,0,1,1-30.628-30.627A30.627,30.627,0,0,1,255.879,2176.348Z" transform="translate(-194.623 -2145.721)" fill="#fff"/>
              </g>
            </g>
          </g>
          <path id="Path_40937" data-name="Path 40937" d="M255.951,2176.427a30.627,30.627,0,1,0-30.628,30.628A30.506,30.506,0,0,0,255.951,2176.427Z" transform="translate(-194.694 -2145.799)" fill="url(#radial-gradient)"/>
          <path id="Path_40938" data-name="Path 40938" d="M249.448,2177.181a23.378,23.378,0,1,0-23.378,23.378A23.291,23.291,0,0,0,249.448,2177.181Z" transform="translate(-195.349 -2146.452)" fill="none" stroke="#00223d" stroke-miterlimit="10" stroke-width="4"/>
          <g id="Group_18422" data-name="Group 18422" transform="translate(5.426 17.195)">
            <path id="Path_40939" data-name="Path 40939" d="M253.278,2164.488a30.632,30.632,0,0,1-52.733,30.5,30.534,30.534,0,0,0,52.733-30.5Z" transform="translate(-200.545 -2164.488)" fill="#eceef0"/>
          </g>
        </g>
      </g>
      <g id="Group_154236" data-name="Group 154236" transform="translate(20.406 20.055)">
        <rect id="Rectangle_45449" data-name="Rectangle 45449" width="5" height="21" transform="translate(8.257 -0.205)" fill="#12263f"/>
        <rect id="Rectangle_45450" data-name="Rectangle 45450" width="5" height="21" transform="translate(0.257 12.795) rotate(-90)" fill="#12263f"/>
      </g>
    </g>
    <g id="Group_154238" data-name="Group 154238" transform="translate(1071.244 8137.12)">
      <g id="Group_154235-2" data-name="Group 154235" transform="translate(0)">
        <g id="Group_18423-2" data-name="Group 18423" transform="translate(0 0)">
          <g id="Group_18421-2" data-name="Group 18421">
            <g id="Group_18420-2" data-name="Group 18420">
              <g id="Group_18419-2" data-name="Group 18419">
                <path id="Path_40936-2" data-name="Path 40936" d="M255.879,2176.348a30.628,30.628,0,1,1-30.628-30.627A30.627,30.627,0,0,1,255.879,2176.348Z" transform="translate(-194.623 -2145.721)" fill="#fff"/>
              </g>
            </g>
          </g>
          <path id="Path_40937-2" data-name="Path 40937" d="M255.951,2176.427a30.627,30.627,0,1,0-30.628,30.628A30.506,30.506,0,0,0,255.951,2176.427Z" transform="translate(-194.694 -2145.799)" fill="url(#radial-gradient)"/>
          <path id="Path_40938-2" data-name="Path 40938" d="M249.448,2177.181a23.378,23.378,0,1,0-23.378,23.378A23.291,23.291,0,0,0,249.448,2177.181Z" transform="translate(-195.349 -2146.452)" fill="none" stroke="#00223d" stroke-miterlimit="10" stroke-width="4"/>
          <g id="Group_18422-2" data-name="Group 18422" transform="translate(5.426 17.195)">
            <path id="Path_40939-2" data-name="Path 40939" d="M253.278,2164.488a30.632,30.632,0,0,1-52.733,30.5,30.534,30.534,0,0,0,52.733-30.5Z" transform="translate(-200.545 -2164.488)" fill="#eceef0"/>
          </g>
        </g>
      </g>
      <g id="Group_154236-2" data-name="Group 154236" transform="translate(20.406 20.055)">
        <rect id="Rectangle_45449-2" data-name="Rectangle 45449" width="5.229" height="20.914" transform="translate(7.843 0)" fill="#12263f"/>
        <rect id="Rectangle_45450-2" data-name="Rectangle 45450" width="5.229" height="20.914" transform="translate(0 13.071) rotate(-90)" fill="#12263f"/>
      </g>
    </g>
    <g id="Group_154239" data-name="Group 154239" transform="translate(467.5 8137.12)">
      <g id="Group_154235-3" data-name="Group 154235" transform="translate(0)">
        <g id="Group_18423-3" data-name="Group 18423" transform="translate(0 0)">
          <g id="Group_18421-3" data-name="Group 18421">
            <g id="Group_18420-3" data-name="Group 18420">
              <g id="Group_18419-3" data-name="Group 18419">
                <path id="Path_40936-3" data-name="Path 40936" d="M255.879,2176.348a30.628,30.628,0,1,1-30.628-30.627A30.627,30.627,0,0,1,255.879,2176.348Z" transform="translate(-194.623 -2145.721)" fill="#fff"/>
              </g>
            </g>
          </g>
          <path id="Path_40937-3" data-name="Path 40937" d="M255.951,2176.427a30.627,30.627,0,1,0-30.628,30.628A30.506,30.506,0,0,0,255.951,2176.427Z" transform="translate(-194.694 -2145.799)" fill="url(#radial-gradient)"/>
          <path id="Path_40938-3" data-name="Path 40938" d="M249.448,2177.181a23.378,23.378,0,1,0-23.378,23.378A23.291,23.291,0,0,0,249.448,2177.181Z" transform="translate(-195.349 -2146.452)" fill="none" stroke="#00223d" stroke-miterlimit="10" stroke-width="4"/>
          <g id="Group_18422-3" data-name="Group 18422" transform="translate(5.426 17.195)">
            <path id="Path_40939-3" data-name="Path 40939" d="M253.278,2164.488a30.632,30.632,0,0,1-52.733,30.5,30.534,30.534,0,0,0,52.733-30.5Z" transform="translate(-200.545 -2164.488)" fill="#eceef0"/>
          </g>
        </g>
      </g>
      <g id="Group_154236-3" data-name="Group 154236" transform="translate(20.406 20.055)">
        <rect id="Rectangle_45449-3" data-name="Rectangle 45449" width="5.229" height="20.914" transform="translate(7.843 0)" fill="#12263f"/>
        <rect id="Rectangle_45450-3" data-name="Rectangle 45450" width="5.229" height="20.914" transform="translate(0 13.071) rotate(-90)" fill="#12263f"/>
      </g>
    </g>
    <g id="Path_194621" data-name="Path 194621" transform="translate(325 7766)" fill="none">
      <path d="M493,0C765.276,0,986,154.014,986,344S765.276,688,493,688,0,533.986,0,344,220.724,0,493,0Z" stroke="none"/>
      <path d="M 493 4 C 476.2773742675781 4 459.4133911132812 4.5941162109375 442.8764038085938 5.7659912109375 C 426.5805053710938 6.9207763671875 410.2062377929688 8.66448974609375 394.208740234375 10.94873046875 C 362.7463989257812 15.44097900390625 331.8017578125 22.14337158203125 302.234375 30.86962890625 C 273.2178955078125 39.4332275390625 245.235595703125 50.0308837890625 219.0646362304688 62.36785888671875 C 193.162353515625 74.5782470703125 168.8104858398438 88.59735107421875 146.6852416992188 104.03564453125 C 124.5859985351562 119.4558715820312 104.5286254882812 136.417236328125 87.07037353515625 154.44873046875 C 69.472900390625 172.6240234375 54.36376953125 192.0453796386719 42.16302490234375 212.1731262207031 C 36.0062255859375 222.3299865722656 30.50689697265625 232.8138732910156 25.8177490234375 243.33349609375 C 21.079345703125 253.9635009765625 17.05438232421875 264.885986328125 13.8543701171875 275.7976379394531 C 10.6142578125 286.8458862304688 8.14111328125 298.1527404785156 6.50360107421875 309.4041137695312 C 4.84234619140625 320.8183898925781 4 332.4581298828125 4 344 C 4 355.5418701171875 4.84234619140625 367.1816101074219 6.50360107421875 378.5958862304688 C 8.14111328125 389.8472595214844 10.6142578125 401.1541137695312 13.8543701171875 412.2023620605469 C 17.05438232421875 423.114013671875 21.079345703125 434.0364990234375 25.8177490234375 444.66650390625 C 30.50689697265625 455.1861267089844 36.0062255859375 465.6699829101562 42.16302490234375 475.8268737792969 C 54.36376953125 495.9546203613281 69.472900390625 515.3759765625 87.07037353515625 533.55126953125 C 104.5286254882812 551.582763671875 124.5859985351562 568.5441284179688 146.6852416992188 583.96435546875 C 168.8104858398438 599.4026489257812 193.162353515625 613.4217529296875 219.0646362304688 625.6321411132812 C 245.235595703125 637.9691162109375 273.2178955078125 648.5667724609375 302.234375 657.13037109375 C 331.8017578125 665.8566284179688 362.7463989257812 672.5590209960938 394.208740234375 677.05126953125 C 410.2062377929688 679.3355102539062 426.5805053710938 681.0792236328125 442.8764038085938 682.2340087890625 C 459.4133911132812 683.4058837890625 476.2773742675781 684 493 684 C 509.7226257324219 684 526.586669921875 683.4058837890625 543.1236572265625 682.2340087890625 C 559.4194946289062 681.0792236328125 575.7937622070312 679.3355102539062 591.791259765625 677.05126953125 C 623.253662109375 672.5590209960938 654.1982421875 665.8566284179688 683.765625 657.13037109375 C 712.7821044921875 648.5667724609375 740.764404296875 637.9691162109375 766.9353637695312 625.6321411132812 C 792.837646484375 613.4217529296875 817.1895141601562 599.4026489257812 839.3147583007812 583.96435546875 C 861.4140014648438 568.5441284179688 881.4713745117188 551.582763671875 898.9296264648438 533.55126953125 C 916.527099609375 515.3759765625 931.63623046875 495.9546203613281 943.8369750976562 475.8268737792969 C 949.9937744140625 465.6699829101562 955.4931030273438 455.1861267089844 960.1822509765625 444.66650390625 C 964.920654296875 434.0364990234375 968.9456176757812 423.114013671875 972.1456298828125 412.2023620605469 C 975.3857421875 401.1541137695312 977.85888671875 389.8472595214844 979.4963989257812 378.5958862304688 C 981.1576538085938 367.1816101074219 982 355.5418701171875 982 344 C 982 332.4581298828125 981.1576538085938 320.8183898925781 979.4963989257812 309.4041137695312 C 977.85888671875 298.1527404785156 975.3857421875 286.8458862304688 972.1456298828125 275.7976379394531 C 968.9456176757812 264.885986328125 964.920654296875 253.9635009765625 960.1822509765625 243.33349609375 C 955.4931030273438 232.8138732910156 949.9937744140625 222.3299865722656 943.8369750976562 212.1731262207031 C 931.63623046875 192.0453796386719 916.527099609375 172.6240234375 898.9296264648438 154.44873046875 C 881.4713745117188 136.417236328125 861.4140014648438 119.4558715820312 839.3147583007812 104.03564453125 C 817.1895141601562 88.59735107421875 792.837646484375 74.5782470703125 766.9353637695312 62.36785888671875 C 740.764404296875 50.0308837890625 712.7821044921875 39.4332275390625 683.765625 30.86962890625 C 654.1982421875 22.14337158203125 623.253662109375 15.44097900390625 591.791259765625 10.94873046875 C 575.7937622070312 8.66448974609375 559.4194946289062 6.9207763671875 543.1236572265625 5.7659912109375 C 526.586669921875 4.5941162109375 509.7226257324219 4 493 4 M 493 0 C 765.2763671875 0 986 154.0139770507812 986 344 C 986 533.9859619140625 765.2763671875 688 493 688 C 220.7236328125 688 0 533.9859619140625 0 344 C 0 154.0139770507812 220.7236328125 0 493 0 Z" stroke="none" fill="#afafaf"/>
    </g>
    <g id="Group_154243" data-name="Group 154243" transform="translate(230.673 8008.639)">
      <g id="Group_154235-4" data-name="Group 154235" transform="translate(0 0)">
        <g id="Group_18423-4" data-name="Group 18423" transform="translate(0)">
          <g id="Group_18421-4" data-name="Group 18421">
            <g id="Group_18420-4" data-name="Group 18420">
              <g id="Group_18419-4" data-name="Group 18419">
                <path id="Path_40936-4" data-name="Path 40936" d="M399.346,2248.08a102.361,102.361,0,1,1-102.36-102.358A102.359,102.359,0,0,1,399.346,2248.08Z" transform="translate(-194.623 -2145.721)" fill="#fff"/>
              </g>
            </g>
          </g>
          <path id="Path_40937-4" data-name="Path 40937" d="M397.585,2246.161a102.359,102.359,0,1,0-102.36,102.363A101.955,101.955,0,0,0,397.585,2246.161Z" transform="translate(-192.862 -2143.802)" fill="url(#radial-gradient)"/>
          <path id="Path_40938-4" data-name="Path 40938" d="M357.558,2230.411a78.132,78.132,0,1,0-78.132,78.132A77.842,77.842,0,0,0,357.558,2230.411Z" transform="translate(-176.754 -2127.711)" fill="none" stroke="#afafaf" stroke-miterlimit="10" stroke-width="6"/>
          <g id="Group_18422-4" data-name="Group 18422" transform="translate(18.134 57.468)">
            <path id="Path_40939-4" data-name="Path 40939" d="M376.783,2164.488a102.374,102.374,0,0,1-176.238,101.938,102.634,102.634,0,0,0,10.188,13.636,102.375,102.375,0,0,0,166.051-115.574Z" transform="translate(-200.545 -2164.488)" fill="#eceef0"/>
          </g>
          <g id="Group_154245" data-name="Group 154245" transform="translate(-900.917 75.836)">
            <path id="Path_194588" data-name="Path 194588" d="M986.349-8.431c1.548-.661,2.977-1.336,4.458-1.866a2.107,2.107,0,0,1,1.551.167c7.261,4.087,14.5,4.1,21.778.04a2.262,2.262,0,0,1,1.647-.191c1.482.521,2.906,1.2,4.6,1.932a45.807,45.807,0,0,0-1.125-4.639A16.9,16.9,0,0,0,1002.161-24c-.247.013-.494.048-.74.046a1.632,1.632,0,0,1-1.777-1.45,1.53,1.53,0,0,1,1.447-1.85,29.311,29.311,0,0,1,5.485.119,20.059,20.059,0,0,1,16.722,16,23.01,23.01,0,0,1-.557,9.858c-.7,3.061-1.392,6.125-2.015,9.2a16.466,16.466,0,0,1-6.29,9.986,2.2,2.2,0,0,0-1,2.105c.08,1.161.016,2.331.02,3.5.005,1.529.422,2.024,1.892,2.3q9,1.684,18,3.378a8.464,8.464,0,0,1,7.247,8.709q.014,17.121.01,34.242c0,.91-.148,1.7-1.089,2.09a1.66,1.66,0,0,1-2.285-1.349,7.293,7.293,0,0,1-.025-1.058q0-16.8,0-33.606c0-3.268-1.444-5.1-4.624-5.719-5.057-.983-10.126-1.907-15.19-2.854a4.743,4.743,0,0,0-.538-.027,13.734,13.734,0,0,1-6.474,10.492,13.019,13.019,0,0,1-8.2,1.981A13.742,13.742,0,0,1,989.68,29.576q-2.379.444-4.744.886-5.619,1.056-11.236,2.117a5.028,5.028,0,0,0-4.35,5.29q-.01,16.962,0,33.924a6.732,6.732,0,0,1-.023,1.058,1.637,1.637,0,0,1-1.635,1.512,1.662,1.662,0,0,1-1.717-1.538,8.13,8.13,0,0,1-.017-.953q0-16.856,0-33.712c0-4.9,2.689-8.094,7.524-9q8.95-1.671,17.9-3.367a1.8,1.8,0,0,0,1.72-2.024c.015-1.484.031-2.969-.017-4.452a1.382,1.382,0,0,0-.456-.947A17.719,17.719,0,0,1,985.6,6.941c-.739-4.13-1.9-8.194-2.484-12.342-.814-5.778,1.027-10.87,4.871-15.236a1.7,1.7,0,0,1,2.521-.353,1.717,1.717,0,0,1-.007,2.619,16.249,16.249,0,0,0-4.091,9.126C986.373-8.968,986.366-8.688,986.349-8.431Zm16.924,26.876c.806-.085,1.616-.147,2.418-.26,5.432-.761,10.473-5.209,11.562-10.2q1.061-4.859,2.108-9.721c.506-2.349.3-2.82-1.763-4.106-.388-.241-.817-.418-1.207-.657a1.72,1.72,0,0,0-1.861.024,23.556,23.556,0,0,1-21.708.344,3.363,3.363,0,0,0-3.851.273c-.2.143-.413.272-.612.417-1.123.818-1.989,1.72-1.253,3.272a5.757,5.757,0,0,1,.27,1.237c.673,3.1,1.24,6.233,2.046,9.3C990.949,14.173,996.863,18.388,1003.273,18.446Zm6.792,2.054a18.684,18.684,0,0,1-13.577-.009c0,1.271.028,2.429-.006,3.585a4.879,4.879,0,0,1-2.639,4.409,1.085,1.085,0,0,0-.685,1.3,10.192,10.192,0,0,0,20.238-.028,1.014,1.014,0,0,0-.613-1.239,4.934,4.934,0,0,1-2.714-4.58C1010.054,22.849,1010.065,21.755,1010.065,20.5Z" transform="translate(0 0)" fill="#12263f" stroke="#12263f" stroke-width="2"/>
            <path id="Path_194589" data-name="Path 194589" d="M1017.258,322.99c0,4.312.014,8.624-.018,12.935a2.293,2.293,0,0,1-.426,1.554,2.541,2.541,0,0,1-1.768.529,1.432,1.432,0,0,1-1.171-1.556c-.023-1.13-.01-2.262-.01-3.392q0-11.4,0-22.8c0-.283-.01-.566,0-.848a1.7,1.7,0,0,1,1.693-1.793,1.677,1.677,0,0,1,1.686,1.8c.028,2.226.01,4.453.01,6.679Q1017.258,319.544,1017.258,322.99Z" transform="translate(-37.732 -263.773)" fill="#12263f" stroke="#12263f" stroke-width="2"/>
            <path id="Path_194590" data-name="Path 194590" d="M1253.392,323.218c0-4.347-.011-8.694.015-13.041a1.765,1.765,0,0,1,2.074-2.1,2.366,2.366,0,0,1,1.242,1.471,9.138,9.138,0,0,1,.062,2.424q0,11.928,0,23.855c0,.283.01.566,0,.848a1.711,1.711,0,0,1-1.691,1.8,1.677,1.677,0,0,1-1.687-1.795c-.027-2.332-.01-4.665-.01-7Q1253.392,326.451,1253.392,323.218Z" transform="translate(-226.362 -264.106)" fill="#12263f" stroke="#12263f" stroke-width="2"/>
            <path id="Path_194591" data-name="Path 194591" d="M1097.19-16.84a1.649,1.649,0,0,1-1.66,1.691,1.674,1.674,0,0,1-1.716-1.645,1.751,1.751,0,0,1,1.673-1.72A1.711,1.711,0,0,1,1097.19-16.84Z" transform="translate(-100.696 -6.935)" fill="#12263f" stroke="#12263f" stroke-width="2"/>
          </g>
        </g>
      </g>
    </g>
    <g id="Group_154244" data-name="Group 154244" transform="translate(1194.638 8008.639)">
      <g id="Group_154235-5" data-name="Group 154235" transform="translate(0 0)">
        <g id="Group_18423-5" data-name="Group 18423" transform="translate(0)">
          <g id="Group_18421-5" data-name="Group 18421">
            <g id="Group_18420-5" data-name="Group 18420">
              <g id="Group_18419-5" data-name="Group 18419">
                <path id="Path_40936-5" data-name="Path 40936" d="M399.346,2248.08a102.361,102.361,0,1,1-102.36-102.358A102.359,102.359,0,0,1,399.346,2248.08Z" transform="translate(-194.623 -2145.721)" fill="#fff"/>
              </g>
            </g>
          </g>
          <path id="Path_40937-5" data-name="Path 40937" d="M397.585,2246.161a102.359,102.359,0,1,0-102.36,102.363A101.955,101.955,0,0,0,397.585,2246.161Z" transform="translate(-192.862 -2143.802)" fill="url(#radial-gradient)"/>
          <path id="Path_40938-5" data-name="Path 40938" d="M357.558,2230.411a78.132,78.132,0,1,0-78.132,78.132A77.842,77.842,0,0,0,357.558,2230.411Z" transform="translate(-176.754 -2127.711)" fill="none" stroke="#afafaf" stroke-miterlimit="10" stroke-width="6"/>
          <g id="Group_18422-5" data-name="Group 18422" transform="translate(18.134 57.468)">
            <path id="Path_40939-5" data-name="Path 40939" d="M376.783,2164.488a102.374,102.374,0,0,1-176.238,101.938,102.634,102.634,0,0,0,10.188,13.636,102.375,102.375,0,0,0,166.051-115.574Z" transform="translate(-200.545 -2164.488)" fill="#eceef0"/>
          </g>
        </g>
        <g id="Group_154246" data-name="Group 154246" transform="translate(-1199.169 106.073)">
          <path id="Path_194592" data-name="Path 194592" d="M1337.687,102.667a8.379,8.379,0,0,1-2.186,1.545c-1.632.488-3.05-.911-3.065-2.894-.03-3.671-.009-7.342-.009-11.014,0-.535,0-1.069,0-1.69h-5.261v1.542c0,3.671.013,7.343-.006,11.014-.01,1.935-1.026,3.118-2.613,3.127s-2.634-1.174-2.636-3.1q-.02-12.658,0-25.316c0-1.941,1.016-3.116,2.608-3.126s2.624,1.169,2.641,3.1c.022,2.4.005,4.8.005,7.309h5.217c0-5.072.095-10.1-.043-15.119a4.913,4.913,0,0,0-4.165-4.493c-3.744-.8-7.5-1.524-11.337-2.3-.652,7.771-6.527,10.858-12.408,13.911a2.185,2.185,0,0,1-1.674.1,28.525,28.525,0,0,1-9.425-6.448,10.118,10.118,0,0,1-3.009-7.63c-4.214.891-8.333,1.628-12.373,2.67-2.211.57-3.375,2.613-3.388,5.093-.025,4.6,0,9.206-.014,13.808-.006,1.8-.849,2.908-2.288,3.107a2.584,2.584,0,0,1-2.94-2.594c-.047-5.15-.153-10.307.044-15.45.182-4.763,3.843-8.545,8.772-9.532s9.875-1.96,14.808-2.966a3.791,3.791,0,0,0,2.563-5.26c-.153-.295-.57-.47-.889-.658a18.271,18.271,0,0,1-9.536-16.511c-.033-3.178-.016-6.356,0-9.534.009-2.042,1.039-3.256,2.683-3.218,1.584.037,2.559,1.212,2.569,3.169.017,3.288-.02,6.576.012,9.863a13.148,13.148,0,1,0,26.295-.045c.027-2.511,0-5.023,0-7.739h-4.156c-4.548,0-9.1.009-13.644,0-2.054-.006-3.259-1.025-3.23-2.672.028-1.6,1.188-2.575,3.154-2.579q8.795-.02,17.589,0a5.189,5.189,0,0,1,5.523,5.428c-.053,3.934.109,7.932-.539,11.782a16.342,16.342,0,0,1-8.642,11.8c-1.828,1.009-1.312,2.426-1.253,3.767.063,1.45,1.119,2.136,2.5,2.408,4.723.933,9.426,1.975,14.164,2.824,4.925.882,8.122,3.546,9.372,8.444.023.092.138.159.21.239Zm-36.663-51.011c-.766,5.1-.771,5.1-4.953,8.258a1.479,1.479,0,0,0-.456.919,4.711,4.711,0,0,0,1.376,4.2,23.018,23.018,0,0,0,3.234,2.764c3.911,2.553,2.68,2.555,6.59-.069a16.569,16.569,0,0,0,3.953-3.86c1.3-1.751.8-3.47-.933-4.578a7.434,7.434,0,0,1-3.4-4.642c-.235-.989-.319-2.015-.467-3Z" transform="translate(0 -53.521)" fill="#12263f"/>
          <path id="Path_194593" data-name="Path 194593" d="M1357.911-59.7a76.669,76.669,0,0,1,7.409,1.984,28.7,28.7,0,0,1,18.546,26.447c.082,7.064.052,14.13.01,21.194a8.13,8.13,0,0,1-8.227,8.246,22,22,0,0,1-2.463-.026,2.594,2.594,0,0,1-2.437-2.617,2.587,2.587,0,0,1,2.468-2.587c.87-.075,1.755.017,2.626-.051a2.767,2.767,0,0,0,2.745-2.743c-.034-8.1.447-16.26-.372-24.285-1.375-13.474-14.775-22.608-28.03-19.814-.267.056-.532.131-.8.168-1.749.242-3.006-.484-3.315-1.908a2.641,2.641,0,0,1,2.25-3.238c1.213-.3,2.448-.516,3.673-.769Z" transform="translate(-51.462)" fill="#12263f"/>
          <path id="Path_194594" data-name="Path 194594" d="M1284.448,5.268c.315-5.183.357-10.4,1.056-15.535.373-2.739,1.77-5.37,2.907-7.961.8-1.833,2.279-2.312,3.734-1.568,1.428.73,1.817,2.237.891,3.941a25.807,25.807,0,0,0-3.05,12.95c.082,6.191.016,12.383.022,18.575,0,2.784.98,3.759,3.745,3.776a11.635,11.635,0,0,1,1.805.038,2.479,2.479,0,0,1,2.3,2.559,2.47,2.47,0,0,1-2.24,2.62c-6.235,1.127-10.871-2.73-10.877-9.021q-.005-5.178,0-10.356Z" transform="translate(-10.193 -26.53)" fill="#12263f"/>
          <path id="Path_194595" data-name="Path 194595" d="M1301.3,187.671c0-1.644-.03-3.288.008-4.931a2.63,2.63,0,1,1,5.238-.012q.054,5.013,0,10.027a2.63,2.63,0,1,1-5.238.012C1301.271,191.068,1301.3,189.369,1301.3,187.671Z" transform="translate(-21.486 -160.635)" fill="#12263f"/>
          <path id="Path_194596" data-name="Path 194596" d="M1322.539-41a2.653,2.653,0,0,1-2.685,2.551,2.634,2.634,0,0,1-2.548-2.68,2.637,2.637,0,0,1,2.677-2.554A2.663,2.663,0,0,1,1322.539-41Z" transform="translate(-32.224 -10.741)" fill="#12263f"/>
          <path id="Path_194597" data-name="Path 194597" d="M1370.465,206.452a2.617,2.617,0,1,1-2.61-2.624A2.642,2.642,0,0,1,1370.465,206.452Z" transform="translate(-64.36 -176.701)" fill="#12263f"/>
          <path id="Path_194598" data-name="Path 194598" d="M1367.78,241a2.618,2.618,0,1,1,2.684-2.551A2.649,2.649,0,0,1,1367.78,241Z" transform="translate(-64.358 -198.113)" fill="#12263f"/>
        </g>
      </g>
    </g>
  </g>
</svg>
