<svg xmlns="http://www.w3.org/2000/svg" width="84" height="112.155" viewBox="0 0 84 112.155">
  <g id="Group_154298" data-name="Group 154298" transform="translate(-1109 -3130.001)">
    <path id="Path_194623" data-name="Path 194623" d="M20.27,13.211A4.025,4.025,0,0,1,18.914,16.1a4.76,4.76,0,0,1-3.223,1.055,4.28,4.28,0,0,1-3.441-1.473A6.038,6.038,0,0,1,11,11.641v-.7a6.819,6.819,0,0,1,.578-2.891,4.332,4.332,0,0,1,1.652-1.918,4.629,4.629,0,0,1,2.5-.668,4.637,4.637,0,0,1,3.172,1.055,4.326,4.326,0,0,1,1.391,2.961H17.941a2.376,2.376,0,0,0-.613-1.6,2.271,2.271,0,0,0-1.605-.5,1.991,1.991,0,0,0-1.754.84,4.707,4.707,0,0,0-.6,2.605V11.7a5.038,5.038,0,0,0,.559,2.7,1.954,1.954,0,0,0,1.762.852,2.314,2.314,0,0,0,1.621-.5,2.241,2.241,0,0,0,.613-1.535ZM24.043,17H21.777V8.547h2.266Zm-2.4-10.641a1.112,1.112,0,0,1,.34-.836,1.465,1.465,0,0,1,1.848,0,1.105,1.105,0,0,1,.344.836,1.108,1.108,0,0,1-.348.844,1.448,1.448,0,0,1-1.836,0A1.108,1.108,0,0,1,21.645,6.359Zm9.008,4.3a6.134,6.134,0,0,0-.812-.062,1.654,1.654,0,0,0-1.68.867V17H25.9V8.547h2.133L28.1,9.555A2.092,2.092,0,0,1,29.98,8.391a2.366,2.366,0,0,1,.7.1Zm4.453,4.672a1.481,1.481,0,0,0,1.016-.344,1.2,1.2,0,0,0,.406-.914h2.117a2.9,2.9,0,0,1-.469,1.574,3.093,3.093,0,0,1-1.262,1.109,3.949,3.949,0,0,1-1.77.395A3.67,3.67,0,0,1,32.285,16a4.56,4.56,0,0,1-1.047-3.184v-.148a4.508,4.508,0,0,1,1.039-3.117,3.627,3.627,0,0,1,2.852-1.164,3.555,3.555,0,0,1,2.543.9,3.2,3.2,0,0,1,.973,2.4H36.527a1.551,1.551,0,0,0-.406-1.072,1.51,1.51,0,0,0-2.223.163,3.333,3.333,0,0,0-.4,1.866v.235a3.375,3.375,0,0,0,.4,1.878A1.377,1.377,0,0,0,35.105,15.336Zm9.891.8a2.831,2.831,0,0,1-2.312,1.016,2.67,2.67,0,0,1-2.074-.781,3.335,3.335,0,0,1-.73-2.289V8.547h2.258v5.467q0,1.322,1.2,1.322a1.63,1.63,0,0,0,1.578-.8V8.547h2.266V17H45.059ZM51.27,17H49V5H51.27Zm6.758,0a2.507,2.507,0,0,1-.227-.758,2.732,2.732,0,0,1-2.133.914,3,3,0,0,1-2.059-.719,2.312,2.312,0,0,1-.816-1.812,2.389,2.389,0,0,1,1-2.062,4.915,4.915,0,0,1,2.879-.727h1.039v-.484a1.393,1.393,0,0,0-.3-.937,1.183,1.183,0,0,0-.949-.352,1.345,1.345,0,0,0-.895.273.929.929,0,0,0-.324.75H52.98a2.268,2.268,0,0,1,.453-1.359,3,3,0,0,1,1.281-.98,4.669,4.669,0,0,1,1.859-.355,3.689,3.689,0,0,1,2.48.785,2.747,2.747,0,0,1,.918,2.207v3.664a4.041,4.041,0,0,0,.336,1.82V17ZM56.16,15.43a1.945,1.945,0,0,0,.922-.223,1.462,1.462,0,0,0,.625-.6V13.156h-.844q-1.7,0-1.8,1.172l-.008.133a.9.9,0,0,0,.3.7A1.153,1.153,0,0,0,56.16,15.43Zm10.3-4.766a6.134,6.134,0,0,0-.812-.062,1.654,1.654,0,0,0-1.68.867V17H61.707V8.547H63.84L63.9,9.555a2.092,2.092,0,0,1,1.883-1.164,2.366,2.366,0,0,1,.7.1Z" transform="translate(1112 3225)" fill="#12263f"/>
    <g id="Group_152128" data-name="Group 152128" transform="translate(1109.467 3130.367)">
      <ellipse id="Ellipse_4775" data-name="Ellipse 4775" cx="42" cy="41.5" rx="42" ry="41.5" transform="translate(-0.467 -0.366)" fill="#baa1e1"/>
      <g id="Group_152133" data-name="Group 152133" transform="translate(114.912 64.521)">
        <path id="Path_193807" data-name="Path 193807" d="M-59.486,368.257-76.8,375.981l1.7-6.383A24.491,24.491,0,0,1-90.5,358.988a23.932,23.932,0,0,1-3.663-9.441l8.684-1.744a15.9,15.9,0,0,0,6.227,10.332,15.637,15.637,0,0,0,6.447,2.858l1.954-7.281Z" transform="translate(-3.796 -369.947)" fill="#fff"/>
        <path id="Path_193808" data-name="Path 193808" d="M-85.352-35.245l5.36,5.344-18.249,2.586,1.971-18.847,4.646,4.674a24.5,24.5,0,0,1,15.841-7.967A24.576,24.576,0,0,1-64.7-48.028l-2.839,8.382C-74.392-41.887-80.29-40.432-85.352-35.245Z" transform="translate(0 0)" fill="#fff"/>
        <path id="Path_193809" data-name="Path 193809" d="M386.231,23.08l15.345,11.143-6.37,1.723a24.665,24.665,0,0,1-7.829,26.539l-5.849-6.662a15.827,15.827,0,0,0,5.754-9.972,15.436,15.436,0,0,0-.69-7.606l-7.266,1.949Z" transform="translate(-444.587 -67.648)" fill="#fff"/>
      </g>
    </g>
  </g>
</svg>
