<svg xmlns="http://www.w3.org/2000/svg" width="100.961" height="91.9" viewBox="0 0 100.961 91.9">
  <g id="Group_154282" data-name="Group 154282" transform="translate(-866 -8743.435)">
    <g id="Group_89327" data-name="Group 89327" transform="translate(0 5684.535)">
      <g id="fid3r8" transform="translate(875.061 3058.899)">
        <g id="Group_89211" data-name="Group 89211">
          <path id="Path_122301" data-name="Path 122301" d="M3317.92,1956.574a13.178,13.178,0,0,0,12.439-11.011,57.335,57.335,0,0,0,.207-6.838.942.942,0,0,0-.485-.655,4.26,4.26,0,0,1,.083-7.749.97.97,0,0,0,.419-.692,5.936,5.936,0,0,1,11.857.586c.012,4.354.022,8.707,0,13.06a28.141,28.141,0,0,1-23.151,27.739c-2.11.389-4.286.421-6.513.625l-.553,2.737c.409.038.777.043,1.133.112a3.015,3.015,0,0,1,2.414,3.167q.01,8.661,0,17.322c0,1.081.016,2.162-.006,3.242a5.88,5.88,0,0,1-5.849,5.848q-13.381.045-26.762,0a5.86,5.86,0,0,1-5.9-5.89c-.028-6.885-.016-13.771,0-20.656a2.948,2.948,0,0,1,3-3.086l.538-.035c-.1-.523-.193-.994-.286-1.465-.089-.452-.18-.9-.276-1.382-1.5-.082-2.967-.123-4.43-.25a28.148,28.148,0,0,1-24.646-22.461,38.566,38.566,0,0,1-.551-6.07c-.081-4.321-.053-8.645-.009-12.967a5.865,5.865,0,0,1,4.928-5.668,5.638,5.638,0,0,1,6.359,3.489,8.585,8.585,0,0,0,2.417,3.885c1.976,1.786,1.3,5.018-1.087,6.363a1.266,1.266,0,0,0-.793,1.353,55.5,55.5,0,0,0,.422,7.09,13.113,13.113,0,0,0,11.97,10.288.685.685,0,0,0,.2-.03,15.56,15.56,0,0,1-.685-2.473,5.123,5.123,0,0,1,1.8-4.366c1.528-1.484,1.521-2.434.058-3.909-2.536-2.557-2.561-5.4-.031-7.95a3.633,3.633,0,0,0,1.109-2.734c-.014-2.958-.135-5.917.685-8.824a19.221,19.221,0,0,1,37.453,1.668,44.062,44.062,0,0,1,.352,6.916,4.169,4.169,0,0,0,1.273,3.137,5.043,5.043,0,0,1-.013,7.618l-.262.262c-1.31,1.325-1.3,2.323-.033,3.66a9.427,9.427,0,0,1,1.472,1.881C3319.015,1952.977,3318.907,1954.247,3317.92,1956.574Zm-25.9-35.455c.459,3.87,2.74,5.891,6.578,5.893,1.265,0,2.531-.012,3.8,0a7.4,7.4,0,0,1,7.443,7.393c.027,2.037.018,4.074,0,6.111a13.024,13.024,0,0,1-1.254,5.456,13.653,13.653,0,0,1-5.386,5.916,6.93,6.93,0,0,0,5.208,4.547c1.232.219,2.521.1,3.773.231a2.831,2.831,0,0,0,2.565-1.058c1.343-1.46,1.392-2.407.014-3.8-2.619-2.645-2.626-5.459-.018-8.085,1.391-1.4,1.406-2.385,0-3.781a6.381,6.381,0,0,1-1.948-4.734,49.41,49.41,0,0,0-.165-5.822,16.211,16.211,0,0,0-14.707-14.185,16.385,16.385,0,0,0-16.84,10.975,22.1,22.1,0,0,0-.854,8.232,7.174,7.174,0,0,1-2.3,5.9,2,2,0,0,0-.021,3.041c.312.341.66.651.967,1a5.022,5.022,0,0,1,0,6.821c-.286.323-.6.62-.9.929a1.873,1.873,0,0,0-.533,2.345c.575.974,1.176,2.09,2.506,2.189a30.882,30.882,0,0,0,3.423,0c2.89-.108,5.808-2.274,6.427-4.761l-.37-.246a12.673,12.673,0,0,1-6.1-9.673c-.27-2.94-.137-5.918-.149-8.879a7.427,7.427,0,0,1,5.223-7.57c.505-.19,1-.4,1.5-.6-.218-.688-.445-1.265-.576-1.863-.134-.614-.174-1.248-.262-1.924Zm20.716,74.032v-17.7h-32.473v17.7Zm-32.438-26.664,1.5-3.63,2.752,1.4c-1.817,2.652-1.558,5.37-.6,8.185h7.033c5.772,0,11.544.005,17.316-.015.311,0,.846-.153.9-.34.6-2.157,1.062-4.333,0-6.5-.216-.439-.416-.885-.65-1.385l2.69-1.34,1.484,3.636a24.827,24.827,0,0,0,8.394-.983l-1.765-7.9c-2.292,0-4.419.039-6.543-.011-2.109-.049-4.217-.188-6.414-.292a10.044,10.044,0,0,1-2.846,6.229,9.708,9.708,0,0,1-6.506,2.944,9.489,9.489,0,0,1-5.884-1.58,10.041,10.041,0,0,1-4.557-7.812c-4.317.955-8.576.357-12.927.505l-1.76,7.92A24.765,24.765,0,0,0,3280.3,1968.487Zm5.84-31.8-.076,0c.078,1.785.015,3.591.263,5.352a10.3,10.3,0,0,0,20.346.007,62.5,62.5,0,0,0,.2-7.576,4.4,4.4,0,0,0-4.528-4.5c-1.512-.017-3.024.011-4.536-.013a6.538,6.538,0,0,1-4.424-1.366c-1.365-1.261-2.571-1-3.949-.314-.165.082-.347.129-.515.2a4.379,4.379,0,0,0-2.768,4.125C3286.11,1933.973,3286.142,1935.332,3286.142,1936.69Zm-26.672-3.746c0-.95,0-1.779,0-2.608-.007-1.974-1.2-3.323-2.945-3.323a3.014,3.014,0,0,0-2.98,3.3c0,4.352-.031,8.705.005,13.057a24.767,24.767,0,0,0,7.174,17.531,24.209,24.209,0,0,0,8.357,5.666l1.69-7.62c-.118-.122-.136-.154-.162-.165-.141-.061-.284-.118-.427-.175-5.611-2.226-9.228-6.239-10.333-12.188-.467-2.517-.183-5.166-.413-7.739-.146-1.631.242-2.723,1.913-3.154.145-.037.341-.1.4-.216.238-.459.673-1,.573-1.4s-.71-.776-1.175-.933A5.774,5.774,0,0,0,3259.469,1932.945Zm64.466,33.6c.251-.084.372-.111.481-.164,9.287-4.476,14.425-11.838,15.007-22.144.267-4.708.063-9.443.049-14.166a2.961,2.961,0,1,0-5.917.051c-.011.917,0,1.833,0,2.824-.619,0-1.138-.01-1.656,0-.672.016-1.221.378-1.23,1.009a2.078,2.078,0,0,0,.674,1.36,4.964,4.964,0,0,0,1.549.8,1.01,1.01,0,0,1,.678,1.135c-.035,2.1.027,4.2-.025,6.3a16.074,16.074,0,0,1-5.264,11.737,16.743,16.743,0,0,1-6.053,3.563Zm-43.671,31.647a2.883,2.883,0,0,0,3.15,2.923q9.445.011,18.89,0c2.5,0,5,.018,7.5-.008a2.846,2.846,0,0,0,2.939-2.918Zm19.855-44.908a31.021,31.021,0,0,1-3.6.375,32.777,32.777,0,0,1-3.716-.386,40.763,40.763,0,0,1-2.681,3.47,1.835,1.835,0,0,0-.589,1.859c.075.32.12.647.177.965h13.621a9.057,9.057,0,0,0,.184-1.232,1.931,1.931,0,0,0-.17-1.112C3302.323,1955.9,3301.232,1954.627,3300.12,1953.281Zm1.916,9.384h-11.049A6.778,6.778,0,0,0,3302.036,1962.665Z" transform="translate(-3250.552 -1912.189)" fill="#fff"/>
          <path id="Path_122302" data-name="Path 122302" d="M3629.509,2315.71c-2.756,0-5.513,0-8.269,0a2.9,2.9,0,0,1-3.192-3.168q-.01-6.921,0-13.843a2.893,2.893,0,0,1,3.143-3.125q8.358-.009,16.717,0a2.883,2.883,0,0,1,3.148,3.121q.013,6.966,0,13.933a2.876,2.876,0,0,1-3.1,3.081C3635.142,2315.718,3632.325,2315.71,3629.509,2315.71Zm-8.536-11.469v2.781h17.144v-2.781Zm17.189,5.789h-17.178v2.736h17.178Zm-.019-11.521H3632.5v2.768h5.641Zm-14.4,2.771v-2.766h-2.772v2.766Zm3-2.8v2.8h2.759v-2.8Z" transform="translate(-3549.169 -2223.819)" fill="#fff"/>
          <path id="Path_122303" data-name="Path 122303" d="M3256.355,2314.429c.417-2.069,1.386-2.879,3.361-2.88q5.344,0,10.688,0a2.923,2.923,0,0,1,3.267,3.272c0,2.216.014,4.432,0,6.648a7.2,7.2,0,0,1-7.331,7.341c-.868.008-1.737.015-2.6,0a7.183,7.183,0,0,1-6.631-4.142,1.79,1.79,0,0,0-.953-.74c-.674-.229-1.4-.29-2.094-.481a4.585,4.585,0,0,1,1.092-9.014C3255.533,2314.419,3255.921,2314.429,3256.355,2314.429Zm2.97.019c0,2.637-.122,5.213.038,7.771a4.155,4.155,0,0,0,4.183,3.709c.958.023,1.918.018,2.876,0a4.3,4.3,0,0,0,4.368-4.4c.02-2.157.006-4.315,0-6.473a5.059,5.059,0,0,0-.073-.607Zm-2.947,2.926c-1.809-.2-2.759.339-2.836,1.549-.078,1.231.934,1.943,2.836,1.972Z" transform="translate(-3250.633 -2236.921)" fill="#fff"/>
          <path id="Path_122304" data-name="Path 122304" d="M3298.7,2247.867h2.863a6.672,6.672,0,0,0,1.538,4.025,7.73,7.73,0,0,1,1.318,4.517h-2.86a6.534,6.534,0,0,0-1.491-3.938A7.788,7.788,0,0,1,3298.7,2247.867Z" transform="translate(-3290.029 -2185.385)" fill="#fff"/>
          <path id="Path_122305" data-name="Path 122305" d="M3330.648,2247.869h2.863a6.67,6.67,0,0,0,1.538,4.026,7.724,7.724,0,0,1,1.317,4.516h-2.86a6.53,6.53,0,0,0-1.491-3.939A7.784,7.784,0,0,1,3330.648,2247.869Z" transform="translate(-3315.758 -2185.387)" fill="#fff"/>
          <path id="Path_122306" data-name="Path 122306" d="M3482.948,2283.944a4.312,4.312,0,1,1-4.256-4.323A4.332,4.332,0,0,1,3482.948,2283.944Zm-2.881,0a1.431,1.431,0,1,0-1.441,1.421A1.446,1.446,0,0,0,3480.067,2283.943Z" transform="translate(-3432.678 -2211.227)" fill="#fff"/>
          <path id="Path_122307" data-name="Path 122307" d="M3472.628,2056.321a7.315,7.315,0,0,1-7.088,8.567c-3.744.029-7.794-3.084-7.186-8.567Zm-11.1,2.839A4.187,4.187,0,0,0,3465.9,2062a3.894,3.894,0,0,0,3.482-2.836Z" transform="translate(-3419.534 -2029.493)" fill="#fff"/>
          <path id="Path_122308" data-name="Path 122308" d="M3461.237,2025.477a1.431,1.431,0,1,1-1.441-1.421A1.448,1.448,0,0,1,3461.237,2025.477Z" transform="translate(-3419.781 -2003.278)" fill="#fff"/>
          <path id="Path_122309" data-name="Path 122309" d="M3525.126,2025.456a1.431,1.431,0,1,1-1.461-1.4A1.449,1.449,0,0,1,3525.126,2025.456Z" transform="translate(-3471.805 -2003.276)" fill="#fff"/>
        </g>
      </g>
    </g>
    <path id="Polygon_45" data-name="Polygon 45" d="M12.5,0,25,19H0Z" transform="translate(885 8787.995) rotate(90)" fill="#3cafff"/>
  </g>
</svg>
