<svg xmlns="http://www.w3.org/2000/svg" xmlns:xlink="http://www.w3.org/1999/xlink" width="240.734" height="240.734" viewBox="0 0 240.734 240.734">
  <defs>
    <linearGradient id="linear-gradient" x1="0.5" x2="0.5" y2="1" gradientUnits="objectBoundingBox">
      <stop offset="0" stop-color="#f5f5f5"/>
      <stop offset="0.25" stop-color="#f5f5f5"/>
      <stop offset="1" stop-color="#a7b3cf"/>
    </linearGradient>
    <linearGradient id="linear-gradient-2" x1="0.317" y1="0.753" x2="0.831" y2="1.256" gradientUnits="objectBoundingBox">
      <stop offset="0" stop-color="#fff"/>
      <stop offset="0.231" stop-color="#f7f7f6"/>
      <stop offset="0.589" stop-color="#e1e1e1"/>
      <stop offset="1" stop-color="#c1c1c0"/>
    </linearGradient>
    <linearGradient id="linear-gradient-3" x1="0.495" y1="0.947" x2="0.182" y2="0.545" gradientUnits="objectBoundingBox">
      <stop offset="0" stop-color="#fff"/>
      <stop offset="0.38" stop-color="#f7f7f7"/>
      <stop offset="0.968" stop-color="#e1e2e4"/>
      <stop offset="0.994" stop-color="#e0e1e3"/>
    </linearGradient>
  </defs>
  <g id="Group_154284" data-name="Group 154284" transform="translate(-883.17 -1990.552)">
    <circle id="Ellipse_5011" data-name="Ellipse 5011" cx="85.113" cy="85.113" r="85.113" transform="translate(883.17 2110.919) rotate(-45)" fill="url(#linear-gradient)"/>
    <path id="Path_188207" data-name="Path 188207" d="M1709.275,749.478l-10.083,10.037-7.237,7.2a2.864,2.864,0,0,1-4.885-2.03V754.124a85.113,85.113,0,0,1-85.112-85.113q0-3.365.258-6.666a85.119,85.119,0,0,0,84.854,78.446V730.207a2.864,2.864,0,0,1,4.885-2.03l7.237,7.2,10.083,10.037A2.864,2.864,0,0,1,1709.275,749.478Z" transform="translate(-683.533 1454.312)" fill="#b0c0d2"/>
    <g id="Group_149834" data-name="Group 149834" transform="translate(936.651 2043.506)" opacity="0.6" style="mix-blend-mode: multiply;isolation: isolate">
      <path id="Path_187959" data-name="Path 187959" d="M1776.493,720.613a67.261,67.261,0,1,1,67.26-67.262A67.338,67.338,0,0,1,1776.493,720.613Z" transform="translate(-1677.598 -548.382)" fill="#fff" opacity="0"/>
      <path id="Path_187960" data-name="Path 187960" d="M1775.819,719.809a67.261,67.261,0,1,1,67.26-67.262A67.337,67.337,0,0,1,1775.819,719.809Z" transform="translate(-1677.237 -547.951)" fill="#f9f9f9" opacity="0.01"/>
      <path id="Path_187961" data-name="Path 187961" d="M1775.145,719.006a67.261,67.261,0,1,1,67.26-67.262A67.338,67.338,0,0,1,1775.145,719.006Z" transform="translate(-1676.876 -547.522)" fill="#f4f3f3" opacity="0.02"/>
      <path id="Path_187962" data-name="Path 187962" d="M1774.471,718.2a67.261,67.261,0,1,1,67.26-67.262A67.338,67.338,0,0,1,1774.471,718.2Z" transform="translate(-1676.516 -547.092)" fill="#f0efef" opacity="0.03"/>
      <path id="Path_187963" data-name="Path 187963" d="M1773.8,717.4a67.261,67.261,0,1,1,67.26-67.262A67.337,67.337,0,0,1,1773.8,717.4Z" transform="translate(-1676.156 -546.662)" fill="#ecebeb" opacity="0.04"/>
      <path id="Path_187964" data-name="Path 187964" d="M1773.123,716.6a67.261,67.261,0,1,1,67.26-67.262A67.338,67.338,0,0,1,1773.123,716.6Z" transform="translate(-1675.795 -546.232)" fill="#e9e7e7" opacity="0.05"/>
      <path id="Path_187965" data-name="Path 187965" d="M1772.449,715.793a67.261,67.261,0,1,1,67.26-67.262A67.338,67.338,0,0,1,1772.449,715.793Z" transform="translate(-1675.434 -545.802)" fill="#e6e4e4" opacity="0.059"/>
      <path id="Path_187966" data-name="Path 187966" d="M1771.776,714.99a67.261,67.261,0,1,1,67.26-67.262A67.338,67.338,0,0,1,1771.776,714.99Z" transform="translate(-1675.073 -545.372)" fill="#e3e1e1" opacity="0.069"/>
      <path id="Path_187967" data-name="Path 187967" d="M1771.1,714.186a67.261,67.261,0,1,1,67.26-67.262A67.338,67.338,0,0,1,1771.1,714.186Z" transform="translate(-1674.713 -544.942)" fill="#e0dedd" opacity="0.079"/>
      <path id="Path_187968" data-name="Path 187968" d="M1770.428,713.383a67.261,67.261,0,1,1,67.26-67.262A67.337,67.337,0,0,1,1770.428,713.383Z" transform="translate(-1674.352 -544.512)" fill="#dddbdb" opacity="0.089"/>
      <path id="Path_187969" data-name="Path 187969" d="M1769.754,712.58a67.261,67.261,0,1,1,67.26-67.262A67.338,67.338,0,0,1,1769.754,712.58Z" transform="translate(-1673.992 -544.082)" fill="#dad8d8" opacity="0.099"/>
      <path id="Path_187970" data-name="Path 187970" d="M1769.08,711.777a67.261,67.261,0,1,1,67.26-67.262A67.337,67.337,0,0,1,1769.08,711.777Z" transform="translate(-1673.631 -543.653)" fill="#d8d5d5" opacity="0.109"/>
      <path id="Path_187971" data-name="Path 187971" d="M1768.406,710.973a67.261,67.261,0,1,1,67.26-67.262A67.338,67.338,0,0,1,1768.406,710.973Z" transform="translate(-1673.27 -543.222)" fill="#d5d2d2" opacity="0.119"/>
      <path id="Path_187972" data-name="Path 187972" d="M1767.732,710.17a67.261,67.261,0,1,1,67.26-67.262A67.338,67.338,0,0,1,1767.732,710.17Z" transform="translate(-1672.909 -542.793)" fill="#d2d0cf" opacity="0.129"/>
      <path id="Path_187973" data-name="Path 187973" d="M1767.059,709.367a67.261,67.261,0,1,1,67.26-67.262A67.338,67.338,0,0,1,1767.059,709.367Z" transform="translate(-1672.548 -542.363)" fill="#d0cdcd" opacity="0.139"/>
      <path id="Path_187974" data-name="Path 187974" d="M1766.385,708.563a67.261,67.261,0,1,1,67.26-67.261A67.338,67.338,0,0,1,1766.385,708.563Z" transform="translate(-1672.188 -541.932)" fill="#cdcbca" opacity="0.149"/>
      <path id="Path_187975" data-name="Path 187975" d="M1765.711,707.76a67.261,67.261,0,1,1,67.26-67.262A67.338,67.338,0,0,1,1765.711,707.76Z" transform="translate(-1671.828 -541.503)" fill="#cbc8c8" opacity="0.158"/>
      <path id="Path_187976" data-name="Path 187976" d="M1765.037,706.957A67.261,67.261,0,1,1,1832.3,639.7,67.338,67.338,0,0,1,1765.037,706.957Z" transform="translate(-1671.467 -541.073)" fill="#c8c5c5" opacity="0.168"/>
      <path id="Path_187977" data-name="Path 187977" d="M1764.363,706.154a67.261,67.261,0,1,1,67.26-67.262A67.337,67.337,0,0,1,1764.363,706.154Z" transform="translate(-1671.106 -540.643)" fill="#c6c3c2" opacity="0.178"/>
      <path id="Path_187978" data-name="Path 187978" d="M1763.689,705.35a67.261,67.261,0,1,1,67.26-67.262A67.338,67.338,0,0,1,1763.689,705.35Z" transform="translate(-1670.746 -540.213)" fill="#c3c0c0" opacity="0.188"/>
      <path id="Path_187979" data-name="Path 187979" d="M1763.016,704.547a67.261,67.261,0,1,1,67.26-67.262A67.338,67.338,0,0,1,1763.016,704.547Z" transform="translate(-1670.385 -539.783)" fill="#c1bebe" opacity="0.198"/>
      <path id="Path_187980" data-name="Path 187980" d="M1762.342,703.744a67.261,67.261,0,1,1,67.26-67.262A67.338,67.338,0,0,1,1762.342,703.744Z" transform="translate(-1670.024 -539.353)" fill="#bebbbb" opacity="0.208"/>
      <path id="Path_187981" data-name="Path 187981" d="M1761.668,702.94a67.261,67.261,0,1,1,67.26-67.262A67.337,67.337,0,0,1,1761.668,702.94Z" transform="translate(-1669.664 -538.923)" fill="#bcb9b9" opacity="0.218"/>
      <path id="Path_187982" data-name="Path 187982" d="M1760.994,702.137a67.261,67.261,0,1,1,67.26-67.262A67.338,67.338,0,0,1,1760.994,702.137Z" transform="translate(-1669.303 -538.493)" fill="#bab7b6" opacity="0.228"/>
      <path id="Path_187983" data-name="Path 187983" d="M1760.32,701.334a67.261,67.261,0,1,1,67.26-67.262A67.338,67.338,0,0,1,1760.32,701.334Z" transform="translate(-1668.942 -538.064)" fill="#b8b4b4" opacity="0.238"/>
      <path id="Path_187984" data-name="Path 187984" d="M1759.646,700.53a67.261,67.261,0,1,1,67.26-67.262A67.338,67.338,0,0,1,1759.646,700.53Z" transform="translate(-1668.582 -537.633)" fill="#b5b2b2" opacity="0.248"/>
      <path id="Path_187985" data-name="Path 187985" d="M1758.972,699.727a67.261,67.261,0,1,1,67.26-67.262A67.338,67.338,0,0,1,1758.972,699.727Z" transform="translate(-1668.221 -537.203)" fill="#b3b0af" opacity="0.257"/>
      <path id="Path_187986" data-name="Path 187986" d="M1758.3,698.924a67.261,67.261,0,1,1,67.26-67.262A67.338,67.338,0,0,1,1758.3,698.924Z" transform="translate(-1667.861 -536.774)" fill="#b1adad" opacity="0.267"/>
      <path id="Path_187987" data-name="Path 187987" d="M1757.625,698.121a67.261,67.261,0,1,1,67.26-67.262A67.337,67.337,0,0,1,1757.625,698.121Z" transform="translate(-1667.5 -536.344)" fill="#afabab" opacity="0.277"/>
      <path id="Path_187988" data-name="Path 187988" d="M1756.951,697.317a67.261,67.261,0,1,1,67.26-67.262A67.338,67.338,0,0,1,1756.951,697.317Z" transform="translate(-1667.139 -535.914)" fill="#ada9a9" opacity="0.287"/>
      <path id="Path_187989" data-name="Path 187989" d="M1756.277,696.514a67.261,67.261,0,1,1,67.26-67.262A67.338,67.338,0,0,1,1756.277,696.514Z" transform="translate(-1666.778 -535.484)" fill="#aaa7a6" opacity="0.297"/>
      <path id="Path_187990" data-name="Path 187990" d="M1755.6,695.711a67.261,67.261,0,1,1,67.26-67.262A67.338,67.338,0,0,1,1755.6,695.711Z" transform="translate(-1666.418 -535.054)" fill="#a8a4a4" opacity="0.307"/>
      <path id="Path_187991" data-name="Path 187991" d="M1754.93,694.908a67.261,67.261,0,1,1,67.26-67.262A67.338,67.338,0,0,1,1754.93,694.908Z" transform="translate(-1666.057 -534.624)" fill="#a6a2a2" opacity="0.317"/>
      <path id="Path_187992" data-name="Path 187992" d="M1754.256,694.1a67.261,67.261,0,1,1,67.26-67.262A67.337,67.337,0,0,1,1754.256,694.1Z" transform="translate(-1665.697 -534.194)" fill="#a4a0a0" opacity="0.327"/>
      <path id="Path_187993" data-name="Path 187993" d="M1753.582,693.3a67.261,67.261,0,1,1,67.26-67.262A67.338,67.338,0,0,1,1753.582,693.3Z" transform="translate(-1665.336 -533.764)" fill="#a29e9e" opacity="0.337"/>
      <path id="Path_187994" data-name="Path 187994" d="M1752.908,692.5a67.261,67.261,0,1,1,67.26-67.262A67.338,67.338,0,0,1,1752.908,692.5Z" transform="translate(-1664.975 -533.334)" fill="#a09c9c" opacity="0.347"/>
      <path id="Path_187995" data-name="Path 187995" d="M1752.234,691.694a67.261,67.261,0,1,1,67.26-67.262A67.338,67.338,0,0,1,1752.234,691.694Z" transform="translate(-1664.615 -532.904)" fill="#9e9a9a" opacity="0.356"/>
      <path id="Path_187996" data-name="Path 187996" d="M1751.56,690.891a67.261,67.261,0,1,1,67.261-67.262A67.338,67.338,0,0,1,1751.56,690.891Z" transform="translate(-1664.254 -532.474)" fill="#9c9898" opacity="0.366"/>
      <path id="Path_187997" data-name="Path 187997" d="M1750.886,690.088a67.261,67.261,0,1,1,67.26-67.262A67.338,67.338,0,0,1,1750.886,690.088Z" transform="translate(-1663.893 -532.044)" fill="#9a9696" opacity="0.376"/>
      <path id="Path_187998" data-name="Path 187998" d="M1750.213,689.284a67.261,67.261,0,1,1,67.26-67.262A67.338,67.338,0,0,1,1750.213,689.284Z" transform="translate(-1663.532 -531.614)" fill="#989494" opacity="0.386"/>
      <path id="Path_187999" data-name="Path 187999" d="M1749.539,688.481a67.261,67.261,0,1,1,67.26-67.262A67.337,67.337,0,0,1,1749.539,688.481Z" transform="translate(-1663.172 -531.184)" fill="#969292" opacity="0.396"/>
      <path id="Path_188000" data-name="Path 188000" d="M1748.865,687.678a67.261,67.261,0,1,1,67.26-67.262A67.337,67.337,0,0,1,1748.865,687.678Z" transform="translate(-1662.812 -530.755)" fill="#949090" opacity="0.406"/>
      <path id="Path_188001" data-name="Path 188001" d="M1748.191,686.875a67.261,67.261,0,1,1,67.261-67.262A67.338,67.338,0,0,1,1748.191,686.875Z" transform="translate(-1662.451 -530.325)" fill="#928e8e" opacity="0.416"/>
      <path id="Path_188002" data-name="Path 188002" d="M1747.517,686.071a67.261,67.261,0,1,1,67.26-67.262A67.338,67.338,0,0,1,1747.517,686.071Z" transform="translate(-1662.09 -529.895)" fill="#908c8c" opacity="0.426"/>
      <path id="Path_188003" data-name="Path 188003" d="M1746.843,685.268a67.261,67.261,0,1,1,67.26-67.262A67.338,67.338,0,0,1,1746.843,685.268Z" transform="translate(-1661.729 -529.465)" fill="#8e8a8a" opacity="0.436"/>
      <path id="Path_188004" data-name="Path 188004" d="M1746.17,684.465a67.261,67.261,0,1,1,67.26-67.262A67.338,67.338,0,0,1,1746.17,684.465Z" transform="translate(-1661.369 -529.035)" fill="#8c8888" opacity="0.446"/>
      <path id="Path_188005" data-name="Path 188005" d="M1745.5,683.662a67.261,67.261,0,1,1,67.26-67.262A67.338,67.338,0,0,1,1745.5,683.662Z" transform="translate(-1661.008 -528.605)" fill="#8b8787" opacity="0.455"/>
      <path id="Path_188006" data-name="Path 188006" d="M1744.822,682.858a67.261,67.261,0,1,1,67.26-67.262A67.337,67.337,0,0,1,1744.822,682.858Z" transform="translate(-1660.648 -528.175)" fill="#898585" opacity="0.465"/>
      <path id="Path_188007" data-name="Path 188007" d="M1744.148,682.055a67.261,67.261,0,1,1,67.26-67.262A67.338,67.338,0,0,1,1744.148,682.055Z" transform="translate(-1660.287 -527.745)" fill="#878383" opacity="0.475"/>
      <path id="Path_188008" data-name="Path 188008" d="M1743.474,681.252a67.261,67.261,0,1,1,67.26-67.262A67.338,67.338,0,0,1,1743.474,681.252Z" transform="translate(-1659.926 -527.315)" fill="#858181" opacity="0.485"/>
      <path id="Path_188009" data-name="Path 188009" d="M1742.8,680.448a67.261,67.261,0,1,1,67.26-67.261A67.338,67.338,0,0,1,1742.8,680.448Z" transform="translate(-1659.565 -526.885)" fill="#847f7f" opacity="0.495"/>
      <path id="Path_188010" data-name="Path 188010" d="M1742.127,679.645a67.261,67.261,0,1,1,67.26-67.262A67.338,67.338,0,0,1,1742.127,679.645Z" transform="translate(-1659.205 -526.455)" fill="#827e7e" opacity="0.505"/>
      <path id="Path_188011" data-name="Path 188011" d="M1741.453,678.842a67.261,67.261,0,1,1,67.26-67.262A67.337,67.337,0,0,1,1741.453,678.842Z" transform="translate(-1658.844 -526.025)" fill="#807c7c" opacity="0.515"/>
      <path id="Path_188012" data-name="Path 188012" d="M1740.779,678.039a67.261,67.261,0,1,1,67.26-67.262A67.338,67.338,0,0,1,1740.779,678.039Z" transform="translate(-1658.484 -525.596)" fill="#7e7a7a" opacity="0.525"/>
      <path id="Path_188013" data-name="Path 188013" d="M1740.1,677.235a67.261,67.261,0,1,1,67.26-67.262A67.338,67.338,0,0,1,1740.1,677.235Z" transform="translate(-1658.123 -525.165)" fill="#7c7879" opacity="0.535"/>
      <path id="Path_188014" data-name="Path 188014" d="M1739.431,676.432a67.261,67.261,0,1,1,67.26-67.262A67.338,67.338,0,0,1,1739.431,676.432Z" transform="translate(-1657.762 -524.736)" fill="#7b7777" opacity="0.545"/>
      <path id="Path_188015" data-name="Path 188015" d="M1738.757,675.629a67.261,67.261,0,1,1,67.261-67.262A67.338,67.338,0,0,1,1738.757,675.629Z" transform="translate(-1657.401 -524.306)" fill="#797575" opacity="0.554"/>
      <path id="Path_188016" data-name="Path 188016" d="M1738.084,674.825a67.261,67.261,0,1,1,67.26-67.262A67.338,67.338,0,0,1,1738.084,674.825Z" transform="translate(-1657.041 -523.875)" fill="#777474" opacity="0.564"/>
      <path id="Path_188017" data-name="Path 188017" d="M1737.41,674.022a67.261,67.261,0,1,1,67.26-67.262A67.338,67.338,0,0,1,1737.41,674.022Z" transform="translate(-1656.68 -523.446)" fill="#767272" opacity="0.574"/>
      <path id="Path_188018" data-name="Path 188018" d="M1736.736,673.219A67.261,67.261,0,1,1,1804,605.957,67.338,67.338,0,0,1,1736.736,673.219Z" transform="translate(-1656.32 -523.016)" fill="#747070" opacity="0.584"/>
      <path id="Path_188019" data-name="Path 188019" d="M1736.062,672.416a67.261,67.261,0,1,1,67.26-67.262A67.338,67.338,0,0,1,1736.062,672.416Z" transform="translate(-1655.959 -522.586)" fill="#726f6f" opacity="0.594"/>
      <path id="Path_188020" data-name="Path 188020" d="M1735.388,671.612a67.261,67.261,0,1,1,67.26-67.262A67.338,67.338,0,0,1,1735.388,671.612Z" transform="translate(-1655.599 -522.156)" fill="#716d6d" opacity="0.604"/>
      <path id="Path_188021" data-name="Path 188021" d="M1734.714,670.809a67.261,67.261,0,1,1,67.261-67.262A67.338,67.338,0,0,1,1734.714,670.809Z" transform="translate(-1655.238 -521.726)" fill="#6f6c6c" opacity="0.614"/>
      <path id="Path_188022" data-name="Path 188022" d="M1734.04,670.006a67.261,67.261,0,1,1,67.26-67.262A67.338,67.338,0,0,1,1734.04,670.006Z" transform="translate(-1654.877 -521.296)" fill="#6e6a6a" opacity="0.624"/>
      <path id="Path_188023" data-name="Path 188023" d="M1733.367,669.2a67.261,67.261,0,1,1,67.26-67.262A67.338,67.338,0,0,1,1733.367,669.2Z" transform="translate(-1654.516 -520.866)" fill="#6c6969" opacity="0.634"/>
      <path id="Path_188024" data-name="Path 188024" d="M1732.693,668.4a67.261,67.261,0,1,1,67.26-67.262A67.337,67.337,0,0,1,1732.693,668.4Z" transform="translate(-1654.156 -520.436)" fill="#6b6767" opacity="0.644"/>
      <path id="Path_188025" data-name="Path 188025" d="M1732.019,667.6a67.261,67.261,0,1,1,67.26-67.262A67.338,67.338,0,0,1,1732.019,667.6Z" transform="translate(-1653.795 -520.007)" fill="#696666" opacity="0.653"/>
      <path id="Path_188026" data-name="Path 188026" d="M1731.345,666.793a67.261,67.261,0,1,1,67.26-67.262A67.338,67.338,0,0,1,1731.345,666.793Z" transform="translate(-1653.435 -519.577)" fill="#686464" opacity="0.663"/>
      <path id="Path_188027" data-name="Path 188027" d="M1730.672,665.989a67.261,67.261,0,1,1,67.26-67.262A67.338,67.338,0,0,1,1730.672,665.989Z" transform="translate(-1653.074 -519.146)" fill="#666363" opacity="0.673"/>
      <path id="Path_188028" data-name="Path 188028" d="M1730,665.186a67.261,67.261,0,1,1,67.26-67.262A67.338,67.338,0,0,1,1730,665.186Z" transform="translate(-1652.713 -518.717)" fill="#656261" opacity="0.683"/>
      <path id="Path_188029" data-name="Path 188029" d="M1729.324,664.383a67.261,67.261,0,1,1,67.26-67.262A67.338,67.338,0,0,1,1729.324,664.383Z" transform="translate(-1652.353 -518.287)" fill="#646060" opacity="0.693"/>
      <path id="Path_188030" data-name="Path 188030" d="M1728.65,663.579a67.261,67.261,0,1,1,67.261-67.262A67.338,67.338,0,0,1,1728.65,663.579Z" transform="translate(-1651.992 -517.857)" fill="#625f5f" opacity="0.703"/>
      <path id="Path_188031" data-name="Path 188031" d="M1727.976,662.776a67.261,67.261,0,1,1,67.26-67.262A67.338,67.338,0,0,1,1727.976,662.776Z" transform="translate(-1651.631 -517.427)" fill="#615d5d" opacity="0.713"/>
      <path id="Path_188032" data-name="Path 188032" d="M1727.3,661.973a67.261,67.261,0,1,1,67.26-67.262A67.338,67.338,0,0,1,1727.3,661.973Z" transform="translate(-1651.271 -516.997)" fill="#5f5c5c" opacity="0.723"/>
      <path id="Path_188033" data-name="Path 188033" d="M1726.629,661.17a67.261,67.261,0,1,1,67.26-67.262A67.338,67.338,0,0,1,1726.629,661.17Z" transform="translate(-1650.91 -516.567)" fill="#5e5b5b" opacity="0.733"/>
      <path id="Path_188034" data-name="Path 188034" d="M1725.954,660.366a67.261,67.261,0,1,1,67.26-67.262A67.338,67.338,0,0,1,1725.954,660.366Z" transform="translate(-1650.549 -516.137)" fill="#5d5959" opacity="0.743"/>
      <path id="Path_188035" data-name="Path 188035" d="M1725.281,659.563a67.261,67.261,0,1,1,67.261-67.262A67.337,67.337,0,0,1,1725.281,659.563Z" transform="translate(-1650.189 -515.707)" fill="#5b5858" opacity="0.752"/>
      <path id="Path_188036" data-name="Path 188036" d="M1724.607,658.76a67.261,67.261,0,1,1,67.26-67.262A67.337,67.337,0,0,1,1724.607,658.76Z" transform="translate(-1649.828 -515.277)" fill="#5a5757" opacity="0.762"/>
      <path id="Path_188037" data-name="Path 188037" d="M1723.933,657.957a67.261,67.261,0,1,1,67.26-67.262A67.338,67.338,0,0,1,1723.933,657.957Z" transform="translate(-1649.468 -514.848)" fill="#585655" opacity="0.772"/>
      <path id="Path_188038" data-name="Path 188038" d="M1723.259,657.153a67.261,67.261,0,1,1,67.26-67.262A67.338,67.338,0,0,1,1723.259,657.153Z" transform="translate(-1649.107 -514.417)" fill="#575454" opacity="0.782"/>
      <path id="Path_188039" data-name="Path 188039" d="M1722.585,656.35a67.261,67.261,0,1,1,67.261-67.262A67.338,67.338,0,0,1,1722.585,656.35Z" transform="translate(-1648.746 -513.987)" fill="#565353" opacity="0.792"/>
      <path id="Path_188040" data-name="Path 188040" d="M1721.911,655.547a67.261,67.261,0,1,1,67.26-67.262A67.338,67.338,0,0,1,1721.911,655.547Z" transform="translate(-1648.386 -513.558)" fill="#545252" opacity="0.802"/>
      <path id="Path_188041" data-name="Path 188041" d="M1721.238,654.743a67.261,67.261,0,1,1,67.26-67.262A67.338,67.338,0,0,1,1721.238,654.743Z" transform="translate(-1648.025 -513.127)" fill="#535151" opacity="0.812"/>
      <path id="Path_188042" data-name="Path 188042" d="M1720.564,653.94a67.261,67.261,0,1,1,67.261-67.262A67.337,67.337,0,0,1,1720.564,653.94Z" transform="translate(-1647.664 -512.698)" fill="#52504f" opacity="0.822"/>
      <path id="Path_188043" data-name="Path 188043" d="M1719.89,653.137a67.261,67.261,0,1,1,67.26-67.262A67.338,67.338,0,0,1,1719.89,653.137Z" transform="translate(-1647.304 -512.268)" fill="#514e4e" opacity="0.832"/>
      <path id="Path_188044" data-name="Path 188044" d="M1719.216,652.333a67.261,67.261,0,1,1,67.26-67.261A67.337,67.337,0,0,1,1719.216,652.333Z" transform="translate(-1646.943 -511.838)" fill="#4f4d4d" opacity="0.842"/>
      <path id="Path_188045" data-name="Path 188045" d="M1718.542,651.53a67.261,67.261,0,1,1,67.261-67.262A67.338,67.338,0,0,1,1718.542,651.53Z" transform="translate(-1646.582 -511.408)" fill="#4e4c4c" opacity="0.851"/>
      <path id="Path_188046" data-name="Path 188046" d="M1717.869,650.727a67.261,67.261,0,1,1,67.26-67.262A67.338,67.338,0,0,1,1717.869,650.727Z" transform="translate(-1646.222 -510.978)" fill="#4d4b4b" opacity="0.861"/>
      <path id="Path_188047" data-name="Path 188047" d="M1717.195,649.924a67.261,67.261,0,1,1,67.26-67.262A67.338,67.338,0,0,1,1717.195,649.924Z" transform="translate(-1645.861 -510.548)" fill="#4c4a4a" opacity="0.871"/>
      <path id="Path_188048" data-name="Path 188048" d="M1716.521,649.12a67.261,67.261,0,1,1,67.261-67.262A67.337,67.337,0,0,1,1716.521,649.12Z" transform="translate(-1645.5 -510.118)" fill="#4b4949" opacity="0.881"/>
      <path id="Path_188049" data-name="Path 188049" d="M1715.847,648.317a67.261,67.261,0,1,1,67.26-67.262A67.338,67.338,0,0,1,1715.847,648.317Z" transform="translate(-1645.14 -509.688)" fill="#494848" opacity="0.891"/>
      <path id="Path_188050" data-name="Path 188050" d="M1715.173,647.514a67.261,67.261,0,1,1,67.26-67.262A67.338,67.338,0,0,1,1715.173,647.514Z" transform="translate(-1644.779 -509.258)" fill="#484747" opacity="0.901"/>
      <path id="Path_188051" data-name="Path 188051" d="M1714.5,646.711a67.261,67.261,0,1,1,67.26-67.262A67.338,67.338,0,0,1,1714.5,646.711Z" transform="translate(-1644.419 -508.829)" fill="#474646" opacity="0.911"/>
      <path id="Path_188052" data-name="Path 188052" d="M1713.826,645.907a67.261,67.261,0,1,1,67.26-67.262A67.338,67.338,0,0,1,1713.826,645.907Z" transform="translate(-1644.058 -508.398)" fill="#464545" opacity="0.921"/>
      <path id="Path_188053" data-name="Path 188053" d="M1713.151,645.1a67.261,67.261,0,1,1,67.26-67.262A67.338,67.338,0,0,1,1713.151,645.1Z" transform="translate(-1643.697 -507.968)" fill="#454444" opacity="0.931"/>
      <path id="Path_188054" data-name="Path 188054" d="M1712.478,644.3a67.261,67.261,0,1,1,67.26-67.262A67.338,67.338,0,0,1,1712.478,644.3Z" transform="translate(-1643.337 -507.539)" fill="#444343" opacity="0.941"/>
      <path id="Path_188055" data-name="Path 188055" d="M1711.8,643.5a67.261,67.261,0,1,1,67.26-67.261A67.337,67.337,0,0,1,1711.8,643.5Z" transform="translate(-1642.976 -507.108)" fill="#424242" opacity="0.95"/>
      <path id="Path_188056" data-name="Path 188056" d="M1711.13,642.694a67.261,67.261,0,1,1,67.26-67.262A67.338,67.338,0,0,1,1711.13,642.694Z" transform="translate(-1642.615 -506.679)" fill="#414141" opacity="0.96"/>
      <path id="Path_188057" data-name="Path 188057" d="M1710.456,641.891a67.261,67.261,0,1,1,67.26-67.262A67.338,67.338,0,0,1,1710.456,641.891Z" transform="translate(-1642.255 -506.249)" fill="#404040" opacity="0.97"/>
      <path id="Path_188058" data-name="Path 188058" d="M1709.782,641.087a67.261,67.261,0,1,1,67.261-67.262A67.338,67.338,0,0,1,1709.782,641.087Z" transform="translate(-1641.894 -505.819)" fill="#3f3f3f" opacity="0.98"/>
      <path id="Path_188059" data-name="Path 188059" d="M1709.109,640.284a67.261,67.261,0,1,1,67.26-67.262A67.338,67.338,0,0,1,1709.109,640.284Z" transform="translate(-1641.533 -505.389)" fill="#3e3e3e" opacity="0.99"/>
      <path id="Path_188060" data-name="Path 188060" d="M1708.435,639.481a67.261,67.261,0,1,1,67.26-67.262A67.338,67.338,0,0,1,1708.435,639.481Z" transform="translate(-1641.173 -504.959)" fill="#3d3d3d"/>
    </g>
    <g id="Group_149835" data-name="Group 149835" transform="translate(907.243 2014.625)">
      <g id="Group_149813" data-name="Group 149813" transform="translate(0 0)">
        <circle id="Ellipse_5001" data-name="Ellipse 5001" cx="68.09" cy="68.09" r="68.09" transform="translate(0 96.294) rotate(-45)" fill="url(#linear-gradient-2)"/>
        <circle id="Ellipse_5002" data-name="Ellipse 5002" cx="64.686" cy="64.686" r="64.686" transform="translate(4.815 96.294) rotate(-45)" fill="url(#linear-gradient-3)"/>
      </g>
      <path id="Path_194623" data-name="Path 194623" d="M-15.242-1.765h4.666V0h-6.863V-10.664h2.2ZM-7.17,0H-9.287V-7.925H-7.17Zm-.623-11.14h2.307L-7.515-8.87H-9.236ZM-3.4-7.925l.066.916A2.767,2.767,0,0,1-1.055-8.071a2.3,2.3,0,0,1,1.875.74A3.451,3.451,0,0,1,1.45-5.12V0H-.667V-5.068a1.373,1.373,0,0,0-.293-.978,1.312,1.312,0,0,0-.974-.3,1.456,1.456,0,0,0-1.34.762V0H-5.391V-7.925ZM6.7.146A3.89,3.89,0,0,1,3.864-.923,3.8,3.8,0,0,1,2.769-3.772v-.205A4.787,4.787,0,0,1,3.23-6.112a3.386,3.386,0,0,1,1.307-1.45,3.669,3.669,0,0,1,1.93-.509,3.289,3.289,0,0,1,2.56,1.025,4.167,4.167,0,0,1,.934,2.908v.864H4.915a1.966,1.966,0,0,0,.619,1.245,1.871,1.871,0,0,0,1.307.469,2.285,2.285,0,0,0,1.912-.886l1.04,1.165A3.178,3.178,0,0,1,8.5-.231,4.229,4.229,0,0,1,6.7.146ZM6.46-6.365a1.323,1.323,0,0,0-1.022.427,2.209,2.209,0,0,0-.5,1.221H7.881v-.169A1.576,1.576,0,0,0,7.5-5.979,1.365,1.365,0,0,0,6.46-6.365ZM15.754,0a2.351,2.351,0,0,1-.212-.71,2.561,2.561,0,0,1-2,.857,2.814,2.814,0,0,1-1.93-.674,2.167,2.167,0,0,1-.765-1.7,2.24,2.24,0,0,1,.934-1.934,4.608,4.608,0,0,1,2.7-.681h.974V-5.3a1.306,1.306,0,0,0-.282-.879,1.109,1.109,0,0,0-.89-.33,1.261,1.261,0,0,0-.839.256.871.871,0,0,0-.3.7H11.023a2.126,2.126,0,0,1,.425-1.274,2.808,2.808,0,0,1,1.2-.919,4.378,4.378,0,0,1,1.743-.333,3.459,3.459,0,0,1,2.325.736,2.575,2.575,0,0,1,.861,2.069v3.435a3.789,3.789,0,0,0,.315,1.707V0ZM14-1.472a1.823,1.823,0,0,0,.864-.209,1.371,1.371,0,0,0,.586-.56V-3.6h-.791q-1.589,0-1.692,1.1l-.007.125a.847.847,0,0,0,.278.652A1.081,1.081,0,0,0,14-1.472ZM-36.8,11.979a4.776,4.776,0,0,1,.831-2.952,2.7,2.7,0,0,1,2.274-1.1,2.427,2.427,0,0,1,1.912.864V4.75h2.124V16h-1.912l-.1-.842a2.491,2.491,0,0,1-2.036.989,2.69,2.69,0,0,1-2.245-1.1A4.93,4.93,0,0,1-36.8,11.979Zm2.117.158a3.128,3.128,0,0,0,.388,1.709,1.265,1.265,0,0,0,1.128.594,1.416,1.416,0,0,0,1.384-.829V10.479a1.4,1.4,0,0,0-1.37-.829Q-34.687,9.65-34.687,12.137Zm10.313,4.01a3.89,3.89,0,0,1-2.838-1.069,3.8,3.8,0,0,1-1.095-2.849v-.205a4.787,4.787,0,0,1,.461-2.135,3.386,3.386,0,0,1,1.307-1.45,3.669,3.669,0,0,1,1.93-.509,3.289,3.289,0,0,1,2.56,1.025,4.167,4.167,0,0,1,.934,2.908v.864h-5.046a1.966,1.966,0,0,0,.619,1.245,1.871,1.871,0,0,0,1.307.469,2.285,2.285,0,0,0,1.912-.886l1.04,1.165a3.178,3.178,0,0,1-1.289,1.051A4.229,4.229,0,0,1-24.375,16.146Zm-.242-6.511a1.323,1.323,0,0,0-1.022.427,2.209,2.209,0,0,0-.5,1.221H-23.2v-.169a1.576,1.576,0,0,0-.381-1.092A1.365,1.365,0,0,0-24.617,9.635Zm12.891.425A5.751,5.751,0,0,0-12.488,10a1.55,1.55,0,0,0-1.575.813V16h-2.117V8.075h2l.059.945a1.961,1.961,0,0,1,1.765-1.091,2.218,2.218,0,0,1,.659.1Zm4.666,6.086A3.89,3.89,0,0,1-9.9,15.077a3.8,3.8,0,0,1-1.095-2.849v-.205a4.787,4.787,0,0,1,.461-2.135,3.386,3.386,0,0,1,1.307-1.45,3.669,3.669,0,0,1,1.93-.509,3.289,3.289,0,0,1,2.56,1.025A4.167,4.167,0,0,1-3.8,11.862v.864H-8.848a1.966,1.966,0,0,0,.619,1.245,1.871,1.871,0,0,0,1.307.469,2.285,2.285,0,0,0,1.912-.886l1.04,1.165a3.178,3.178,0,0,1-1.289,1.051A4.229,4.229,0,0,1-7.061,16.146ZM-7.3,9.635a1.323,1.323,0,0,0-1.022.427,2.209,2.209,0,0,0-.5,1.221h2.944v-.169a1.576,1.576,0,0,0-.381-1.092A1.365,1.365,0,0,0-7.3,9.635ZM-.366,16H-2.49V4.75H-.366Zm6.335,0a2.351,2.351,0,0,1-.212-.71,2.561,2.561,0,0,1-2,.857,2.814,2.814,0,0,1-1.93-.674,2.167,2.167,0,0,1-.765-1.7A2.24,2.24,0,0,1,2,11.84a4.608,4.608,0,0,1,2.7-.681h.974V10.7a1.306,1.306,0,0,0-.282-.879A1.109,1.109,0,0,0,4.5,9.5a1.261,1.261,0,0,0-.839.256.871.871,0,0,0-.3.7H1.238a2.126,2.126,0,0,1,.425-1.274,2.808,2.808,0,0,1,1.2-.919,4.378,4.378,0,0,1,1.743-.333,3.459,3.459,0,0,1,2.325.736,2.575,2.575,0,0,1,.861,2.069v3.435a3.789,3.789,0,0,0,.315,1.707V16Zm-1.75-1.472a1.823,1.823,0,0,0,.864-.209,1.371,1.371,0,0,0,.586-.56V12.4H4.878q-1.589,0-1.692,1.1l-.007.125a.847.847,0,0,0,.278.652A1.081,1.081,0,0,0,4.219,14.528Zm8.5-.088a1.388,1.388,0,0,0,.952-.322,1.129,1.129,0,0,0,.381-.857h1.985a2.715,2.715,0,0,1-.439,1.476,2.9,2.9,0,0,1-1.183,1.04,3.7,3.7,0,0,1-1.659.37,3.44,3.44,0,0,1-2.681-1.08,4.275,4.275,0,0,1-.981-2.985v-.139a4.226,4.226,0,0,1,.974-2.922,3.4,3.4,0,0,1,2.673-1.091,3.333,3.333,0,0,1,2.384.846,3,3,0,0,1,.912,2.252H14.048a1.455,1.455,0,0,0-.381-1.005,1.27,1.27,0,0,0-.967-.387,1.275,1.275,0,0,0-1.117.539,3.125,3.125,0,0,0-.377,1.749v.22A3.164,3.164,0,0,0,11.58,13.9,1.291,1.291,0,0,0,12.715,14.44ZM19.475,16H17.351V8.075h2.124ZM17.227,6.024a1.042,1.042,0,0,1,.319-.784,1.373,1.373,0,0,1,1.732,0,1.036,1.036,0,0,1,.322.784,1.039,1.039,0,0,1-.326.791,1.358,1.358,0,0,1-1.721,0A1.039,1.039,0,0,1,17.227,6.024Zm3.662,5.94a4.7,4.7,0,0,1,.454-2.1A3.324,3.324,0,0,1,22.65,8.434a3.814,3.814,0,0,1,1.981-.505,3.609,3.609,0,0,1,2.618.981,3.939,3.939,0,0,1,1.132,2.666l.015.542a4.142,4.142,0,0,1-1.018,2.926,3.539,3.539,0,0,1-2.732,1.1,3.556,3.556,0,0,1-2.736-1.1,4.215,4.215,0,0,1-1.022-2.988Zm2.117.15a2.962,2.962,0,0,0,.425,1.727,1.526,1.526,0,0,0,2.417.007,3.241,3.241,0,0,0,.432-1.889,2.933,2.933,0,0,0-.432-1.716,1.4,1.4,0,0,0-1.216-.609,1.382,1.382,0,0,0-1.2.605A3.3,3.3,0,0,0,23.005,12.115ZM25.049,4.75h2.307L25.327,7.021H23.606Zm6.6,3.325.066.916a2.767,2.767,0,0,1,2.278-1.062,2.3,2.3,0,0,1,1.875.74,3.451,3.451,0,0,1,.63,2.212V16H34.38V10.932a1.373,1.373,0,0,0-.293-.978,1.312,1.312,0,0,0-.974-.3,1.456,1.456,0,0,0-1.34.762V16H29.656V8.075Z" transform="translate(100.167 123.988)" fill="#12263f"/>
      <circle id="Ellipse_5693" data-name="Ellipse 5693" cx="21.833" cy="21.833" r="21.833" transform="matrix(0.16, -0.987, 0.987, 0.16, 71.246, 94.299)" fill="#12263f"/>
      <path id="Path_194624" data-name="Path 194624" d="M12.118-6.761a8.284,8.284,0,0,1-1.4,5.188A4.9,4.9,0,0,1,6.6.225,4.934,4.934,0,0,1,2.516-1.539,8.041,8.041,0,0,1,1.067-6.592V-9.6a8.175,8.175,0,0,1,1.421-5.2,4.937,4.937,0,0,1,4.094-1.774,4.941,4.941,0,0,1,4.088,1.758,8.016,8.016,0,0,1,1.449,5.048ZM8.872-10.07a5.988,5.988,0,0,0-.556-2.962,1.879,1.879,0,0,0-1.735-.927,1.845,1.845,0,0,0-1.69.882,5.6,5.6,0,0,0-.578,2.76v3.979a6.285,6.285,0,0,0,.545,2.973A1.854,1.854,0,0,0,6.6-2.392a1.823,1.823,0,0,0,1.718-.933,6.135,6.135,0,0,0,.55-2.855ZM23.91-6.154h1.853v2.617H23.91V0H20.664V-3.538h-6.7l-.146-2.044,6.817-10.77H23.91Zm-6.862,0h3.616v-5.772l-.213.371Z" transform="translate(82.738 84.132)" fill="#fff"/>
    </g>
  </g>
</svg>
