<svg xmlns="http://www.w3.org/2000/svg" xmlns:xlink="http://www.w3.org/1999/xlink" width="240.735" height="240.734" viewBox="0 0 240.735 240.734">
  <defs>
    <linearGradient id="linear-gradient" x1="0.317" y1="0.321" x2="0.831" y2="0.824" gradientUnits="objectBoundingBox">
      <stop offset="0" stop-color="#fff"/>
      <stop offset="0.231" stop-color="#f7f7f6"/>
      <stop offset="0.589" stop-color="#e1e1e1"/>
      <stop offset="1" stop-color="#c1c1c0"/>
    </linearGradient>
    <linearGradient id="linear-gradient-2" x1="0.495" y1="0.493" x2="0.182" y2="0.091" gradientUnits="objectBoundingBox">
      <stop offset="0" stop-color="#fff"/>
      <stop offset="0.38" stop-color="#f7f7f7"/>
      <stop offset="0.968" stop-color="#e1e2e4"/>
      <stop offset="0.994" stop-color="#e0e1e3"/>
    </linearGradient>
  </defs>
  <g id="Group_154284" data-name="Group 154284" transform="translate(-679.633 -1990.551)">
    <circle id="Ellipse_5009" data-name="Ellipse 5009" cx="85.113" cy="85.113" r="85.113" transform="translate(679.633 2110.918) rotate(-45)" fill="#2194e5"/>
    <path id="Path_188206" data-name="Path 188206" d="M1271.36,429.366l-10.083-10.037-7.237-7.2a2.864,2.864,0,0,0-4.885,2.03V424.72a85.113,85.113,0,0,0-85.112,85.113q0,3.365.258,6.666a85.119,85.119,0,0,1,84.854-78.446v10.584a2.864,2.864,0,0,0,4.885,2.03l7.237-7.2,10.083-10.037A2.865,2.865,0,0,0,1271.36,429.366Z" transform="translate(-449.155 1588.683)" fill="#b0c0d2"/>
    <g id="Group_149831" data-name="Group 149831" transform="translate(732.771 2043.506)" opacity="0.6" style="mix-blend-mode: multiply;isolation: isolate">
      <path id="Path_187857" data-name="Path 187857" d="M1337.838,720.613a67.261,67.261,0,1,1,67.26-67.262A67.338,67.338,0,0,1,1337.838,720.613Z" transform="translate(-1238.943 -548.382)" fill="#fff" opacity="0"/>
      <path id="Path_187858" data-name="Path 187858" d="M1337.164,719.809a67.261,67.261,0,1,1,67.26-67.262A67.337,67.337,0,0,1,1337.164,719.809Z" transform="translate(-1238.583 -547.951)" fill="#f9f9f9" opacity="0.01"/>
      <path id="Path_187859" data-name="Path 187859" d="M1336.49,719.006a67.261,67.261,0,1,1,67.26-67.262A67.338,67.338,0,0,1,1336.49,719.006Z" transform="translate(-1238.222 -547.522)" fill="#f4f3f3" opacity="0.02"/>
      <path id="Path_187860" data-name="Path 187860" d="M1335.817,718.2a67.261,67.261,0,1,1,67.26-67.262A67.338,67.338,0,0,1,1335.817,718.2Z" transform="translate(-1237.861 -547.092)" fill="#f0efef" opacity="0.03"/>
      <path id="Path_187861" data-name="Path 187861" d="M1335.143,717.4a67.261,67.261,0,1,1,67.26-67.262A67.338,67.338,0,0,1,1335.143,717.4Z" transform="translate(-1237.5 -546.662)" fill="#ecebeb" opacity="0.04"/>
      <path id="Path_187862" data-name="Path 187862" d="M1334.469,716.6a67.261,67.261,0,1,1,67.26-67.262A67.338,67.338,0,0,1,1334.469,716.6Z" transform="translate(-1237.14 -546.232)" fill="#e9e7e7" opacity="0.05"/>
      <path id="Path_187863" data-name="Path 187863" d="M1333.795,715.793a67.261,67.261,0,1,1,67.26-67.262A67.337,67.337,0,0,1,1333.795,715.793Z" transform="translate(-1236.78 -545.802)" fill="#e6e4e4" opacity="0.059"/>
      <path id="Path_187864" data-name="Path 187864" d="M1333.121,714.99a67.261,67.261,0,1,1,67.26-67.262A67.338,67.338,0,0,1,1333.121,714.99Z" transform="translate(-1236.419 -545.372)" fill="#e3e1e1" opacity="0.069"/>
      <path id="Path_187865" data-name="Path 187865" d="M1332.447,714.186a67.261,67.261,0,1,1,67.26-67.262A67.337,67.337,0,0,1,1332.447,714.186Z" transform="translate(-1236.058 -544.942)" fill="#e0dedd" opacity="0.079"/>
      <path id="Path_187866" data-name="Path 187866" d="M1331.774,713.383a67.261,67.261,0,1,1,67.26-67.262A67.338,67.338,0,0,1,1331.774,713.383Z" transform="translate(-1235.697 -544.512)" fill="#dddbdb" opacity="0.089"/>
      <path id="Path_187867" data-name="Path 187867" d="M1331.1,712.58a67.261,67.261,0,1,1,67.26-67.262A67.338,67.338,0,0,1,1331.1,712.58Z" transform="translate(-1235.337 -544.082)" fill="#dad8d8" opacity="0.099"/>
      <path id="Path_187868" data-name="Path 187868" d="M1330.426,711.777a67.261,67.261,0,1,1,67.26-67.262A67.338,67.338,0,0,1,1330.426,711.777Z" transform="translate(-1234.976 -543.653)" fill="#d8d5d5" opacity="0.109"/>
      <path id="Path_187869" data-name="Path 187869" d="M1329.752,710.973a67.261,67.261,0,1,1,67.26-67.262A67.338,67.338,0,0,1,1329.752,710.973Z" transform="translate(-1234.616 -543.222)" fill="#d5d2d2" opacity="0.119"/>
      <path id="Path_187870" data-name="Path 187870" d="M1329.078,710.17a67.261,67.261,0,1,1,67.26-67.262A67.337,67.337,0,0,1,1329.078,710.17Z" transform="translate(-1234.255 -542.793)" fill="#d2d0cf" opacity="0.129"/>
      <path id="Path_187871" data-name="Path 187871" d="M1328.4,709.367a67.261,67.261,0,1,1,67.26-67.262A67.338,67.338,0,0,1,1328.4,709.367Z" transform="translate(-1233.894 -542.363)" fill="#d0cdcd" opacity="0.139"/>
      <path id="Path_187872" data-name="Path 187872" d="M1327.73,708.563a67.261,67.261,0,1,1,67.26-67.261A67.338,67.338,0,0,1,1327.73,708.563Z" transform="translate(-1233.533 -541.932)" fill="#cdcbca" opacity="0.149"/>
      <path id="Path_187873" data-name="Path 187873" d="M1327.057,707.76a67.261,67.261,0,1,1,67.26-67.262A67.338,67.338,0,0,1,1327.057,707.76Z" transform="translate(-1233.173 -541.503)" fill="#cbc8c8" opacity="0.158"/>
      <path id="Path_187874" data-name="Path 187874" d="M1326.383,706.957a67.261,67.261,0,1,1,67.26-67.262A67.338,67.338,0,0,1,1326.383,706.957Z" transform="translate(-1232.812 -541.073)" fill="#c8c5c5" opacity="0.168"/>
      <path id="Path_187875" data-name="Path 187875" d="M1325.709,706.154a67.261,67.261,0,1,1,67.26-67.262A67.338,67.338,0,0,1,1325.709,706.154Z" transform="translate(-1232.452 -540.643)" fill="#c6c3c2" opacity="0.178"/>
      <path id="Path_187876" data-name="Path 187876" d="M1325.035,705.35a67.261,67.261,0,1,1,67.26-67.262A67.338,67.338,0,0,1,1325.035,705.35Z" transform="translate(-1232.091 -540.213)" fill="#c3c0c0" opacity="0.188"/>
      <path id="Path_187877" data-name="Path 187877" d="M1324.361,704.547a67.261,67.261,0,1,1,67.26-67.262A67.338,67.338,0,0,1,1324.361,704.547Z" transform="translate(-1231.73 -539.783)" fill="#c1bebe" opacity="0.198"/>
      <path id="Path_187878" data-name="Path 187878" d="M1323.687,703.744a67.261,67.261,0,1,1,67.26-67.262A67.338,67.338,0,0,1,1323.687,703.744Z" transform="translate(-1231.37 -539.353)" fill="#bebbbb" opacity="0.208"/>
      <path id="Path_187879" data-name="Path 187879" d="M1323.014,702.94a67.261,67.261,0,1,1,67.26-67.262A67.338,67.338,0,0,1,1323.014,702.94Z" transform="translate(-1231.009 -538.923)" fill="#bcb9b9" opacity="0.218"/>
      <path id="Path_187880" data-name="Path 187880" d="M1322.339,702.137a67.261,67.261,0,1,1,67.26-67.262A67.338,67.338,0,0,1,1322.339,702.137Z" transform="translate(-1230.648 -538.493)" fill="#bab7b6" opacity="0.228"/>
      <path id="Path_187881" data-name="Path 187881" d="M1321.666,701.334a67.261,67.261,0,1,1,67.26-67.262A67.337,67.337,0,0,1,1321.666,701.334Z" transform="translate(-1230.288 -538.064)" fill="#b8b4b4" opacity="0.238"/>
      <path id="Path_187882" data-name="Path 187882" d="M1320.992,700.53a67.261,67.261,0,1,1,67.26-67.262A67.337,67.337,0,0,1,1320.992,700.53Z" transform="translate(-1229.927 -537.633)" fill="#b5b2b2" opacity="0.248"/>
      <path id="Path_187883" data-name="Path 187883" d="M1320.318,699.727a67.261,67.261,0,1,1,67.26-67.262A67.338,67.338,0,0,1,1320.318,699.727Z" transform="translate(-1229.566 -537.203)" fill="#b3b0af" opacity="0.257"/>
      <path id="Path_187884" data-name="Path 187884" d="M1319.644,698.924a67.261,67.261,0,1,1,67.26-67.262A67.338,67.338,0,0,1,1319.644,698.924Z" transform="translate(-1229.206 -536.774)" fill="#b1adad" opacity="0.267"/>
      <path id="Path_187885" data-name="Path 187885" d="M1318.971,698.121a67.261,67.261,0,1,1,67.26-67.262A67.338,67.338,0,0,1,1318.971,698.121Z" transform="translate(-1228.845 -536.344)" fill="#afabab" opacity="0.277"/>
      <path id="Path_187886" data-name="Path 187886" d="M1318.3,697.317a67.261,67.261,0,1,1,67.26-67.262A67.337,67.337,0,0,1,1318.3,697.317Z" transform="translate(-1228.484 -535.914)" fill="#ada9a9" opacity="0.287"/>
      <path id="Path_187887" data-name="Path 187887" d="M1317.622,696.514a67.261,67.261,0,1,1,67.26-67.262A67.338,67.338,0,0,1,1317.622,696.514Z" transform="translate(-1228.124 -535.484)" fill="#aaa7a6" opacity="0.297"/>
      <path id="Path_187888" data-name="Path 187888" d="M1316.949,695.711a67.261,67.261,0,1,1,67.26-67.262A67.337,67.337,0,0,1,1316.949,695.711Z" transform="translate(-1227.763 -535.054)" fill="#a8a4a4" opacity="0.307"/>
      <path id="Path_187889" data-name="Path 187889" d="M1316.275,694.908a67.261,67.261,0,1,1,67.26-67.262A67.338,67.338,0,0,1,1316.275,694.908Z" transform="translate(-1227.403 -534.624)" fill="#a6a2a2" opacity="0.317"/>
      <path id="Path_187890" data-name="Path 187890" d="M1315.6,694.1a67.261,67.261,0,1,1,67.26-67.262A67.338,67.338,0,0,1,1315.6,694.1Z" transform="translate(-1227.042 -534.194)" fill="#a4a0a0" opacity="0.327"/>
      <path id="Path_187891" data-name="Path 187891" d="M1314.927,693.3a67.261,67.261,0,1,1,67.261-67.262A67.338,67.338,0,0,1,1314.927,693.3Z" transform="translate(-1226.681 -533.764)" fill="#a29e9e" opacity="0.337"/>
      <path id="Path_187892" data-name="Path 187892" d="M1314.254,692.5a67.261,67.261,0,1,1,67.26-67.262A67.338,67.338,0,0,1,1314.254,692.5Z" transform="translate(-1226.32 -533.334)" fill="#a09c9c" opacity="0.347"/>
      <path id="Path_187893" data-name="Path 187893" d="M1313.58,691.694a67.261,67.261,0,1,1,67.26-67.262A67.337,67.337,0,0,1,1313.58,691.694Z" transform="translate(-1225.96 -532.904)" fill="#9e9a9a" opacity="0.356"/>
      <path id="Path_187894" data-name="Path 187894" d="M1312.906,690.891a67.261,67.261,0,1,1,67.26-67.262A67.337,67.337,0,0,1,1312.906,690.891Z" transform="translate(-1225.599 -532.474)" fill="#9c9898" opacity="0.366"/>
      <path id="Path_187895" data-name="Path 187895" d="M1312.232,690.088a67.261,67.261,0,1,1,67.26-67.262A67.338,67.338,0,0,1,1312.232,690.088Z" transform="translate(-1225.239 -532.044)" fill="#9a9696" opacity="0.376"/>
      <path id="Path_187896" data-name="Path 187896" d="M1311.558,689.284a67.261,67.261,0,1,1,67.26-67.262A67.338,67.338,0,0,1,1311.558,689.284Z" transform="translate(-1224.878 -531.614)" fill="#989494" opacity="0.386"/>
      <path id="Path_187897" data-name="Path 187897" d="M1310.884,688.481a67.261,67.261,0,1,1,67.261-67.262A67.338,67.338,0,0,1,1310.884,688.481Z" transform="translate(-1224.517 -531.184)" fill="#969292" opacity="0.396"/>
      <path id="Path_187898" data-name="Path 187898" d="M1310.211,687.678a67.261,67.261,0,1,1,67.26-67.262A67.338,67.338,0,0,1,1310.211,687.678Z" transform="translate(-1224.157 -530.755)" fill="#949090" opacity="0.406"/>
      <path id="Path_187899" data-name="Path 187899" d="M1309.536,686.875a67.261,67.261,0,1,1,67.26-67.262A67.338,67.338,0,0,1,1309.536,686.875Z" transform="translate(-1223.796 -530.325)" fill="#928e8e" opacity="0.416"/>
      <path id="Path_187900" data-name="Path 187900" d="M1308.863,686.071a67.261,67.261,0,1,1,67.26-67.262A67.338,67.338,0,0,1,1308.863,686.071Z" transform="translate(-1223.436 -529.895)" fill="#908c8c" opacity="0.426"/>
      <path id="Path_187901" data-name="Path 187901" d="M1308.189,685.268a67.261,67.261,0,1,1,67.26-67.262A67.338,67.338,0,0,1,1308.189,685.268Z" transform="translate(-1223.075 -529.465)" fill="#8e8a8a" opacity="0.436"/>
      <path id="Path_187902" data-name="Path 187902" d="M1307.515,684.465a67.261,67.261,0,1,1,67.26-67.262A67.338,67.338,0,0,1,1307.515,684.465Z" transform="translate(-1222.714 -529.035)" fill="#8c8888" opacity="0.446"/>
      <path id="Path_187903" data-name="Path 187903" d="M1306.841,683.662A67.261,67.261,0,1,1,1374.1,616.4,67.338,67.338,0,0,1,1306.841,683.662Z" transform="translate(-1222.353 -528.605)" fill="#8b8787" opacity="0.455"/>
      <path id="Path_187904" data-name="Path 187904" d="M1306.167,682.858a67.261,67.261,0,1,1,67.26-67.262A67.338,67.338,0,0,1,1306.167,682.858Z" transform="translate(-1221.993 -528.175)" fill="#898585" opacity="0.465"/>
      <path id="Path_187905" data-name="Path 187905" d="M1305.494,682.055a67.261,67.261,0,1,1,67.26-67.262A67.338,67.338,0,0,1,1305.494,682.055Z" transform="translate(-1221.632 -527.745)" fill="#878383" opacity="0.475"/>
      <path id="Path_187906" data-name="Path 187906" d="M1304.82,681.252a67.261,67.261,0,1,1,67.26-67.262A67.337,67.337,0,0,1,1304.82,681.252Z" transform="translate(-1221.272 -527.315)" fill="#858181" opacity="0.485"/>
      <path id="Path_187907" data-name="Path 187907" d="M1304.146,680.448a67.261,67.261,0,1,1,67.26-67.261A67.338,67.338,0,0,1,1304.146,680.448Z" transform="translate(-1220.911 -526.885)" fill="#847f7f" opacity="0.495"/>
      <path id="Path_187908" data-name="Path 187908" d="M1303.472,679.645a67.261,67.261,0,1,1,67.26-67.262A67.338,67.338,0,0,1,1303.472,679.645Z" transform="translate(-1220.55 -526.455)" fill="#827e7e" opacity="0.505"/>
      <path id="Path_187909" data-name="Path 187909" d="M1302.8,678.842a67.261,67.261,0,1,1,67.261-67.262A67.338,67.338,0,0,1,1302.8,678.842Z" transform="translate(-1220.189 -526.025)" fill="#807c7c" opacity="0.515"/>
      <path id="Path_187910" data-name="Path 187910" d="M1302.125,678.039a67.261,67.261,0,1,1,67.26-67.262A67.338,67.338,0,0,1,1302.125,678.039Z" transform="translate(-1219.829 -525.596)" fill="#7e7a7a" opacity="0.525"/>
      <path id="Path_187911" data-name="Path 187911" d="M1301.451,677.235a67.261,67.261,0,1,1,67.26-67.262A67.338,67.338,0,0,1,1301.451,677.235Z" transform="translate(-1219.468 -525.165)" fill="#7c7879" opacity="0.535"/>
      <path id="Path_187912" data-name="Path 187912" d="M1300.777,676.432a67.261,67.261,0,1,1,67.26-67.262A67.337,67.337,0,0,1,1300.777,676.432Z" transform="translate(-1219.108 -524.736)" fill="#7b7777" opacity="0.545"/>
      <path id="Path_187913" data-name="Path 187913" d="M1300.1,675.629a67.261,67.261,0,1,1,67.26-67.262A67.338,67.338,0,0,1,1300.1,675.629Z" transform="translate(-1218.747 -524.306)" fill="#797575" opacity="0.554"/>
      <path id="Path_187914" data-name="Path 187914" d="M1299.429,674.825a67.261,67.261,0,1,1,67.26-67.262A67.337,67.337,0,0,1,1299.429,674.825Z" transform="translate(-1218.386 -523.875)" fill="#777474" opacity="0.564"/>
      <path id="Path_187915" data-name="Path 187915" d="M1298.755,674.022a67.261,67.261,0,1,1,67.261-67.262A67.338,67.338,0,0,1,1298.755,674.022Z" transform="translate(-1218.026 -523.446)" fill="#767272" opacity="0.574"/>
      <path id="Path_187916" data-name="Path 187916" d="M1298.081,673.219a67.261,67.261,0,1,1,67.26-67.262A67.338,67.338,0,0,1,1298.081,673.219Z" transform="translate(-1217.665 -523.016)" fill="#747070" opacity="0.584"/>
      <path id="Path_187917" data-name="Path 187917" d="M1297.408,672.416a67.261,67.261,0,1,1,67.26-67.262A67.338,67.338,0,0,1,1297.408,672.416Z" transform="translate(-1217.304 -522.586)" fill="#726f6f" opacity="0.594"/>
      <path id="Path_187918" data-name="Path 187918" d="M1296.734,671.612a67.261,67.261,0,1,1,67.26-67.262A67.338,67.338,0,0,1,1296.734,671.612Z" transform="translate(-1216.944 -522.156)" fill="#716d6d" opacity="0.604"/>
      <path id="Path_187919" data-name="Path 187919" d="M1296.06,670.809a67.261,67.261,0,1,1,67.26-67.262A67.337,67.337,0,0,1,1296.06,670.809Z" transform="translate(-1216.583 -521.726)" fill="#6f6c6c" opacity="0.614"/>
      <path id="Path_187920" data-name="Path 187920" d="M1295.386,670.006a67.261,67.261,0,1,1,67.26-67.262A67.338,67.338,0,0,1,1295.386,670.006Z" transform="translate(-1216.223 -521.296)" fill="#6e6a6a" opacity="0.624"/>
      <path id="Path_187921" data-name="Path 187921" d="M1294.712,669.2a67.261,67.261,0,1,1,67.26-67.262A67.338,67.338,0,0,1,1294.712,669.2Z" transform="translate(-1215.862 -520.866)" fill="#6c6969" opacity="0.634"/>
      <path id="Path_187922" data-name="Path 187922" d="M1294.039,668.4a67.261,67.261,0,1,1,67.26-67.262A67.338,67.338,0,0,1,1294.039,668.4Z" transform="translate(-1215.501 -520.436)" fill="#6b6767" opacity="0.644"/>
      <path id="Path_187923" data-name="Path 187923" d="M1293.365,667.6a67.261,67.261,0,1,1,67.26-67.262A67.338,67.338,0,0,1,1293.365,667.6Z" transform="translate(-1215.14 -520.007)" fill="#696666" opacity="0.653"/>
      <path id="Path_187924" data-name="Path 187924" d="M1292.691,666.793a67.261,67.261,0,1,1,67.26-67.262A67.337,67.337,0,0,1,1292.691,666.793Z" transform="translate(-1214.78 -519.577)" fill="#686464" opacity="0.663"/>
      <path id="Path_187925" data-name="Path 187925" d="M1292.017,665.989a67.261,67.261,0,1,1,67.26-67.262A67.338,67.338,0,0,1,1292.017,665.989Z" transform="translate(-1214.419 -519.146)" fill="#666363" opacity="0.673"/>
      <path id="Path_187926" data-name="Path 187926" d="M1291.343,665.186a67.261,67.261,0,1,1,67.26-67.262A67.338,67.338,0,0,1,1291.343,665.186Z" transform="translate(-1214.059 -518.717)" fill="#656261" opacity="0.683"/>
      <path id="Path_187927" data-name="Path 187927" d="M1290.669,664.383a67.261,67.261,0,1,1,67.26-67.262A67.338,67.338,0,0,1,1290.669,664.383Z" transform="translate(-1213.698 -518.287)" fill="#646060" opacity="0.693"/>
      <path id="Path_187928" data-name="Path 187928" d="M1290,663.579a67.261,67.261,0,1,1,67.26-67.262A67.338,67.338,0,0,1,1290,663.579Z" transform="translate(-1213.337 -517.857)" fill="#625f5f" opacity="0.703"/>
      <path id="Path_187929" data-name="Path 187929" d="M1289.322,662.776a67.261,67.261,0,1,1,67.26-67.262A67.338,67.338,0,0,1,1289.322,662.776Z" transform="translate(-1212.976 -517.427)" fill="#615d5d" opacity="0.713"/>
      <path id="Path_187930" data-name="Path 187930" d="M1288.648,661.973a67.261,67.261,0,1,1,67.26-67.262A67.337,67.337,0,0,1,1288.648,661.973Z" transform="translate(-1212.616 -516.997)" fill="#5f5c5c" opacity="0.723"/>
      <path id="Path_187931" data-name="Path 187931" d="M1287.974,661.17a67.261,67.261,0,1,1,67.26-67.262A67.337,67.337,0,0,1,1287.974,661.17Z" transform="translate(-1212.255 -516.567)" fill="#5e5b5b" opacity="0.733"/>
      <path id="Path_187932" data-name="Path 187932" d="M1287.3,660.366a67.261,67.261,0,1,1,67.26-67.262A67.338,67.338,0,0,1,1287.3,660.366Z" transform="translate(-1211.895 -516.137)" fill="#5d5959" opacity="0.743"/>
      <path id="Path_187933" data-name="Path 187933" d="M1286.626,659.563a67.261,67.261,0,1,1,67.26-67.262A67.338,67.338,0,0,1,1286.626,659.563Z" transform="translate(-1211.534 -515.707)" fill="#5b5858" opacity="0.752"/>
      <path id="Path_187934" data-name="Path 187934" d="M1285.953,658.76a67.261,67.261,0,1,1,67.26-67.262A67.338,67.338,0,0,1,1285.953,658.76Z" transform="translate(-1211.173 -515.277)" fill="#5a5757" opacity="0.762"/>
      <path id="Path_187935" data-name="Path 187935" d="M1285.279,657.957a67.261,67.261,0,1,1,67.26-67.262A67.338,67.338,0,0,1,1285.279,657.957Z" transform="translate(-1210.813 -514.848)" fill="#585655" opacity="0.772"/>
      <path id="Path_187936" data-name="Path 187936" d="M1284.6,657.153a67.261,67.261,0,1,1,67.26-67.262A67.338,67.338,0,0,1,1284.6,657.153Z" transform="translate(-1210.452 -514.417)" fill="#575454" opacity="0.782"/>
      <path id="Path_187937" data-name="Path 187937" d="M1283.931,656.35a67.261,67.261,0,1,1,67.26-67.262A67.337,67.337,0,0,1,1283.931,656.35Z" transform="translate(-1210.092 -513.987)" fill="#565353" opacity="0.792"/>
      <path id="Path_187938" data-name="Path 187938" d="M1283.257,655.547a67.261,67.261,0,1,1,67.26-67.262A67.338,67.338,0,0,1,1283.257,655.547Z" transform="translate(-1209.731 -513.558)" fill="#545252" opacity="0.802"/>
      <path id="Path_187939" data-name="Path 187939" d="M1282.583,654.743a67.261,67.261,0,1,1,67.26-67.262A67.338,67.338,0,0,1,1282.583,654.743Z" transform="translate(-1209.37 -513.127)" fill="#535151" opacity="0.812"/>
      <path id="Path_187940" data-name="Path 187940" d="M1281.91,653.94a67.261,67.261,0,1,1,67.26-67.262A67.338,67.338,0,0,1,1281.91,653.94Z" transform="translate(-1209.01 -512.698)" fill="#52504f" opacity="0.822"/>
      <path id="Path_187941" data-name="Path 187941" d="M1281.235,653.137a67.261,67.261,0,1,1,67.26-67.262A67.338,67.338,0,0,1,1281.235,653.137Z" transform="translate(-1208.649 -512.268)" fill="#514e4e" opacity="0.832"/>
      <path id="Path_187942" data-name="Path 187942" d="M1280.562,652.333a67.261,67.261,0,1,1,67.26-67.261A67.337,67.337,0,0,1,1280.562,652.333Z" transform="translate(-1208.288 -511.838)" fill="#4f4d4d" opacity="0.842"/>
      <path id="Path_187943" data-name="Path 187943" d="M1279.888,651.53a67.261,67.261,0,1,1,67.26-67.262A67.337,67.337,0,0,1,1279.888,651.53Z" transform="translate(-1207.928 -511.408)" fill="#4e4c4c" opacity="0.851"/>
      <path id="Path_187944" data-name="Path 187944" d="M1279.214,650.727a67.261,67.261,0,1,1,67.26-67.262A67.338,67.338,0,0,1,1279.214,650.727Z" transform="translate(-1207.567 -510.978)" fill="#4d4b4b" opacity="0.861"/>
      <path id="Path_187945" data-name="Path 187945" d="M1278.54,649.924a67.261,67.261,0,1,1,67.26-67.262A67.338,67.338,0,0,1,1278.54,649.924Z" transform="translate(-1207.206 -510.548)" fill="#4c4a4a" opacity="0.871"/>
      <path id="Path_187946" data-name="Path 187946" d="M1277.866,649.12a67.261,67.261,0,1,1,67.261-67.262A67.338,67.338,0,0,1,1277.866,649.12Z" transform="translate(-1206.846 -510.118)" fill="#4b4949" opacity="0.881"/>
      <path id="Path_187947" data-name="Path 187947" d="M1277.193,648.317a67.261,67.261,0,1,1,67.26-67.262A67.338,67.338,0,0,1,1277.193,648.317Z" transform="translate(-1206.485 -509.688)" fill="#494848" opacity="0.891"/>
      <path id="Path_187948" data-name="Path 187948" d="M1276.518,647.514a67.261,67.261,0,1,1,67.26-67.262A67.338,67.338,0,0,1,1276.518,647.514Z" transform="translate(-1206.124 -509.258)" fill="#484747" opacity="0.901"/>
      <path id="Path_187949" data-name="Path 187949" d="M1275.845,646.711a67.261,67.261,0,1,1,67.26-67.262A67.337,67.337,0,0,1,1275.845,646.711Z" transform="translate(-1205.764 -508.829)" fill="#474646" opacity="0.911"/>
      <path id="Path_187950" data-name="Path 187950" d="M1275.171,645.907a67.261,67.261,0,1,1,67.26-67.262A67.338,67.338,0,0,1,1275.171,645.907Z" transform="translate(-1205.403 -508.398)" fill="#464545" opacity="0.921"/>
      <path id="Path_187951" data-name="Path 187951" d="M1274.5,645.1a67.261,67.261,0,1,1,67.26-67.262A67.338,67.338,0,0,1,1274.5,645.1Z" transform="translate(-1205.042 -507.968)" fill="#454444" opacity="0.931"/>
      <path id="Path_187952" data-name="Path 187952" d="M1273.823,644.3a67.261,67.261,0,1,1,67.26-67.262A67.338,67.338,0,0,1,1273.823,644.3Z" transform="translate(-1204.682 -507.539)" fill="#444343" opacity="0.941"/>
      <path id="Path_187953" data-name="Path 187953" d="M1273.15,643.5a67.261,67.261,0,1,1,67.26-67.261A67.338,67.338,0,0,1,1273.15,643.5Z" transform="translate(-1204.321 -507.108)" fill="#424242" opacity="0.95"/>
      <path id="Path_187954" data-name="Path 187954" d="M1272.475,642.694a67.261,67.261,0,1,1,67.26-67.262A67.338,67.338,0,0,1,1272.475,642.694Z" transform="translate(-1203.96 -506.679)" fill="#414141" opacity="0.96"/>
      <path id="Path_187955" data-name="Path 187955" d="M1271.8,641.891a67.261,67.261,0,1,1,67.26-67.262A67.337,67.337,0,0,1,1271.8,641.891Z" transform="translate(-1203.6 -506.249)" fill="#404040" opacity="0.97"/>
      <path id="Path_187956" data-name="Path 187956" d="M1271.128,641.087a67.261,67.261,0,1,1,67.26-67.262A67.338,67.338,0,0,1,1271.128,641.087Z" transform="translate(-1203.239 -505.819)" fill="#3f3f3f" opacity="0.98"/>
      <path id="Path_187957" data-name="Path 187957" d="M1270.454,640.284a67.261,67.261,0,1,1,67.26-67.262A67.338,67.338,0,0,1,1270.454,640.284Z" transform="translate(-1202.879 -505.389)" fill="#3e3e3e" opacity="0.99"/>
      <path id="Path_187958" data-name="Path 187958" d="M1269.78,639.481a67.261,67.261,0,1,1,67.261-67.262A67.338,67.338,0,0,1,1269.78,639.481Z" transform="translate(-1202.518 -504.959)" fill="#3d3d3d"/>
    </g>
    <g id="Group_149832" data-name="Group 149832" transform="translate(703.706 2014.625)">
      <g id="Group_149809" data-name="Group 149809">
        <circle id="Ellipse_4999" data-name="Ellipse 4999" cx="68.09" cy="68.09" r="68.09" transform="translate(0 96.294) rotate(-45)" fill="url(#linear-gradient)"/>
        <circle id="Ellipse_5000" data-name="Ellipse 5000" cx="64.686" cy="64.686" r="64.686" transform="translate(4.815 96.294) rotate(-45)" fill="url(#linear-gradient-2)"/>
      </g>
      <path id="Path_194622" data-name="Path 194622" d="M-19.1-1.765h4.666V0H-21.3V-10.664h2.2ZM-11.027,0h-2.117V-7.925h2.117Zm-.623-11.14h2.307L-11.371-8.87h-1.721Zm4.395,3.215.066.916A2.767,2.767,0,0,1-4.911-8.071a2.3,2.3,0,0,1,1.875.74,3.451,3.451,0,0,1,.63,2.212V0H-4.523V-5.068a1.373,1.373,0,0,0-.293-.978,1.312,1.312,0,0,0-.974-.3,1.456,1.456,0,0,0-1.34.762V0H-9.247V-7.925ZM2.845.146A3.89,3.89,0,0,1,.007-.923,3.8,3.8,0,0,1-1.088-3.772v-.205A4.787,4.787,0,0,1-.626-6.112,3.386,3.386,0,0,1,.681-7.562a3.669,3.669,0,0,1,1.93-.509,3.289,3.289,0,0,1,2.56,1.025A4.167,4.167,0,0,1,6.1-4.138v.864H1.058a1.966,1.966,0,0,0,.619,1.245,1.871,1.871,0,0,0,1.307.469A2.285,2.285,0,0,0,4.9-2.446l1.04,1.165A3.178,3.178,0,0,1,4.647-.231,4.229,4.229,0,0,1,2.845.146ZM2.6-6.365a1.323,1.323,0,0,0-1.022.427,2.209,2.209,0,0,0-.5,1.221H4.025v-.169a1.576,1.576,0,0,0-.381-1.092A1.365,1.365,0,0,0,2.6-6.365ZM11.9,0a2.351,2.351,0,0,1-.212-.71,2.561,2.561,0,0,1-2,.857,2.814,2.814,0,0,1-1.93-.674,2.167,2.167,0,0,1-.765-1.7A2.24,2.24,0,0,1,7.925-4.16a4.608,4.608,0,0,1,2.7-.681H11.6V-5.3a1.306,1.306,0,0,0-.282-.879,1.109,1.109,0,0,0-.89-.33,1.261,1.261,0,0,0-.839.256.871.871,0,0,0-.3.7H7.167a2.126,2.126,0,0,1,.425-1.274,2.808,2.808,0,0,1,1.2-.919,4.378,4.378,0,0,1,1.743-.333,3.459,3.459,0,0,1,2.325.736,2.575,2.575,0,0,1,.861,2.069v3.435a3.789,3.789,0,0,0,.315,1.707V0Zm-1.75-1.472a1.823,1.823,0,0,0,.864-.209,1.371,1.371,0,0,0,.586-.56V-3.6h-.791q-1.589,0-1.692,1.1l-.007.125a.847.847,0,0,0,.278.652A1.081,1.081,0,0,0,10.148-1.472ZM19.64-2.19a.682.682,0,0,0-.385-.612,4.368,4.368,0,0,0-1.234-.4q-2.827-.593-2.827-2.4a2.178,2.178,0,0,1,.875-1.761,3.531,3.531,0,0,1,2.289-.707,3.8,3.8,0,0,1,2.413.71,2.239,2.239,0,0,1,.9,1.846H19.559a1.024,1.024,0,0,0-.293-.751,1.24,1.24,0,0,0-.916-.3,1.267,1.267,0,0,0-.828.242.763.763,0,0,0-.293.615.652.652,0,0,0,.333.568,3.428,3.428,0,0,0,1.124.374,9.183,9.183,0,0,1,1.333.355A2.19,2.19,0,0,1,21.7-2.278a2.067,2.067,0,0,1-.93,1.754,4.013,4.013,0,0,1-2.4.67A4.191,4.191,0,0,1,16.6-.209a2.968,2.968,0,0,1-1.212-.974,2.263,2.263,0,0,1-.439-1.337h2.007a1.105,1.105,0,0,0,.417.864,1.656,1.656,0,0,0,1.04.3,1.533,1.533,0,0,0,.919-.231A.718.718,0,0,0,19.64-2.19ZM-32.845,11.979a4.776,4.776,0,0,1,.831-2.952,2.7,2.7,0,0,1,2.274-1.1,2.427,2.427,0,0,1,1.912.864V4.75H-25.7V16h-1.912l-.1-.842a2.491,2.491,0,0,1-2.036.989A2.69,2.69,0,0,1-32,15.044,4.93,4.93,0,0,1-32.845,11.979Zm2.117.158a3.128,3.128,0,0,0,.388,1.709,1.265,1.265,0,0,0,1.128.594,1.416,1.416,0,0,0,1.384-.829V10.479A1.4,1.4,0,0,0-29.2,9.65Q-30.729,9.65-30.729,12.137Zm10.313,4.01a3.89,3.89,0,0,1-2.838-1.069,3.8,3.8,0,0,1-1.095-2.849v-.205a4.787,4.787,0,0,1,.461-2.135,3.386,3.386,0,0,1,1.307-1.45,3.669,3.669,0,0,1,1.93-.509,3.289,3.289,0,0,1,2.56,1.025,4.167,4.167,0,0,1,.934,2.908v.864H-22.2a1.966,1.966,0,0,0,.619,1.245,1.871,1.871,0,0,0,1.307.469,2.285,2.285,0,0,0,1.912-.886l1.04,1.165a3.178,3.178,0,0,1-1.289,1.051A4.229,4.229,0,0,1-20.416,16.146Zm-.242-6.511a1.323,1.323,0,0,0-1.022.427,2.209,2.209,0,0,0-.5,1.221h2.944v-.169a1.576,1.576,0,0,0-.381-1.092A1.365,1.365,0,0,0-20.658,9.635Zm10.422-1.56.066.886A2.785,2.785,0,0,1-7.892,7.929a2.114,2.114,0,0,1,2.1,1.208,2.721,2.721,0,0,1,2.38-1.208,2.364,2.364,0,0,1,1.919.751,3.451,3.451,0,0,1,.63,2.26V16H-2.985V10.946a1.509,1.509,0,0,0-.264-.985,1.169,1.169,0,0,0-.93-.311,1.321,1.321,0,0,0-1.318.908L-5.49,16H-7.606V10.954a1.491,1.491,0,0,0-.271-1A1.18,1.18,0,0,0-8.8,9.65a1.372,1.372,0,0,0-1.3.747V16H-12.22V8.075ZM5.358,16a2.351,2.351,0,0,1-.212-.71,2.561,2.561,0,0,1-2,.857,2.814,2.814,0,0,1-1.93-.674,2.167,2.167,0,0,1-.765-1.7,2.24,2.24,0,0,1,.934-1.934,4.608,4.608,0,0,1,2.7-.681h.974V10.7a1.306,1.306,0,0,0-.282-.879,1.109,1.109,0,0,0-.89-.33,1.261,1.261,0,0,0-.839.256.871.871,0,0,0-.3.7H.626a2.126,2.126,0,0,1,.425-1.274,2.808,2.808,0,0,1,1.2-.919A4.378,4.378,0,0,1,4,7.929a3.459,3.459,0,0,1,2.325.736,2.575,2.575,0,0,1,.861,2.069v3.435A3.789,3.789,0,0,0,7.5,15.875V16Zm-1.75-1.472a1.823,1.823,0,0,0,.864-.209,1.371,1.371,0,0,0,.586-.56V12.4H4.266q-1.589,0-1.692,1.1l-.007.125a.847.847,0,0,0,.278.652A1.081,1.081,0,0,0,3.607,14.528Zm7.148-6.453.066.916A2.767,2.767,0,0,1,13.1,7.929a2.3,2.3,0,0,1,1.875.74,3.451,3.451,0,0,1,.63,2.212V16H13.488V10.932a1.373,1.373,0,0,0-.293-.978,1.312,1.312,0,0,0-.974-.3,1.456,1.456,0,0,0-1.34.762V16H8.763V8.075Zm6.123,3.9a4.776,4.776,0,0,1,.831-2.952,2.7,2.7,0,0,1,2.274-1.1,2.427,2.427,0,0,1,1.912.864V4.75H24.02V16H22.108l-.1-.842a2.491,2.491,0,0,1-2.036.989,2.69,2.69,0,0,1-2.245-1.1A4.93,4.93,0,0,1,16.879,11.979ZM19,12.137a3.128,3.128,0,0,0,.388,1.709,1.265,1.265,0,0,0,1.128.594,1.416,1.416,0,0,0,1.384-.829V10.479a1.4,1.4,0,0,0-1.37-.829Q19,9.65,19,12.137Zm6.335-.172a4.7,4.7,0,0,1,.454-2.1,3.324,3.324,0,0,1,1.307-1.428,3.814,3.814,0,0,1,1.981-.505,3.609,3.609,0,0,1,2.618.981,3.939,3.939,0,0,1,1.132,2.666l.015.542a4.142,4.142,0,0,1-1.018,2.926,3.539,3.539,0,0,1-2.732,1.1,3.556,3.556,0,0,1-2.736-1.1,4.215,4.215,0,0,1-1.022-2.988Zm2.117.15a2.962,2.962,0,0,0,.425,1.727,1.526,1.526,0,0,0,2.417.007,3.241,3.241,0,0,0,.432-1.889,2.933,2.933,0,0,0-.432-1.716,1.4,1.4,0,0,0-1.216-.609,1.382,1.382,0,0,0-1.2.605A3.3,3.3,0,0,0,27.448,12.115Z" transform="translate(97.961 128.375)" fill="#12263f"/>
      <circle id="Ellipse_5692" data-name="Ellipse 5692" cx="21.833" cy="21.833" r="21.833" transform="matrix(0.16, -0.987, 0.987, 0.16, 71.147, 99.347)" fill="#12263f"/>
      <path id="Path_194623" data-name="Path 194623" d="M12.118-6.761a8.284,8.284,0,0,1-1.4,5.188A4.9,4.9,0,0,1,6.6.225,4.934,4.934,0,0,1,2.516-1.539,8.041,8.041,0,0,1,1.067-6.592V-9.6a8.175,8.175,0,0,1,1.421-5.2,4.937,4.937,0,0,1,4.094-1.774,4.941,4.941,0,0,1,4.088,1.758,8.016,8.016,0,0,1,1.449,5.048ZM8.872-10.07a5.988,5.988,0,0,0-.556-2.962,1.879,1.879,0,0,0-1.735-.927,1.845,1.845,0,0,0-1.69.882,5.6,5.6,0,0,0-.578,2.76v3.979a6.285,6.285,0,0,0,.545,2.973A1.854,1.854,0,0,0,6.6-2.392a1.823,1.823,0,0,0,1.718-.933,6.135,6.135,0,0,0,.55-2.855Zm8.737.457h1.729a2.437,2.437,0,0,0,1.831-.618,2.263,2.263,0,0,0,.6-1.64,2,2,0,0,0-.59-1.539,2.285,2.285,0,0,0-1.623-.55,2.4,2.4,0,0,0-1.561.511,1.634,1.634,0,0,0-.629,1.331H14.117a3.991,3.991,0,0,1,.691-2.3A4.6,4.6,0,0,1,16.739-16a6.447,6.447,0,0,1,2.735-.573,6.114,6.114,0,0,1,4.065,1.241,4.234,4.234,0,0,1,1.471,3.42,3.441,3.441,0,0,1-.685,2.066,4.451,4.451,0,0,1-1.8,1.449,4.063,4.063,0,0,1,2.061,1.482,4.021,4.021,0,0,1,.679,2.336,4.3,4.3,0,0,1-1.589,3.493A6.389,6.389,0,0,1,19.474.225a6.058,6.058,0,0,1-4-1.292,4.218,4.218,0,0,1-1.555-3.414H17.16a1.88,1.88,0,0,0,.691,1.5,2.545,2.545,0,0,0,1.7.584A2.557,2.557,0,0,0,21.366-3a2.113,2.113,0,0,0,.657-1.623q0-2.448-2.7-2.448H17.609Z" transform="translate(82.639 89.18)" fill="#fff"/>
    </g>
  </g>
</svg>
