<svg xmlns="http://www.w3.org/2000/svg" xmlns:xlink="http://www.w3.org/1999/xlink" width="321" height="88" viewBox="0 0 321 88">
  <defs>
    <filter id="Path_194620" x="0" y="0" width="321" height="88" filterUnits="userSpaceOnUse">
      <feOffset dy="3" input="SourceAlpha"/>
      <feGaussianBlur stdDeviation="3" result="blur"/>
      <feFlood flood-opacity="0.161"/>
      <feComposite operator="in" in2="blur"/>
      <feComposite in="SourceGraphic"/>
    </filter>
    <filter id="Path_194621" x="0" y="0" width="103" height="88" filterUnits="userSpaceOnUse">
      <feOffset dy="3" input="SourceAlpha"/>
      <feGaussianBlur stdDeviation="3" result="blur-2"/>
      <feFlood flood-opacity="0.161"/>
      <feComposite operator="in" in2="blur-2"/>
      <feComposite in="SourceGraphic"/>
    </filter>
  </defs>
  <g id="Group_154282" data-name="Group 154282" transform="translate(-708 -10648)">
    <g transform="matrix(1, 0, 0, 1, 708, 10648)" filter="url(#Path_194620)">
      <path id="Path_194620-2" data-name="Path 194620" d="M10,0H293a10,10,0,0,1,10,10V60a10,10,0,0,1-10,10H10A10,10,0,0,1,0,60V10A10,10,0,0,1,10,0Z" transform="translate(9 6)" fill="#ede7f7"/>
    </g>
    <g transform="matrix(1, 0, 0, 1, 708, 10648)" filter="url(#Path_194621)">
      <path id="Path_194621-2" data-name="Path 194621" d="M10,0H75A10,10,0,0,1,85,10V60A10,10,0,0,1,75,70H10A10,10,0,0,1,0,60V10A10,10,0,0,1,10,0Z" transform="translate(9 6)" fill="#e8e8e8"/>
    </g>
    <path id="Path_194622" data-name="Path 194622" d="M25.32,11.57a6.867,6.867,0,0,1-.594,2.945,4.472,4.472,0,0,1-1.7,1.953,5.021,5.021,0,0,1-5.059.008,4.515,4.515,0,0,1-1.719-1.941,6.67,6.67,0,0,1-.617-2.9V11.07a6.831,6.831,0,0,1,.605-2.957,4.508,4.508,0,0,1,1.711-1.961,5.014,5.014,0,0,1,5.055,0,4.508,4.508,0,0,1,1.711,1.961,6.811,6.811,0,0,1,.605,2.949Zm-2.375-.516A4.787,4.787,0,0,0,22.3,8.336a2.263,2.263,0,0,0-3.648-.012,4.732,4.732,0,0,0-.648,2.691v.555a4.847,4.847,0,0,0,.641,2.7,2.243,2.243,0,0,0,3.656.035,4.819,4.819,0,0,0,.641-2.7Zm11.547,1.8a5.119,5.119,0,0,1-.867,3.168A2.872,2.872,0,0,1,31.2,17.156a2.639,2.639,0,0,1-2.2-1.055l-.1.9H26.875V5h2.258V9.3a2.571,2.571,0,0,1,2.055-.914,2.9,2.9,0,0,1,2.426,1.137,5.126,5.126,0,0,1,.879,3.2Zm-2.258-.164a3.363,3.363,0,0,0-.406-1.871,1.374,1.374,0,0,0-1.211-.59,1.489,1.489,0,0,0-1.484.883v3.336a1.509,1.509,0,0,0,1.5.891,1.394,1.394,0,0,0,1.438-1.078A5.562,5.562,0,0,0,32.234,12.688Zm8.227,1.977a.727.727,0,0,0-.41-.652,4.659,4.659,0,0,0-1.316-.426q-3.016-.633-3.016-2.562a2.323,2.323,0,0,1,.934-1.879,3.766,3.766,0,0,1,2.441-.754,4.053,4.053,0,0,1,2.574.758,2.388,2.388,0,0,1,.965,1.969H40.375a1.092,1.092,0,0,0-.312-.8A1.322,1.322,0,0,0,39.086,10a1.351,1.351,0,0,0-.883.258.814.814,0,0,0-.312.656.7.7,0,0,0,.355.605,3.657,3.657,0,0,0,1.2.4,9.8,9.8,0,0,1,1.422.379,2.336,2.336,0,0,1,1.789,2.273,2.2,2.2,0,0,1-.992,1.871,4.28,4.28,0,0,1-2.562.715,4.47,4.47,0,0,1-1.887-.379,3.166,3.166,0,0,1-1.293-1.039,2.414,2.414,0,0,1-.469-1.426h2.141a1.179,1.179,0,0,0,.445.922,1.766,1.766,0,0,0,1.109.32,1.635,1.635,0,0,0,.98-.246A.766.766,0,0,0,40.461,14.664ZM48,17.156a4.15,4.15,0,0,1-3.027-1.141A4.054,4.054,0,0,1,43.8,12.977v-.219A5.106,5.106,0,0,1,44.3,10.48a3.612,3.612,0,0,1,1.395-1.547,3.914,3.914,0,0,1,2.059-.543,3.508,3.508,0,0,1,2.73,1.094,4.444,4.444,0,0,1,1,3.1v.922H46.094a2.1,2.1,0,0,0,.66,1.328,2,2,0,0,0,1.395.5,2.437,2.437,0,0,0,2.039-.945L51.3,15.633a3.389,3.389,0,0,1-1.375,1.121A4.511,4.511,0,0,1,48,17.156Zm-.258-6.945a1.411,1.411,0,0,0-1.09.455,2.357,2.357,0,0,0-.535,1.3h3.141v-.181a1.681,1.681,0,0,0-.406-1.165A1.456,1.456,0,0,0,47.742,10.211Zm9.766.453A6.134,6.134,0,0,0,56.7,10.6a1.654,1.654,0,0,0-1.68.867V17H52.758V8.547h2.133l.063,1.008a2.092,2.092,0,0,1,1.883-1.164,2.366,2.366,0,0,1,.7.1ZM61.9,14.242l1.57-5.7h2.359L62.977,17H60.82L57.969,8.547h2.359ZM71.6,17a2.507,2.507,0,0,1-.227-.758,2.732,2.732,0,0,1-2.133.914,3,3,0,0,1-2.059-.719,2.312,2.312,0,0,1-.816-1.812,2.389,2.389,0,0,1,1-2.062,4.915,4.915,0,0,1,2.879-.727h1.039v-.484a1.393,1.393,0,0,0-.3-.937,1.183,1.183,0,0,0-.949-.352,1.345,1.345,0,0,0-.895.273.929.929,0,0,0-.324.75H66.555a2.268,2.268,0,0,1,.453-1.359,3,3,0,0,1,1.281-.98,4.669,4.669,0,0,1,1.859-.355,3.689,3.689,0,0,1,2.48.785,2.747,2.747,0,0,1,.918,2.207v3.664a4.041,4.041,0,0,0,.336,1.82V17Zm-1.867-1.57a1.945,1.945,0,0,0,.922-.223,1.462,1.462,0,0,0,.625-.6V13.156h-.844q-1.7,0-1.8,1.172l-.008.133a.9.9,0,0,0,.3.7A1.153,1.153,0,0,0,69.734,15.43Zm8.25-8.961V8.547H79.43V10.2H77.984v4.219a1.007,1.007,0,0,0,.18.672.9.9,0,0,0,.688.2,3.6,3.6,0,0,0,.664-.055v1.711a4.648,4.648,0,0,1-1.367.2,2.156,2.156,0,0,1-2.422-2.4V10.2H74.492V8.547h1.234V6.469ZM80.1,12.7a5.013,5.013,0,0,1,.484-2.242A3.546,3.546,0,0,1,81.98,8.93a4.069,4.069,0,0,1,2.113-.539,3.849,3.849,0,0,1,2.793,1.047,4.2,4.2,0,0,1,1.207,2.844l.016.578a4.418,4.418,0,0,1-1.086,3.121,4.209,4.209,0,0,1-5.832,0A4.5,4.5,0,0,1,80.1,12.8Zm2.258.16a3.16,3.16,0,0,0,.453,1.843,1.628,1.628,0,0,0,2.578.008,3.457,3.457,0,0,0,.461-2.015,3.128,3.128,0,0,0-.461-1.831,1.5,1.5,0,0,0-1.3-.649,1.474,1.474,0,0,0-1.281.646A3.516,3.516,0,0,0,82.359,12.856ZM94.25,10.664a6.134,6.134,0,0,0-.812-.062,1.654,1.654,0,0,0-1.68.867V17H89.5V8.547h2.133L91.7,9.555a2.092,2.092,0,0,1,1.883-1.164,2.366,2.366,0,0,1,.7.1ZM97.719,17H95.453V8.547h2.266ZM95.32,6.359a1.112,1.112,0,0,1,.34-.836,1.465,1.465,0,0,1,1.848,0,1.105,1.105,0,0,1,.344.836A1.108,1.108,0,0,1,97.5,7.2a1.448,1.448,0,0,1-1.836,0A1.108,1.108,0,0,1,95.32,6.359ZM99.227,12.7a5.013,5.013,0,0,1,.484-2.242,3.546,3.546,0,0,1,1.395-1.523,4.069,4.069,0,0,1,2.113-.539,3.849,3.849,0,0,1,2.793,1.047,4.2,4.2,0,0,1,1.207,2.844l.016.578a4.418,4.418,0,0,1-1.086,3.121,4.209,4.209,0,0,1-5.832,0,4.5,4.5,0,0,1-1.09-3.187Zm2.258.16a3.16,3.16,0,0,0,.453,1.843,1.628,1.628,0,0,0,2.578.008,3.457,3.457,0,0,0,.461-2.015,3.128,3.128,0,0,0-.461-1.831,1.5,1.5,0,0,0-1.3-.649,1.474,1.474,0,0,0-1.281.646A3.516,3.516,0,0,0,101.484,12.856ZM114.992,17h-2.266V5h2.266Zm6.758,0a2.507,2.507,0,0,1-.227-.758,2.732,2.732,0,0,1-2.133.914,3,3,0,0,1-2.059-.719,2.312,2.312,0,0,1-.816-1.812,2.389,2.389,0,0,1,1-2.062,4.915,4.915,0,0,1,2.879-.727h1.039v-.484a1.393,1.393,0,0,0-.3-.937,1.183,1.183,0,0,0-.949-.352,1.345,1.345,0,0,0-.895.273.929.929,0,0,0-.324.75H116.7a2.268,2.268,0,0,1,.453-1.359,3,3,0,0,1,1.281-.98,4.669,4.669,0,0,1,1.859-.355,3.689,3.689,0,0,1,2.48.785,2.747,2.747,0,0,1,.918,2.207v3.664a4.041,4.041,0,0,0,.336,1.82V17Zm-1.867-1.57a1.945,1.945,0,0,0,.922-.223,1.462,1.462,0,0,0,.625-.6V13.156h-.844q-1.7,0-1.8,1.172l-.008.133a.9.9,0,0,0,.3.7A1.153,1.153,0,0,0,119.883,15.43Zm13.164-2.578a5.119,5.119,0,0,1-.867,3.168,2.872,2.872,0,0,1-2.422,1.137,2.639,2.639,0,0,1-2.2-1.055l-.1.9H125.43V5h2.258V9.3a2.571,2.571,0,0,1,2.055-.914,2.9,2.9,0,0,1,2.426,1.137,5.126,5.126,0,0,1,.879,3.2Zm-2.258-.164a3.363,3.363,0,0,0-.406-1.871,1.374,1.374,0,0,0-1.211-.59,1.489,1.489,0,0,0-1.484.883v3.336a1.509,1.509,0,0,0,1.5.891,1.394,1.394,0,0,0,1.438-1.078A5.562,5.562,0,0,0,130.789,12.688Zm3.3.008a5.013,5.013,0,0,1,.484-2.242,3.546,3.546,0,0,1,1.395-1.523,4.069,4.069,0,0,1,2.113-.539,3.849,3.849,0,0,1,2.793,1.047,4.2,4.2,0,0,1,1.207,2.844l.016.578a4.418,4.418,0,0,1-1.086,3.121,4.209,4.209,0,0,1-5.832,0,4.5,4.5,0,0,1-1.09-3.187Zm2.258.16A3.16,3.16,0,0,0,136.8,14.7a1.628,1.628,0,0,0,2.578.008,3.457,3.457,0,0,0,.461-2.015,3.128,3.128,0,0,0-.461-1.831,1.5,1.5,0,0,0-1.3-.649,1.474,1.474,0,0,0-1.281.646A3.516,3.516,0,0,0,136.344,12.856Zm11.891-2.192a6.134,6.134,0,0,0-.812-.062,1.654,1.654,0,0,0-1.68.867V17h-2.258V8.547h2.133l.063,1.008a2.092,2.092,0,0,1,1.883-1.164,2.366,2.366,0,0,1,.7.1ZM153.984,17a2.507,2.507,0,0,1-.227-.758,2.732,2.732,0,0,1-2.133.914,3,3,0,0,1-2.059-.719,2.312,2.312,0,0,1-.816-1.812,2.389,2.389,0,0,1,1-2.062,4.915,4.915,0,0,1,2.879-.727h1.039v-.484a1.393,1.393,0,0,0-.3-.937,1.183,1.183,0,0,0-.949-.352,1.345,1.345,0,0,0-.895.273.929.929,0,0,0-.324.75h-2.258a2.268,2.268,0,0,1,.453-1.359,3,3,0,0,1,1.281-.98,4.669,4.669,0,0,1,1.859-.355,3.689,3.689,0,0,1,2.48.785,2.747,2.747,0,0,1,.918,2.207v3.664a4.041,4.041,0,0,0,.336,1.82V17Zm-1.867-1.57a1.945,1.945,0,0,0,.922-.223,1.462,1.462,0,0,0,.625-.6V13.156h-.844q-1.7,0-1.8,1.172l-.008.133a.9.9,0,0,0,.3.7A1.153,1.153,0,0,0,152.117,15.43Zm7.93,1.57h-2.266V5h2.266Z" transform="translate(822 10680)" fill="#12263f"/>
    <g id="_5KWReG.tif" data-name="5KWReG.tif" transform="translate(-1076.896 10819.654)">
      <g id="Group_151395" data-name="Group 151395" transform="translate(1810.245 -159.446)">
        <path id="Path_193794" data-name="Path 193794" d="M1832.916-106.955c-.891-.131-1.789-.229-2.672-.4a22.222,22.222,0,0,1-14.186-8.984,22.088,22.088,0,0,1-4.243-15.3,21.452,21.452,0,0,1,2.294-8.023c.084-.166.167-.333.226-.45-.685-.76-1.409-1.443-1.993-2.229a10.755,10.755,0,0,1,7.393-17.03,10.716,10.716,0,0,1,11.327,6.879c.124.33.249.425.618.39,1.121-.105,2.247-.195,3.372-.2,4.545-.021,9.09-.009,13.636-.009.694,0,.682,0,.7-.68a2.166,2.166,0,0,1,.148-.842,1.046,1.046,0,0,1,1.536-.393q2.64,1.719,5.246,3.49a1.069,1.069,0,0,1-.016,1.818q-2.583,1.758-5.2,3.461a1.087,1.087,0,0,1-1.711-.938c-.015-.3,0-.607,0-.96h-.611c-4.7,0-9.4-.009-14.1.008-.9,0-1.806.1-2.706.182a.508.508,0,0,0-.364.306,10.861,10.861,0,0,1-3.665,6.395c.489.481.965.959,1.457,1.42a.391.391,0,0,0,.311.024c.146-.04.274-.161.419-.184,1.074-.172,1.293-.854,1.164-1.815a8.906,8.906,0,0,1-.007-1.485,1.378,1.378,0,0,1,1.36-1.45c1.157-.05,2.318-.05,3.475,0a1.385,1.385,0,0,1,1.387,1.477c.017.769.025,1.539,0,2.307-.015.38.066.612.47.7a1.757,1.757,0,0,1,.662.263c.5.361.83.189,1.192-.231.446-.516.952-.981,1.443-1.455a1.361,1.361,0,0,1,2.017-.088,31.923,31.923,0,0,1,2.362,2.337,1.437,1.437,0,0,1-.127,2.285c-.6.6-1.217,1.2-1.828,1.8.227.567.424,1.107.666,1.628a.527.527,0,0,0,.4.193c.786.018,1.572,0,2.358.011,1,.01,1.532.425,1.586,1.415a33.485,33.485,0,0,1-.015,3.525,1.324,1.324,0,0,1-1.419,1.259c-.837.013-1.675-.01-2.511.017a.6.6,0,0,0-.439.278c-.23.474-.406.974-.623,1.518.6.6,1.229,1.224,1.853,1.852a1.413,1.413,0,0,1,.133,2.208,29.785,29.785,0,0,1-2.394,2.377,1.368,1.368,0,0,1-2.057-.116c-.576-.56-1.146-1.126-1.7-1.7a.4.4,0,0,0-.575-.093,3.068,3.068,0,0,1-.463.216c-.982.415-.982.414-.982,1.5,0,.53.006,1.06,0,1.589a1.392,1.392,0,0,1-1.393,1.575,28.852,28.852,0,0,1-3.526-.016,1.352,1.352,0,0,1-1.308-1.489c-.014-.786-.019-1.573,0-2.358.01-.321-.062-.52-.4-.584a.956.956,0,0,1-.382-.14c-.776-.575-1.329-.278-1.858.4a10.862,10.862,0,0,1-1.154,1.164,1.338,1.338,0,0,1-1.94.1,36.208,36.208,0,0,1-2.564-2.567,1.329,1.329,0,0,1,.127-1.934c.655-.672,1.33-1.325,1.975-1.965-.221-.554-.418-1.062-.629-1.563a1.1,1.1,0,0,0-.212-.251,1.09,1.09,0,0,0-.247.221,2.336,2.336,0,0,1-2.26,1.218c-.58-.019-1.162,0-1.743-.006a2.25,2.25,0,0,1-2.169-1.706,13.444,13.444,0,0,1-.359-1.649c-.063-.484-.274-.652-.774-.534a14.676,14.676,0,0,0,.691,4.265c2.309,7.021,7.092,11.327,14.374,12.58a17.645,17.645,0,0,0,20-14.094,26.413,26.413,0,0,0,.313-2.692,1.388,1.388,0,0,1,1.583-1.468c.683.011,1.367.024,2.05.049a1.3,1.3,0,0,1,1.345,1.417,22.613,22.613,0,0,1-5.562,14.163.793.793,0,0,1-1.167.183c-.369-.317-.372-.748.031-1.217a20.907,20.907,0,0,0,4.735-9.634c.218-1.083.319-2.19.483-3.358h-1.841a37.55,37.55,0,0,1-.742,4.019c-2.315,7.833-7.479,12.7-15.533,14.1a19.1,19.1,0,0,1-21.933-15.165,36.309,36.309,0,0,1-.38-3.918,1.711,1.711,0,0,0-.058-.552,2.59,2.59,0,0,1,.382-2.989c-1.047-1.63-.909-2.8.5-3.988l-.517-1.623c-.187.388-.332.667-.459.953a21.048,21.048,0,0,0,5.492,24.228,20.78,20.78,0,0,0,14.594,5.213,20.742,20.742,0,0,0,12.227-4.4c.136-.1.266-.215.406-.313a.772.772,0,0,1,1.134.1.751.751,0,0,1-.215,1.117c-1.046.737-2.074,1.512-3.181,2.144a21.889,21.889,0,0,1-9.276,2.828,3.223,3.223,0,0,0-.4.08Zm-6.344-26.289c.031.045.109.154.183.266a2.552,2.552,0,0,1-1.536,3.93c-.655.159-.7.22-.664.97a1.578,1.578,0,0,1,1.372,1.261,9.165,9.165,0,0,0,.506,1.228,1.494,1.494,0,0,1-.327,2.029c-.612.616-1.229,1.228-1.912,1.91l2.254,2.236c.722-.738,1.347-1.394,1.991-2.029a1.4,1.4,0,0,1,1.775-.288c.5.223,1,.433,1.511.625a1.437,1.437,0,0,1,1.1,1.579c0,.359,0,.718,0,1.076v1.632h3.157c0-1.024-.006-1.963,0-2.9a1.334,1.334,0,0,1,.9-1.3c.614-.255,1.228-.508,1.84-.767a1.378,1.378,0,0,1,1.6.3c.432.414.846.845,1.272,1.265.25.247.5.487.862.831l2.237-2.2c-.784-.773-1.444-1.412-2.09-2.066a1.416,1.416,0,0,1-.3-1.776c.217-.481.431-.966.613-1.461a1.483,1.483,0,0,1,1.638-1.17c.869,0,1.738,0,2.7,0,0-.925-.005-1.808,0-2.69,0-.364-.175-.454-.511-.445-.734.02-1.469.013-2.2,0a1.482,1.482,0,0,1-1.632-1.181c-.149-.417-.31-.832-.5-1.231a1.539,1.539,0,0,1,.38-2.188c.587-.587,1.178-1.17,1.847-1.833l-2.21-2.27c-.76.769-1.39,1.417-2.032,2.052a1.418,1.418,0,0,1-1.818.31c-.433-.2-.866-.406-1.315-.566-1.039-.37-1.28-.692-1.281-1.805,0-.832,0-1.665,0-2.548h-3.156c0,.992.006,1.911,0,2.831a1.387,1.387,0,0,1-1.014,1.431c-.493.189-.989.376-1.466.6a1.47,1.47,0,0,1-2.022-.344c-.477-.478-.944-.966-1.519-1.556-.256.717-.448,1.294-.671,1.859a.448.448,0,0,0,.168.6,2.369,2.369,0,0,1,.852,2.386A7.772,7.772,0,0,1,1826.571-133.245Zm-4.808-4.4c.8,0,1.52-.033,2.233.012a.577.577,0,0,0,.7-.534,6.518,6.518,0,0,1,2.286-3.536,8.74,8.74,0,0,0,3.1-8.494,9.141,9.141,0,0,0-10.491-7.61,9.3,9.3,0,0,0-7.8,8.7,9.108,9.108,0,0,0,3.479,7.628,5.474,5.474,0,0,1,1.88,2.8,6.254,6.254,0,0,0,.26.775c.045.1.17.243.261.245.832.019,1.665.011,2.548.011,0-1.473.008-2.887-.017-4.3,0-.1-.231-.25-.375-.278a6.59,6.59,0,0,1-5.26-7.778,6.543,6.543,0,0,1,7.682-5.116,6.337,6.337,0,0,1,4.926,4.241.766.766,0,0,1-.412,1.059.776.776,0,0,1-1-.47c-.057-.124-.093-.257-.147-.382a5.021,5.021,0,0,0-4.652-3.038,5.024,5.024,0,0,0-4.605,3.109,5.013,5.013,0,0,0,1.084,5.449,4.825,4.825,0,0,0,2.753,1.4v-1.724c-.2-.081-.389-.151-.573-.236a3.289,3.289,0,0,1-1.651-4.275,3.3,3.3,0,0,1,4.229-1.772,3.313,3.313,0,0,1,2.1,3.066,3.348,3.348,0,0,1-2.1,3.073c-.17.07-.4.241-.418.387a13.509,13.509,0,0,0-.02,1.484c.2-.035.346-.049.488-.087a4.9,4.9,0,0,0,3.307-2.756c.1-.215.171-.447.274-.661a.715.715,0,0,1,.937-.406.713.713,0,0,1,.5.891,2.089,2.089,0,0,1-.144.436,6.531,6.531,0,0,1-4.94,4.1c-.154.033-.4.2-.4.311C1821.754-140.519,1821.763-139.121,1821.763-137.649Zm10.034-11.087c.631-.051,1.209-.137,1.787-.139q8.123-.022,16.247-.016a1,1,0,0,1,1.09,1.039c.015.192.02.384.033.659l3.968-2.644-3.955-2.629c-.019.172-.036.27-.04.368-.037,1.028-.346,1.329-1.38,1.331-.786,0-1.572,0-2.358,0q-6.919.013-13.838.033c-.571,0-1.141.1-1.727.149Zm-10.828,18.209c1.178,0,2.356,0,3.535,0,.724,0,1.154-.392,1.15-1.015a1,1,0,0,0-1.114-1.007q-3.535-.016-7.069,0a1.033,1.033,0,0,0-1.138,1.048,1.036,1.036,0,0,0,1.153.975C1818.647-130.522,1819.808-130.527,1820.969-130.527ZM1821-134.1v0c1.161,0,2.322.007,3.483,0,.736-.006,1.163-.385,1.167-1s-.424-1-1.153-1.012c-.375-.006-.751,0-1.127,0-1.946,0-3.892,0-5.839,0a1.08,1.08,0,0,0-1.079.535.992.992,0,0,0,.911,1.472C1818.58-134.079,1819.793-134.1,1821-134.1Zm-.01-12.844a1.765,1.765,0,0,0,1.763-1.757,1.753,1.753,0,0,0-1.724-1.739,1.722,1.722,0,0,0-1.776,1.726A1.732,1.732,0,0,0,1820.995-146.944Zm-2.06,17.978a15,15,0,0,0,.448,1.85.958.958,0,0,0,.693.463,17.978,17.978,0,0,0,1.889.022.685.685,0,0,0,.729-.523c.152-.587.261-1.186.394-1.811Z" transform="translate(-1810.245 159.446)" fill="#12263f"/>
        <path id="Path_193795" data-name="Path 193795" d="M2185.97,4.246c-.769,0-1.538-.009-2.306,0a1.419,1.419,0,0,1-1.349-.762q-1.173-2.042-2.355-4.08a1.4,1.4,0,0,1-.009-1.5q1.194-2.06,2.383-4.123a1.354,1.354,0,0,1,1.261-.725q2.383.008,4.767,0a1.389,1.389,0,0,1,1.3.755q1.176,2.041,2.356,4.079A1.439,1.439,0,0,1,2192-.56q-1.172,2.013-2.332,4.034a1.42,1.42,0,0,1-1.342.773C2187.542,4.239,2186.756,4.246,2185.97,4.246Zm.006-1.538c.666,0,1.333.02,2-.013a.728.728,0,0,0,.516-.283q1.042-1.733,2.02-3.5a.65.65,0,0,0-.009-.538q-.97-1.745-2-3.459a.712.712,0,0,0-.505-.3q-2.024-.037-4.049,0a.655.655,0,0,0-.465.279q-1.026,1.712-2,3.457a.712.712,0,0,0-.009.59q.966,1.747,2,3.457a.782.782,0,0,0,.551.3C2184.676,2.731,2185.327,2.708,2185.976,2.708Z" transform="translate(-2141.773 22.613)" fill="#12263f"/>
        <path id="Path_193796" data-name="Path 193796" d="M1984.964,63.507a6.889,6.889,0,0,1,6.688,4.985c.164.577-.007.994-.459,1.123-.472.135-.814-.1-1.006-.684a5.368,5.368,0,0,0-10.321,2.954,5.364,5.364,0,0,0,10.039.752c.071-.155.125-.318.2-.469a.772.772,0,0,1,.993-.39.719.719,0,0,1,.4.981,11.423,11.423,0,0,1-1.369,2.26,6.805,6.805,0,0,1-7.667,1.8,6.9,6.9,0,0,1,2.5-13.311Z" transform="translate(-1960.87 -40.6)" fill="#12263f"/>
        <path id="Path_193797" data-name="Path 193797" d="M2015.434,96.839a3.871,3.871,0,1,1-3.853-3.9A3.886,3.886,0,0,1,2015.434,96.839Zm-1.538,0a2.333,2.333,0,1,0-2.347,2.335A2.329,2.329,0,0,0,2013.9,96.836Z" transform="translate(-1987.406 -67.011)" fill="#12263f"/>
        <path id="Path_193798" data-name="Path 193798" d="M2212.306,22.041a2.912,2.912,0,1,1,5.825-.023,2.912,2.912,0,1,1-5.825.023Zm2.9,1.368a1.378,1.378,0,0,0,.046-2.756,1.378,1.378,0,1,0-.046,2.756Z" transform="translate(-2170.997 -0.767)" fill="#12263f"/>
      </g>
    </g>
  </g>
</svg>
