<svg xmlns="http://www.w3.org/2000/svg" width="90.231" height="97.699" viewBox="0 0 90.231 97.699">
  <g id="Group_154284" data-name="Group 154284" transform="translate(-244 -11263.935)">
    <path id="Polygon_48" data-name="Polygon 48" d="M12.5,0,25,19H0Z" transform="translate(263 11263.935) rotate(90)" fill="#2194e5"/>
    <g id="JFsKjU.tif" transform="translate(196.896 11297.333)">
      <g id="Group_53947" data-name="Group 53947" transform="translate(56.604 -16.446)">
        <path id="Path_115819" data-name="Path 115819" d="M76.943,64.3c-1.249-1.025-1.432-2.191-.4-2.981a2.6,2.6,0,0,1,1.373-.458,8.281,8.281,0,0,0,7.862-7.1c.056-.359.107-.719.182-1.226H84.845q-11.431,0-22.862,0A5.364,5.364,0,0,1,56.7,48.408a4.376,4.376,0,0,1-.1-1.014q-.007-23.459,0-46.918a5.227,5.227,0,0,1,4.729-5.116c2.228-.11,4.465-.033,6.7-.034a1.583,1.583,0,0,1,.332.08v3.248c-.237.011-.486.032-.735.032-1.892,0-3.784,0-5.676,0-1.54,0-1.973.418-1.973,1.966q-.008,14.785,0,29.569,0,8.279,0,16.558c0,.21-.009.421,0,.631.052,1.291.5,1.742,1.8,1.746,3.416.01,6.832,0,10.249,0h50.938l-4.821-4.808a41.394,41.394,0,0,1-5.2,1.755c-6.8,1.4-12.585-.645-17.424-5.521A17.56,17.56,0,0,1,91.7,34.767,1.025,1.025,0,0,0,90.562,34c-7.043.027-14.085.019-21.128.02H68.426V30.674h3.316v-.881q0-16.243-.013-32.487a2.316,2.316,0,0,1,.716-1.755c3.813-3.807,7.611-7.629,11.448-11.41a2.171,2.171,0,0,1,1.382-.562q17.5-.046,35-.023c1.314,0,1.915.609,1.916,1.934q0,14,.017,27.992a1.742,1.742,0,0,0,.388,1.106,18.392,18.392,0,0,1,3.132,21.88c-.048.093-.09.19-.1.216l8.287,8.3c.014-.252.042-.52.042-.789q0-21.723-.007-43.447c0-1.684-.394-2.06-2.111-2.062-2.071,0-4.141,0-6.262,0V-4.686h1.809q2.207,0,4.415,0a5.376,5.376,0,0,1,5.381,3.9,1.506,1.506,0,0,0,.153.264v52.2c-.1.263-.214.525-.312.791A5.063,5.063,0,0,1,130.3,55.5a8.288,8.288,0,0,1-2.926-2.333,1.9,1.9,0,0,0-1.515-.639c-4.964.021-9.927.013-14.891.014h-2.9a1.3,1.3,0,0,0-.06.3,8.292,8.292,0,0,0,8.081,8.014,1.815,1.815,0,0,1,1.919,1.516c.17.9-.4,1.436-1.02,1.935Zm41.832-77.31h-31.9v.768q0,4.573,0,9.146A1.6,1.6,0,0,1,85.52-1.341c-1.775.061-3.554.019-5.355.019V-4.691h3.26v-5.891c-2.747,2.753-5.389,5.384-8,8.046a1.54,1.54,0,0,0-.3.995q-.023,15.651-.01,31.3c0,.276.03.553.047.838H90.456a18.672,18.672,0,0,1,.575-8.36H80.183v-3.36h1.249c3.442,0,6.885-.011,10.327.019a1.194,1.194,0,0,0,1.105-.632c.95-1.316,1.976-2.577,2.975-3.858.132-.169.279-.326.534-.622H80.179V10.455H81.1q9.775,0,19.55-.013a4.226,4.226,0,0,0,1.522-.294,17.784,17.784,0,0,1,12.544-.463c1.377.455,2.685,1.117,4.06,1.7Zm-9.634,25.174a15.22,15.22,0,0,0-15.5,15.195,15.485,15.485,0,1,0,30.965.523A15.246,15.246,0,0,0,109.141,12.166ZM85.785,60.86h22.359a13.613,13.613,0,0,1-3.516-7.868c-.02-.169-.376-.427-.577-.428q-7.087-.04-14.174,0a.838.838,0,0,0-.584.511c-.162.548-.184,1.135-.309,1.7A12.906,12.906,0,0,1,85.785,60.86Zm40.386-13.64c1.616,1.607,3.225,3.228,4.86,4.823a1.673,1.673,0,0,0,2.347.017,1.706,1.706,0,0,0,.226-2.34c-1.64-1.7-3.329-3.344-4.961-4.973Zm-4.731-5.037,2.267,2.332,2.322-2.252L123.7,39.919Z" transform="translate(-56.605 16.446)" fill="#fff"/>
        <path id="Path_115821" data-name="Path 115821" d="M107.575,329.457v3.426c-2.312,0-4.586.032-6.859-.017a1.5,1.5,0,0,1-1.476-1.48c-.045-2.278-.016-4.557-.016-6.9h3.311v4.973Z" transform="translate(-92.483 -270.623)" fill="#fff"/>
        <path id="Path_115822" data-name="Path 115822" d="M173.821,356.316h3.311v3.325h-3.311Z" transform="translate(-155.303 -297.426)" fill="#fff"/>
        <path id="Path_115823" data-name="Path 115823" d="M239.363,100.928v3.313H205.756v-3.313Z" transform="translate(-182.193 -82.385)" fill="#fff"/>
        <path id="Path_115824" data-name="Path 115824" d="M338.293,193.187,336,190.8c3.9-4.269,12.172-4.721,16.719-.078l-2.372,2.367a8.484,8.484,0,0,0-5.991-2.514A8.629,8.629,0,0,0,338.293,193.187Z" transform="translate(-291.859 -155.213)" fill="#fff"/>
      </g>
    </g>
  </g>
</svg>
