<svg xmlns="http://www.w3.org/2000/svg" width="114.14" height="91.702" viewBox="0 0 114.14 91.702">
  <g id="Group_154285" data-name="Group 154285" transform="translate(-856 -11282.82)">
    <path id="Polygon_47" data-name="Polygon 47" d="M12.5,0,25,19H0Z" transform="translate(875 11320.995) rotate(90)" fill="#3cafff"/>
    <g id="Group_145707" data-name="Group 145707" transform="translate(875.411 11183.333)">
      <path id="Path_115805" data-name="Path 115805" d="M19.11,191.189H2.409a3.72,3.72,0,0,1-2.32-2.32V163.509a3.332,3.332,0,0,1,3.71-2.345c1.068.071,2.144.013,3.28.013v-.95q0-26.509,0-53.019a7.54,7.54,0,0,1,2.579-6.036,8.878,8.878,0,0,1,3.576-1.685h75.31a8.813,8.813,0,0,1,3.873,1.893,8.416,8.416,0,0,1,2.313,4.139V174.8a.666.666,0,0,0-.125.187,7.144,7.144,0,0,1-7.373,5.844H67.364c-4.278,0-8.555,0-12.832.008a1.2,1.2,0,0,0-.812.229c-.752.844-1.444,1.741-2.224,2.7a3.913,3.913,0,0,1-.5,4.624,4.664,4.664,0,0,1-3.811,1.512q-9.624-.005-19.249,0a7.951,7.951,0,0,1-.848-.041c-1.935-.209-3.87-.424-5.888-.646A3.4,3.4,0,0,1,19.11,191.189Zm2.147-27.96c1.577-.8,3.064-1.557,4.555-2.307a27.346,27.346,0,0,0,12.533-11.932c.542-1.049.958-2.163,1.513-3.2a2.952,2.952,0,0,1,2.993-1.776,3.965,3.965,0,0,1,3.464,2.8,17.1,17.1,0,0,1,1.013,4.171,8.01,8.01,0,0,1-4.228,8.334,17.467,17.467,0,0,0-1.593.774c-.439.3-1.133.8-1.086,1.113.1.665.867.642,1.465.642,2.474,0,4.949-.029,7.422.011a4.555,4.555,0,0,1,4.329,2.7,4.486,4.486,0,0,1-.194,3.956c1.98.679,3.4,1.875,3.532,4.046.146,2.474-1.214,3.971-3.494,4.692.447,1.3.447,1.3,1.736,1.3H87c.335,0,.67,0,1-.026a4.857,4.857,0,0,0,4.42-4.322c.035-.358.058-.719.058-1.079q0-25.979,0-51.958v-1.511H9.419v41.522h.888c2.4,0,4.8.056,7.19-.018C19.232,161.1,20.6,161.536,21.257,163.229Zm15.819,24.4c3.428,0,6.855,0,10.283-.007a3.441,3.441,0,0,0,1.06-.154,1.814,1.814,0,0,0-.571-3.557c-.85-.016-1.7.005-2.551-.008-.9-.013-1.446-.481-1.416-1.182.029-.669.567-1.106,1.412-1.112,1.34-.01,2.68,0,4.02,0a2.279,2.279,0,0,0,2.425-2.085,2.23,2.23,0,0,0-2.427-2.239c-1.031-.014-2.062,0-3.093,0-.879,0-1.364-.413-1.348-1.121.015-.688.469-1.079,1.307-1.083,1.856-.009,3.711,0,5.567-.009a5.5,5.5,0,0,0,1.377-.124,2.022,2.022,0,0,0,1.573-1.708,1.807,1.807,0,0,0-.907-2.04,4.185,4.185,0,0,0-1.823-.468c-2.189-.053-4.381-.013-6.571-.02-.965,0-1.53-.451-1.512-1.16.018-.692.553-1.091,1.489-1.094,1.392,0,2.784.011,4.175-.008a2.2,2.2,0,0,0,2.163-1.751,2.076,2.076,0,0,0-1.342-2.341,3.55,3.55,0,0,0-1.275-.221c-2.551-.02-5.1,0-7.654-.017a3.414,3.414,0,0,1-3.255-2.168,3.187,3.187,0,0,1,1.683-3.568,13.23,13.23,0,0,1,1.527-.735,5.556,5.556,0,0,0,3.216-3.055,8.968,8.968,0,0,0-.549-7.239c-.278-.6-.8-1.2-1.468-1.038-.424.1-.841.719-1.035,1.2A29.357,29.357,0,0,1,27.3,162.723q-2.7,1.41-5.335,2.927a1.228,1.228,0,0,0-.516.9c-.029,6.546-.018,13.092-.031,19.638,0,.446.124.65.581.706,1.885.232,3.761.633,5.65.7C30.784,187.714,33.932,187.627,37.076,187.629Zm33.344-81.8v0c-.541,0-1.082-.019-1.622,0a2.406,2.406,0,0,0-2.368,2.443q-.019,1.467,0,2.935a2.415,2.415,0,0,0,2.474,2.5c.978.027,1.957.024,2.935,0a2.423,2.423,0,0,0,2.457-2.373,30.447,30.447,0,0,0,0-3.166,2.4,2.4,0,0,0-2.481-2.336C71.347,105.824,70.883,105.832,70.42,105.832Zm15.507,4.011c0-.515.007-1.03,0-1.545a2.385,2.385,0,0,0-2.491-2.467c-.927-.012-1.854-.01-2.781,0a2.439,2.439,0,0,0-2.593,2.547c-.023.952-.03,1.906,0,2.858a2.446,2.446,0,0,0,2.519,2.475c.927.018,1.854.017,2.781,0a2.408,2.408,0,0,0,2.563-2.557C85.931,110.719,85.927,110.281,85.927,109.843Zm-31.142-.1H54.8c0,.54-.021,1.081,0,1.621a2.346,2.346,0,0,0,2.3,2.334c1.053.045,2.111.045,3.164,0a2.278,2.278,0,0,0,2.322-2.223,24.106,24.106,0,0,0-.015-3.541,2.286,2.286,0,0,0-2.35-2.1q-1.5-.028-3.011,0a2.368,2.368,0,0,0-2.425,2.37C54.77,108.717,54.786,109.232,54.786,109.747Zm-40.156,74.3a3.032,3.032,0,0,0-2.991-3.069,3.07,3.07,0,0,0-3.1,3.054,3.115,3.115,0,0,0,3.087,3.09A3.066,3.066,0,0,0,14.63,184.047Z" transform="translate(0 0)" fill="#fff"/>
      <path id="Path_115806" data-name="Path 115806" d="M578.275,105.518a8.417,8.417,0,0,0-2.313-4.139,8.812,8.812,0,0,0-3.873-1.893h6.186Z" transform="translate(-483.545 0)" fill="#fff"/>
      <path id="Path_115813" data-name="Path 115813" d="M406.008,451.374a10.833,10.833,0,1,1-10.87,10.888A10.879,10.879,0,0,1,406.008,451.374Zm-1.357,11.759c-.279-.328-.456-.549-.648-.757s-.389-.413-.6-.6a1.133,1.133,0,0,0-1.652-.057,1.1,1.1,0,0,0,.076,1.587q.991,1.03,2.031,2.013a1.06,1.06,0,0,0,1.639,0c.514-.467.991-.975,1.483-1.468,1.074-1.076,2.167-2.134,3.213-3.236a1.07,1.07,0,0,0-.552-1.872,1.818,1.818,0,0,0-1.185.542C407.2,460.5,405.99,461.769,404.651,463.133Z" transform="translate(-333.958 -297.471)" fill="#fff"/>
      <path id="Path_115814" data-name="Path 115814" d="M166.188,303.508H136.815a5.147,5.147,0,0,1-.772-.016,1.1,1.1,0,0,1-.017-2.173,3.293,3.293,0,0,1,.54-.012h59.289c.963,0,1.429.372,1.41,1.124-.018.7-.488,1.076-1.393,1.076Q181.03,303.51,166.188,303.508Z" transform="translate(-114.137 -170.606)" fill="#fff"/>
      <path id="Path_115815" data-name="Path 115815" d="M158.877,357.428H136.7c-.155,0-.309.007-.463,0a1.078,1.078,0,0,1-1.164-1.073,1.064,1.064,0,0,1,1.089-1.143c.23-.022.463-.018.694-.018h44.2c1.212,0,1.761.35,1.766,1.122,0,.758-.552,1.11-1.767,1.11Z" transform="translate(-114.11 -216.163)" fill="#fff"/>
      <path id="Path_115816" data-name="Path 115816" d="M351.554,409.307h13.832a4.417,4.417,0,0,1,.694.018,1.023,1.023,0,0,1,.931,1.052,1,1,0,0,1-.784,1.09,3.432,3.432,0,0,1-.92.071q-13.794,0-27.588,0a5.049,5.049,0,0,1-.924-.042,1,1,0,0,1-.885-1.157.979.979,0,0,1,.962-1.01,9.231,9.231,0,0,1,.926-.021Z" transform="translate(-283.886 -261.905)" fill="#fff"/>
      <path id="Path_115817" data-name="Path 115817" d="M141.639,409.306c1.749,0,3.5,0,5.247,0,.858,0,1.3.36,1.333,1.043.034.738-.39,1.168-1.282,1.174q-5.323.031-10.647.012a1.092,1.092,0,0,1-1.222-1.1c-.013-.706.433-1.129,1.248-1.133,1.775-.011,3.549,0,5.324,0Z" transform="translate(-114.105 -261.903)" fill="#fff"/>
      <path id="Path_115818" data-name="Path 115818" d="M469.461,357.4c-1.417,0-2.833.006-4.249,0-.934-.005-1.363-.351-1.378-1.08s.411-1.141,1.319-1.145q4.327-.021,8.653,0c.887,0,1.358.422,1.351,1.128s-.473,1.1-1.37,1.1C472.346,357.407,470.9,357.4,469.461,357.4Z" transform="translate(-392.03 -216.14)" fill="#fff"/>
    </g>
  </g>
</svg>
