<svg xmlns="http://www.w3.org/2000/svg" width="472.543" height="288.303" viewBox="0 0 472.543 288.303">
  <g id="Group_154283" data-name="Group 154283" transform="translate(-267.426 -7287)">
    <path id="Path_194630" data-name="Path 194630" d="M-146.164-13.958q0,6.913-3.428,10.626T-159.418.381q-6.4,0-9.826-3.713T-172.672-14q0-6.951,3.437-10.616t9.855-3.666q6.417,0,9.817,3.694T-146.164-13.958Zm-20.319,0q0,4.666,1.771,7.027a6.2,6.2,0,0,0,5.294,2.361q7.065,0,7.065-9.388,0-9.407-7.027-9.407a6.239,6.239,0,0,0-5.313,2.371Q-166.483-18.624-166.483-13.958Zm31.992-1.523h1.9a7.285,7.285,0,0,0,4.132-.933,3.331,3.331,0,0,0,1.333-2.933,3.046,3.046,0,0,0-1.362-2.818A8.262,8.262,0,0,0-132.7-23h-1.79Zm0,4.8V0h-5.9V-27.841h8.112q5.675,0,8.4,2.066t2.723,6.275a7.387,7.387,0,0,1-1.352,4.37,8.946,8.946,0,0,1-3.828,3q6.284,9.388,8.188,12.13H-124.7l-6.646-10.683Zm30.412-4.951h11.045V-1.2A31.139,31.139,0,0,1-98.09.029a32.932,32.932,0,0,1-4.846.352q-6.3,0-9.626-3.7t-3.323-10.635q0-6.741,3.856-10.512t10.693-3.771a20.689,20.689,0,0,1,8.265,1.714L-95.034-21.8a14.009,14.009,0,0,0-6.341-1.523,7.831,7.831,0,0,0-6.132,2.571,9.972,9.972,0,0,0-2.3,6.913q0,4.532,1.857,6.922a6.424,6.424,0,0,0,5.4,2.39A19.1,19.1,0,0,0-98.8-4.913v-5.808h-5.275ZM-69.364,0l-2.019-6.627h-10.15L-83.551,0h-6.36l9.826-27.955h7.217L-63,0Zm-3.428-11.578q-2.8-9.007-3.152-10.188t-.5-1.866q-.628,2.438-3.6,12.054ZM-34.8,0h-7.5L-54.415-21.062h-.171q.362,5.58.362,7.96V0H-59.5V-27.841h7.446L-39.962-6.989h.133q-.286-5.427-.286-7.674V-27.841H-34.8Zm7.008,0V-27.841h5.9V0ZM3.266,0H-17.453V-3.828L-4.1-22.966H-17.091v-4.875h20v3.809L-10.426-4.875H3.266Zm21.48,0L22.728-6.627H12.578L10.559,0H4.2l9.826-27.955h7.217L31.107,0ZM21.319-11.578q-2.8-9.007-3.152-10.188t-.5-1.866q-.628,2.438-3.6,12.054Zm25.118-11.75a6.015,6.015,0,0,0-5.161,2.5,11.65,11.65,0,0,0-1.828,6.979q0,9.312,6.989,9.312A22.092,22.092,0,0,0,53.539-6v4.951A19.726,19.726,0,0,1,45.884.381q-6.075,0-9.293-3.685T33.373-13.882a17.274,17.274,0,0,1,1.581-7.608A11.424,11.424,0,0,1,39.5-26.5a13.436,13.436,0,0,1,6.941-1.742,18.734,18.734,0,0,1,8.15,1.961l-1.9,4.8a31.522,31.522,0,0,0-3.142-1.295A9.374,9.374,0,0,0,46.436-23.328ZM59.462,0V-27.841h5.9V0ZM97.643-13.958q0,6.913-3.428,10.626T84.389.381q-6.4,0-9.826-3.713T71.135-14q0-6.951,3.437-10.616t9.855-3.666q6.417,0,9.817,3.694T97.643-13.958Zm-20.319,0q0,4.666,1.771,7.027A6.2,6.2,0,0,0,84.389-4.57q7.065,0,7.065-9.388,0-9.407-7.027-9.407a6.239,6.239,0,0,0-5.313,2.371Q77.324-18.624,77.324-13.958ZM128.112,0h-7.5L108.5-21.062h-.171q.362,5.58.362,7.96V0h-5.275V-27.841h7.446L122.951-6.989h.133q-.286-5.427-.286-7.674V-27.841h5.313Zm23.042,0H135.119V-27.841h16.034V-23H141.023v6.113h9.426v4.837h-9.426v7.179h10.131ZM173.4-7.731a7.2,7.2,0,0,1-2.714,5.941Q167.969.381,163.132.381a17.733,17.733,0,0,1-7.884-1.676V-6.779a32.489,32.489,0,0,0,4.77,1.771,14.116,14.116,0,0,0,3.571.514,5.077,5.077,0,0,0,2.98-.743,2.54,2.54,0,0,0,1.038-2.209A2.439,2.439,0,0,0,167.15-8.9a5.114,5.114,0,0,0-1.343-1.228,34.529,34.529,0,0,0-3.609-1.885,17.1,17.1,0,0,1-3.828-2.3,8.65,8.65,0,0,1-2.038-2.571,7.336,7.336,0,0,1-.762-3.428,7.2,7.2,0,0,1,2.5-5.808A10.405,10.405,0,0,1,165-28.241a16.346,16.346,0,0,1,4.142.514,28.47,28.47,0,0,1,4.123,1.447l-1.9,4.589a27.862,27.862,0,0,0-3.685-1.276,11.861,11.861,0,0,0-2.866-.362,3.8,3.8,0,0,0-2.571.781,2.575,2.575,0,0,0-.9,2.038,2.522,2.522,0,0,0,.362,1.362,3.978,3.978,0,0,0,1.152,1.124,35.622,35.622,0,0,0,3.742,1.952,14.889,14.889,0,0,1,5.351,3.742A7.3,7.3,0,0,1,173.4-7.731Z" transform="translate(440.098 7516.153)" fill="#12263f"/>
    <path id="Path_194631" data-name="Path 194631" d="M-96.792-4.265A3.953,3.953,0,0,1-98.307-.978,6.592,6.592,0,0,1-102.486.215a9.97,9.97,0,0,1-4.361-.827V-3.04a11.854,11.854,0,0,0,2.283.795,9.679,9.679,0,0,0,2.25.29,3.58,3.58,0,0,0,2.25-.58,1.892,1.892,0,0,0,.725-1.558A1.952,1.952,0,0,0-100-5.586a10.027,10.027,0,0,0-2.75-1.45,7.275,7.275,0,0,1-3.029-1.987,4.2,4.2,0,0,1-.881-2.686,3.761,3.761,0,0,1,1.4-3.094,5.793,5.793,0,0,1,3.749-1.128,11.015,11.015,0,0,1,4.49.988l-.816,2.095a9.81,9.81,0,0,0-3.738-.881,2.869,2.869,0,0,0-1.891.542,1.782,1.782,0,0,0-.645,1.434,2.019,2.019,0,0,0,.258,1.047,2.633,2.633,0,0,0,.849.822,14.355,14.355,0,0,0,2.127,1.021A11.638,11.638,0,0,1-98.35-7.52a3.949,3.949,0,0,1,1.182,1.407A4.233,4.233,0,0,1-96.792-4.265ZM-93.752,0V-15.705h2.567V0Zm13.5,0L-84.8-13.116h-.086q.183,2.922.183,5.479V0h-2.331V-15.705h3.62l4.361,12.493h.064l4.49-12.493h3.631V0h-2.471V-7.767q0-1.171.059-3.051t.1-2.277h-.086L-77.983,0Zm13.514-15.705h4.662a8.848,8.848,0,0,1,4.689.945,3.31,3.31,0,0,1,1.445,2.986,3.619,3.619,0,0,1-.709,2.288A3.17,3.17,0,0,1-58.69-8.336v.107A4.053,4.053,0,0,1-56.257-7a3.72,3.72,0,0,1,.779,2.487A4.032,4.032,0,0,1-56.955-1.2,6.354,6.354,0,0,1-61.064,0h-5.672Zm2.567,6.488H-61.7a4.23,4.23,0,0,0,2.353-.51,1.954,1.954,0,0,0,.741-1.735,1.738,1.738,0,0,0-.8-1.6,5,5,0,0,0-2.541-.494h-2.224Zm0,2.084v4.974h2.729a4.016,4.016,0,0,0,2.433-.618,2.28,2.28,0,0,0,.822-1.95,2.071,2.071,0,0,0-.838-1.815,4.44,4.44,0,0,0-2.546-.591Zm25.9-.741a8.591,8.591,0,0,1-1.917,5.962A6.935,6.935,0,0,1-45.617.215,6.983,6.983,0,0,1-51.079-1.9a8.644,8.644,0,0,1-1.907-6,8.51,8.51,0,0,1,1.917-5.973A7.065,7.065,0,0,1-45.6-15.952a6.922,6.922,0,0,1,5.414,2.116A8.582,8.582,0,0,1-38.269-7.874Zm-11.988,0a7.042,7.042,0,0,0,1.171,4.4,4.134,4.134,0,0,0,3.47,1.5,4.126,4.126,0,0,0,3.454-1.482A7.055,7.055,0,0,0-41-7.874a7.07,7.07,0,0,0-1.155-4.383A4.083,4.083,0,0,0-45.6-13.75a4.168,4.168,0,0,0-3.486,1.493A6.974,6.974,0,0,0-50.257-7.874ZM-34.9,0V-15.705h2.567V-2.2h6.649V0ZM-9.029-7.874a8.591,8.591,0,0,1-1.917,5.962A6.935,6.935,0,0,1-16.376.215,6.983,6.983,0,0,1-21.839-1.9a8.644,8.644,0,0,1-1.907-6,8.51,8.51,0,0,1,1.917-5.973,7.065,7.065,0,0,1,5.473-2.084,6.922,6.922,0,0,1,5.414,2.116A8.582,8.582,0,0,1-9.029-7.874Zm-11.988,0a7.042,7.042,0,0,0,1.171,4.4,4.134,4.134,0,0,0,3.47,1.5,4.126,4.126,0,0,0,3.454-1.482,7.055,7.055,0,0,0,1.166-4.415,7.07,7.07,0,0,0-1.155-4.383,4.083,4.083,0,0,0-3.443-1.493,4.168,4.168,0,0,0-3.486,1.493A6.974,6.974,0,0,0-21.017-7.874ZM.768-8.519H6.547V-.634A16.725,16.725,0,0,1,3.824.021,19.277,19.277,0,0,1,1,.215,7.083,7.083,0,0,1-4.5-1.9,8.5,8.5,0,0,1-6.429-7.853a7.942,7.942,0,0,1,2.181-5.935,8.2,8.2,0,0,1,6-2.143,11.694,11.694,0,0,1,4.662.945l-.9,2.138a9.072,9.072,0,0,0-3.824-.881,5.149,5.149,0,0,0-3.975,1.579A6.112,6.112,0,0,0-3.744-7.831,6.447,6.447,0,0,0-2.428-3.454a4.771,4.771,0,0,0,3.787,1.5,12.445,12.445,0,0,0,2.664-.312v-4.05H.768ZM10.318,0V-15.705h2.567V0Zm-.15-16.962v-.269q.612-.752,1.262-1.676t1.026-1.579h2.933v.226a22.059,22.059,0,0,1-1.67,1.692,23.552,23.552,0,0,1-1.875,1.606ZM26.775,0,25.207-4.361h-6L17.666,0H14.958l5.876-15.77h2.793L29.5,0ZM24.53-6.574,23.058-10.85q-.161-.43-.446-1.354t-.392-1.354a24.075,24.075,0,0,1-.849,2.89L19.954-6.574ZM50.064-8A7.827,7.827,0,0,1,47.9-2.057,8.672,8.672,0,0,1,41.685,0H37.292V-15.705h4.855a8.034,8.034,0,0,1,5.833,2.02A7.546,7.546,0,0,1,50.064-8Zm-2.707.086q0-5.64-5.274-5.64H39.859v11.4h1.826Q47.357-2.159,47.357-7.917ZM62.321,0H53.437V-15.705h8.884v2.17H56V-9.26h5.919v2.148H56v4.931h6.316ZM71.43,0V-15.705H74V-2.2h6.649V0ZM93.1,0,91.529-4.361h-6L83.988,0H81.281l5.876-15.77H89.95L95.826,0ZM90.852-6.574,89.38-10.85q-.161-.43-.446-1.354t-.392-1.354a24.074,24.074,0,0,1-.849,2.89L86.276-6.574Zm16.1,2.31A3.953,3.953,0,0,1,105.44-.978,6.592,6.592,0,0,1,101.261.215,9.97,9.97,0,0,1,96.9-.612V-3.04a11.854,11.854,0,0,0,2.283.795,9.679,9.679,0,0,0,2.25.29,3.58,3.58,0,0,0,2.25-.58,1.892,1.892,0,0,0,.725-1.558,1.952,1.952,0,0,0-.666-1.493,10.027,10.027,0,0,0-2.75-1.45,7.275,7.275,0,0,1-3.029-1.987,4.2,4.2,0,0,1-.881-2.686,3.761,3.761,0,0,1,1.4-3.094,5.793,5.793,0,0,1,3.749-1.128,11.015,11.015,0,0,1,4.49.988l-.816,2.095a9.81,9.81,0,0,0-3.738-.881,2.869,2.869,0,0,0-1.891.542,1.782,1.782,0,0,0-.645,1.434,2.019,2.019,0,0,0,.258,1.047,2.633,2.633,0,0,0,.849.822,14.355,14.355,0,0,0,2.127,1.021A11.638,11.638,0,0,1,105.4-7.52a3.949,3.949,0,0,1,1.182,1.407A4.233,4.233,0,0,1,106.955-4.265Z" transform="translate(438.402 7473.292)" fill="#12263f"/>
    <path id="Path_194078" data-name="Path 194078" d="M244.553,272.271a9.792,9.792,0,1,1-9.792-9.792A9.794,9.794,0,0,1,244.553,272.271Z" transform="translate(145.937 7293.239)" fill="#e7f65a"/>
    <path id="Path_194079" data-name="Path 194079" d="M255.712,272.271a9.792,9.792,0,1,1-9.792-9.792A9.794,9.794,0,0,1,255.712,272.271Z" transform="translate(171.214 7293.239)" fill="#cbb6ee"/>
    <path id="Path_194080" data-name="Path 194080" d="M266.871,272.271a9.792,9.792,0,1,1-9.792-9.792A9.794,9.794,0,0,1,266.871,272.271Z" transform="translate(196.491 7293.239)" fill="#2194e5"/>
    <path id="Path_194081" data-name="Path 194081" d="M278.029,272.271a9.792,9.792,0,1,1-9.792-9.792A9.793,9.793,0,0,1,278.029,272.271Z" transform="translate(221.769 7293.239)" fill="#afafaf"/>
    <path id="Path_194082" data-name="Path 194082" d="M289.189,272.271a9.792,9.792,0,1,1-9.792-9.792A9.794,9.794,0,0,1,289.189,272.271Z" transform="translate(247.045 7293.239)" fill="#b0c0d2"/>
    <path id="Path_194083" data-name="Path 194083" d="M300.348,272.271a9.792,9.792,0,1,1-9.792-9.792A9.793,9.793,0,0,1,300.348,272.271Z" transform="translate(272.323 7293.239)" fill="#c9e8fd"/>
    <g id="Group_146701" data-name="Group 146701" transform="translate(393.095 7287)">
      <path id="Path_190424" data-name="Path 190424" d="M4117.631,1147.3a3.635,3.635,0,0,1,1.682,3.48c-.057,2.693-.009,5.387-.018,8.081s-.773,3.445-3.52,3.484c-.431.006-.862.046-1.5.082v2.065q0,51.935,0,103.871c0,.538.024,1.08-.015,1.616a2.64,2.64,0,0,1-2.8,2.747c-.292.014-.588,0-.881,0H4054.1v-5.058h54.928V1162.456H3991.4v62.55h-5.048v-62.68c-.959,0-1.731.035-2.5-.007a2.4,2.4,0,0,1-2.526-2.483c-.048-3.329-.114-6.664.05-9.987.044-.871.9-1.7,1.384-2.552Zm-3.536,5.1H3986.469v4.818H4114.1Z" transform="translate(-3981.279 -1147.297)" fill="#12263f"/>
      <path id="Path_190426" data-name="Path 190426" d="M4134.817,1239.082l3.142,2.354-3.67,3.7c-2.6-2.549-5.226-5.037-7.746-7.626a2.112,2.112,0,0,1,0-3.076c2.524-2.586,5.144-5.079,7.772-7.656l3.366,3.622c-.9.764-1.9,1.611-2.906,2.458l.23.545h2.482c5.562.006,8.612,3.056,8.614,8.638q.009,14.909,0,29.817v1.657h-5.136v-1.744q0-14.909,0-29.818c0-2.728-.665-3.4-3.343-3.413-.823,0-1.645,0-2.467,0Z" transform="translate(-4083.307 -1203.381)" fill="#12263f"/>
      <path id="Path_190427" data-name="Path 190427" d="M4243.4,1297.018h-3.875v-4.985h4.461c1.811,0,3.622-.018,5.431.009a2.259,2.259,0,0,1,2.5,2.182c.122,3.407.04,6.821.04,10.318H4246.9v-3.749c-7.049,7.051-13.845,13.851-20.5,20.509l-3.7-3.587Z" transform="translate(-4151.621 -1249.416)" fill="#12263f"/>
      <path id="Path_190428" data-name="Path 190428" d="M4051.109,1224a10.014,10.014,0,1,1-9.953,10.107A9.913,9.913,0,0,1,4051.109,1224Zm5.056,10.056a5,5,0,0,0-10-.089,5,5,0,1,0,10,.089Z" transform="translate(-4023.527 -1201.417)" fill="#12263f"/>
      <path id="Path_190429" data-name="Path 190429" d="M4331.96,1223.993a10.015,10.015,0,1,1-10.016,10.117A10.045,10.045,0,0,1,4331.96,1223.993Zm-4.875,10.017a4.961,4.961,0,0,0,4.866,5.013,5,5,0,0,0,.146-10A4.911,4.911,0,0,0,4327.086,1234.01Z" transform="translate(-4221.646 -1201.412)" fill="#12263f"/>
      <path id="Path_190430" data-name="Path 190430" d="M4288.275,1479.876v4.793h-42.567v-4.793Z" transform="translate(-4167.856 -1381.959)" fill="#12263f"/>
      <path id="Path_190431" data-name="Path 190431" d="M4278.183,1518.754h-32.471v-4.817h32.471Z" transform="translate(-4167.857 -1405.992)" fill="#12263f"/>
      <path id="Path_190432" data-name="Path 190432" d="M4324.4,1445.694v4.89h-27.423v-4.89Z" transform="translate(-4204.028 -1357.841)" fill="#12263f"/>
      <path id="Path_190433" data-name="Path 190433" d="M4073.794,1346.522l-3.8,4.006-3.042-3.693c-1.186,1.329-2.156,2.413-3.115,3.486l-3.692-3.684,3.651-3.081-3.758-3.013,3.9-3.635c.832.972,1.774,2.075,2.9,3.388,1.2-1.426,2.162-2.563,3.09-3.665,1.438,1.4,2.586,2.51,3.871,3.755l-3.488,3.019Z" transform="translate(-4036.853 -1280.89)" fill="#12263f"/>
      <path id="Path_190434" data-name="Path 190434" d="M4244.389,1235.938c-1.444,1.443-2.546,2.546-3.848,3.845l-2.956-3.667c-1.214,1.5-2.13,2.637-3.116,3.856-1.345-1.49-2.417-2.679-3.617-4.01.894-.793,2.007-1.78,3.316-2.94l-3.627-3.117,3.87-3.683c.868,1.063,1.784,2.189,2.817,3.456,1.279-1.4,2.256-2.471,3.284-3.6,1.293,1.361,2.39,2.513,3.622,3.807l-3.375,2.964Z" transform="translate(-4157.155 -1202.886)" fill="#12263f"/>
      <path id="Path_190435" data-name="Path 190435" d="M4337.769,1374.971c-1,.841-2.076,1.753-3.42,2.885,1.294,1.089,2.41,2.031,3.483,2.934l-3.653,3.755-3.125-3.407c-1.163,1.276-2.139,2.345-3.13,3.43l-3.648-3.8,3.4-2.864-3.621-3.045,3.83-3.819,3.011,3.436c1.1-1.4,2-2.536,2.844-3.6Z" transform="translate(-4223.136 -1305.049)" fill="#12263f"/>
      <path id="Path_190436" data-name="Path 190436" d="M4262.782,1445.611h4.892v4.911h-4.892Z" transform="translate(-4179.903 -1357.783)" fill="#12263f"/>
    </g>
    <g id="Group_149844" data-name="Group 149844" transform="translate(390.077 7370.453)">
      <path id="Path_188223" data-name="Path 188223" d="M-776.36,959.719a1.448,1.448,0,0,1,.83,1.575c-.041.53-.008,1.067-.008,1.577,1.151-.2,2.276-.416,3.406-.6a31.522,31.522,0,0,1,5.372-.248,29.066,29.066,0,0,1,12.012,2.551,24.136,24.136,0,0,1,10.466,9.239,29.533,29.533,0,0,1,3.823,9.57,1.151,1.151,0,0,1-1.513,1.364c-.835-.249-1.675-.478-2.515-.708a1.733,1.733,0,0,0-.406-.043c-.855-.023-.941.062-.646.88a20.929,20.929,0,0,1,1.14,5.142c.066.694.1,1.391.147,2.1a9.759,9.759,0,0,1,1.17-.082,3.306,3.306,0,0,1,2.924,2.181,8.435,8.435,0,0,1,.709,3.878,15.056,15.056,0,0,1-1.859,6.939,7.2,7.2,0,0,1-3.178,3.329,1.828,1.828,0,0,0-1.046,1.244,40.46,40.46,0,0,1-7.538,13.3,25.23,25.23,0,0,1-9.48,7.162,16.163,16.163,0,0,1-7.9,1.212,18.4,18.4,0,0,1-8.3-3.075,31.292,31.292,0,0,1-8.805-9.079,41.527,41.527,0,0,1-4.845-10,.842.842,0,0,0-.531-.592,7.031,7.031,0,0,1-3.415-3.3,14.754,14.754,0,0,1-1.967-7.857,6.744,6.744,0,0,1,1.021-3.668,4.3,4.3,0,0,1,1.9-1.58h-.514q-4.3,0-8.6,0a5.834,5.834,0,0,1-5.465-3.992,5.8,5.8,0,0,1,5.524-7.6c.354,0,.709,0,1.136,0,0-.68,0-1.33,0-1.98q-.005-4.9-.011-9.8c0-2.568,0-5.137-.006-7.705a1.327,1.327,0,0,1,.879-1.336Zm-14.975,32.409c0,1.168.011,2.264,0,3.359a1.157,1.157,0,0,1-1.171,1.174,1.162,1.162,0,0,1-1.135-1.2c0-.192.012-.385,0-.575a.424.424,0,0,0-.087-.255.965.965,0,0,0-1.5.123,5.318,5.318,0,0,0-.617,1.542,10.473,10.473,0,0,0,.37,5.062,9.5,9.5,0,0,0,2.267,4.214,2.976,2.976,0,0,0,1.4.855,1.5,1.5,0,0,1,1.381,1.23,5.274,5.274,0,0,0,.158.508,38.267,38.267,0,0,0,7.588,13.582,22.869,22.869,0,0,0,7.753,5.955,14.36,14.36,0,0,0,7.342,1.286,15.668,15.668,0,0,0,6.653-2.269,26.757,26.757,0,0,0,7.79-7.376,39.872,39.872,0,0,0,5.9-11.919,1.31,1.31,0,0,1,1.1-.951,2.791,2.791,0,0,0,1.137-.5,6.228,6.228,0,0,0,1.212-1.324,12.187,12.187,0,0,0,2.021-7.142,5.168,5.168,0,0,0-.607-2.565c-.3-.519-.634-.682-1.1-.573a.921.921,0,0,0-.855,1.02c-.005.082,0,.166-.012.246a1.137,1.137,0,0,1-.745.95,1.078,1.078,0,0,1-1.178-.233,1.531,1.531,0,0,1-.36-1.41,24.369,24.369,0,0,0-.478-7.263c-.236-.993-.59-1.959-.816-2.954a2.39,2.39,0,0,1,1.4-2.77,4.3,4.3,0,0,1,2.22-.228c.345.042.687.1,1.072.161-.036-.153-.055-.259-.086-.361a27.53,27.53,0,0,0-1.895-4.745,21.834,21.834,0,0,0-14.165-11.466,28.686,28.686,0,0,0-6.314-.937,30.974,30.974,0,0,0-9.444.831c-.325.086-.4.212-.4.521q.014,6.952,0,13.9a.546.546,0,0,0,.405.593,35.542,35.542,0,0,0,13.939,2.945,1.515,1.515,0,0,1,.8.248,1.055,1.055,0,0,1,.363,1.281,1.091,1.091,0,0,1-1.089.772,37.193,37.193,0,0,1-5.925-.485,35.829,35.829,0,0,1-6.108-1.531c-.781-.273-1.556-.564-2.372-.86v.471c0,1.152.019,2.3,0,3.455a5.464,5.464,0,0,1-1.177,3.3,5.813,5.813,0,0,1-4.852,2.3q-4.649,0-9.3,0Zm-9.632-11.591h19.329a3.659,3.659,0,0,1,.411.006,1.218,1.218,0,0,1,1.072,1.16,1.174,1.174,0,0,1-1.157,1.146c-.177.008-.352.04-.529.063a3.47,3.47,0,0,0-2.879,4.143,3.442,3.442,0,0,0,3.594,2.739,3.46,3.46,0,0,0,3.281-3.543q0-11.885,0-23.77v-.432h-23.126Zm14.99,2.31h-.546q-8.844,0-17.689,0a6.332,6.332,0,0,0-.774.063,3.455,3.455,0,0,0-2.955,3.58,3.513,3.513,0,0,0,3.479,3.321h18.484A5.926,5.926,0,0,1-785.978,982.847Z" transform="translate(810.249 -959.719)" fill="#12263f" stroke="#12263f" stroke-width="1"/>
      <path id="Path_188224" data-name="Path 188224" d="M-458.513,1383.981a2.279,2.279,0,0,1,2.413-2.284,2.323,2.323,0,0,1,2.2,2.345,2.311,2.311,0,0,1-2.408,2.262A2.285,2.285,0,0,1-458.513,1383.981Z" transform="translate(487.454 -1346.977)" fill="#12263f" stroke="#12263f" stroke-width="1"/>
      <path id="Path_188225" data-name="Path 188225" d="M-191.382,1383.984a2.287,2.287,0,0,1,2.419-2.285,2.3,2.3,0,0,1,2.189,2.347,2.287,2.287,0,0,1-2.4,2.264A2.3,2.3,0,0,1-191.382,1383.984Z" transform="translate(242.302 -1346.979)" fill="#12263f" stroke="#12263f" stroke-width="1"/>
      <path id="Path_188226" data-name="Path 188226" d="M-163.557,1244.64c.6,0,1.2-.007,1.806,0a1.132,1.132,0,0,1,1.159,1.168,1.127,1.127,0,0,1-1.154,1.13q-1.867.016-3.735,0a1.131,1.131,0,0,1-1.138-1.192,1.134,1.134,0,0,1,1.132-1.112c.643-.014,1.286,0,1.929,0Z" transform="translate(219.576 -1221.19)" fill="#12263f" stroke="#12263f" stroke-width="1"/>
      <path id="Path_188227" data-name="Path 188227" d="M-250.533,1047.711a1.167,1.167,0,0,1,1.142,1.279c-.109.769-.242,1.535-.39,2.3a1.157,1.157,0,0,1-1.325.94,1.187,1.187,0,0,1-.941-1.369c.123-.74.239-1.481.373-2.219A1.138,1.138,0,0,1-250.533,1047.711Z" transform="translate(297.991 -1040.471)" fill="#12263f" stroke="#12263f" stroke-width="1"/>
      <path id="Path_188228" data-name="Path 188228" d="M-320.692,1047.214a3.179,3.179,0,0,1-.088.684,1.138,1.138,0,0,1-1.08.744,1.131,1.131,0,0,1-1.082-.853,7.361,7.361,0,0,1-.12-1.017c-.046-.518-.111-1.037-.114-1.556a1.146,1.146,0,0,1,1.123-1.135,1.158,1.158,0,0,1,1.171,1.083C-320.824,1045.819-320.761,1046.474-320.692,1047.214Z" transform="translate(363.251 -1037.141)" fill="#12263f" stroke="#12263f" stroke-width="1"/>
      <path id="Path_188229" data-name="Path 188229" d="M-184.188,1072.622a1.1,1.1,0,0,1,1.016,1.493c-.278.752-.6,1.489-.942,2.216a1.137,1.137,0,0,1-1.47.519,1.1,1.1,0,0,1-.626-1.452c.289-.72.588-1.437.918-2.139A1.077,1.077,0,0,1-184.188,1072.622Z" transform="translate(237.633 -1063.331)" fill="#12263f" stroke="#12263f" stroke-width="1"/>
      <path id="Path_188230" data-name="Path 188230" d="M-125.676,1115.444a1.4,1.4,0,0,1,1.053.7,1.024,1.024,0,0,1-.05,1.156c-.47.652-.96,1.294-1.475,1.911a1.117,1.117,0,0,1-1.552.086,1.132,1.132,0,0,1-.248-1.51,22.933,22.933,0,0,1,1.439-1.834A3.327,3.327,0,0,1-125.676,1115.444Z" transform="translate(184.26 -1102.631)" fill="#12263f" stroke="#12263f" stroke-width="1"/>
      <path id="Path_188231" data-name="Path 188231" d="M-661.591,1050.32l4.107-4.109c-.551,0-1.087.01-1.623,0-.812-.018-1.326-.477-1.315-1.158a1.208,1.208,0,0,1,1.328-1.162q2.155-.013,4.311,0a1.211,1.211,0,0,1,1.326,1.328q.009,2.176,0,4.352a1.175,1.175,0,0,1-.692,1.161.994.994,0,0,1-1.241-.212,1.842,1.842,0,0,1-.378-.949,15.6,15.6,0,0,1-.016-1.694c-.125.112-.215.184-.3.265q-2.27,2.268-4.538,4.537a1.179,1.179,0,0,1-1.916-.01c-.82-.827-1.638-1.656-2.481-2.509-.132.125-.241.223-.344.326-.767.765-1.526,1.538-2.3,2.3a1.121,1.121,0,0,1-1.678.019,1.147,1.147,0,0,1,.046-1.656q1.677-1.7,3.374-3.374a1.178,1.178,0,0,1,1.782.02c.761.751,1.513,1.511,2.27,2.267C-661.772,1050.15-661.672,1050.242-661.591,1050.32Z" transform="translate(681.239 -1036.958)" fill="#12263f" stroke="#12263f" stroke-width="1"/>
    </g>
    <path id="Path_194632" data-name="Path 194632" d="M143,0,286,23.938H0Z" transform="translate(739.969 7287) rotate(90)" fill="#b0c0d2"/>
  </g>
</svg>
