<svg xmlns="http://www.w3.org/2000/svg" width="112" height="112" viewBox="0 0 112 112">
  <g id="Group_154294" data-name="Group 154294" transform="translate(8789.81 9552.205)">
    <circle id="Ellipse_5474" data-name="Ellipse 5474" cx="56" cy="56" r="56" transform="translate(-8789.81 -9552.205)" fill="#baa1e1"/>
    <g id="Group_152120" data-name="Group 152120" transform="translate(-8761.041 -9531.262)">
      <path id="Path_114962" data-name="Path 114962" d="M-1033.314,1395.639a15.549,15.549,0,0,1-1.663.19q-20.07.016-40.14.011c-.232,0-.465,0-.7-.016a1.108,1.108,0,0,1-1.176-1.236c-.019-1.134-.035-2.27.006-3.4.022-.623-.213-.813-.809-.792-.953.035-1.908.017-2.861,0-.919-.019-1.314-.415-1.326-1.332-.015-1.134-.005-2.268-.005-3.4q0-25.832,0-51.663c0-1.61.283-1.891,1.88-1.891h40.063c1.53,0,1.832.307,1.832,1.863,0,.979.013,1.959-.007,2.938-.009.453.131.646.618.63.927-.031,1.856-.009,2.784,0,1.194.009,1.576.39,1.577,1.569,0,3.841.008,7.682-.01,11.524a1.275,1.275,0,0,0,.532,1.1,30.005,30.005,0,0,1,9.334,12.48,20.187,20.187,0,0,1,.892,9.973c-.274,2.142-.581,4.29-.664,6.444a13.453,13.453,0,0,0,1.436,6.5,21.71,21.71,0,0,0,1.45,2.273c.88,1.333,1.775,2.656,2.651,3.991.654,1,.536,1.534-.467,2.179q-4.615,2.968-9.237,5.926c-1.184.757-1.647.663-2.409-.483-1.041-1.566-2.072-3.138-3.111-4.706C-1033.007,1396.057-1033.191,1395.812-1033.314,1395.639Zm-8.816-19.033a4.064,4.064,0,0,0-.531-.649c-.463-.377-.943-.718-.454-1.269l-.757-.188a3.294,3.294,0,0,1,.614-.539,4.021,4.021,0,0,1,.845-.236l-.061-.265-1.841.4a2.38,2.38,0,0,1-.284-.544c-.224-.988-.89-1.084-1.777-1.079-6.6.035-13.2.019-19.8.019-1.334,0-1.873-.343-1.87-1.182,0-.8.55-1.131,1.829-1.131q10.055,0,20.109.01c.578,0,.932-.105,1.142-.73a2.432,2.432,0,0,1,2.1-1.71,18.866,18.866,0,0,1,2.223-.017v-32.97h-39.013v1.131q0,25.717,0,51.433c0,1,0,1,1.02,1q18.331,0,36.661,0c1.662,0,1.373.151,1.393-1.391a34.811,34.811,0,0,1,.071-4.555c.3-2.042.21-3.865-1.439-5.329a3.047,3.047,0,0,1-.208-.224c.373-.406.77-.834.423-1.418a3.816,3.816,0,0,0-.74-.713l-.245.168C-1041.617,1375.072-1042,1375.87-1042.129,1376.606Zm9.214-22.119-.271.153c-.014.194-.041.389-.041.583-.005,1.6-.045,3.2.017,4.794a2.34,2.34,0,0,0,.521,1.359,9.193,9.193,0,0,1,2.127,4.063,24.119,24.119,0,0,1,.643,3.953,13.762,13.762,0,0,1-2.01,8.792,1.777,1.777,0,0,1-1.614.863,2.538,2.538,0,0,1-2.049-1.211c-.911-1.336-1.726-2.738-2.556-4.128-.475-.795-.853-1.65-1.362-2.421a3.069,3.069,0,0,0-2.544-1.529c-.554-.017-.843.243-.858.759-.047,1.547.886,2.668,1.757,3.786s1.813,2.143,2.688,3.24c.082.1-.1.415-.172.672l.756.123c0,1.649-.064,3.293.016,4.93.1,2.1.284,4.275,1.747,5.887a59.151,59.151,0,0,0,4.781,4.278c2.176-1.39,4.759-3.033,7.323-4.7a.666.666,0,0,0,.12-.62c-1.836-4.086-1.9-8.32-1.151-12.645a21.909,21.909,0,0,0,.3-7.3,20.925,20.925,0,0,0-4.485-9.545C-1030.369,1357.169-1031.683,1355.86-1032.916,1354.488Zm-5.484,35.733c-.623.065-1.175.174-1.727.174q-16.2.016-32.4.009c-2.192,0-2.16,0-2.181,2.2-.007.76.255.931.972.93q18.633-.03,37.267-.015h.809l.128-.24Zm2.622-17.094.159-.052v-33.127h-2.588v1.033c0,8.785.017,17.57-.02,26.354a4.61,4.61,0,0,0,.913,3.06A20.5,20.5,0,0,1-1035.778,1373.127Zm15.76,20.9-2.287-3.437-8.149,5.065,2.359,3.553Zm-13.184-18.68c1.411-2.148,1.133-8.749,0-9.889Z" transform="translate(1081.987 -1332.103)" fill="#fff"/>
      <path id="Path_114968" data-name="Path 114968" d="M-766.642,1557.588V1547.7C-765.509,1548.84-765.231,1555.441-766.642,1557.588Z" transform="translate(815.428 -1514.345)" fill="#fff"/>
      <path id="Path_114969" data-name="Path 114969" d="M-827.573,1608l.024.02c.126-.737.513-1.535-.586-1.982l.244-.168a3.807,3.807,0,0,1,.74.713C-826.8,1607.161-827.2,1607.59-827.573,1608Z" transform="translate(867.407 -1563.513)" fill="#fff"/>
      <path id="Path_114970" data-name="Path 114970" d="M-1029.127,1383.009a12.247,12.247,0,0,0,1.271.822,4.191,4.191,0,0,1,2.308,3.347c.115.685.266,1.364.361,2.051a1.153,1.153,0,0,1-.936,1.371,1.191,1.191,0,0,1-1.35-.988,20.652,20.652,0,0,0-.5-2.333,4.083,4.083,0,0,0-.934-1.314,4.372,4.372,0,0,0-.9-.586c-.882-.56-1.729-1.23-2.892-.79a.949.949,0,0,1-.536,0c-1.882-.484-3.017.926-4.241,1.849-.526.4-.531,1.5-.75,2.282-.089.321-.1.663-.178.987a1.079,1.079,0,0,1-1.251.9.99.99,0,0,1-1-1.147,22.057,22.057,0,0,1,1.055-4.159c.252-.63,1.086-1.042,1.686-1.515a14.2,14.2,0,0,1,1.256-.791,5.179,5.179,0,0,1-.993-4.862,4.734,4.734,0,0,1,1.891-2.558,5.037,5.037,0,0,1,6.152.38C-1027.658,1377.714-1027.5,1379.944-1029.127,1383.009Zm-3.8-5.991a2.66,2.66,0,0,0-2.631,2.6,2.665,2.665,0,0,0,2.668,2.646,2.668,2.668,0,0,0,2.593-2.639A2.68,2.68,0,0,0-1032.924,1377.018Z" transform="translate(1047.061 -1368.108)" fill="#fff"/>
      <path id="Path_114971" data-name="Path 114971" d="M-1020.734,1501.469q-6.919,0-13.838,0a4.567,4.567,0,0,1-.77-.029,1.206,1.206,0,0,1-1.053-1.232,1.232,1.232,0,0,1,1.193-1.1c.18-.014.361-.005.541-.005h27.675c1.262,0,1.81.357,1.813,1.17s-.586,1.2-1.8,1.2Z" transform="translate(1043.451 -1473.266)" fill="#fff"/>
      <path id="Path_114973" data-name="Path 114973" d="M-1020.776,1656.315h-13.918c-1.123-.009-1.664-.388-1.656-1.16s.553-1.164,1.686-1.162c4.97.007,9.94.033,14.911.035q6.565,0,13.131-.036c.673,0,1.248.131,1.441.869.227.868-.358,1.5-1.368,1.492q-5.412-.016-10.824-.037C-1018.508,1656.312-1019.642,1656.315-1020.776,1656.315Z" transform="translate(1043.411 -1604.194)" fill="#fff"/>
      <path id="Path_114981" data-name="Path 114981" d="M-1020.776,1656.315h-13.918c-1.123-.009-1.664-.388-1.656-1.16s.553-1.164,1.686-1.162c4.97.007,9.94.033,14.911.035q6.565,0,13.131-.036c.673,0,1.248.131,1.441.869.227.868-.358,1.5-1.368,1.492q-5.412-.016-10.824-.037C-1018.508,1656.312-1019.642,1656.315-1020.776,1656.315Z" transform="translate(1043.411 -1608.996)" fill="#fff"/>
      <path id="Path_114974" data-name="Path 114974" d="M-979.769,1540.223h-10.207c-.284,0-.568.01-.85-.014a1.127,1.127,0,0,1-1.1-1.162,1.119,1.119,0,0,1,1.067-1.121,6.115,6.115,0,0,1,.849-.013l20.878,0a4.542,4.542,0,0,1,.463.011,1.108,1.108,0,0,1,1.08,1.171,1.06,1.06,0,0,1-1.125,1.114c-1.52.028-3.041.017-4.562.018Q-976.522,1540.225-979.769,1540.223Z" transform="translate(1005.86 -1506.064)" fill="#fff"/>
      <path id="Path_114975" data-name="Path 114975" d="M-915.73,1383.072q2.665,0,5.33,0c.965,0,1.515.426,1.516,1.155,0,.744-.513,1.2-1.5,1.2q-5.444.008-10.889-.034c-.858-.006-1.321-.458-1.31-1.186.011-.7.5-1.122,1.366-1.127C-919.385,1383.066-917.558,1383.073-915.73,1383.072Z" transform="translate(947.241 -1375.186)" fill="#fff"/>
      <path id="Path_114976" data-name="Path 114976" d="M-915.745,1462.839c-1.8,0-3.6,0-5.406,0-.912,0-1.393-.424-1.386-1.183.006-.722.466-1.141,1.348-1.143q5.483-.018,10.966,0a1.225,1.225,0,0,1,1.378,1.141c0,.709-.546,1.182-1.417,1.186C-912.089,1462.846-913.917,1462.84-915.745,1462.839Z" transform="translate(947.204 -1440.638)" fill="#fff"/>
      <path id="Path_114977" data-name="Path 114977" d="M-915.766,1424.169c-1.8,0-3.6,0-5.4,0-.926,0-1.417-.408-1.423-1.146s.5-1.155,1.416-1.156q5.4-.006,10.808,0c.927,0,1.456.411,1.473,1.11.019.752-.509,1.189-1.467,1.192C-912.164,1424.175-913.965,1424.171-915.766,1424.169Z" transform="translate(947.253 -1407.976)" fill="#fff"/>
      <path id="Path_114978" data-name="Path 114978" d="M-1025.835,1540.646a1.19,1.19,0,0,1-1.243-1.2,1.21,1.21,0,0,1,1.285-1.162,1.171,1.171,0,0,1,1.232,1.2A1.175,1.175,0,0,1-1025.835,1540.646Z" transform="translate(1035.573 -1506.388)" fill="#fff"/>
      <path id="Path_114979" data-name="Path 114979" d="M-1024.668,1577.466a1.159,1.159,0,0,1-1.218,1.207,1.234,1.234,0,0,1-1.313-1.144,1.274,1.274,0,0,1,1.25-1.223A1.2,1.2,0,0,1-1024.668,1577.466Z" transform="translate(1035.676 -1538.525)" fill="#fff"/>
      <path id="Path_114980" data-name="Path 114980" d="M-925.661,1628.489l1.429-.065.009.194c-.764.226-1.194.179-1.417-.152Z" transform="translate(949.846 -1582.581)" fill="#fff"/>
    </g>
  </g>
</svg>
