<svg xmlns="http://www.w3.org/2000/svg" width="112" height="112" viewBox="0 0 112 112">
  <g id="Group_154291" data-name="Group 154291" transform="translate(-410 -2167.575)">
    <circle id="Ellipse_5466" data-name="Ellipse 5466" cx="56" cy="56" r="56" transform="translate(410 2167.575)" fill="#baa1e1"/>
    <g id="Group_46654" data-name="Group 46654" transform="translate(432.047 2185.099)">
      <path id="Path_97027" data-name="Path 97027" d="M-2567.5,1752.243a1.7,1.7,0,0,1,.752,1.67c-.036.8.006,1.6-.012,2.4s-.483,1.325-1.138,1.32-1.1-.518-1.108-1.337.028-1.651-.013-2.474a1.588,1.588,0,0,1,.769-1.579Z" transform="translate(2603.242 -1752.243)" fill="#fff"/>
      <path id="Path_97028" data-name="Path 97028" d="M-2700.926,1869.193c0,1.308.008,2.481,0,3.654a2.494,2.494,0,0,1-2.776,2.79q-4.771.009-9.543,0a2.492,2.492,0,0,1-2.769-2.793c-.008-1.174,0-2.349,0-3.645-.564,0-1.079.012-1.594,0a2.532,2.532,0,0,1-2.654-2.419,21.909,21.909,0,0,1,.012-2.848,2.52,2.52,0,0,1,1.3-2.073,1,1,0,0,0,.366-.707c.042-1-.015-2,.036-3a.865.865,0,0,0-.615-.951,24.748,24.748,0,0,1-9.038-7.048,25.174,25.174,0,0,1-5.7-14.881,25.075,25.075,0,0,1,5.663-17.518,24.855,24.855,0,0,1,16.453-9.283,24.562,24.562,0,0,1,11.4,1.1,1.588,1.588,0,0,0,1.473-.038,1.713,1.713,0,0,1,2.071.386,13.674,13.674,0,0,1,1.061,1.064.737.737,0,0,0,.964.252.742.742,0,0,0,.5-.865c-.023-.5-.027-1,0-1.5a1.91,1.91,0,0,1,1.974-1.929q1.953-.029,3.907,0a1.866,1.866,0,0,1,1.948,1.934,15.912,15.912,0,0,0,.031,1.65.976.976,0,0,0,.513.656,1,1,0,0,0,.825-.121,13.083,13.083,0,0,0,1.076-1.044,1.915,1.915,0,0,1,2.925.011q1.373,1.335,2.7,2.724a1.893,1.893,0,0,1-.013,2.755c-.323.349-.652.7-1.008,1.01a.776.776,0,0,0-.266,1.025c.2.484.5.54.932.518.475-.024.952-.021,1.427,0a1.872,1.872,0,0,1,1.906,1.831c.046,1.4.047,2.806,0,4.207a1.87,1.87,0,0,1-1.923,1.812c-.476.014-.953.028-1.427,0a.79.79,0,0,0-.921.534c-.21.484-.026.73.289,1.02.368.34.72.7,1.054,1.071a1.857,1.857,0,0,1,.038,2.585c-.939,1.007-1.9,2-2.924,2.918a7.344,7.344,0,0,1-1.726.822c-.05.59-.1,1.382-.187,2.169-.1.885-.559,1.319-1.273,1.237-.688-.079-1.012-.632-.948-1.523.078-1.1.127-2.2.17-3.3a5.416,5.416,0,0,0-.082-.794c-1.1.117-1.171.2-1.175,1.16,0,.5.014,1-.024,1.5a1.8,1.8,0,0,1-1.695,1.7q-2.177.061-4.357,0a1.869,1.869,0,0,1-1.753-1.83,15.736,15.736,0,0,1,0-1.577c.013-.4-.031-.69-.493-.871a.745.745,0,0,0-.967.239,12.133,12.133,0,0,1-1.117,1.113,1.8,1.8,0,0,1-2.58,0c-1.045-.971-2.047-1.992-3.017-3.038a1.827,1.827,0,0,1,0-2.414,5.707,5.707,0,0,1,.941-.967c.691-.516.719-1.067.159-1.76-.638,0-1.338.016-2.037,0a1.873,1.873,0,0,1-1.9-1.91c-.023-1.353-.028-2.706,0-4.058a1.869,1.869,0,0,1,1.854-1.876c.525-.022,1.052-.021,1.578,0,.385.016.647-.046.8-.472.142-.394.2-.684-.166-.989a11.663,11.663,0,0,1-1.01-1.007,1.932,1.932,0,0,1,.009-2.924,10.034,10.034,0,0,1,1.056-.825l-.142-.375c-1.715-.3-3.418-.741-5.146-.877a22.445,22.445,0,0,0-16.15,4.8,22.263,22.263,0,0,0-8.8,15.426c-1.114,9.943,2.665,17.681,11.028,23.158a23.7,23.7,0,0,0,3.138,1.6,1.479,1.479,0,0,1,.981,1.513c-.024,1.447-.007,2.9-.007,4.386h1.486v-7.931c-1.8-.454-2.113-.856-2.113-2.7,0-.751-.018-1.5.013-2.254a1.828,1.828,0,0,1,1.827-1.814c.951-.03,1.9-.026,2.855,0a1.874,1.874,0,0,1,1.91,1.829c.05,1,.052,2.005,0,3-.051,1.058-.629,1.55-2.152,1.946v7.9h3.385v-.764c0-2.805-.005-5.611,0-8.416,0-.876.449-1.363,1.17-1.327.693.035,1.076.53,1.079,1.44q.011,4.133.006,8.266v.8h2.309v-4.816c0-1.127.037-2.256-.021-3.38a1.875,1.875,0,0,0-.447-1.129c-2.62-2.692-5.275-5.351-7.922-8.018a2.836,2.836,0,0,0-.279-.222c-1.492.856-2.05.78-3.242-.428-.51-.517-1.032-1.024-1.526-1.556a1.88,1.88,0,0,1-.012-2.7c.615-.659,1.252-1.3,1.906-1.92a1.894,1.894,0,0,1,2.915,0c.457.427.886.885,1.329,1.328,1.4,1.4,1.447,2.054.169,3.745.432.376.91.746,1.333,1.168,2.3,2.3,4.585,4.625,6.893,6.922a3.724,3.724,0,0,1,1.168,2.818c-.027,2.454-.008,4.909-.008,7.364v.84h1.594v-12.527c-.114-.02-.228-.046-.343-.06a1.9,1.9,0,0,1-1.831-1.917c-.042-.925-.044-1.854-.011-2.78a1.907,1.907,0,0,1,1.992-1.991c.876-.031,1.754-.024,2.63.005a1.891,1.891,0,0,1,2,1.976c.03.775.013,1.553.01,2.329-.007,1.557-.535,2.181-2.141,2.445v6.135c1.306-.82,2.5-1.478,3.593-2.274a22.877,22.877,0,0,0,7.049-8.358c.553-1.1,1.11-1.415,1.812-1.07s.756.985.2,2.084a25.146,25.146,0,0,1-11.973,11.671,1,1,0,0,0-.693,1.137,15.3,15.3,0,0,1,.009,1.8,2.235,2.235,0,0,0,.878,2.223c1.343,1,1.321,4.974.067,6.1a4,4,0,0,1-1.73.757A8.2,8.2,0,0,1-2700.926,1869.193Zm.4-39.4,2.357,2.371c1.052-.944,1.851-2.3,3.72-1.728,2.239.685,2.635,2.265,2.34,4.287h3.381c-.106-1.738-.095-3.27,1.91-4.115,2.056-.865,3.063.413,4.124,1.514l2.432-2.325c-1.239-1.128-2.406-2.185-1.582-4.217.829-2.049,2.441-1.977,4.1-1.923v-3.366c-1.727.119-3.26.086-4.1-1.9-.868-2.052.4-3.1,1.509-4.18l-2.362-2.38c-1.094,1.2-2.14,2.377-4.181,1.506-2-.854-1.922-2.434-1.873-4.083h-3.372c.224,1.895.022,3.436-2.1,4.193-1.955.7-2.856-.585-3.862-1.573l-2.414,2.321c1.244,1.118,2.344,2.212,1.52,4.225s-2.417,1.939-4.061,1.888v3.369c1.8-.15,3.333-.036,4.12,2.01C-2698.153,1827.663-2699.334,1828.674-2700.523,1829.789Zm-7.943,37.157v0c2.926,0,5.853-.01,8.779.008.573,0,.837-.182.8-.776a11.692,11.692,0,0,1,.006-1.5c.051-.673-.195-.933-.9-.922-2.3.035-4.6.013-6.9.013-3.5,0-7,.013-10.505-.012-.652,0-.922.211-.881.864a10.628,10.628,0,0,1,0,1.425c-.047.666.182.927.895.919C-2714.27,1866.926-2711.368,1866.946-2708.466,1866.946Zm5.216,5.414h-10.463c-.09,1.023-.09,1.024.836,1.024,2.948,0,5.9-.029,8.844.015C-2703.247,1873.411-2703.052,1873.135-2703.251,1872.36Zm.032-3.1h-10.545l.057.743h10.488Zm-11.447-27.284,1.524-1.468-1.49-1.433-1.412,1.495Zm14.1,4.612h2.021v-2.061h-2.021Zm-12.061,4.557v-2.072h-2.016v2.072Z" transform="translate(2743.326 -1798.688)" fill="#fff"/>
      <path id="Path_97029" data-name="Path 97029" d="M-2581.433,1960.608c-1.962-.551-2.2-.88-2.2-2.929,0-.625-.02-1.251.007-1.875a1.936,1.936,0,0,1,2.055-2c.85-.011,1.7-.012,2.55,0a1.9,1.9,0,0,1,2.014,1.951c.031.724.013,1.45.013,2.175,0,1.763-.374,2.236-2.177,2.662v1.443q0,2.476,0,4.95c0,1.069-.391,1.6-1.152,1.592-.737-.011-1.1-.517-1.1-1.552q-.006-2.85-.005-5.7C-2581.434,1961.077-2581.433,1960.832-2581.433,1960.608Zm2.114-2.4v-2.115h-2v2.115Z" transform="translate(2615.661 -1923.442)" fill="#fff"/>
      <path id="Path_97030" data-name="Path 97030" d="M-2649.048,1936.9c.45,0,.9-.011,1.349,0a1.889,1.889,0,0,1,1.956,1.861,29.5,29.5,0,0,1-.009,3,1.829,1.829,0,0,1-1.824,1.822,27.132,27.132,0,0,1-2.922.007,1.86,1.86,0,0,1-1.842-1.892c-.043-.923-.037-1.85-.01-2.774a1.933,1.933,0,0,1,2.1-2.024C-2649.848,1936.892-2649.449,1936.9-2649.048,1936.9Zm1.013,2.288h-2.015v2.115h2.015Z" transform="translate(2674.04 -1909.087)" fill="#fff"/>
      <path id="Path_97031" data-name="Path 97031" d="M-2614.788,1886.234c-.475,0-.95.016-1.425,0a1.846,1.846,0,0,1-1.836-1.8c-.034-1.023-.033-2.05,0-3.073a1.8,1.8,0,0,1,1.771-1.776c1-.043,2-.043,3,0a1.851,1.851,0,0,1,1.819,1.831c.046,1,.049,2,0,3a1.892,1.892,0,0,1-1.98,1.829c-.449.009-.9,0-1.349,0Zm1.04-2.283v-2.075h-2.014v2.075Z" transform="translate(2644.906 -1860.377)" fill="#fff"/>
      <path id="Path_97032" data-name="Path 97032" d="M-2778.687,1893.7a6.092,6.092,0,0,1,.641.168c.965.406,1.938.793,2.884,1.239a1.054,1.054,0,0,1,.609,1.425,1.088,1.088,0,0,1-1.484.623c-.975-.379-1.93-.809-2.876-1.256a.969.969,0,0,1-.592-1.292A3.568,3.568,0,0,1-2778.687,1893.7Z" transform="translate(2782.098 -1872.401)" fill="#fff"/>
      <path id="Path_97033" data-name="Path 97033" d="M-2794.88,1959.233c.96.12,1.978.225,2.987.383a1.1,1.1,0,0,1,.986,1.2,1.151,1.151,0,0,1-1.271,1.009c-1.017-.1-2.033-.218-3.042-.378a1.112,1.112,0,0,1-1.022-1.244A1.2,1.2,0,0,1-2794.88,1959.233Z" transform="translate(2796.254 -1928.062)" fill="#fff"/>
      <path id="Path_97034" data-name="Path 97034" d="M-2693.935,1791.632a3.236,3.236,0,0,1,.794.626c.564.758,1.067,1.563,1.566,2.366a1.145,1.145,0,0,1-.234,1.657,1.125,1.125,0,0,1-1.617-.4c-.57-.815-1.125-1.646-1.631-2.5C-2695.537,1792.562-2695.053,1791.659-2693.935,1791.632Z" transform="translate(2710.453 -1785.701)" fill="#fff"/>
      <path id="Path_97035" data-name="Path 97035" d="M-2789.519,2022.639c.75.021,1.194.292,1.3.929a1.01,1.01,0,0,1-.794,1.256c-1.091.249-2.2.451-3.307.593a.993.993,0,0,1-1.133-.87,1,1,0,0,1,.758-1.275C-2791.607,2023.005-2790.5,2022.829-2789.519,2022.639Z" transform="translate(2793.898 -1981.921)" fill="#fff"/>
      <path id="Path_97036" data-name="Path 97036" d="M-2633.514,1762.65c.178.185.63.462.789.857a23.855,23.855,0,0,1,.876,2.857,1.116,1.116,0,0,1-.755,1.484,1.134,1.134,0,0,1-1.4-.9c-.292-.9-.574-1.806-.816-2.722C-2635.051,1763.364-2634.586,1762.683-2633.514,1762.65Z" transform="translate(2659.182 -1761.083)" fill="#fff"/>
      <path id="Path_97037" data-name="Path 97037" d="M-2740.524,1840.1c.017.981-.917,1.591-1.62,1.092a27.222,27.222,0,0,1-2.7-2.26.9.9,0,0,1-.019-1.351c.3-.265,1-.507,1.232-.344a34.622,34.622,0,0,1,2.938,2.427C-2740.564,1839.775-2740.552,1840.022-2740.524,1840.1Z" transform="translate(2752.855 -1824.392)" fill="#fff"/>
      <path id="Path_97038" data-name="Path 97038" d="M-2767.264,2079.036a4.948,4.948,0,0,1,.994.966.9.9,0,0,1-.368,1.241c-1.019.571-2.063,1.1-3.127,1.587a.873.873,0,0,1-1.211-.441c-.144-.362-.177-1.081.024-1.215C-2769.807,2080.412-2768.576,2079.776-2767.264,2079.036Z" transform="translate(2774.883 -2029.825)" fill="#fff"/>
      <path id="Path_97039" data-name="Path 97039" d="M-2729.436,2129.642c.257.2.676.381.811.685a1.245,1.245,0,0,1-.055,1.1,29.236,29.236,0,0,1-2.577,2.487.958.958,0,0,1-1.406-.189.961.961,0,0,1-.065-1.363c.8-.851,1.67-1.638,2.534-2.428A2.645,2.645,0,0,1-2729.436,2129.642Z" transform="translate(2742.509 -2072.81)" fill="#fff"/>
      <path id="Path_97050" data-name="Path 97050" d="M-2496.32,1862.887a7.8,7.8,0,0,1,10.089-7.5,1.144,1.144,0,0,1,.934,1.457,1.142,1.142,0,0,1-1.585.706,5.516,5.516,0,0,0-4.484.526,5.615,5.615,0,0,0-2.239,7,5.485,5.485,0,0,0,6.866,3.019,5.584,5.584,0,0,0,3.575-6.354c-.048-.22-.111-.437-.151-.658a1.122,1.122,0,0,1,.81-1.4,1.112,1.112,0,0,1,1.372.856,7.786,7.786,0,0,1-.155,5.083,7.79,7.79,0,0,1-9.89,4.589A7.886,7.886,0,0,1-2496.32,1862.887Z" transform="translate(2541.487 -1839.562)" fill="#fff"/>
      <path id="Path_97051" data-name="Path 97051" d="M-2467.005,1888.612a3.96,3.96,0,0,1-3.957-3.962,3.968,3.968,0,0,1,3.928-3.918,3.933,3.933,0,0,1,3.941,3.964A3.924,3.924,0,0,1-2467.005,1888.612Zm1.642-3.967a1.654,1.654,0,0,0-1.683-1.648,1.707,1.707,0,0,0-1.646,1.705,1.7,1.7,0,0,0,1.7,1.647A1.653,1.653,0,0,0-2465.364,1884.645Z" transform="translate(2519.948 -1861.383)" fill="#fff"/>
    </g>
  </g>
</svg>
