<svg xmlns="http://www.w3.org/2000/svg" width="112" height="112" viewBox="0 0 112 112">
  <g id="Group_154292" data-name="Group 154292" transform="translate(8141.329 9552.205)">
    <circle id="Ellipse_5472" data-name="Ellipse 5472" cx="56" cy="56" r="56" transform="translate(-8141.329 -9552.205)" fill="#baa1e1"/>
    <path id="Path_67883" data-name="Path 67883" d="M229.94,216.429a6.436,6.436,0,1,1,6.436-6.436A6.443,6.443,0,0,1,229.94,216.429Zm0-11.154a4.718,4.718,0,1,0,4.718,4.718A4.723,4.723,0,0,0,229.94,205.275Z" transform="translate(-8322.736 -9723.253)" fill="#fff"/>
    <path id="Path_67884" data-name="Path 67884" d="M229.94,250.687a6.436,6.436,0,1,1,6.436-6.436A6.443,6.443,0,0,1,229.94,250.687Zm0-11.154a4.718,4.718,0,1,0,4.718,4.718A4.723,4.723,0,0,0,229.94,239.533Z" transform="translate(-8322.736 -9739.613)" fill="#fff"/>
    <path id="Path_67885" data-name="Path 67885" d="M229.94,284.945a6.436,6.436,0,1,1,6.436-6.436A6.443,6.443,0,0,1,229.94,284.945Zm0-11.153a4.717,4.717,0,1,0,4.718,4.717A4.722,4.722,0,0,0,229.94,273.792Z" transform="translate(-8322.736 -9755.974)" fill="#fff"/>
    <path id="Path_67886" data-name="Path 67886" d="M207.7,200.446h-5.637a2.344,2.344,0,1,1,0-4.688H207.7a2.344,2.344,0,1,1,0,4.688Zm-5.637-2.97a.626.626,0,1,0,0,1.251H207.7a.626.626,0,1,0,0-1.251Z" transform="translate(-8311.378 -9719.528)" fill="#fff"/>
    <path id="Path_67887" data-name="Path 67887" d="M207.7,220.4h-5.637a2.344,2.344,0,0,1,0-4.688H207.7a2.344,2.344,0,0,1,0,4.688Zm-5.637-2.97a.626.626,0,1,0,0,1.252H207.7a.626.626,0,0,0,0-1.252Z" transform="translate(-8311.378 -9729.058)" fill="#fff"/>
    <path id="Path_67888" data-name="Path 67888" d="M207.7,240.356h-5.637a2.344,2.344,0,0,1,0-4.688H207.7a2.344,2.344,0,0,1,0,4.688Zm-5.637-2.97a.626.626,0,0,0,0,1.252H207.7a.626.626,0,0,0,0-1.252Z" transform="translate(-8311.378 -9738.588)" fill="#fff"/>
    <path id="Path_67889" data-name="Path 67889" d="M207.7,260.312h-5.637a2.344,2.344,0,0,1,0-4.688H207.7a2.344,2.344,0,0,1,0,4.688Zm-5.637-2.97a.626.626,0,0,0,0,1.252H207.7a.626.626,0,0,0,0-1.252Z" transform="translate(-8311.378 -9748.117)" fill="#fff"/>
    <path id="Path_67890" data-name="Path 67890" d="M207.7,280.268h-5.637a2.344,2.344,0,0,1,0-4.689H207.7a2.344,2.344,0,0,1,0,4.689Zm-5.637-2.97a.626.626,0,1,0,0,1.252H207.7a.626.626,0,1,0,0-1.252Z" transform="translate(-8311.378 -9757.647)" fill="#fff"/>
    <path id="Path_67891" data-name="Path 67891" d="M207.7,300.224h-5.637a2.344,2.344,0,1,1,0-4.688H207.7a2.344,2.344,0,1,1,0,4.688Zm-5.637-2.97a.626.626,0,1,0,0,1.252H207.7a.626.626,0,0,0,0-1.252Z" transform="translate(-8311.378 -9767.178)" fill="#fff"/>
    <path id="Path_67892" data-name="Path 67892" d="M255.475,252.885H210.89a2.007,2.007,0,0,1-2-2v-2.462a.859.859,0,0,1,.859-.859h2.334a.625.625,0,0,0,.625-.66.69.69,0,0,0-.709-.591h-2.25a.859.859,0,0,1-.859-.859v-7.455a.859.859,0,0,1,.859-.859h2.334a.625.625,0,0,0,.625-.66.69.69,0,0,0-.709-.591h-2.25a.859.859,0,0,1-.859-.859v-7.455a.859.859,0,0,1,.859-.859h2.334a.626.626,0,0,0,.625-.661.69.69,0,0,0-.709-.591h-2.25a.859.859,0,0,1-.859-.859v-7.455a.859.859,0,0,1,.859-.859h2.334a.626.626,0,0,0,.625-.66.69.69,0,0,0-.709-.592h-2.25a.859.859,0,0,1-.859-.859v-7.456a.859.859,0,0,1,.859-.859h2.334a.626.626,0,0,0,.625-.661.69.69,0,0,0-.709-.591h-2.25a.859.859,0,0,1-.859-.859v-7.455a.859.859,0,0,1,.859-.859h2.334a.625.625,0,0,0,.625-.661.69.69,0,0,0-.709-.591h-2.25a.859.859,0,0,1-.859-.859v-2.461a2.006,2.006,0,0,1,2-2h44.585a2.007,2.007,0,0,1,2,2v60.021A2.007,2.007,0,0,1,255.475,252.885ZM210.6,249.278v1.6a.287.287,0,0,0,.286.286h44.585a.286.286,0,0,0,.286-.286V190.859a.286.286,0,0,0-.286-.286H210.89a.287.287,0,0,0-.286.286v1.6h1.391a2.388,2.388,0,0,1,2.425,2.22,2.324,2.324,0,0,1-.641,1.738,2.354,2.354,0,0,1-1.7.731H210.6v5.738h1.391a2.388,2.388,0,0,1,2.425,2.219,2.325,2.325,0,0,1-.641,1.738,2.354,2.354,0,0,1-1.7.731H210.6v5.737h1.391a2.388,2.388,0,0,1,2.425,2.22,2.323,2.323,0,0,1-.641,1.738,2.352,2.352,0,0,1-1.7.731H210.6v5.738h1.391a2.388,2.388,0,0,1,2.425,2.22,2.324,2.324,0,0,1-.641,1.738,2.352,2.352,0,0,1-1.7.731H210.6v5.738h1.391a2.388,2.388,0,0,1,2.425,2.22,2.324,2.324,0,0,1-.641,1.738,2.352,2.352,0,0,1-1.7.731H210.6v5.738h1.391a2.387,2.387,0,0,1,2.425,2.219,2.325,2.325,0,0,1-.641,1.738,2.353,2.353,0,0,1-1.7.731Z" transform="translate(-8315.756 -9716.232)" fill="#fff"/>
    <path id="Path_67893" data-name="Path 67893" d="M235.037,233.368a.859.859,0,0,1-.859-.859v-6.744a.859.859,0,1,1,1.718,0v6.744A.859.859,0,0,1,235.037,233.368Z" transform="translate(-8327.834 -9733.447)" fill="#fff"/>
    <path id="Path_67894" data-name="Path 67894" d="M235.037,267.626a.859.859,0,0,1-.859-.859v-6.745a.859.859,0,1,1,1.718,0v6.745A.859.859,0,0,1,235.037,267.626Z" transform="translate(-8327.834 -9749.808)" fill="#fff"/>
    <path id="Path_67895" data-name="Path 67895" d="M255.946,208.649h-2.577a.859.859,0,0,1,0-1.718h2.577a.859.859,0,0,1,0,1.718Z" transform="translate(-8336.588 -9724.864)" fill="#fff"/>
    <path id="Path_67896" data-name="Path 67896" d="M272.843,208.649h-4.99a.859.859,0,0,1,0-1.718h4.99a.859.859,0,0,1,0,1.718Z" transform="translate(-8343.505 -9724.864)" fill="#fff"/>
    <path id="Path_67897" data-name="Path 67897" d="M289.532,208.649h-2.577a.859.859,0,0,1,0-1.718h2.577a.859.859,0,0,1,0,1.718Z" transform="translate(-8352.627 -9724.864)" fill="#fff"/>
    <path id="Path_67898" data-name="Path 67898" d="M273.493,223.249H253.369a.859.859,0,1,1,0-1.718h20.124a.859.859,0,0,1,0,1.718Z" transform="translate(-8336.588 -9731.836)" fill="#fff"/>
    <path id="Path_67899" data-name="Path 67899" d="M273.493,242.907H253.369a.859.859,0,0,1,0-1.718h20.124a.859.859,0,0,1,0,1.718Z" transform="translate(-8336.588 -9741.225)" fill="#fff"/>
    <path id="Path_67900" data-name="Path 67900" d="M273.493,257.507H253.369a.859.859,0,0,1,0-1.718h20.124a.859.859,0,0,1,0,1.718Z" transform="translate(-8336.588 -9748.196)" fill="#fff"/>
    <path id="Path_67901" data-name="Path 67901" d="M273.493,277.166H253.369a.859.859,0,0,1,0-1.718h20.124a.859.859,0,0,1,0,1.718Z" transform="translate(-8336.588 -9757.585)" fill="#fff"/>
    <path id="Path_67902" data-name="Path 67902" d="M273.493,291.765H253.369a.859.859,0,0,1,0-1.718h20.124a.859.859,0,0,1,0,1.718Z" transform="translate(-8336.588 -9764.557)" fill="#fff"/>
  </g>
</svg>
